<svg xmlns="http://www.w3.org/2000/svg" viewBox="0 0 313.38 38.31"><defs><style>.cls-1{fill:#3d4655;}.cls-2{fill:#3dc0df;}</style></defs><g id="Layer_2" data-name="Layer 2"><g id="Layer_1-2" data-name="Layer 1"><path class="cls-1" d="M305.59,2.91h-2.31V9.72h-.57V2.91H300.4V2.38h5.19Z"/><path class="cls-1" d="M313.38,9.72h-.55V3.2l-2.72,4.51H310L307.3,3.2V9.72h-.56V2.38h.7l2.62,4.34,2.62-4.34h.7Z"/><polygon class="cls-2" points="213.88 0 193.6 16.81 198.35 23.22 213.88 0"/><polygon class="cls-2" points="197.73 38.31 220.2 19.69 214.94 12.59 197.73 38.31"/><path class="cls-1" d="M245,11.85v21h-6.3v-2a7.86,7.86,0,0,1-6.25,2.57c-5.5,0-10-4.83-10-11.09s4.54-11.08,10-11.08a7.85,7.85,0,0,1,6.25,2.56v-2Zm-6.3,10.5a5,5,0,1,0-10,0,5,5,0,1,0,10,0Z"/><path class="cls-1" d="M249.26,2.2h6.3V32.85h-6.3Z"/><path class="cls-1" d="M270.51,27.81a5.46,5.46,0,0,0,4-1.6l5,2.9c-2.06,2.86-5.17,4.33-9.16,4.33-7.18,0-11.63-4.83-11.63-11.09A10.76,10.76,0,0,1,270,11.27c6.13,0,10.67,4.74,10.67,11.08a12.09,12.09,0,0,1-.26,2.52h-14.9C266.26,27.05,268.2,27.81,270.51,27.81Zm3.86-7.64a4.73,4.73,0,0,0-9,0Z"/><path class="cls-1" d="M299.64,26.55c0,4.83-4.2,6.89-8.73,6.89-4.2,0-7.39-1.6-9-5l5.46-3.11a3.45,3.45,0,0,0,3.57,2.48c1.51,0,2.27-.46,2.27-1.3,0-2.31-10.33-1.09-10.33-8.36,0-4.57,3.86-6.88,8.23-6.88a9.2,9.2,0,0,1,8.19,4.49l-5.38,2.9a3,3,0,0,0-2.81-1.85c-1.09,0-1.77.42-1.77,1.17C289.31,20.38,299.64,18.78,299.64,26.55Z"/><path class="cls-1" d="M110.13,18.15c0,8.32-6.17,14.7-14.28,14.7H84.09V3.46H95.85C104,3.46,110.13,9.84,110.13,18.15Zm-6.47,0c0-5-3.19-8.23-7.81-8.23h-5V26.38h5C100.47,26.38,103.66,23.19,103.66,18.15Z"/><path class="cls-1" d="M126.29,11.43v7.14c-2.6-.42-6.3.63-6.3,4.79v9.49h-6.3v-21H120v3.74C120.83,12.78,123.65,11.43,126.29,11.43Z"/><path class="cls-1" d="M128.6,6.23a3.78,3.78,0,1,1,7.56,0,3.78,3.78,0,1,1-7.56,0Zm.63,5.62h6.3v21h-6.3Z"/><path class="cls-1" d="M160.51,11.85l-7.77,21H145.6l-7.77-21h7l4.37,13.31,4.37-13.31Z"/><path class="cls-1" d="M172.64,27.81a5.46,5.46,0,0,0,4-1.6l5,2.9c-2.06,2.86-5.16,4.33-9.15,4.33-7.18,0-11.63-4.83-11.63-11.09A10.76,10.76,0,0,1,172.1,11.27c6.13,0,10.66,4.74,10.66,11.08a12.1,12.1,0,0,1-.25,2.52H167.6C168.4,27.05,170.33,27.81,172.64,27.81Zm3.86-7.64a4.72,4.72,0,0,0-9,0Z"/><path class="cls-1" d="M21.83,9.92H14.28V32.85H7.56V9.92H0V3.46H21.83Z"/><path class="cls-1" d="M44.72,20V32.85h-6.3v-12a3.47,3.47,0,0,0-3.66-3.82c-2.3,0-3.9,1.34-3.9,4.33V32.85h-6.3V3.46h6.3V13.83c1.13-1.56,3.23-2.56,6-2.56C41.1,11.27,44.72,14.29,44.72,20Z"/><path class="cls-1" d="M59.7,27.81a5.46,5.46,0,0,0,4-1.6l5,2.9c-2,2.86-5.16,4.33-9.15,4.33C52.44,33.44,48,28.61,48,22.35A10.76,10.76,0,0,1,59.16,11.27c6.13,0,10.66,4.74,10.66,11.08a12.1,12.1,0,0,1-.25,2.52H54.66C55.46,27.05,57.39,27.81,59.7,27.81Zm3.87-7.64a4.33,4.33,0,0,0-4.45-3.32,4.34,4.34,0,0,0-4.58,3.32Z"/></g></g></svg>