<svg xmlns="http://www.w3.org/2000/svg" xmlns:xlink="http://www.w3.org/1999/xlink" viewBox="0 0 335.34 278.1"><defs><style>.cls-1{fill-opacity:0.4;}.cls-2{fill:url(#radial-gradient);}.cls-3{fill:#00c3e6;}.cls-4{fill:#fff;}</style><radialGradient id="radial-gradient" cx="-1159.5" cy="-614.3" r="1" gradientTransform="translate(66307.76 34788) scale(56.99 56.53)" gradientUnits="userSpaceOnUse"><stop offset="0.18"/><stop offset="0.24" stop-color="#242424"/><stop offset="0.36" stop-color="#5d5d5d"/><stop offset="0.48" stop-color="#8f8f8f"/><stop offset="0.59" stop-color="#b7b7b7"/><stop offset="0.7" stop-color="#d6d6d6"/><stop offset="0.81" stop-color="#ededed"/><stop offset="0.91" stop-color="#fafafa"/><stop offset="1" stop-color="#fff"/></radialGradient></defs><g id="Layer_2" data-name="Layer 2"><g id="Layer_1-2" data-name="Layer 1"><path class="cls-1" d="M138.28,278.1a138.43,138.43,0,0,1-127.4-83.8,136.21,136.21,0,0,1,0-106.7A138.18,138.18,0,0,1,40.58,44,141.12,141.12,0,0,1,84.47,14.6,138.66,138.66,0,0,1,236,44l-3,3A134.88,134.88,0,0,0,86.47,18.7,136,136,0,0,0,44,46.9a131.95,131.95,0,0,0-.5,187.8A135,135,0,0,0,190.07,263a135,135,0,0,0,42.4-28.4,131.53,131.53,0,0,0,39-93.8v-2.1h59.2v4.2H276a132.87,132.87,0,0,1-10.9,51.2,138.53,138.53,0,0,1-73.6,73.1A130,130,0,0,1,138.28,278.1Z"/><path class="cls-2" d="M228,113c31.5,0,57-25.3,57-56.5S259.47,0,228,0s-57,25.3-57,56.5S196.47,113,228,113Z"/><path class="cls-3" d="M261.07,79.5a36.76,36.76,0,0,0,.4-51.9l-.4-.4a37.79,37.79,0,0,0-52.9,0,36.76,36.76,0,0,0-.39,51.9l.39.4A37.6,37.6,0,0,0,261.07,79.5Z"/><path class="cls-4" d="M234.57,93.5a40.2,40.2,0,1,1,40.5-40.2,40.2,40.2,0,0,1-40.5,40.2Zm0-74a33.85,33.85,0,1,0,34.1,33.8A33.78,33.78,0,0,0,234.57,19.5Z"/><path class="cls-3" d="M141.87,73.7h-9.6a1.1,1.1,0,0,1-.2-2.2h9.8a1.09,1.09,0,0,1,1.1.9v.1A1.39,1.39,0,0,1,141.87,73.7Z"/><path class="cls-3" d="M140.17,77.3h-6a1.1,1.1,0,0,1-.2-2.2h6.2a1.1,1.1,0,0,1,1.11.9v.1A1.41,1.41,0,0,1,140.17,77.3Z"/><path class="cls-3" d="M142.07,68.8h-10c-.5,0-.8-.4-.9-.9a10.16,10.16,0,0,0-3.2-7,12.83,12.83,0,0,1-4.5-9.5c0-7,6-12.7,13.4-12.7s13.4,5.7,13.4,12.7h0a12,12,0,0,1-4.5,9.5,9.22,9.22,0,0,0-3.2,7A.57.57,0,0,1,142.07,68.8Zm-9.4-1.6h8.5A10.34,10.34,0,0,1,145,60a10.77,10.77,0,0,0,.7-15.8,12.43,12.43,0,0,0-16.7-.7,11,11,0,0,0-3.8,8.2,11.76,11.76,0,0,0,3.8,8.2A10.81,10.81,0,0,1,132.67,67.2Z"/><path class="cls-3" d="M133.28,46.6a7.06,7.06,0,0,0-2.81,9.5h0a1.1,1.1,0,0,1-.39,1.3c-.2,0-.2.2-.4.2a1.49,1.49,0,0,1-.9-.4,9,9,0,0,1,3.4-12.1,1.09,1.09,0,0,1,1.3.4C134,45.8,133.78,46.4,133.28,46.6Z"/><path class="cls-4" d="M226.67,65.2a7.63,7.63,0,0,1-6.8-3.2,15.8,15.8,0,0,1,0-16.5,9,9,0,0,1,12.6-1.1,12.72,12.72,0,0,1,1.11,1.1,15.8,15.8,0,0,1,0,16.5A8.58,8.58,0,0,1,226.67,65.2Zm-3.2-16.7a14,14,0,0,0,0,10.6,3.66,3.66,0,0,0,4.9,1.5,3.61,3.61,0,0,0,1.5-1.5,13.9,13.9,0,0,0,0-10.6A3.66,3.66,0,0,0,225,47,2.82,2.82,0,0,0,223.47,48.5Z"/><path class="cls-4" d="M238,42.9h9v22h-4.7V47.2H238Z"/><path d="M316.54,158.22l-3-3,15.4-14.2-15.4-14.4,3-3,18.8,17.4Z"/></g></g></svg>