<svg xmlns="http://www.w3.org/2000/svg" xmlns:xlink="http://www.w3.org/1999/xlink" viewBox="0 0 284.68 278.1"><defs><style>.cls-1{fill-opacity:0.4;}.cls-2{fill:url(#radial-gradient);}.cls-3{fill:#fa0;}.cls-4{fill:#fff;}</style><radialGradient id="radial-gradient" cx="-1739.11" cy="1184.59" r="1" gradientTransform="matrix(56.99, 0, 0, -56.54, 99339.06, 67028.67)" gradientUnits="userSpaceOnUse"><stop offset="0.18"/><stop offset="0.24" stop-color="#242424"/><stop offset="0.36" stop-color="#5d5d5d"/><stop offset="0.48" stop-color="#8f8f8f"/><stop offset="0.59" stop-color="#b7b7b7"/><stop offset="0.7" stop-color="#d6d6d6"/><stop offset="0.81" stop-color="#ededed"/><stop offset="0.91" stop-color="#fafafa"/><stop offset="1" stop-color="#fff"/></radialGradient></defs><g id="Layer_2" data-name="Layer 2"><g id="Layer_1-2" data-name="Layer 1"><path class="cls-1" d="M138.28,278.1a138.47,138.47,0,0,1-127.4-83.8,136.21,136.21,0,0,1,0-106.7A138.18,138.18,0,0,1,40.58,44a140.93,140.93,0,0,1,43.9-29.4A138.66,138.66,0,0,1,236,44l-3,3A134.72,134.72,0,0,0,86.48,18.6,135.12,135.12,0,0,0,44,46.9a132.3,132.3,0,0,0,0,187.6,134.88,134.88,0,0,0,146.6,28.4,136.56,136.56,0,0,0,42.5-28.4,131.57,131.57,0,0,0,39-93.8h4.3a133.85,133.85,0,0,1-10.8,53.3,138.35,138.35,0,0,1-29.7,43.6,140.45,140.45,0,0,1-44,29.4A132.36,132.36,0,0,1,138.28,278.1Z"/><path class="cls-2" d="M227.68,113c31.5,0,57-25.3,57-56.5S259.18,0,227.68,0s-57,25.3-57,56.5S196.18,113,227.68,113Z"/><path class="cls-3" d="M271.28,59.2a37.36,37.36,0,1,0-43,30.7h.2a37,37,0,0,0,42.7-30.2A.75.75,0,0,0,271.28,59.2Z"/><path class="cls-4" d="M234.48,93.5A40.2,40.2,0,1,1,275,53.3a40.2,40.2,0,0,1-40.5,40.2Zm0-74a33.85,33.85,0,1,0,34.1,33.8A33.84,33.84,0,0,0,234.48,19.5Z"/><path class="cls-3" d="M130.28,74.2l5.5-5.5,2.1,2.3,10.7-10.4,1.7,1.7.6-4.2.2-.2v-.2l.4-3-7.7,1.3,1.9,1.9-7.9,7.8-2.1-2.3-6,5.7V52h-3.2V77.6h25.8V74.2Z"/><path class="cls-4" d="M223.18,65.2a7.63,7.63,0,0,1-6.8-3.2,15.8,15.8,0,0,1,0-16.5A9,9,0,0,1,229,44.4a11.41,11.41,0,0,1,1.1,1.1,15.84,15.84,0,0,1,0,16.5A8.3,8.3,0,0,1,223.18,65.2Zm-3.4-16.7a13.9,13.9,0,0,0,0,10.6,3.66,3.66,0,0,0,4.9,1.5,3.61,3.61,0,0,0,1.5-1.5,13.9,13.9,0,0,0,0-10.6,3.31,3.31,0,0,0-3.2-1.9A3.7,3.7,0,0,0,219.78,48.5Z"/><path class="cls-4" d="M235.78,47.2V42.9h13.4v3.4l-4.5,5.1a6.06,6.06,0,0,1,4,2.1,5.85,5.85,0,0,1,1.5,4,7.47,7.47,0,0,1-2.3,5.5,9.17,9.17,0,0,1-6,1.9,14.3,14.3,0,0,1-7.5-2.5l1.9-3.8a10.09,10.09,0,0,0,5.5,2.1,4.38,4.38,0,0,0,2.3-.6,2.59,2.59,0,0,0,.5-3.7c-.2-.2-.3-.4-.5-.5a3.66,3.66,0,0,0-3-.8,15.94,15.94,0,0,0-3,.6V52.1l4.3-4.9Z"/></g></g></svg>