<svg xmlns="http://www.w3.org/2000/svg" xmlns:xlink="http://www.w3.org/1999/xlink" viewBox="0 0 284.67 337.69"><defs><style>.cls-1{fill-opacity:0.4;}.cls-2{opacity:0.4;}.cls-3{fill:url(#radial-gradient);}.cls-4{fill:#4b3ad1;}.cls-5{fill:#fff;}</style><radialGradient id="radial-gradient" cx="-2036.97" cy="1557.27" r="1" gradientTransform="matrix(56.99, 0, 0, -56.53, 116314.87, 88093.48)" gradientUnits="userSpaceOnUse"><stop offset="0.18"/><stop offset="0.24" stop-color="#242424"/><stop offset="0.36" stop-color="#5d5d5d"/><stop offset="0.48" stop-color="#8f8f8f"/><stop offset="0.59" stop-color="#b7b7b7"/><stop offset="0.7" stop-color="#d6d6d6"/><stop offset="0.81" stop-color="#ededed"/><stop offset="0.91" stop-color="#fafafa"/><stop offset="1" stop-color="#fff"/></radialGradient></defs><g id="Layer_2" data-name="Layer 2"><g id="Layer_1-2" data-name="Layer 1"><path class="cls-1" d="M276.3,142.9a132.72,132.72,0,0,1-10.9,51.2,138.23,138.23,0,0,1-29.7,43.6,140.33,140.33,0,0,1-44,29.4,132,132,0,0,1-53.43,11A138.46,138.46,0,0,1,10.88,194.3a136.21,136.21,0,0,1,0-106.7A138.72,138.72,0,0,1,236,44l-3,3A133.57,133.57,0,0,0,138.48,8.3a135.06,135.06,0,0,0-52.1,10.4A132.28,132.28,0,0,0,43.5,234.1l.5.5a133.2,133.2,0,0,0,94.5,38.7A134.28,134.28,0,0,0,233,234.6a131.49,131.49,0,0,0,39-93.8v-2.1h4.08"/><rect class="cls-2" x="115.34" y="302" width="53.28" height="4.2" transform="translate(446.09 162.12) rotate(90)"/><path class="cls-1" d="M276.08,138.7h.59"/><path class="cls-3" d="M227.67,113c31.5,0,57-25.3,57-56.5S259.17,0,227.67,0s-57,25.3-57,56.5S196.28,113,227.67,113Z"/><path class="cls-4" d="M271.28,59.2a37.32,37.32,0,1,0-43,30.6h.2a36.88,36.88,0,0,0,42.67-30l0-.2A.58.58,0,0,0,271.28,59.2Z"/><path class="cls-5" d="M234.47,93.5A40.2,40.2,0,1,1,275,53.3C275.08,75.5,256.67,93.5,234.47,93.5Zm0-74a33.92,33.92,0,1,0,.36,0Z"/><path class="cls-4" d="M118.17,55.2V75.5h30.3V55.2Zm15.1,10.6-11.5-8.9h23Zm-4-.6-9.39,7.6V58.2Zm1.4,1,2.6,1.9,2.61-1.9,9.2,7.4h-23.5Zm6.71-1,9.2-7V72.8Z"/><path class="cls-5" d="M223.88,65.2a7.61,7.61,0,0,1-6.8-3.2,15.8,15.8,0,0,1,0-16.5,9,9,0,0,1,12.59-1.1,8.79,8.79,0,0,1,1.1,1.1,15.8,15.8,0,0,1,0,16.5A8.56,8.56,0,0,1,223.88,65.2Zm-3.21-16.7a13.9,13.9,0,0,0,0,10.6,3.63,3.63,0,0,0,6.41,0,13.9,13.9,0,0,0,0-10.6,3.67,3.67,0,0,0-4.91-1.5A2.76,2.76,0,0,0,220.67,48.5Z"/><path class="cls-5" d="M245.17,51.4a3.34,3.34,0,0,0,.31-4.2,2.21,2.21,0,0,0-1.9-.6c-1.5,0-2.8,1.1-4.1,3l-4-2.3a11.81,11.81,0,0,1,3.4-3.6,8.58,8.58,0,0,1,4.7-1.3,7.84,7.84,0,0,1,5.1,1.9,6.53,6.53,0,0,1,1.3,8,30,30,0,0,1-3.2,4L243,60.5h8.7v4.4H236.1V61.3l6.4-6.6A21.18,21.18,0,0,0,245.17,51.4Z"/><path d="M124.68,318.65l3-3,14,15.6,14.61-15.19,3,3-17.66,18.55Z"/></g></g></svg>