<svg xmlns="http://www.w3.org/2000/svg" xmlns:xlink="http://www.w3.org/1999/xlink" viewBox="0 0 336.93 278.1"><defs><style>.cls-1{fill-opacity:0.4;}.cls-2{fill:url(#radial-gradient);}.cls-3{fill:#4b3ad1;}.cls-4{fill:#fff;}</style><radialGradient id="radial-gradient" cx="-1231.26" cy="-888.01" r="1" gradientTransform="translate(70397.54 50260.38) scale(56.99 56.53)" gradientUnits="userSpaceOnUse"><stop offset="0.18"/><stop offset="0.24" stop-color="#242424"/><stop offset="0.36" stop-color="#5d5d5d"/><stop offset="0.48" stop-color="#8f8f8f"/><stop offset="0.59" stop-color="#b7b7b7"/><stop offset="0.7" stop-color="#d6d6d6"/><stop offset="0.81" stop-color="#ededed"/><stop offset="0.91" stop-color="#fafafa"/><stop offset="1" stop-color="#fff"/></radialGradient></defs><g id="Layer_2" data-name="Layer 2"><g id="Layer_1-2" data-name="Layer 1"><path class="cls-1" d="M138.27,278.1A138.45,138.45,0,0,1,10.88,194.3a136.21,136.21,0,0,1,0-106.7A138.35,138.35,0,0,1,40.58,44,138.66,138.66,0,0,1,236,44l-3,3A133.59,133.59,0,0,0,138.48,8.3a135,135,0,0,0-52.1,10.4A132.9,132.9,0,0,0,44,47a132.3,132.3,0,0,0,0,187.6,133.2,133.2,0,0,0,94.5,38.7,134.82,134.82,0,0,0,52-10.4A133.44,133.44,0,0,0,233,234.6a131.53,131.53,0,0,0,39-93.8v-2.1h59.1v4.2h-54.8a132.87,132.87,0,0,1-10.9,51.2,138.35,138.35,0,0,1-29.7,43.6,140.33,140.33,0,0,1-44,29.4A132,132,0,0,1,138.27,278.1Z"/><path class="cls-2" d="M227.67,113c31.5,0,57-25.3,57-56.5S259.17,0,227.67,0s-57,25.3-57,56.5S196.28,113,227.67,113Z"/><path class="cls-3" d="M271.28,59.2a37.32,37.32,0,1,0-43,30.6h.2a36.88,36.88,0,0,0,42.7-30.2A.6.6,0,0,0,271.28,59.2Z"/><path class="cls-4" d="M234.47,93.5A40.2,40.2,0,1,1,275,53.3C275.08,75.5,256.67,93.5,234.47,93.5Zm0-74a33.85,33.85,0,1,0,34.1,33.8A33.77,33.77,0,0,0,234.47,19.5Z"/><path class="cls-3" d="M118.17,55.2V75.5h30.3V55.2Zm15.1,10.6-11.5-8.9h23Zm-4-.6-9.39,7.6V58.2Zm1.4,1,2.6,1.9,2.61-1.9,9.2,7.4h-23.5Zm6.71-1,9.2-7V72.8Z"/><path class="cls-4" d="M223.88,65.2a7.61,7.61,0,0,1-6.8-3.2,15.8,15.8,0,0,1,0-16.5,9,9,0,0,1,12.59-1.1,9.52,9.52,0,0,1,1.1,1.1,15.8,15.8,0,0,1,0,16.5A8.55,8.55,0,0,1,223.88,65.2Zm-3.21-16.7a13.9,13.9,0,0,0,0,10.6,3.67,3.67,0,0,0,4.91,1.5,3.72,3.72,0,0,0,1.5-1.5,13.9,13.9,0,0,0,0-10.6,3.67,3.67,0,0,0-4.91-1.5A2.76,2.76,0,0,0,220.67,48.5Z"/><path class="cls-4" d="M245.17,51.4a3.35,3.35,0,0,0,.91-2.3,3.29,3.29,0,0,0-.6-1.9,2.21,2.21,0,0,0-1.9-.6c-1.5,0-2.8,1.1-4.1,3l-4-2.3a11.7,11.7,0,0,1,3.4-3.6,8.54,8.54,0,0,1,4.7-1.3,7.84,7.84,0,0,1,5.1,1.9,6.54,6.54,0,0,1,1.3,8,31.17,31.17,0,0,1-3.2,4L243,60.5h8.7v4.4h-15.6V61.3l6.4-6.6A21.52,21.52,0,0,0,245.17,51.4Z"/><path d="M318.13,158.22l-3-3,15.4-14.2-15.4-14.4,3-3,18.8,17.4Z"/></g></g></svg>