<svg xmlns="http://www.w3.org/2000/svg" xmlns:xlink="http://www.w3.org/1999/xlink" viewBox="0 0 290.79 333.97"><defs><style>.cls-1{fill-opacity:0.4;}.cls-2{opacity:0.4;}.cls-3{fill:url(#radial-gradient);}.cls-4{fill:#00c3e6;}.cls-5{fill:#fff;}</style><radialGradient id="radial-gradient" cx="-1965.11" cy="1279.7" r="1" gradientTransform="matrix(56.99, 0, 0, -56.53, 112225.08, 72406.88)" gradientUnits="userSpaceOnUse"><stop offset="0.18"/><stop offset="0.24" stop-color="#242424"/><stop offset="0.36" stop-color="#5d5d5d"/><stop offset="0.48" stop-color="#8f8f8f"/><stop offset="0.59" stop-color="#b7b7b7"/><stop offset="0.7" stop-color="#d6d6d6"/><stop offset="0.81" stop-color="#ededed"/><stop offset="0.91" stop-color="#fafafa"/><stop offset="1" stop-color="#fff"/></radialGradient></defs><g id="Layer_2" data-name="Layer 2"><g id="Layer_1-2" data-name="Layer 1"><path class="cls-1" d="M276.3,139.18a132.72,132.72,0,0,1-10.9,51.2A138.35,138.35,0,0,1,235.7,234a140.33,140.33,0,0,1-44,29.4,132.18,132.18,0,0,1-53.43,11,138.47,138.47,0,0,1-127.39-83.8,136.21,136.21,0,0,1,0-106.7A138.72,138.72,0,0,1,236,40.28l-3,3a134.45,134.45,0,0,0-189,0,132.3,132.3,0,0,0-.5,187.1c.17.16.34.33.5.5a133.24,133.24,0,0,0,94.5,38.7,134.9,134.9,0,0,0,52-10.4,133.39,133.39,0,0,0,42.5-28.3,131.53,131.53,0,0,0,39-93.8V135h4.08"/><rect class="cls-2" x="115.34" y="298.28" width="53.28" height="4.2" transform="translate(442.36 158.4) rotate(90)"/><path class="cls-1" d="M276.08,135h.59"/><path d="M124.68,314.93l3-3,14,15.6,14.61-15.2,3,3L141.62,334Z"/><path class="cls-3" d="M233.79,116.69c31.5,0,57-25.3,57-56.5s-25.53-56.5-57-56.5-57,25.3-57,56.5S202.26,116.69,233.79,116.69Z"/><path class="cls-4" d="M266.86,83.19a36.76,36.76,0,0,0,.4-51.9l-.4-.4a37.79,37.79,0,0,0-52.9,0,36.77,36.77,0,0,0-.39,51.9l.39.4A37.6,37.6,0,0,0,266.86,83.19Z"/><path class="cls-5" d="M240.36,97.19a40.35,40.35,0,1,1,.3,0Zm0-74a33.93,33.93,0,1,0,.34,0Z"/><path class="cls-4" d="M147.66,77.39h-9.6a1.1,1.1,0,0,1-.2-2.2h9.8a1.09,1.09,0,0,1,1.1.9v.1A1.38,1.38,0,0,1,147.66,77.39Z"/><path class="cls-4" d="M146,81h-6a1.1,1.1,0,1,1-.2-2.2H146a1.11,1.11,0,0,1,1.11.9v.1A1.39,1.39,0,0,1,146,81Z"/><path class="cls-4" d="M147.86,72.49h-10c-.5,0-.8-.4-.9-.9a10.1,10.1,0,0,0-3.2-7,12.85,12.85,0,0,1-4.5-9.5c0-7,6-12.7,13.4-12.7s13.4,5.7,13.4,12.7h0a12,12,0,0,1-4.5,9.5,9.26,9.26,0,0,0-3.2,7,.57.57,0,0,1-.5.9Zm-9.4-1.6H147a10.35,10.35,0,0,1,3.83-7.2,10.77,10.77,0,0,0,1.27-15.18c-.18-.21-.37-.42-.57-.62a12.43,12.43,0,0,0-16.7-.7,11,11,0,0,0-3.8,8.2,11.78,11.78,0,0,0,3.8,8.2,10.81,10.81,0,0,1,3.67,7.3Z"/><path class="cls-4" d="M139.07,50.29a7.07,7.07,0,0,0-2.81,9.5h0a1.08,1.08,0,0,1-.39,1.3c-.2,0-.2.2-.4.2a1.54,1.54,0,0,1-.9-.4,9,9,0,0,1,3.4-12.1,1.08,1.08,0,0,1,1.3.4C139.79,49.49,139.57,50.09,139.07,50.29Z"/><path class="cls-5" d="M232.46,68.89a7.63,7.63,0,0,1-6.8-3.2,15.8,15.8,0,0,1,0-16.5,9,9,0,0,1,12.6-1.1,11.53,11.53,0,0,1,1.11,1.1,15.8,15.8,0,0,1,0,16.5A8.57,8.57,0,0,1,232.46,68.89Zm-3.2-16.7a14,14,0,0,0,0,10.6,3.66,3.66,0,0,0,4.9,1.5,3.62,3.62,0,0,0,1.5-1.5,13.9,13.9,0,0,0,0-10.6,3.66,3.66,0,0,0-4.87-1.5A2.88,2.88,0,0,0,229.26,52.19Z"/><path class="cls-5" d="M243.79,46.59h9v22h-4.7V50.89h-4.3Z"/></g></g></svg>