<?xml version="1.0"?>
<svg xmlns="http://www.w3.org/2000/svg" id="Capa_1" enable-background="new 0 0 512 512" height="512px" viewBox="0 0 512 512" width="512px" class=""><g><g><path d="m111.687 218.158v-127.644c0-4.139 3.345-7.512 7.483-7.512h14.826l-43.654-50.967-43.654 50.967h14.797c4.139 0 7.512 3.373 7.512 7.512v127.672zm347.927 68.145-45.723-15.478-30.161 14.77v14.174c0 10.432 4.281 19.898 11.169 26.787 6.86 6.859 16.356 11.141 26.788 11.141 10.402 0 19.898-4.281 26.759-11.141 6.888-6.889 11.168-16.355 11.168-26.787zm-75.884-17.348 25.909-12.672c1.815-1.049 4.025-1.332 6.151-.623l43.823 14.854v-19.445c0-4.904-2.04-9.383-5.272-12.643-3.26-3.26-7.738-5.273-12.67-5.273h-39.997c-4.933 0-9.411 2.014-12.671 5.273-3.232 3.26-5.273 7.738-5.273 12.643zm-331.316-10.715h75.855v-25.088h-57.94c-4.904 0-9.383 2.014-12.643 5.273-3.26 3.26-5.272 7.738-5.272 12.67zm75.856 15.024h-75.856v26.504c0 10.432 4.252 19.898 11.14 26.787 6.889 6.859 16.357 11.141 26.788 11.141s19.898-4.281 26.787-11.141c6.859-6.889 11.141-16.355 11.141-26.787zm165.658-89.207c-11.905 1.898-32.315 2.154-49.039-12.955-5.727 3.459-15.223 7.541-26.816 6.266v21.6c0 4.848.907 9.469 2.552 13.664 1.049 2.691 2.381 5.215 3.968 7.568 3.572-1.334 7.398-2.041 11.424-2.041h39.997c3.997 0 7.852.707 11.396 2.041 1.587-2.354 2.947-4.877 3.969-7.568 1.643-4.195 2.551-8.816 2.551-13.664v-14.911zm-75.856-21.77c8.192 1.445 16.583-1.219 22.791-6.605 3.146-2.721 7.852-2.381 10.545.766 13.946 16.016 33.448 14.371 42.52 12.443v-18.623c0-4.904-2.013-9.41-5.272-12.643-3.232-3.26-7.739-5.271-12.643-5.271h-39.997c-4.932 0-9.411 2.012-12.671 5.271-3.26 3.232-5.272 7.738-5.272 12.643v12.019zm75.856 122.571c-11.905 1.898-32.315 2.154-49.039-12.955-5.727 3.459-15.223 7.541-26.816 6.293v21.572c0 10.432 4.28 19.898 11.141 26.787 6.888 6.859 16.355 11.141 26.787 11.141s19.899-4.281 26.787-11.141c6.889-6.889 11.141-16.355 11.141-26.787v-14.91zm-75.856-21.772c8.192 1.447 16.583-1.219 22.791-6.604 3.146-2.693 7.852-2.353 10.545.766 13.946 16.043 33.448 14.371 42.52 12.471v-18.65c0-4.904-2.013-9.383-5.272-12.643-3.232-3.26-7.739-5.273-12.643-5.273h-39.997c-4.932 0-9.411 2.014-12.671 5.273-3.26 3.26-5.272 7.738-5.272 12.643v12.017zm-164.071-40.562v-124.498h-9.383c-7.739 0-14.061-6.322-14.061-14.061 0-3.514 1.418-7.002 3.827-9.58l45.326-52.951c2.693-3.146 6.549-4.904 10.744-4.877 4.082.029 7.993 1.871 10.63 5.018l45.61 53.291c3.571 4.168 4.365 10.008 2.069 14.969-2.296 4.959-7.2 8.191-12.699 8.191h-9.384v120.133h9.101c4.138 0 7.482 3.344 7.482 7.482v40.111 34.016c0 11.764-3.883 22.648-10.402 31.435 12.727.652 24.265 6.066 32.797 14.514v-65.027c0-13.266 5.216-25.369 13.691-34.412 7.936-8.447 18.736-14.174 30.841-15.59.623-.766 1.275-1.531 1.957-2.24-2.185-3.26-4.026-6.746-5.472-10.402-2.325-5.982-3.601-12.416-3.601-19.078v-48.699c0-9.07 3.714-17.291 9.666-23.244 2.07-2.068 4.395-3.855 6.918-5.328v-23.67h-9.384c-3.686 0-7.313-1.531-9.922-4.111-2.551-2.551-4.109-6.064-4.109-9.949 0-3.6 1.502-7.285 4.053-9.863l45.072-52.668c2.692-3.146 6.576-4.904 10.743-4.877 4.11.029 8.022 1.871 10.658 5.018l45.61 53.291c3.572 4.168 4.365 10.008 2.069 14.969-2.324 4.988-7.2 8.191-12.699 8.191h-9.384v23.697c2.523 1.445 4.849 3.232 6.89 5.301 5.981 5.953 9.666 14.174 9.666 23.244v48.699c0 6.662-1.275 13.096-3.6 19.078-1.418 3.656-3.261 7.143-5.442 10.402.68.709 1.332 1.475 1.955 2.24 12.076 1.416 22.876 7.143 30.812 15.59 8.476 9.043 13.691 21.146 13.691 34.412v65.027c8.532-8.447 20.069-13.861 32.825-14.514-6.548-8.787-10.431-19.701-10.431-31.435v-48.699c0-9.043 3.713-17.293 9.666-23.244 2.068-2.07 4.393-3.855 6.917-5.301v-124.499h-9.384c-7.71 0-14.031-6.322-14.031-14.061 0-3.514 1.417-7.002 3.827-9.58l45.299-52.951c2.721-3.146 6.576-4.904 10.742-4.877 4.338.029 7.994 1.9 10.772 5.131l45.497 53.178c3.571 4.168 4.365 10.008 2.069 14.969-2.324 4.988-7.2 8.191-12.7 8.191h-9.383v124.498c2.522 1.445 4.848 3.23 6.916 5.301 5.954 5.951 9.667 14.201 9.667 23.244v48.699c0 11.734-3.883 22.648-10.433 31.435 12.871.652 24.493 6.15 33.054 14.711 9.132 9.129 14.774 21.715 14.774 35.576v94.422c0 4.422-3.26 10.148-6.321 13.209-3.09 3.09-8.787 6.322-13.295 6.322h-53.718c-4.139 0-7.512-3.375-7.512-7.512 0-4.139 3.373-7.484 7.512-7.484h23.642v-91.021c0-4.137 3.345-7.482 7.456-7.482 4.139 0 7.483 3.346 7.483 7.482v91.021h14.484c2.552-.68 4.621-2.721 5.273-5.273v-93.684c0-9.695-3.969-18.539-10.375-24.945-6.435-6.435-15.25-10.402-24.975-10.402h-14.542c-7.568 4.166-16.242 6.547-25.426 6.547-9.213 0-17.887-2.381-25.455-6.547h-14.541c-9.724 0-18.539 3.967-24.974 10.402-6.406 6.406-10.375 15.223-10.375 24.945v93.684c.652 2.553 2.722 4.594 5.273 5.273h14.457v-91.021c0-4.166 3.373-7.512 7.512-7.512s7.483 3.346 7.483 7.512v91.021h23.614c4.138 0 7.512 3.346 7.512 7.484 0 4.137-3.374 7.512-7.512 7.512h-53.831c-3.884 0-9.128-2.75-12.02-5.217-3.033 2.637-8.135 5.217-12.273 5.217h-53.576c-4.139 0-7.483-3.375-7.483-7.512 0-4.139 3.345-7.484 7.483-7.484h23.669v-91.021c0-4.137 3.347-7.482 7.456-7.482 4.139 0 7.484 3.346 7.484 7.482v91.021h14.484c2.552-.68 4.621-2.721 5.272-5.273v-93.684c0-9.695-3.997-18.539-10.403-24.945s-15.25-10.402-24.945-10.402h-14.116c-.143 0-.284 0-.426 0-7.568 4.166-16.242 6.547-25.455 6.547s-17.858-2.381-25.427-6.547h-14.542c-9.724 0-18.567 3.996-24.974 10.402-6.406 6.406-10.375 15.25-10.375 24.945v93.684c.652 2.553 2.693 4.594 5.244 5.273h14.484v-91.021c0-4.137 3.346-7.512 7.484-7.512 4.167 0 7.513 3.375 7.513 7.512v91.021h23.612c4.139 0 7.512 3.346 7.512 7.484 0 4.137-3.373 7.512-7.512 7.512h-53.831c-3.911 0-9.155-2.75-12.019-5.217-2.948 2.551-8.136 5.217-12.133 5.217h-53.717c-4.139 0-7.483-3.375-7.483-7.512 0-4.139 3.345-7.484 7.483-7.484h23.642v-91.021c0-4.137 3.345-7.482 7.483-7.482 4.11 0 7.455 3.346 7.455 7.482v91.021h14.514c2.551-.68 4.592-2.721 5.244-5.273v-93.684c0-9.695-3.969-18.539-10.375-24.945s-15.25-10.402-24.974-10.402h-14.542c-7.54 4.166-16.215 6.547-25.427 6.547-9.213 0-17.887-2.381-25.427-6.547h-14.57c-9.695 0-18.54 3.996-24.946 10.402s-10.403 15.25-10.403 24.945v93.684c.681 2.553 2.722 4.594 5.272 5.273h14.457v-91.021c0-4.137 3.373-7.512 7.513-7.512 4.139 0 7.512 3.375 7.512 7.512v91.021h23.612c4.139 0 7.484 3.346 7.484 7.484 0 4.137-3.346 7.512-7.484 7.512h-53.83c-4.45 0-10.177-3.289-13.21-6.322-3.059-3.06-6.319-8.76-6.319-13.209v-94.422c0-13.861 5.67-26.447 14.797-35.547 8.561-8.59 20.183-14.088 33.024-14.74-6.549-8.787-10.403-19.672-10.403-31.435v-34.016-14.656c0-9.07 3.685-17.32 9.667-23.271 2.041-2.071 4.365-3.856 6.916-5.301zm346.341-4.338h42.69v-127.672c0-4.139 3.345-7.512 7.483-7.512h14.797l-43.625-50.967-43.655 50.967h14.798c4.139 0 7.512 3.373 7.512 7.512zm-165.687-100.828h42.689v-26.844c0-4.139 3.373-7.512 7.512-7.512h14.798l-43.654-50.967-43.625 50.967h14.797c4.139 0 7.483 3.373 7.483 7.512zm74.269 182.41c0 11.764-3.855 22.648-10.404 31.435 12.757.652 24.266 6.066 32.826 14.514v-65.027c0-9.326-3.656-17.83-9.581-24.15-3.6-3.828-8.021-6.859-13.011-8.816.113 1.105.17 2.24.17 3.346zm-95.444 31.435c-6.52-8.787-10.404-19.672-10.404-31.435v-48.699c0-1.105.057-2.24.17-3.346-4.96 1.957-9.411 4.988-12.982 8.816-5.953 6.32-9.581 14.824-9.581 24.15v65.027c8.532-8.446 20.069-13.86 32.797-14.513z" data-original="#000000" class="active-path" data-old_color="#000000" fill="#3DC1E0"/></g></g> </svg>
