<?xml version="1.0"?>
<svg xmlns="http://www.w3.org/2000/svg" id="_x33_0" enable-background="new 0 0 64 64" height="512px" viewBox="0 0 64 64" width="512px"><g><g><circle cx="12" cy="16" r="1" data-original="#000000" class="active-path" data-old_color="#000000" fill="#3DC1E0"/><circle cx="20" cy="16" r="1" data-original="#000000" class="active-path" data-old_color="#000000" fill="#3DC1E0"/><path d="m21 21h-2c0 1.103-.897 2-2 2h-4v2h4c2.206 0 4-1.794 4-4z" data-original="#000000" class="active-path" data-old_color="#000000" fill="#3DC1E0"/><path d="m61 39h-14v-4.08c3.386-.488 6-3.401 6-6.92 0-1.208-.308-2.346-.85-3.339l3.593-3.992-1.486-1.338-3.331 3.702c-1.042-1.033-2.407-1.734-3.926-1.953v-4.16c3.386-.488 6-3.401 6-6.92 0-1.208-.308-2.346-.85-3.339l3.593-3.992-1.486-1.338-3.331 3.702c-1.267-1.256-3.007-2.033-4.926-2.033-3.519 0-6.432 2.614-6.92 6h-10.508c-1.313-4.611-5.554-8-10.58-8h-3.606c-3.576 0-6.757 2.084-8.19 5.336-2.003 1.362-3.196 3.614-3.196 6.039 0 .479.048.961.142 1.434l.582 2.908c-.454.648-.724 1.433-.724 2.283 0 2.206 1.794 4 4 4h.08c.37 2.567 2.133 4.683 4.5 5.56l-.396 1.584-2.145.429c-4.658.931-8.039 5.055-8.039 9.805v12.622h2v1c0 2.414 1.721 4.434 4 4.899v4.101h18v-4.101c2.279-.465 4-2.484 4-4.899v7c0 1.103.897 2 2 2h30c1.103 0 2-.897 2-2v-20c0-1.103-.897-2-2-2zm-38 1v13h-4.586l2.693-2.693-3.03-12.12.678-1.017 1.519 1.519 2.992-5.982c3.361.994 5.734 4.112 5.734 7.671v10.622h-4v-11zm-2.859-7.952 1.107.221-1.521 3.042-2.038-2.038zm-2.828 3.679-.848 1.273h-.93l-.848-1.273 1.313-1.313zm-1.532 3.273h.439l2.673 10.693-2.893 2.893-2.893-2.893zm31.172 15.588c-.49.523-1.415.524-1.907-.001l-12.738-13.587h27.384zm-15.953-12.06 8.254 8.804-8.254 8.254zm9.622 10.264 2.964 3.161c.622.665 1.502 1.047 2.414 1.047s1.792-.382 2.413-1.046l2.965-3.162 8.208 8.208h-27.172zm12.124-1.46 8.254-8.804v17.058zm-3.164-26.807-3.62 4.023-2.255-2.255-1.414 1.414 3.745 3.745 4.642-5.158c.196.535.32 1.104.32 1.706 0 2.757-2.243 5-5 5s-5-2.243-5-5 2.243-5 5-5c1.406 0 2.673.588 3.582 1.525zm-3.582-19.525c1.406 0 2.673.588 3.582 1.525l-3.62 4.023-2.255-2.255-1.414 1.414 3.745 3.745 4.642-5.158c.196.535.32 1.104.32 1.706 0 2.757-2.243 5-5 5s-5-2.243-5-5 2.243-5 5-5zm-6.92 6c.441 3.059 2.861 5.479 5.92 5.92v4.16c-3.386.488-6 3.401-6 6.92s2.614 6.432 6 6.92v4.08h-14c-.032 0-.063.001-.096.002-.579-4.151-3.741-7.589-7.943-8.43l-2.145-.429-.396-1.583c2.367-.876 4.13-2.993 4.5-5.56h.08c2.206 0 4-1.794 4-4 0-.85-.271-1.635-.724-2.284l.51-2.549c.142-.711.214-1.437.214-2.158 0-.341-.021-.676-.051-1.009zm-14.08 6c1.103 0 2 .897 2 2s-.897 2-2 2zm-17.636-9.041.449-.3.115-.288c1.063-2.655 3.597-4.371 6.457-4.371h3.606c4.968 0 9.009 4.041 9.009 9.009 0 .59-.059 1.185-.175 1.767l-.306 1.528c-.469-.194-.981-.304-1.519-.304h-.28c-.749-2.318-2.925-4-5.489-4h-2.323c-1.704 0-3.354-.5-4.773-1.445-.544-.364-1.178-.555-1.832-.555-1.822 0-3.303 1.481-3.303 3.303v2.697c-.538 0-1.05.11-1.52.304l-.378-1.887c-.068-.343-.102-.693-.102-1.042 0-1.778.884-3.429 2.364-4.416zm-2.364 11.041c0-1.103.897-2 2-2v4c-1.103 0-2-.897-2-2zm4 3v-9.697c0-.719.584-1.303 1.303-1.303.258 0 .508.075.723.219 1.747 1.165 3.782 1.781 5.882 1.781h2.323c2.079 0 3.769 1.69 3.769 3.769v5.231c0 2.757-2.243 5-5 5h-4c-2.757 0-5-2.243-5-5zm5 7h4c.156 0 .31-.013.464-.023l.372 1.488-2.836 1.417-2.836-1.418.372-1.488c.154.011.308.024.464.024zm-2.141 3.048 2.452 1.226-2.038 2.038-1.521-3.042zm-8.859 8.33c0-3.558 2.373-6.677 5.735-7.672l2.992 5.982 1.519-1.519.678 1.017-3.03 12.12 2.692 2.694h-4.586v-13h-2v11h-4zm2 13.622v-1h2v3.816c-1.161-.414-2-1.514-2-2.816zm12 7v-4h-2v4h-6v-6h14v6zm8-4.184v-3.816h2v1c0 1.302-.839 2.402-2 2.816z" data-original="#000000" class="active-path" data-old_color="#000000" fill="#3DC1E0"/></g></g> </svg>
