<svg xmlns="http://www.w3.org/2000/svg" xmlns:xlink="http://www.w3.org/1999/xlink" viewBox="0 0 2124.58 1724.04"><defs><style>.cls-1{fill:url(#linear-gradient);}.cls-2{fill:url(#linear-gradient-2);}.cls-3{fill:#fff;}.cls-4{fill:url(#linear-gradient-3);}.cls-5{fill:url(#linear-gradient-4);}.cls-6{fill:url(#linear-gradient-5);}.cls-7{fill:url(#linear-gradient-6);}.cls-8{fill:url(#linear-gradient-7);}.cls-9{fill:#48b1f0;}.cls-10{fill:#98a6b1;}.cls-11{fill:url(#linear-gradient-8);}.cls-12{fill:url(#linear-gradient-9);}.cls-13{fill:#385369;}.cls-14{fill:url(#linear-gradient-10);}.cls-15{fill:#fb5;}.cls-16{fill:#e09e7f;}.cls-17{fill:#323657;}.cls-18{fill:#eea987;}.cls-19{fill:#665249;}.cls-20{fill:#2e2626;}.cls-21{fill:#2f6b8c;}.cls-22{fill:#f2c344;}.cls-23{fill:#eea886;}.cls-24{fill:#a77860;}.cls-25{fill:#ffd255;}.cls-26{fill:#ffd078;}.cls-27{fill:#ffd887;}.cls-28{fill:#ffd989;}.cls-29{fill:#d6d6d6;}.cls-30{fill:#e8e8e8;}.cls-31{fill:#c2c2c2;}.cls-32{fill:#e0e0e0;}.cls-33{fill:#f5f5f5;}.cls-34{fill:#4aafff;}.cls-35{fill:#1a598c;}.cls-36{fill:#2273b5;}.cls-37{fill:#3788cc;}.cls-38{fill:#e2f3fe;}.cls-39{fill:#c5ccd1;}.cls-40{fill:#edb14f;}.cls-41{fill:#eddad3;}.cls-42{fill:#cf8c6c;}.cls-43{fill:#292c47;}.cls-44{fill:#ffbf55;}.cls-45{fill:#443c7d;}.cls-46{fill:#dedede;}.cls-47{fill:#db9c7c;}.cls-48{fill:#202338;}.cls-49{fill:#163f75;}.cls-50{fill:#5f8cc9;}.cls-51{fill:#1b4d8f;}.cls-52{fill:#3a3f47;}.cls-53{fill:#b59233;}.cls-54{fill:#5e5853;}.cls-55{fill:#91887f;}.cls-56{fill:#6e6760;}.cls-57{fill:#807066;}.cls-58{fill:#0e2d3d;}.cls-59{fill:#285173;}.cls-60{fill:#1d3b54;}.cls-61{fill:#d6c5be;}.cls-62{fill:#fae6de;}.cls-63{fill:#eb4747;}.cls-64{fill:#ffb855;}.cls-65{fill:url(#linear-gradient-11);}.cls-66{fill:#8a7272;}.cls-67{fill:#c6cad9;}.cls-68{fill:#bf9a36;}</style><linearGradient id="linear-gradient" x1="650.4" y1="535.32" x2="898.4" y2="1144.65" gradientUnits="userSpaceOnUse"><stop offset="0" stop-color="#40d5e6"/><stop offset="1" stop-color="#57f"/></linearGradient><linearGradient id="linear-gradient-2" x1="1853.59" y1="1456.13" x2="2019.04" y2="1456.13" xlink:href="#linear-gradient"/><linearGradient id="linear-gradient-3" x1="1974.96" y1="1548.46" x2="2124.58" y2="1548.46" xlink:href="#linear-gradient"/><linearGradient id="linear-gradient-4" x1="1987.75" y1="1570.21" x2="2100.05" y2="1570.21" xlink:href="#linear-gradient"/><linearGradient id="linear-gradient-5" x1="1947.2" y1="1479.85" x2="2077.98" y2="1479.85" xlink:href="#linear-gradient"/><linearGradient id="linear-gradient-6" x1="1917.18" y1="1667.43" x2="2037.87" y2="1667.43" gradientUnits="userSpaceOnUse"><stop offset="0" stop-color="#ff9340"/><stop offset="1" stop-color="#ffce45"/></linearGradient><linearGradient id="linear-gradient-7" x1="1917.18" y1="1667.43" x2="2037.87" y2="1667.43" gradientUnits="userSpaceOnUse"><stop offset="0" stop-color="#c97332"/><stop offset="1" stop-color="#ffce45"/></linearGradient><linearGradient id="linear-gradient-8" x1="571.51" y1="478.51" x2="949.32" y2="1206.34" xlink:href="#linear-gradient"/><linearGradient id="linear-gradient-9" x1="300.71" y1="415.72" x2="668.71" y2="415.72" xlink:href="#linear-gradient"/><linearGradient id="linear-gradient-10" x1="1344.66" y1="335.97" x2="1561.34" y2="794.34" xlink:href="#linear-gradient"/><linearGradient id="linear-gradient-11" x1="998.46" y1="1063.48" x2="1163.92" y2="1284.49" xlink:href="#linear-gradient"/></defs><g id="Layer_2" data-name="Layer 2"><g id="Слой_1" data-name="Слой 1"><path class="cls-1" d="M638.72,1390.8l-138-98.21,30.83-69.08a385.08,385.08,0,0,1-54.37-86.9l-75.69-2.4-28.14-167,70.73-27.08A385,385,0,0,1,467,840.21l-51.75-55.15,98.18-138,69.08,30.84a384.85,384.85,0,0,1,86.92-54.38l2.4-75.66,167-28.16,27.05,70.73a384.58,384.58,0,0,1,99.95,22.89L1021,561.56l138,98.18-30.84,69.08a385.58,385.58,0,0,1,54.38,86.93l75.66,2.4,28.14,167-70.71,27.06a384.57,384.57,0,0,1-6.84,45l-.86,4-186.31-45.9.68-3.71a196.44,196.44,0,0,0-79-194.82c-87.88-62.54-210.25-41.92-272.78,46s-41.9,210.23,46,272.78a194.63,194.63,0,0,0,59.93,28.83l3.52,1-35.72,188.68-4.07-1A385.24,385.24,0,0,1,693.88,1339Zm-128-100.93L638,1380.48l54-50.7,2.34.9a376.07,376.07,0,0,0,43.47,13.64l32.8-173.27a203.1,203.1,0,0,1-58.87-29C620.33,1077,598.87,949.59,664,858.13S856.42,745.2,947.89,810.29a204.5,204.5,0,0,1,82.89,199.08l171,42.12a377.42,377.42,0,0,0,6.08-42.48l.22-2.5,69.26-26.5-26-154.07-74.13-2.36-1-2.28a377.39,377.39,0,0,0-55.83-89.25l-1.61-1.92,30.2-67.67-127.32-90.58-54,50.7-2.35-.9a376.3,376.3,0,0,0-102.61-23.5l-2.5-.22-26.5-69.28-154.08,26-2.35,74.12-2.29,1a377.31,377.31,0,0,0-89.25,55.83l-1.92,1.62L516.13,657,425.54,784.36l50.7,54-.9,2.34a377,377,0,0,0-23.5,102.59l-.21,2.5-69.29,26.53,26,154.07,74.14,2.35,1,2.29a377.06,377.06,0,0,0,55.84,89.23l1.61,1.92Z"/><path class="cls-2" d="M1868,1237.51c14.27-6.82,28.47,38.59,28.47,38.59,24.25,32.05,58.13-10.58,54.82,37.32-5.8,83.81,96.47,26.35,49.29,113.86s41.66,49.47,12.34,120,8.68,154.7-35.43,120.12c0,0-38.85-85.18-78.91-111.54s24-57.63,11.47-93.42c-18.21-52-62.08-50-30.45-105.83S1819.55,1260.71,1868,1237.51Z"/><path class="cls-3" d="M1991.5,1635.38c-19.13-13.45-41.51-107.18-42.84-163-.69-28.59-9.14-40.51-16.6-51-7.13-10-13.28-18.72-9.7-38.64,6.86-38.08-11.16-54.51-11.34-54.67l2.08-2.38c.8.7,19.57,17.65,12.38,57.61-3.35,18.61,2.17,26.4,9.16,36.25,7.34,10.35,16.47,23.21,17.18,52.78,1.43,59.9,24.31,148.39,41.49,160.48Z"/><path class="cls-4" d="M1998.65,1642.32a40.29,40.29,0,0,1-8.08-.88c-7.37-1.48-12.21-5.37-14.37-11.55-5.15-14.75,6.79-38.7,16.48-50.24.16-.19,16.39-20,14.66-47.51-.29-4.61-.77-8.87-1.19-12.63-1.22-10.88-2.1-18.74,2.57-24,4.12-4.63,12.07-6.63,26.58-6.7,25.45-.12,35.51-10.65,43.6-19.12,3.43-3.6,6.68-7,10.62-9.15h0c12.68-6.92,26.11-7.94,31.94-2.42,2.77,2.63,5.1,7.77.52,17.35-4.19,8.75-9.62,14.3-14,18.75-5.87,6-9.75,10-7.73,17.85.47,1.85,1,3.72,1.57,5.6,3.92,13.42,8.37,28.63-14.6,39-4.87,2.19-9.31,3.93-13.23,5.47-16,6.29-25.71,10.09-36.63,33.15-2.12,4.47-4,8.7-5.79,12.79C2023,1627.56,2016.45,1642.32,1998.65,1642.32Zm92.38-179c-3.51,1.92-6.44,5-9.84,8.55-8.5,8.9-19.08,20-45.87,20.1-13.35.07-20.82,1.81-24.23,5.64-3.74,4.2-2.92,11.47-1.8,21.53.43,3.8.91,8.11,1.21,12.79,1.81,28.79-14.69,48.9-15.39,49.74-9.6,11.43-20.47,34.17-15.92,47.16,1.76,5.05,5.8,8.25,12,9.51,21.63,4.37,27.6-9.17,37.5-31.59,1.81-4.11,3.69-8.36,5.82-12.86,11.46-24.2,22.15-28.39,38.33-34.74,3.89-1.53,8.29-3.25,13.1-5.41,20.45-9.2,16.76-21.82,12.85-35.18-.56-1.91-1.11-3.82-1.6-5.71-2.46-9.61,2.4-14.57,8.54-20.84,4.42-4.51,9.44-9.62,13.4-17.91,2.07-4.34,3.79-10.24.16-13.68-4.78-4.53-16.93-3.28-28.26,2.9Z"/><path class="cls-5" d="M1990.91,1660.58l-3.16-.17c.15-3,4.14-72.91,32.22-93.38,30.81-22.45,40.52-46.59,45.15-62.79,5.45-19.09,33.2-24.19,34.38-24.39l.55,3.11c-.27,0-27,5-31.89,22.15-4.75,16.65-14.73,41.45-46.33,64.48C1995,1589.18,1990.94,1659.87,1990.91,1660.58Z"/><path class="cls-6" d="M2055.12,1308.09c-20-6.84-15.82,31.63-24.25,60.1s-93.83,12.41-58,83.69-45.33,23.84-21.08,86,2.11,128.72,28.46,111.8,14.81-95.25,42.22-104.55,31.88-20.16,4.74-45.47,71.12-50.42,46.87-101.51S2078.18,1316,2055.12,1308.09Z"/><path class="cls-3" d="M1992.49,1646.74c-2.51-10.65-23.94-104.35-3.94-115.68,17.63-10,17.19-48.81,14.44-85.48-2.43-32.46,39.26-47.63,41-48.26l1.06,3c-.41.15-41.19,15-38.93,45,2.82,37.66,3.12,77.62-16,88.47-15.19,8.6-1.21,83.91,5.46,112.21Z"/><polygon class="cls-7" points="2037.87 1613.37 2009.37 1721.49 1945.68 1721.49 1917.18 1613.37 2037.87 1613.37"/><path class="cls-8" d="M2037.87,1613.37s-62.74,11.78-62.74,108.12h-29.45l-28.5-108.12Z"/><path class="cls-9" d="M829.83,1183.71v-8a195.78,195.78,0,0,0,182.55-123.43l7.42,3A203.74,203.74,0,0,1,829.83,1183.71Z"/><path class="cls-9" d="M829.83,1241v-8a259,259,0,0,0,162.36-56.42l5,6.28A267,267,0,0,1,829.83,1241Z"/><path class="cls-9" d="M1020.71,1254.31l-4.48-6.63a333.9,333.9,0,0,0,118.88-142.25l7.32,3.22A341.83,341.83,0,0,1,1020.71,1254.31Z"/><rect class="cls-10" x="1551.71" y="324.3" width="8" height="202.87" transform="translate(117.52 1155.87) rotate(-42.22)"/><path class="cls-11" d="M1268.31,902.31,1254.77,822l-74.89-2.37a381.91,381.91,0,0,0-56.42-90.2L1154,661.11l-132.66-94.4-54.58,51.23a375.9,375.9,0,0,0-41.88-13.3L891.14,786.18a199.87,199.87,0,0,1,135.07,226.18l178.63,44a382.31,382.31,0,0,0,7-47l70-26.78ZM667.22,860.45a198.61,198.61,0,0,1,55.9-53L632,647.7a377.48,377.48,0,0,0-48.82,34.88l-68.36-30.53-47.2,66.33L420.39,784.7l51.23,54.6A380.46,380.46,0,0,0,447.86,943l-70,26.8,13.54,80.27,13.52,80.27,74.9,2.37a381.13,381.13,0,0,0,56.43,90.17l-30.52,68.36L572,1338.45l66.34,47.19L693,1334.41a375.72,375.72,0,0,0,48,14.78l34.26-181a199,199,0,0,1-61.16-29.41C624.31,1074.88,603.3,950.26,667.22,860.45Z"/><path class="cls-12" d="M630.55,471.45a155,155,0,0,0,9.67-42.22l28.49-10.9-5.5-32.68L657.7,353l-30.49-1a155.09,155.09,0,0,0-23-36.71l12.43-27.83-27-19.22-27-19.21-22.22,20.86a155.35,155.35,0,0,0-42.21-9.68l-10.91-28.49-32.68,5.51L422,242.73l-1,30.49a155,155,0,0,0-36.72,23l-27.83-12.43-19.21,27-19.22,27L338.88,360a155,155,0,0,0-9.67,42.21l-28.5,10.9,5.51,32.68,5.51,32.68,30.49,1a155.09,155.09,0,0,0,23,36.71L352.76,544l27,19.21,27,19.22L429,561.56a155.34,155.34,0,0,0,42.21,9.67l10.91,28.49,32.68-5.5,32.68-5.51,1-30.49a155.09,155.09,0,0,0,36.71-23L613,547.67l19.21-27,19.22-27ZM437.6,481.93a81.26,81.26,0,1,1,113.32-19.09A81.26,81.26,0,0,1,437.6,481.93Z"/><path class="cls-13" d="M1487.55,355.3a19.9,19.9,0,0,0,19.88-19.88h-4.68a15.2,15.2,0,1,1-15.2-15.2h2.34V79.54h-4.68V315.67a19.88,19.88,0,0,0,2.34,39.63Z"/><rect class="cls-10" x="1482.16" y="201" width="11.19" height="113.65" transform="translate(2975.51 515.66) rotate(180)"/><polygon class="cls-10" points="1354.39 503.54 1348.47 498.16 1487.55 344.64 1493.05 349.59 1354.39 503.54"/><path class="cls-14" d="M1717.44,650.86a381.69,381.69,0,0,0,44.38-39.05l-127.75-132.4a199.81,199.81,0,0,1-295.4-1.72L1213.28,612.61a379,379,0,0,0,42.32,37.22L1241,723.33l75.13,31.32,75.15,31.29,41.89-62.12a382.09,382.09,0,0,0,106.39.29l41.61,62.24,75.27-31,75.27-31Z"/><polygon class="cls-15" points="1525.72 1471.86 1781.11 1471.86 1700.62 1719.04 1708.14 1721.49 1792.01 1463.94 1519.97 1463.94 1436.91 1719.04 1444.43 1721.49 1525.72 1471.86"/><polygon class="cls-15" points="1612.64 1719.04 1532.15 1471.86 1787.54 1471.86 1868.82 1721.49 1876.35 1719.04 1793.28 1463.94 1521.25 1463.94 1605.11 1721.49 1612.64 1719.04"/><rect class="cls-15" x="1501.96" y="1541.78" width="312.58" height="7.92"/><rect class="cls-15" x="1469.76" y="1627.72" width="373.98" height="7.92"/><path class="cls-16" d="M1792.17,981.27s1.81-6.19-1-8.63c-2.35-2.07-3.88-6.44-4.36-7.78-.64-1.8-4.65-6.59-2.39-7.42s7,7.58,8.34,9.15,2.86-7.54,4.45-9,16.52,1.93,14.75,8-7.69,11.51-7.79,12.64a39.68,39.68,0,0,1-1.11,4.51Z"/><path class="cls-16" d="M1796.51,958.94s6.66-18.39,8.13-19.25,2.44-.43,1.89,1.31-5.91,18-5.91,18,11.53-20.44,12.58-21.41c.62-.56,2.55.14,2.34,1.1s-10.48,21.88-10.48,21.88,10.81-19.07,11.93-19.61a1.51,1.51,0,0,1,1.89,2.08c-.71,1.47-9.73,19.73-9.73,19.73s8.73-13.38,9.95-13.28c.74.06,2.45.58.08,4s-7.09,12-7.09,12Z"/><path class="cls-16" d="M1535.52,1148.33s-5.9,2.6-8.68.18c-2.36-2-6.89-3-8.29-3.3-1.86-.4-7.14-3.75-7.66-1.4s8.43,5.94,10.16,7.07-7.1,3.83-8.32,5.59,4.07,16.13,9.92,13.57,10.39-9.13,11.51-9.38a38.39,38.39,0,0,0,4.32-1.69Z"/><path class="cls-16" d="M1514,1155.55s-17.36,9-18,10.58-.11,2.48,1.55,1.71,17-8.22,17-8.22-18.76,14.11-19.58,15.28c-.48.68.47,2.51,1.4,2.18s20.32-13.26,20.32-13.26-17.5,13.21-17.89,14.39a1.51,1.51,0,0,0,2.31,1.6c1.37-.89,18.3-12.23,18.3-12.23s-12.13,10.42-11.87,11.61c.15.73.9,2.35,3.94-.44s10.92-8.6,10.92-8.6Z"/><path class="cls-17" d="M1529.3,1148.64l9.3,11.46s59.82-24.72,69-33.3c0,0,2.43-.93,14.8-10.75h0c2.64-2.1,5.23-4.09,7.6-5.83l1.62-1.44h0l16.52-14.75s30-15.93,17.78-33.14c0,0-5.09-4.6-12.9-.89s-19.11,13.47-21.78,16-20,17.36-20.94,18.3c-3.46,3.5-15.25,14-21.33,18.59C1578.23,1121,1529.3,1148.64,1529.3,1148.64Z"/><path class="cls-18" d="M1700.39,1027v0a71.5,71.5,0,0,1-8.13,13.42c-10.58,13.57-35.26,13.91-35.62-23.36a57.46,57.46,0,0,1,2.23-17.42c5.05-16.54,16.92-19.29,16.92-19.29,8.77-.49,24.11,1.68,29.22,13.1C1708.63,1001.57,1706,1015,1700.39,1027Z"/><path class="cls-19" d="M1700.39,1027v0s-1.27.33-5.82-8.87c-.91-1.84-1.62-.52-2-1.34l-7.26-2.83s7.18-12-2.21-15.34c-9.58-3.39-24.22,1-24.22,1,3.14-29.6,16.92-19.29,16.92-19.29,8.77-.49,27.51,0,32.63,11.46C1712,999.93,1706,1015,1700.39,1027Z"/><path class="cls-18" d="M1691.07,1011.22c.54-2.49,5.46-4.63,7.55.72s-4.9,11-6.75,9.86S1690.18,1015.35,1691.07,1011.22Z"/><path class="cls-20" d="M1596.72,1444.72s-10.18,8.32-18.74,10.17-13,6.23-13.11,11.31,24.63,8.43,34.42,3.31c14.62-7.64,16.1-5.34,17.72-9.16s.32-13.93.43-15.14C1617.57,1443.7,1596.72,1444.72,1596.72,1444.72Z"/><path class="cls-20" d="M1597.41,1442a33.93,33.93,0,0,0-.94,4.24c.16.08,19.28,2.23,18.7-1.1-.47-2.7-1.13-5.63-1.13-5.63Z"/><path class="cls-20" d="M1718.34,1451.38S1712,1461,1704,1462.9s-10.85,4.92-11.24,9.7,18.68,11.05,32.08,2.64c8.8-5.52,12.08-5.2,13.86-8.71s.43-13.38.6-14.52C1739.5,1450.6,1718.34,1451.38,1718.34,1451.38Z"/><path class="cls-21" d="M1720.47,1447.89a36.83,36.83,0,0,0-.24,4.13c.15.1,17.8,3.22,17.7,0a25,25,0,0,0-1.12-5.68Z"/><path class="cls-22" d="M1647.58,1204.41s-24,59.51-30.89,79.72c-9.07,26.59-14.07,50-15.21,62.76-1.44,16-7.06,91.69-8.07,96.38s26.93,3.11,26.93,3.11,15.71-95.4,20-112.47c4-15.9,41.71-88,45.35-83.69s15.71,78.17,18.4,90.71,9.91,111.25,9.91,111.25,24.52,3.92,29.45,0c0,0-3.86-88-5.58-111.53-.65-9,5.67-107.25-9.48-146.89C1720.37,1172.81,1647.58,1204.41,1647.58,1204.41Z"/><path class="cls-17" d="M1673.47,1055s-20.75,4.27-23.45,6.65c-2.92,2.54-8.76,28.22-9.07,35.14s1.48,35.47,4.4,46.24-2.58,55.6-4.43,70.53c0,0,36,16.35,96.83,3.61,0,0-10.69-46.41-8.89-61.17,2.3-18.91,8.45-60.32,8.45-60.32s5.58-39.45.43-38.48c-16.86,3.18-38.65-2.2-38.65-2.2Z"/><path class="cls-23" d="M1668.82,1059.79s6.37,4.79,27.68-4.6a58.73,58.73,0,0,1,2-25.24c4.18-13.64-27.47,14.22-27.47,14.22.35.24.42,1.6.22,3.51,0,.12,0,.24,0,.37a36.52,36.52,0,0,1-.85,4.65l-.15.61C1669.05,1057.88,1668.82,1055.81,1668.82,1059.79Z"/><path class="cls-24" d="M1670.4,1052.7h0c15.27,2,23.59-14.49,23.83-15-10.44,15.23-23,10.28-23,10.28h0A38.72,38.72,0,0,1,1670.4,1052.7Z"/><path class="cls-23" d="M1668.91,1056s-4.88,7.26,1.93,8.5,20.68-.28,28.25-9.49C1699.09,1055,1679.16,1051.16,1668.91,1056Z"/><path class="cls-17" d="M1704,1094.07c-2.15-4.46,3.3-16.09,12.57-24.22a68.24,68.24,0,0,1,19-11.85c3.81-1.43,29.86-9.82,31.12-13.08,1.59-4.12,8.5-24.39,9.07-26.16,1.12-3.53,14.11-43.62,14.11-43.62l16.2,3.71s-12.08,58-13.58,65.39c-1,4.9-1.83,13.54-12.73,20.5-11.09,7.07-35.37,25-37.82,26S1713.64,1113.94,1704,1094.07Z"/><path class="cls-25" d="M984.55,478a30.26,30.26,0,0,1-15.66-10.47,22.64,22.64,0,0,1-4.58-18.66c1.75-12.8.55-26.65-.82-36.27a60.79,60.79,0,1,1,70.86,17.06c-7,11.13-11.95,21.62-14.81,31.18-2.89,13.07-17.56,21-32.75,17.72C986,478.4,985.29,478.21,984.55,478Zm41.31-157.76a55.81,55.81,0,0,0-58.11,89.7l.46.55.1.7c1.46,10,2.8,24.74.91,38.45l0,.19a17.76,17.76,0,0,0,3.64,14.67,25.62,25.62,0,0,0,15,9.2c12.55,2.72,24.6-3.56,26.86-14l0-.09,0-.09c3-10.21,8.36-21.36,15.81-33.17l.42-.66.73-.3a55.81,55.81,0,0,0-5.85-105.14Z"/><polygon class="cls-25" points="977.78 455.4 983.58 388.93 994.75 402.95 1005.09 395.4 1010.5 405.65 1025.38 397.6 1004.08 460.92 999.37 459.33 1016.64 407.98 1008.45 412.41 1003.38 402.81 993.84 409.77 987.45 401.77 982.73 455.83 977.78 455.4"/><rect class="cls-25" x="964.64" y="472.43" width="43.11" height="17.37" transform="translate(124.26 -197.94) rotate(12.23)"/><rect class="cls-25" x="960.34" y="454.96" width="56.98" height="27.97" transform="translate(121.74 -198.77) rotate(12.23)"/><polygon class="cls-26" points="212.37 906.85 209.36 905.82 234.56 832.47 290.85 816.88 310.22 736.48 353.57 716.74 362.61 654.29 365.76 654.75 356.47 718.92 312.94 738.73 293.5 819.45 237.02 835.09 212.37 906.85"/><path class="cls-3" d="M298.68,812.73a8.47,8.47,0,1,1-11.94-1.06A8.47,8.47,0,0,1,298.68,812.73Z"/><path class="cls-26" d="M298.64,825.88a10.06,10.06,0,1,1,1.26-14.17A10.08,10.08,0,0,1,298.64,825.88Zm-10.88-13a6.89,6.89,0,1,0,9.7.86A6.88,6.88,0,0,0,287.76,812.89Z"/><path class="cls-3" d="M318.32,732.65a8.47,8.47,0,1,1-11.94-1.06A8.47,8.47,0,0,1,318.32,732.65Z"/><path class="cls-26" d="M318.27,745.8a10.06,10.06,0,1,1,1.26-14.17A10.07,10.07,0,0,1,318.27,745.8Zm-10.87-13a6.89,6.89,0,1,0,9.7.87A6.89,6.89,0,0,0,307.4,732.8Z"/><path class="cls-3" d="M361,712.37a8.48,8.48,0,1,1-11.94-1.06A8.48,8.48,0,0,1,361,712.37Z"/><path class="cls-26" d="M361,725.53a10.07,10.07,0,1,1,1.26-14.18A10.09,10.09,0,0,1,361,725.53Zm-10.88-13a6.89,6.89,0,1,0,9.7.86A6.89,6.89,0,0,0,350.07,712.53Z"/><path class="cls-3" d="M242.61,829.06A8.47,8.47,0,1,1,230.68,828,8.47,8.47,0,0,1,242.61,829.06Z"/><path class="cls-26" d="M242.57,842.21A10.06,10.06,0,1,1,243.83,828,10.06,10.06,0,0,1,242.57,842.21Zm-10.87-13a6.88,6.88,0,1,0,9.69.86A6.89,6.89,0,0,0,231.7,829.22Z"/><rect class="cls-27" x="1853.28" y="694.48" width="136.36" height="9.56" transform="translate(3842.92 1398.53) rotate(180)"/><rect class="cls-27" x="1853.28" y="712.5" width="136.36" height="40.19" transform="translate(3842.92 1465.18) rotate(180)"/><rect class="cls-27" x="1789.23" y="766.2" width="80.44" height="6.01" transform="translate(3658.9 1538.4) rotate(180)"/><rect class="cls-27" x="1789.23" y="774.83" width="80.44" height="16.26" transform="translate(3658.9 1565.92) rotate(180)"/><rect class="cls-28" x="2012.03" y="642.96" width="6.01" height="112.6" transform="translate(4030.07 1398.53) rotate(180)"/><polygon class="cls-29" points="2012.26 1034.18 1914.1 979.28 1947.84 977.05 2012.26 1034.18"/><polygon class="cls-30" points="2012.26 1034.18 1982.05 985.59 1956.71 984.92 2012.26 1034.18"/><polygon class="cls-31" points="1936.67 991.9 1934.71 1004.28 2012.26 1034.18 1936.67 991.9"/><path class="cls-32" d="M319,1087.56a294.38,294.38,0,0,1-2.34-39.43c0-3,0-6,.12-9.19l8,.2q-.11,4.66-.11,9a289.14,289.14,0,0,0,2.26,38.26Zm10.32-95.64-7.88-1.37a265.47,265.47,0,0,1,12.46-47.07l7.5,2.78A258.38,258.38,0,0,0,329.28,991.92Zm1563-52.31a262.46,262.46,0,0,0-41.59-22.34l3.17-7.34a271.15,271.15,0,0,1,42.87,23Zm-655.66-3.67c-15.73-.16-31.93-.66-48.13-1.51l.41-8c16.1.84,32.18,1.35,47.79,1.5Zm48.17-.63-.29-8c16-.58,32-1.55,47.7-2.88l.68,8C1317.06,933.75,1300.88,934.73,1284.77,935.31ZM1140.45,931c-15.53-1.41-31.62-3.14-47.84-5.16l1-7.94c16.13,2,32.13,3.73,47.57,5.13Zm240.3-3.89-1.08-7.92c15.75-2.16,31.61-4.74,47.15-7.7l1.49,7.86C1412.64,922.32,1396.64,924.93,1380.75,927.1ZM1045,919.18c-15.14-2.32-31.1-5-47.43-7.87l1.4-7.88c16.27,2.89,32.16,5.53,47.24,7.84Zm430.41-10-1.8-7.8c15.9-3.67,31.76-7,47.16-9.82l1.45,7.87C1506.91,902.23,1491.16,905.51,1475.38,909.16ZM362.63,904.43,356,899.94a169.84,169.84,0,0,1,32.93-36.2l5.07,6.19A161.76,161.76,0,0,0,362.63,904.43Zm587.67-2c-14.57-2.85-30-6-47.08-9.53l1.63-7.83c17.08,3.55,32.45,6.67,47,9.52Zm855.63-.85a431,431,0,0,0-46.43-10.1l1.27-7.89a438.85,438.85,0,0,1,47.3,10.28Zm-236.55-9.75-1.06-7.93c16.24-2.17,32.38-3.87,48-5l.6,8C1601.45,888,1585.47,889.71,1569.38,891.86Zm142.82-5.72c-13.46-.92-27.47-1.45-41.61-1.38l-6,0-.07-8,6.22,0c14.29,0,28.44.47,42,1.4ZM856.25,883,809.34,872.9l1.67-7.82,46.92,10.08Zm-93.84-20c-17.14-3.54-32.52-6.61-47-9.39l1.51-7.86c14.51,2.79,29.92,5.87,47.1,9.42ZM434,845.94l-3.13-7.37a213.31,213.31,0,0,1,46.82-13.5L479,833A204.26,204.26,0,0,0,434,845.94Zm234.31-.89c-16.37-2.78-32.28-5.26-47.29-7.35l1.11-7.93c15.09,2.11,31.07,4.6,47.52,7.39Zm-94.76-13.12q-6.87-.69-13.73-1.31c-11.36-1-22.48-1.52-33.06-1.52l-.67-8h.33q16.73,0,34.11,1.56,6.91.62,13.83,1.31Z"/><rect class="cls-33" x="666.89" y="1142.99" width="282.42" height="328.01" rx="20.18"/><path class="cls-34" d="M838.33,1279a72.17,72.17,0,1,0-135.91,48.6c.55,1.53,1.14,3,1.78,4.5A72.17,72.17,0,0,0,838.33,1279Zm-49.73,75.25a54,54,0,0,1-67.84-29.36c-.48-1.1-.92-2.22-1.33-3.37a54.11,54.11,0,1,1,69.17,32.73Z"/><path class="cls-35" d="M718.72,1287.21l-17.24-5.38a72.26,72.26,0,0,1,66.74-50.65l.54,18.06a54.2,54.2,0,0,0-50,38Z"/><path class="cls-36" d="M720.76,1324.93l-16.56,7.21c-.64-1.46-1.23-3-1.78-4.5a71.91,71.91,0,0,1-.94-45.81l17.24,5.38a53.89,53.89,0,0,0,.71,34.35C719.84,1322.71,720.28,1323.83,720.76,1324.93Z"/><path class="cls-37" d="M715.39,1350.11a71.54,71.54,0,0,1-11.19-18l16.56-7.21a53.76,53.76,0,0,0,8.39,13.48Z"/><path class="cls-34" d="M900.91,1323.12a29.88,29.88,0,0,0-34.5,6.51,29.42,29.42,0,0,0-5.25,7.71,29.83,29.83,0,0,0,14.22,39.75c.6.29,1.21.56,1.83.8a29.86,29.86,0,0,0,23.7-54.77Zm7.47,36.56a22.41,22.41,0,0,1-22,12.75,22.65,22.65,0,0,1-6.39-1.49q-.71-.27-1.38-.6a22.38,22.38,0,1,1,29.81-10.66Z"/><path class="cls-35" d="M868.32,1360.5,861.7,1364a29.8,29.8,0,0,1-.54-26.63,29.42,29.42,0,0,1,5.25-7.71l5.43,5.13a22.43,22.43,0,0,0-3.52,25.74Z"/><path class="cls-36" d="M880,1370.94l-2.74,7c-.62-.24-1.23-.51-1.83-.8A29.63,29.63,0,0,1,861.7,1364l6.62-3.47a22.25,22.25,0,0,0,10.25,9.84Q879.24,1370.67,880,1370.94Z"/><path class="cls-34" d="M915.13,1272a29.85,29.85,0,1,0-54-25.54c-.29.6-.56,1.22-.8,1.83A29.86,29.86,0,0,0,915.13,1272Zm-36.56,7.46A22.39,22.39,0,0,1,867.31,1251q.29-.69.6-1.38a22.39,22.39,0,1,1,10.66,29.81Z"/><path class="cls-34" d="M877.75,1239.37l-3.47-6.62a29.91,29.91,0,0,1,34.34,4.71l-5.12,5.44a22.4,22.4,0,0,0-25.75-3.53Z"/><path class="cls-36" d="M867.31,1251l-6.95-2.74c.24-.61.51-1.23.8-1.83a29.73,29.73,0,0,1,13.12-13.68l3.47,6.62a22.35,22.35,0,0,0-9.84,10.25Q867.6,1250.31,867.31,1251Z"/><path class="cls-37" d="M858.38,1256.79a29.77,29.77,0,0,1,2-8.53l6.95,2.74a22.37,22.37,0,0,0-1.48,6.39Z"/><polygon class="cls-38" points="878.97 1399.55 823.22 1399.55 823.22 1398.44 877.86 1398.44 877.86 1377.38 878.97 1377.38 878.97 1399.55"/><polygon class="cls-38" points="773.99 1399.55 701.48 1399.55 701.48 1398.44 772.88 1398.44 772.88 1363.97 773.99 1363.97 773.99 1399.55"/><rect class="cls-34" x="701.48" y="1386.91" width="49.89" height="6.65"/><rect class="cls-34" x="823.22" y="1386.91" width="29.34" height="6.65"/><rect class="cls-34" x="690.18" y="1171.14" width="23.88" height="5.1"/><rect class="cls-34" x="789.72" y="1190.35" width="37.05" height="5.1"/><rect class="cls-34" x="741.82" y="1190.35" width="22.62" height="5.1"/><rect class="cls-34" x="690.18" y="1190.35" width="44.81" height="5.1"/><rect class="cls-34" x="721.33" y="1171.14" width="35.38" height="5.1"/><rect class="cls-34" x="771.51" y="1190.35" width="9.72" height="5.1"/><rect class="cls-34" x="800.34" y="1171.42" width="26.43" height="5.1"/><rect class="cls-34" x="836.19" y="1190.35" width="22.54" height="5.1"/><rect class="cls-34" x="765.41" y="1171.42" width="28.02" height="5.1"/><rect class="cls-3" x="772.41" y="1430.44" width="71.36" height="71.36" rx="13.47"/><rect class="cls-39" x="804.72" y="1451.92" width="6.75" height="28.39"/><rect class="cls-39" x="804.72" y="1451.92" width="6.75" height="28.39" transform="translate(2274.22 658.02) rotate(90)"/><path class="cls-17" d="M947.45,1356.22h0C947.33,1356.29,947.3,1356.29,947.45,1356.22Z"/><path class="cls-40" d="M417.08,1358.45s-29.6,86.35-31.49,96.1c-2.07,10.66-25.22,87.41-25.22,87.41s-48.58-47.57-63.75-59.64S396.15,1355.91,417.08,1358.45Z"/><path class="cls-41" d="M432.47,1693.16s9.81-4,13.84-5.69,4.63-5.45,6.33-3,10.11,10.16,14.65,11.13,34,5.45,34.59,12.13-13.16,9-32.56,10-19.86,6-32.79,2.71C432.5,1719.51,432.47,1693.16,432.47,1693.16Z"/><path class="cls-41" d="M146.61,1584.36s4.86,9,6.93,12.76,5.75,3.92,3.51,5.82-8.77,10.83-9.24,15.32-1.72,33.47-8.12,34.73-10.11-11.79-13.11-30.44-7.89-18.59-6-31.44C121.11,1587.1,146.61,1584.36,146.61,1584.36Z"/><path class="cls-23" d="M472,1378.25s4.71-8.6,5.47-9.89,4.54-3.09,9.05-4.79,11.36-2,12-1.48a4.22,4.22,0,0,1,2.28,2.68,8.06,8.06,0,0,1,.2,4.1,4.93,4.93,0,0,1,1.2,4.6,4.29,4.29,0,0,1,.42,4.76s1.73,2,.54,3.92a32.73,32.73,0,0,0-5,2.9c-1.2,1.07-9.32,4.31-17.58,6.22C480.6,1391.27,471.56,1393.73,472,1378.25Z"/><path class="cls-42" d="M485.47,1374.85s-.49,4.9-1.33,6.21,9.4,5.64,9.4,5.64S491.41,1375.61,485.47,1374.85Z"/><path class="cls-43" d="M314.21,1437.69c-8,6-18.81,29.74-26.33,48.25-.17.33-18.08,36.58-24.89,46.75-10.22,15.27-23,13.91-44.91,22.25-17.82,6.77-74.21,27.14-74.21,27.14l13.2,26.27s85.35-19.57,112.67-30.89c13.85-5.75,59.6-44.34,59.61-44.34h0c5.7-4.68,10.85-9.22,15.24-13.26h0c3.49-3.22,6.5-6.11,8.94-8.51,4.35-4.29,6.83-7,6.83-7S321,1432.61,314.21,1437.69Z"/><path class="cls-44" d="M383.6,1324.15l24.18,61.12s1.2,8.47,18.86,2.75c18-5.84,46.91-13.54,46.91-13.54s10.22,21.46,8.09,22.7c-6.17,3.6-55.88,22.12-76.61,27.77-16.44,4.49-50.17-83.73-50.17-83.73Z"/><path class="cls-43" d="M426.39,1564.69c.36-10.21-11.13-39-19.79-56.5h0c-13.58-27.92-27.38-57-27.38-57s-78.81,0-78.68,8.4c.26,16,38.84,52,44.95,59.07l2.58,2.82s14.6,14,20.54,24.79c8.67,15.7,13,26.6,18.67,47.12,5.09,18.37,40.15,104.88,40.15,104.88L460.08,1687S425.82,1580.54,426.39,1564.69Z"/><path class="cls-45" d="M296.62,1454.56s53.8-57.38,49.16-94.47a72.8,72.8,0,0,1-.56-8.89,70.81,70.81,0,0,1,.84-11.18c3.38-21.73,16.48-39.69,32.79-48.59,0,0-.16-4.74,22.49,17,1.25,1.2,13.87,23.4,15.59,47.55,2.1,29.54-6.37,35.47-16.79,57.94-7.62,16.42-18.59,30.72-20.92,37.27C379.22,1451.21,373.17,1460.88,296.62,1454.56Z"/><path class="cls-23" d="M402.76,1289.55s-.28,1.21-.67,3.08c-.28,1.37-.63,3.11-1,5-1,5.09-1.92,11.25-1.65,14.15.49,5.43-20.05-19.41-20.05-19.41a262.91,262.91,0,0,0,4.88-36.85C385.39,1235.85,402.76,1289.55,402.76,1289.55Z"/><path class="cls-24" d="M402.12,1292.49c-.28,1.37-.66,3.25-1,5.13a97.68,97.68,0,0,1-13.8-16.78C390.33,1284.92,402.12,1292.49,402.12,1292.49Z"/><path class="cls-44" d="M395.31,1379.9a12.85,12.85,0,0,1-.61,1.51c-.75,1.72-2.7,3.92-4.58,7.16-16,27.52-33.12,65.15-39.93,91.47-7.76,30-11.86,53.72-11.86,53.72l-60.09-54.86s20.86-44.71,42.74-71.36c24.23-29.52,17.35-96.64,17.35-96.64l34.57-16,5.15-5.63L397,1303.4l10.33,6.7S402.26,1357.46,395.31,1379.9Z"/><rect class="cls-46" x="310.18" y="1023.45" width="10.74" height="631.63" transform="translate(1633.05 942.54) rotate(86.5)"/><rect class="cls-46" x="316.47" y="1126.35" width="10.74" height="631.63" transform="translate(1741.67 1032.88) rotate(86.5)"/><rect class="cls-46" x="572.03" y="1319.54" width="11.63" height="108.59" transform="translate(-82.71 37.8) rotate(-3.5)"/><rect class="cls-46" x="487.06" y="1324.74" width="11.63" height="108.59" transform="translate(-83.29 32.67) rotate(-3.5)"/><rect class="cls-46" x="402.09" y="1329.93" width="11.63" height="108.59" transform="translate(-83.78 27.5) rotate(-3.5)"/><rect class="cls-46" x="317.12" y="1335.13" width="11.63" height="108.59" transform="translate(-84.26 22.32) rotate(-3.5)"/><rect class="cls-46" x="232.15" y="1340.32" width="11.63" height="108.59" transform="translate(-84.73 17.14) rotate(-3.5)"/><rect class="cls-46" x="147.18" y="1345.52" width="11.63" height="108.59" transform="translate(-85.2 11.96) rotate(-3.5)"/><rect class="cls-46" x="62.2" y="1350.71" width="11.63" height="108.59" transform="translate(-85.68 6.78) rotate(-3.5)"/><path class="cls-23" d="M318.3,1455.53a11.08,11.08,0,0,1-2.34-2.72s-.71-2.08-1.29-3.52a11.22,11.22,0,0,0-.51-1.1,20.42,20.42,0,0,1-2.87-5.91c-.71-2.83-.64-15.83-.64-15.83l7-2,6.33-2.77s12.69,12.61,13.65,15.17a6.46,6.46,0,0,1,.24.75c.61,2.25.12,4.18.3,5.39.07.45.42,4.94-.55,5.88a4.4,4.4,0,0,1-4,1.38s-2.74,2.43-5.2,2.53a6.55,6.55,0,0,1-5.55,1.57S320.11,1456.47,318.3,1455.53Z"/><path class="cls-44" d="M376.41,1330.2s13.71-.88,6.89-21.65c-9.19-28-36.52.35-94.26,24,0,0-16.18,6.54-11.54,23.83s25.12,72.17,26.46,77.7l23.14-12.72s-10.54-27.25-13.35-41.52-4.81-27.52-4.81-27.52Z"/><path class="cls-47" d="M497.32,1362.49S486,1367.07,486.5,1369a3.09,3.09,0,0,0,1.86,2.31l-3.81,4s-1,4.07,3.71,4c0,0-1.35,3.71,3.21,3.09,0,0,.2,2.84,2.36,2.93s9.33-3.16,9.33-3.16,1.56-1.5-.18-4.06a4.1,4.1,0,0,0-.5-4.64,4.72,4.72,0,0,0-1.21-4.64s1.31-5-2.75-6.72A11.8,11.8,0,0,0,497.32,1362.49Z"/><path class="cls-23" d="M477.77,1368.18s8.36.75,12.74,3.16c1,.55,1.85,1.26,1.71,2.38s-1.93,2.37-5.56,2.23a30.28,30.28,0,0,0-8.4,1.34S474.57,1376.05,477.77,1368.18Z"/><path class="cls-23" d="M423.21,1245.69s6.36,11.87,3.19,13.71c-2.62,1.52,3,13.17,3.78,15.07s-4.76,3.28-5.92,4.5-4.67,16.27-9.19,16.71-24.87-6.69-30.41-12.47-10-31.84-6.29-42.82S412,1225,423.21,1245.69Z"/><path class="cls-48" d="M424.55,1248.13s2.42-8.63-9.42-18.15-29.89,1.93-32.15,3.69c-2,1.56-14,11.54-9.45,26.13,7.67,24.37,7.59,23.36,7.59,23.36s3.32-14.71,7.77-15.73c4.82-1.11,11.42-1.88,11.42-1.88s-4.16-11.12,2.38-12.68S417.94,1245.66,424.55,1248.13Z"/><path class="cls-23" d="M397.48,1266.35c-.32-1.3-1.8-7.13-6.36-6.26s-3,8,.48,12.21S399.29,1273.6,397.48,1266.35Z"/><path class="cls-48" d="M382,1234.45s-15.81,3.23-13.22,15.18,9.59,25.38,10.59,28.18S382,1234.45,382,1234.45Z"/><path class="cls-49" d="M399.52,406.61a71,71,0,0,0-10.84,12.7c-5.13,7.69-18.73,8.1-19.32,18.59s18.51,10.82,28.53,7.41,11.53-13.68,17.59-16.24,9.2-4.64,8.74-9.64-3.82-13.13-3.82-13.13a42.2,42.2,0,0,1-6,1.45A49.53,49.53,0,0,1,399.52,406.61Z"/><path class="cls-22" d="M468.2,122.21s-3.84,22.84-6.94,37.92h0c-1.25,6.11-2.38,11-3.09,12.48-.88,1.92-8.09,9.66-16.91,18.74-15.48,15.94-35.94,36-35.94,36l-8-15.17s18.17-21.3,30.48-35.51c5.7-6.57,10.15-11.63,11-12.36,2.58-2.3,5.56-25,9.76-43.7s12.62-29,12.62-29Z"/><path class="cls-23" d="M441.26,191.36c-15.48,15.94-35.94,36-35.94,36l-8-15.17s18.17-21.3,30.48-35.51C431.59,178.53,438.52,183,441.26,191.36Z"/><path class="cls-49" d="M540.53,400.36s5.26,5.81,8.37,9.34,15,9.82,15.08,20.29c.07,11.35-8.79,10.35-16.67,9.94s-14.27-5.86-17.59-12.29-12.14-8.11-12.76-13.29,4.09-14.51,4.09-14.51Z"/><path class="cls-50" d="M522.06,390.18l-1,9.66s16.44,7.16,19.48.52l-.71-8.6Z"/><path class="cls-50" d="M400.41,399.62l-.89,7a34.47,34.47,0,0,0,20.88-.31l.22-6.22Z"/><path class="cls-22" d="M541.46,224.28c.57,2-105.24,0-105.24,0s29.27-21.31,31.17-27-7.46-39.84-8.68-50.95c-1-8.89-3.42-48.67,2.44-54.74,6.13-6.35,28.19-13,28.19-13l32.16,1.19a50.5,50.5,0,0,1,9.1,2.87c3.79,1.77,25.49,9.49,29,20.33S538,148.67,538,148.67s0,1.57-.12,4.13h0c-.1,3.43-.24,8.63-.37,14.27-.17,7.31-.32,15.36-.32,21.23C537.15,202.12,540.89,222.25,541.46,224.28Z"/><path class="cls-51" d="M541.46,224.28s14.39,21.14,14.59,35.57-5.33,54.44-5.73,62.37-7.86,74-7.86,74-5.76,5.35-23-1.36c0,0-3.81-62.65-4.22-69.35s-.41-37.6-4.27-42.08-27.23-18.49-30.28-21.13-56.16,10-61.73,11.48c-14.41,3.73-7.84,28.81-4.65,40.05,5.33,18.8,10,86.72,10,86.72s-10.26,4.38-27.45.68c0,0-33.76-122.63-34.85-134.83s-1.61-32.3,81.58-47.59Z"/><path class="cls-23" d="M498.16,8.71s-27.91-6.3-21.54,28.83,13.09,37.9,29.94,30.62,15.33-29.78,16.18-40.81S507.07,9.09,498.16,8.71Z"/><path class="cls-23" d="M490.78,87.6s12.36,13.1,31.9,1.19c0,0-4.37-28.4-2.07-42.24S495.12,68,495.12,68c.36.19.6,1.51.66,3.39a38.29,38.29,0,0,1-.29,5.63C494.91,81.61,493.48,86.47,490.78,87.6Z"/><path class="cls-23" d="M513.14,32.88c.36-3.1,6.49-4.23,7,.41s-2.78,12.81-5.11,12S512.63,37.16,513.14,32.88Z"/><path class="cls-52" d="M521.38,45.37S520.66,34.3,516.61,34,512,38.07,512,38.07l-4.08.77s1.29-9.7-2.75-11.39-26.16,5.34-29.4,2.49S474,7.41,479.87,4.72s22-8.73,33.9-.7c0,0,9.25-1.06,10.62,6.4S523.89,39.83,521.38,45.37Z"/><path class="cls-24" d="M495.49,77c20.16-6.22,21.67-18.36,21.7-18.55-6.64,11.41-21.41,12.92-21.41,12.92A38.29,38.29,0,0,1,495.49,77Z"/><path class="cls-23" d="M530.93,82.8s-14.76,29.38-38.61,27.49-4.07-31.44-3-31.71S513.8,72.48,530.93,82.8Z"/><path class="cls-22" d="M424.12,222.79s73.07,9,117.34,1.49l-84.59-10.57S456.37,215.87,424.12,222.79Z"/><path class="cls-23" d="M478.77,210.38l-5.44,2.76s1.24,8.65,4.22,11.27l6.11-1.56S482.38,213.36,478.77,210.38Z"/><path class="cls-22" d="M563.33,192.67c-1.09,1.27-15.46,7-31.69,13.29h0c-22.17,8.54-47.18,16.62-47.18,16.62l-5.69-12.21s26.19-14.23,43.89-24.21c8.36-4.71,14.82-8.48,15.73-9.35,2.85-2.71,3.58-7.06,1.49-14.63s-6.91-42.42-7.45-46.48,1.35-14.91,11.52-15.45,15.33,2.33,15.33,2.33,2.55,1.06,4.45,25.72S565.9,189.69,563.33,192.67Z"/><path class="cls-53" d="M537.84,152.8h0c-.1,3.43-.24,8.63-.37,14.27-9.92-24.31-4.19-43.71-4.09-44C532.3,129.63,537.76,152.48,537.84,152.8Z"/><path class="cls-53" d="M461.26,160.13h0c-1.25,6.11-2.38,11-3.09,12.48-3.39-16.4-.34-37.39-.34-37.39C458.3,145.26,461.26,160.13,461.26,160.13Z"/><path class="cls-23" d="M531.64,206h0c-22.17,8.54-48,16.88-48,16.88l-4.89-12.47s26.19-14.23,43.89-24.21C522.66,186.17,529.09,189.31,531.64,206Z"/><polygon class="cls-54" points="477.19 223.57 373.33 222.04 425.77 248.67 477.19 223.57"/><polygon class="cls-55" points="425.77 248.67 477.19 228.75 477.19 223.57 421.71 243.59 425.77 248.67"/><path class="cls-23" d="M474.5,213.33s-6.49-1-11-2.06c-3.47-.8-12.1.31-14.3,2.54s-9.18,17.74-10.5,18.69.67,3.14,3,2c0,0,2.14,6.79,7.4,4.25s8.83-8.09,11.58-9.07,18.8-5.91,18.8-5.91S478.63,211.68,474.5,213.33Z"/><path class="cls-23" d="M450.82,212.79a45,45,0,0,0-5.26,2.91c-1.09.9-5.5,4.2-6.56,5s1.61,3,9.49-.43S450.82,212.79,450.82,212.79Z"/><polygon class="cls-56" points="425.77 248.67 394.88 164.32 295.29 165.95 324.73 243.68 425.77 248.67"/><path class="cls-57" d="M363,201.63c3,6.08,2.12,12.7-2.05,14.78s-10-1.14-13-7.22-2.13-12.69,2-14.78S360,195.56,363,201.63Z"/><path class="cls-58" d="M913.75,1229.87S930.3,1238,926.21,1260s-5.91,25-1.33,33.61,10,45.32,5.86,52.28-51-30.58-57.5-62.08,4.12-45.51,7.87-50.73S899.13,1222.45,913.75,1229.87Z"/><path class="cls-59" d="M918.33,1309.39s8.43,1.71,13.16,8.68c3.29,4.84,3.56,15.61,4,17.63s6.76,25,6.76,25l-17.55,11.76Z"/><path class="cls-60" d="M983.18,1701.66s11.45,15.42,9.88,17.87-13.61,2.79-20.95,0-7.5-20.87-10.82-28.63c-1.39-3.25,1.58-12.85,5.76-13.54s8.72,1.34,8.72,1.34S971.44,1689.64,983.18,1701.66Z"/><path class="cls-23" d="M975.85,1678.58a72.83,72.83,0,0,1,3.29,12.84c.73,5.2,8.16,16.24,7.81,17.63s-9.77,2.66-13.61-.94-6.32-14.07-7.16-20.33a50.68,50.68,0,0,0-1.78-8.71S972.19,1674.74,975.85,1678.58Z"/><path class="cls-60" d="M883.48,1701.92s11,15.16,9.47,17.61-13.61,2.79-21,0-7.5-20.87-10.82-28.63c-1.39-3.25,1.58-12.85,5.76-13.54s9.08,1.49,9.08,1.49S871.74,1689.9,883.48,1701.92Z"/><path class="cls-23" d="M876,1678.85a102.61,102.61,0,0,0,2.27,12.22c1.4,5.06,8.9,16.59,8.55,18s-9.77,2.66-13.61-.94-6.81-14-7.16-20.33a33.55,33.55,0,0,1,.87-10.42S872.35,1675,876,1678.85Z"/><path class="cls-23" d="M931.19,1427.81s9.83,45.73,12.09,57.24,8.58,67.27,9.25,76.75,10.26,45.2,9.81,48.59,14.2,71.4,14.2,71.4-5,4-10.28.36c-2.71-1.88-32.15-63.67-32.15-80.6,0-23.41-17.3-54-19.54-59.19-20.74-48.64-16.66-63.51-19.36-66.67s-3,2-4.53,9-5,67.5-7,75.17-.46,33.64-1.59,46.73-6.08,72.31-6.08,72.31-3.84,6-9.22.16c-1.16-1.26-9.3-66-9.52-81.55s-.47-37-.91-43.79c-4.18-64.54-14.46-73.76,1.73-119.44C888.41,1348.7,931.19,1427.81,931.19,1427.81Z"/><path class="cls-60" d="M865.19,1415s-28,39.19-16,122.56c0,0,66.42,9,102-10.45,0,0-14.72-86-20-99.33S865.19,1415,865.19,1415Z"/><polygon class="cls-60" points="960.98 1689.54 960.98 1705.68 963.08 1705.68 963.08 1693.21 960.98 1689.54"/><polygon class="cls-60" points="860.87 1689.54 860.87 1705.68 862.97 1705.68 862.97 1693.21 860.87 1689.54"/><path class="cls-41" d="M902.77,1303.67s10.31,4.87,13.89,5.59,17.48,18.77,19.92,25.36,0,16.48-5,28.08-.28,15.48-2.57,27.08-4.3,36.18-3.87,42.63-58,7.66-71.28-4.09c0,0,13.39-20,15.11-22.92s.29-18.48-1.29-22.49-12.06-38.13-12.06-38.13-8.58-26.2-.83-32.22c6.73-5.23,25.08-7.1,28.38-8.24S896,1302.67,902.77,1303.67Z"/><path class="cls-61" d="M906.06,1326.67l6.27-7.34L906.89,1300A127.69,127.69,0,0,0,906.06,1326.67Z"/><path class="cls-23" d="M907.69,1291.77s-.28,2.58-.62,6.16c-.14,1.58-.3,3.37-.45,5.2a118,118,0,0,0-.56,13.72s-10.72,10.75-22.91-12.53c0,0,5.13-9.6,1.27-22.68S907.69,1291.77,907.69,1291.77Z"/><polygon class="cls-23" points="906.06 1316.86 906.06 1326.67 893.73 1317.45 906.06 1316.86"/><polygon class="cls-61" points="906.06 1326.67 900.94 1320.33 883.69 1303.13 878.1 1308.51 906.06 1326.67"/><path class="cls-59" d="M881.29,1304.78s14.48,22,15.17,31.64-5.38,82-10.24,105.27-40-2.62-40-2.62,23.62-38.22,14.55-68.82-12.35-42.84-12.35-42.84,3.11-17,14.17-19.44C872.27,1305.87,881.29,1304.78,881.29,1304.78Z"/><path class="cls-59" d="M937.53,1337.56s2.61,9.24-7.56,29.66c0,0,.16,26.15.45,34.31s6.06,37.54,6.06,37.54l-13.9,7.4a2.84,2.84,0,0,1-4.26-2.79c2.85-23.5,12.12-112.65-7.9-136.62l8,2.37S932.73,1321.12,937.53,1337.56Z"/><polygon class="cls-62" points="912.33 1319.33 920.23 1321.51 906.89 1300 912.33 1319.33"/><polygon class="cls-62" points="900.94 1320.33 893.73 1329.79 878.91 1305.09 884.07 1302.13 900.94 1320.33"/><rect class="cls-63" x="920.69" y="1354.43" width="2.61" height="30.89" transform="matrix(0.78, -0.62, 0.62, 0.78, -651.05, 867.72)"/><path class="cls-23" d="M910.2,1380.05a5.54,5.54,0,0,0,3-.87c2.08-1.57,2.83-5.43,6.5-5.15s5.37,11.79,4.45,14-6,3.27-13.54,1.76S910.2,1380.05,910.2,1380.05Z"/><path class="cls-23" d="M918.47,1374.11a113.24,113.24,0,0,1,11.36-3.11c5.34-1.16,11.72-1.53,12.34-.61s-5.2,1.92-10.43,3.41c-4.82,1.37-3.67,1.87-3.67,1.87s-.32-.16,5.18-.68c5.92-.55,12-.54,12.61.65.29.57.09,1-2,1.5,1.28-.06,1.46.27,1.51.79.25,2.66-8.38,4.78-11.8,5.62,2.63-.63,4.62-.82,3.67,1-1.08,2-13.39,4.51-17.73,5.8C914.73,1391.73,918.47,1374.11,918.47,1374.11Z"/><path class="cls-59" d="M864.62,1308.36c-3.63-1.17-14.28,2.61-16.08,13.52s-2.52,23-4.2,28.92-6,31.94-2.36,34.1,10.42,4.13,20,4.13c9.88,0,48.17,1.72,48.17,1.72l2.4-13.6s-14.55-.75-22.08-1.89c-6.71-1-16-3.88-27-5.08,0,0,2.32-16.13,4-20.7S880.94,1313.64,864.62,1308.36Z"/><polygon class="cls-23" points="934.65 1378.2 936.45 1382.57 932.6 1379.82 934.65 1378.2"/><polygon class="cls-64" points="913.56 1401.01 952.13 1393.36 980.73 1332.15 939.56 1336.48 913.56 1401.01"/><path class="cls-23" d="M956.93,1383a30.83,30.83,0,0,0,4-4.71c1.89-2.75,8.05-13.24,7.48-13.9s-9.71-.88-11.37.61,1.63,2.08,1.63,2.08-5,.52-4.64,1.93,3.37,1,3.37,1-4,.77-3.42,2,2.55,1.23,2.55,1.23-3.57.45-3.13,1.8,6.09,2.63,5.33,3.76A26.8,26.8,0,0,0,956.93,1383Z"/><path class="cls-18" d="M911.35,1232.31s24,7.55,11,49-45.87-4.8-42.44-30.08S911.35,1232.31,911.35,1232.31Z"/><path class="cls-58" d="M924.79,1256.51a54.23,54.23,0,0,1-31.93,13.19s-7.68,9-8.27,12.54c0,0-17.83-30.4,4.09-48.62S932.85,1249,924.79,1256.51Z"/><path class="cls-18" d="M893.1,1270.52c-.15-3-2-9.89-6.5-8s.27,15.91,3.25,15C889.85,1277.61,893.47,1277.67,893.1,1270.52Z"/><path class="cls-24" d="M907.07,1297.93c-.14,1.58-.3,3.37-.45,5.2h0c-13.9-6.86-16-16.75-16.09-17.06C900.43,1298.86,907.07,1297.93,907.07,1297.93Z"/><path class="cls-22" d="M1190.7,1342.37s30.32,50,40.94,47.39c4.91-1.21,21.19-13.75,27.34-21.72,2-2.63,4-5.38,5.9-8.11h0c7.54-10.89,13.45-21.32,13.45-21.32s29.24-29.58,11.35-41.22c0,0-14.32,2-20.28,8.39s-12.09,18.77-13.65,22.18-22.2,28-23.34,28.7-8.93-3.51-14.06-9.24c-7.57-8.45-15.79-19.85-15.79-19.85Z"/><path class="cls-65" d="M1155,1158.73l-71.28-23.18-79.87,141.87,56.76,48.92a388.39,388.39,0,0,0-9.26,45.72l181.55,29.55a200.1,200.1,0,0,1,89.08-144l-120-140.34A380.86,380.86,0,0,0,1155,1158.73Z"/><path class="cls-66" d="M1222.61,1689s-10.29,8.4-18.94,10.28-13.19,6.3-13.26,11.43,24.9,8.52,34.8,3.35c14.78-7.73,16.28-5.4,17.92-9.26s.32-14.09.43-15.31C1243.69,1688,1222.61,1689,1222.61,1689Z"/><path class="cls-20" d="M1223.31,1686.23a34.58,34.58,0,0,0-1,4.28c.16.09,19.49,2.25,18.91-1.11-.48-2.73-1.15-5.7-1.15-5.7Z"/><path class="cls-66" d="M1345.57,1695.75s-6.4,9.7-14.53,11.64-11,5-11.35,9.81,18.88,11.17,32.43,2.68c8.9-5.59,12.21-5.27,14-8.81s.43-13.54.61-14.69C1367,1695,1345.57,1695.75,1345.57,1695.75Z"/><path class="cls-21" d="M1347.72,1692.22a35.34,35.34,0,0,0-.24,4.18c.15.09,18,3.25,17.89,0a25.22,25.22,0,0,0-1.13-5.73Z"/><path class="cls-17" d="M1274,1446.07s-24.25,60.16-31.23,80.59c-9.17,26.88-14.22,50.56-15.38,63.45-1.45,16.21-7.14,92.7-8.15,97.44s27.22,3.15,27.22,3.15,15.89-96.45,20.21-113.72c4-16.07,42.17-89,45.84-84.6s15.89,79,18.61,91.71,10,112.46,10,112.46,24.79,4,29.78,0c0,0-3.91-89-5.65-112.75-.66-9,5.73-108.43-9.59-148.5C1347.62,1414.12,1274,1446.07,1274,1446.07Z"/><path class="cls-22" d="M1267.28,1462.43s51.6,15.64,97,9.74c0,0-9.94-60.15-8.11-75.08,1.29-10.73,5.63-34.59,9.2-53.46,1.49-7.87,2.82-14.9,3.77-19.72.81-4.24,1.32-6.82,1.32-6.82s-2-9.06-6-12.49-39.12-9.6-39.12-9.6h-25.17s-21,4.31-23.73,6.72c-3,2.58-8.82,28.55-9.16,35.54s1.49,35.84,4.44,46.74S1269.15,1447.36,1267.28,1462.43Z"/><rect class="cls-67" x="1272.29" y="1344.76" width="10.47" height="15.99" transform="translate(2555.06 2705.51) rotate(180)"/><path class="cls-23" d="M1295.6,1296s-4.94,7.34,1.94,8.59,20.18-.28,27.84-9.59C1325.38,1295,1305.27,1293.19,1295.6,1296Z"/><path class="cls-68" d="M1321.93,1369.16s35.54-20.2,43.48-25.53c1.49-7.87,2.82-14.9,3.77-19.72C1369.18,1323.91,1345,1333.72,1321.93,1369.16Z"/><path class="cls-23" d="M1244.7,1337.66a5.67,5.67,0,0,1-1.66-3.13c-.23-2.91,2.78-6.56-.49-9.29s-15.44,5-16.74,7.47,1.86,7.42,9.42,12.28S1244.7,1337.66,1244.7,1337.66Z"/><path class="cls-23" d="M1243.51,1326.31a118,118,0,0,0-6.37-11.59c-3.29-5.2-8.27-11-9.53-10.39-2.91,1.39,2.26,5.82,5.15,11.2,2.66,5,1.44,4.3,1.44,4.3s.41.13-3.61-4.69c-4.32-5.19-9.31-10.08-10.91-9.63-.78.22-1,.7.26,2.83-1-1.07-1.45-.95-2-.59-2.7,1.91,2.37,10.52,4.38,13.94-1.57-2.62-3-4.37-3.91-2.2-1,2.49,6.72,14.33,9.06,18.84C1230.05,1343.26,1243.51,1326.31,1243.51,1326.31Z"/><path class="cls-22" d="M1365,1305c-3.88-3.18-17-3.67-26.82,6.25-6.94,7-13.2,14.54-15.82,17.71-5,6-15.65,22.09-19.14,21.59s-28.72-9.17-30.57-9.48-28.47-10.74-28.47-10.74l-8.7,16.37s52.38,25.07,57.17,26.68,14.86,7.63,25.65-1.25c10.27-8.45,29.93-23.83,35.38-28.48C1355.72,1341.9,1382.29,1319.1,1365,1305Z"/><path class="cls-23" d="M1295.51,1299.86s6.44,4.84,28-4.65a59.38,59.38,0,0,1,2.11-25.41c4.23-13.79-27.8,14.27-27.8,14.27.35.24.42,1.62.22,3.54,0,.13,0,.25,0,.38a35.6,35.6,0,0,1-.86,4.7l-.15.62C1295.74,1297.92,1295.51,1295.84,1295.51,1299.86Z"/><path class="cls-24" d="M1297.1,1292.69h0c15.43,2,23.85-14.64,24.1-15.13C1310.63,1293,1298,1288,1298,1288h0A35.6,35.6,0,0,1,1297.1,1292.69Z"/><path class="cls-18" d="M1327.42,1266.7v0a72.56,72.56,0,0,1-8.22,13.57c-10.7,13.72-35.64,14.06-36-23.62a57.94,57.94,0,0,1,2.26-17.61c5.1-16.72,17.1-19.51,17.1-19.51,8.86-.49,24.38,1.71,29.54,13.25C1335.75,1241,1333.1,1254.59,1327.42,1266.7Z"/><path class="cls-19" d="M1327.42,1266.7v0s-1.28.34-5.88-9c-.93-1.86-1.64-.53-2-1.35l-7.34-2.86s6.95-9.91-2.55-13.28c-9.67-3.43-24.16-1.2-24.16-1.2-7.54-33,18.77-21.32,18.77-21.32,9.33,1.75,22.71,3.52,27.87,15.06C1335.75,1241,1333.1,1254.59,1327.42,1266.7Z"/><path class="cls-18" d="M1318,1250.76c.54-2.52,5.52-4.69,7.63.72s-5,11.16-6.82,10S1317.09,1254.93,1318,1250.76Z"/></g></g></svg>