<?xml version="1.0" encoding="UTF-8"?>
<svg xmlns="http://www.w3.org/2000/svg" xmlns:xlink="http://www.w3.org/1999/xlink" width="283.33pt" height="296.86pt" viewBox="0 0 283.33 296.86" version="1.1">
<defs>
<clipPath id="clip1">
  <path d="M 0 0 L 283.328125 0 L 283.328125 296.859375 L 0 296.859375 Z M 0 0 "/>
</clipPath>
</defs>
<g id="surface1">
<g clip-path="url(#clip1)" clip-rule="nonzero">
<path style=" stroke:none;fill-rule:nonzero;fill:rgb(0%,0%,0%);fill-opacity:1;" d="M 117.179688 204.8125 C 117.300781 205.855469 117.410156 207.839844 117.777344 209.773438 C 119.140625 216.96875 120.128906 217.449219 127.074219 214.929688 C 137.441406 211.171875 147.867188 211.148438 157.855469 215.835938 C 162.304688 217.921875 163.703125 216.359375 164.792969 212.527344 C 167.617188 202.628906 166.109375 193.742188 158.460938 186.496094 C 150.796875 179.230469 141.613281 177.917969 132.132813 181.742188 C 122.480469 185.636719 117.601563 193.414063 117.179688 204.8125 M 42.609375 179.882813 C 25.34375 179.742188 13.082031 196.96875 19.203125 212.730469 C 20.417969 215.863281 21.386719 217.957031 25.734375 215.945313 C 36.65625 210.894531 47.957031 210.929688 58.925781 215.953125 C 62.597656 217.640625 63.835938 216.585938 65.199219 213.277344 C 71.675781 197.535156 59.902344 180.019531 42.609375 179.882813 M 240.796875 179.882813 C 223.449219 179.96875 211.609375 197.414063 218.09375 213.179688 C 219.382813 216.316406 220.453125 217.820313 224.296875 215.992188 C 235.253906 210.785156 246.550781 210.917969 257.488281 215.96875 C 261.6875 217.90625 262.828125 216.191406 264.101563 212.882813 C 270.199219 197.050781 258.046875 179.792969 240.796875 179.882813 M 67.011719 254.484375 C 66.925781 241.402344 55.601563 230.054688 42.527344 229.9375 C 29.109375 229.816406 17.554688 241.328125 17.652344 254.71875 C 17.75 268.109375 29.511719 279.628906 42.78125 279.335938 C 55.859375 279.046875 67.09375 267.523438 67.011719 254.484375 M 166.140625 254.730469 C 166.222656 241.355469 155.449219 230.234375 142.101563 229.921875 C 128.589844 229.601563 117.289063 240.757813 117.214844 254.472656 C 117.144531 267.859375 127.914063 279.027344 141.199219 279.339844 C 154.589844 279.65625 166.054688 268.34375 166.140625 254.730469 M 166.144531 42.007813 C 165.972656 28.679688 154.882813 17.578125 141.695313 17.539063 C 128.179688 17.5 117.066406 28.851563 117.214844 42.558594 C 117.355469 55.851563 128.4375 66.964844 141.605469 67.011719 C 155.039063 67.058594 166.316406 55.566406 166.144531 42.007813 M 265.695313 254.527344 C 265.664063 241.460938 254.363281 230.109375 241.210938 229.9375 C 227.8125 229.761719 216.15625 241.34375 216.261719 254.71875 C 216.371094 267.753906 227.707031 279.167969 240.710938 279.335938 C 254.039063 279.503906 265.722656 267.90625 265.695313 254.527344 M 99.679688 150.328125 L 99.65625 150.328125 C 99.65625 160.464844 99.605469 170.601563 99.707031 180.738281 C 99.722656 182.273438 98.652344 184.480469 101.144531 185.210938 C 103.671875 185.945313 104.578125 183.964844 105.601563 182.261719 C 110.796875 173.601563 118.246094 167.488281 127.746094 164.414063 C 132.085938 163.011719 132.828125 160.828125 132.777344 156.824219 C 132.59375 142.503906 132.652344 128.179688 132.816406 113.859375 C 132.871094 109.296875 133.1875 105.121094 126.789063 104.902344 C 124.792969 104.835938 123.027344 103.191406 122.25 101.378906 C 120.910156 98.246094 118.761719 98.746094 116.269531 99.308594 C 106.785156 101.453125 100.027344 109.820313 99.734375 120.585938 C 99.46875 130.492188 99.679688 140.414063 99.679688 150.328125 M 183.578125 150.421875 C 183.578125 140.714844 183.636719 131.007813 183.5625 121.300781 C 183.484375 111.542969 179.105469 104.382813 170.140625 100.355469 C 166.53125 98.734375 162.757813 97.210938 160.1875 102.390625 C 159.054688 104.675781 156.367188 105.476563 153.921875 105.546875 C 150.828125 105.640625 150.480469 107.257813 150.492188 109.804688 C 150.566406 126.128906 150.589844 142.453125 150.472656 158.777344 C 150.453125 161.660156 151.34375 163.054688 154.171875 163.949219 C 164.441406 167.199219 172.511719 173.402344 177.960938 182.789063 C 178.917969 184.4375 179.890625 185.800781 182.019531 185.265625 C 184.648438 184.605469 183.515625 182.375 183.53125 180.863281 C 183.644531 170.71875 183.589844 160.570313 183.578125 150.421875 M 198.347656 201.425781 C 197.277344 201.765625 196.441406 202.324219 195.703125 202.21875 C 185.097656 200.65625 183.335938 206.960938 182.214844 215.644531 C 181.136719 223.976563 180.125 235.261719 182.242188 242.511719 C 187.613281 260.914063 179.921875 280.839844 163.617188 290.761719 C 147.117188 300.800781 125.863281 298.25 111.746094 284.539063 C 98.148438 271.328125 95.34375 250.203125 105.296875 233.429688 C 107.1875 230.246094 107.074219 228.152344 105.09375 225.171875 C 101.761719 220.152344 99.757813 214.402344 99.71875 208.359375 C 99.683594 203.566406 97.714844 202.179688 93.34375 202.847656 C 90.675781 203.253906 88.101563 202.585938 85.121094 201.398438 C 84.277344 210.976563 82.914063 220.230469 77.183594 228.140625 C 75.828125 230.015625 77.679688 231.414063 78.507813 232.863281 C 89.074219 251.371094 85.464844 273.484375 69.664063 286.855469 C 54.265625 299.890625 31.398438 300.183594 15.980469 287.550781 C -0.492188 274.054688 -4.71875 252.648438 5.59375 233.957031 C 7.1875 231.058594 7.964844 228.976563 6.128906 225.609375 C -5.738281 203.886719 0.621094 179.617188 21.226563 167.683594 C 40.40625 156.578125 65.949219 161.746094 78.796875 182.90625 C 79.453125 183.988281 80.183594 185.03125 81.960938 187.742188 L 81.960938 167.921875 C 81.960938 153.578125 81.953125 139.234375 81.964844 124.890625 C 81.992188 98.429688 95.542969 83.355469 122.730469 80.519531 C 107.523438 71.117188 99.050781 58.324219 99.367188 40.730469 C 99.574219 29.09375 104.390625 19.34375 112.828125 11.503906 C 130.839844 -5.234375 158.996094 -3.433594 174.160156 15.140625 C 189.273438 33.652344 188.078125 63.460938 161.941406 79.675781 C 162.578125 81.847656 164.464844 80.835938 165.730469 81.011719 C 186.820313 83.902344 201.132813 99.894531 201.277344 121.199219 C 201.421875 142.742188 201.308594 164.289063 201.308594 187.6875 C 206.46875 179.894531 210.742188 173.664063 217.246094 169.375 C 234.078125 158.269531 254.996094 159.742188 269.746094 173.273438 C 283.976563 186.324219 287.476563 207.585938 277.789063 224.730469 C 275.785156 228.277344 275.738281 230.609375 277.730469 234.179688 C 288.117188 252.761719 283.734375 274.277344 267.210938 287.714844 C 251.84375 300.210938 228.988281 299.816406 213.480469 286.785156 C 198.035156 273.8125 194.183594 251.1875 204.613281 233.339844 C 206.265625 230.511719 206.621094 228.558594 204.664063 225.679688 C 199.796875 218.511719 199.058594 210.058594 198.347656 201.425781 "/>
</g>
</g>
</svg>
