<svg id="instagram-sketched" xmlns="http://www.w3.org/2000/svg" width="30" height="30" viewBox="0 0 30 30">
  <path id="Path_2132" data-name="Path 2132" d="M107.7,91H93.637A2.64,2.64,0,0,0,91,93.637V107.7a2.64,2.64,0,0,0,2.637,2.637H107.7a2.64,2.64,0,0,0,2.637-2.637V93.637A2.64,2.64,0,0,0,107.7,91Zm-7.031,15.82a6.152,6.152,0,1,1,6.152-6.152A6.16,6.16,0,0,1,100.668,106.82Zm6.152-10.547a1.758,1.758,0,1,1,1.758-1.758A1.76,1.76,0,0,1,106.82,96.273Zm0,0" transform="translate(-85.668 -85.668)" fill="#fff"/>
  <path id="Path_2133" data-name="Path 2133" d="M185.395,181a4.395,4.395,0,1,0,4.395,4.395A4.4,4.4,0,0,0,185.395,181Zm0,0" transform="translate(-170.395 -170.395)" fill="#fff"/>
  <path id="Path_2134" data-name="Path 2134" d="M25.547,0H4.453A4.5,4.5,0,0,0,0,4.453V25.547A4.5,4.5,0,0,0,4.453,30H25.547A4.5,4.5,0,0,0,30,25.547V4.453A4.5,4.5,0,0,0,25.547,0Zm.879,22.031a4.4,4.4,0,0,1-4.395,4.395H7.969a4.4,4.4,0,0,1-4.395-4.395V7.969A4.4,4.4,0,0,1,7.969,3.574H22.031a4.4,4.4,0,0,1,4.395,4.395Zm0,0" fill="#fff"/>
</svg>
