<?xml version="1.0" encoding="utf-8"?>
<!-- Generator: Adobe Illustrator 24.1.2, SVG Export Plug-In . SVG Version: 6.00 Build 0)  -->
<svg version="1.1" id="Capa_1" xmlns="http://www.w3.org/2000/svg" xmlns:xlink="http://www.w3.org/1999/xlink" x="0px" y="0px"
	 viewBox="0 0 512 512" style="enable-background:new 0 0 512 512;" xml:space="preserve">
<style type="text/css">
	.st0{fill:#FFFFFF;}
</style>
<g>
	<g>
		<path class="st0" d="M437,75C388.7,26.6,324.4,0,256,0C187.6,0,123.3,26.6,75,75C26.6,123.3,0,187.6,0,256
			c0,68.4,26.6,132.7,75,181c48.4,48.4,112.6,75,181,75c68.4,0,132.7-26.6,181-75c48.4-48.4,75-112.6,75-181S485.4,123.3,437,75z
			 M400.9,268.5L208.1,397c-2.5,1.7-5.4,2.5-8.3,2.5c-2.4,0-4.9-0.6-7.1-1.8c-4.9-2.6-7.9-7.7-7.9-13.2V127.5c0-5.5,3-10.6,7.9-13.2
			c4.9-2.6,10.8-2.3,15.4,0.7l192.8,128.5c4.2,2.8,6.7,7.5,6.7,12.5C407.6,261,405.1,265.7,400.9,268.5z"/>
	</g>
</g>
</svg>
