<?xml version="1.0" encoding="utf-8"?>
<!-- Generator: Adobe Illustrator 24.1.2, SVG Export Plug-In . SVG Version: 6.00 Build 0)  -->
<svg version="1.1" id="Layer_1" xmlns="http://www.w3.org/2000/svg" xmlns:xlink="http://www.w3.org/1999/xlink" x="0px" y="0px"
	 viewBox="0 0 1027 449" style="enable-background:new 0 0 1027 449;" xml:space="preserve">
<style type="text/css">
	.st0{clip-path:url(#SVGID_2_);}
	.st1{opacity:0.6;fill:#E8E8E8;enable-background:new    ;}
	.st2{fill-opacity:0.4;}
	.st3{fill:url(#SVGID_3_);}
	.st4{fill:#00C3E6;}
	.st5{fill:#FFFFFF;}
	.st6{fill:url(#SVGID_4_);}
	.st7{fill:#4B3AD1;}
	.st8{fill:url(#SVGID_5_);}
	.st9{fill:#FFAA00;}
	.st10{fill:none;}
	.st11{opacity:0.64;}
	.st12{font-family:'Lato-Regular';}
	.st13{font-size:15px;}
	.st14{font-family:'Lato-Bold';}
	.st15{font-size:17px;}
</style>
<g>
	<g>
		<g>
			<g>
				<defs>
					<rect id="SVGID_1_" x="21.6" y="-15.5" width="983" height="490.8"/>
				</defs>
				<clipPath id="SVGID_2_">
					<use xlink:href="#SVGID_1_"  style="overflow:visible;"/>
				</clipPath>
				<g class="st0">
					<path class="st1" d="M115.9,114.8c2,0,2.2,0.5,3.9,0c1.7-0.5,6.6-2.8,8.3-3.1c1.7-0.3,2.8,0.1,0.3,1.1s-7.4,3.1-6.6,2.9
						s3.4-0.9,7-2.1s3.2-0.7,4.1-1.9l1.4-1.9c0,0,5.6,4.1,6.2,4.3c0.6,0.2,0.7,0,1-0.5s0.9-1.2,1.7-1s0.1,1.2,0.6,1.4
						c0.9,0.1,1.9-0.1,2.8-0.4c1.5-0.4,0.7-1.1,0.7-1.1s-0.2,0,1.6-0.1c1.7-0.1,7.1,1.3,8.7,1.8c1.6,0.5,6.4,0.8,7.8,1.1
						s1.9-0.6,3.8,0.2c1.9,0.8,3.3,1.7,1.9,2.2c-1.4,0.5-4.9,0.9-3.1,1.2c2.3,0.4,4.7,0.7,7.1,0.7c2.6,0,7.3-0.7,8.7-0.7
						s2.3,0.6,3.7,2.3c0.8,1.1,1.8,1.9,3,2.4c0.5,0.1-0.5-0.8-0.2-1.6c0.1-1-0.1-2-0.6-2.9c-0.3-0.5,0-0.8-0.6-1.6
						c-0.6-0.8-1.7-0.6,0.2-1.3c1.9-0.7,3.2-1.6,5.6-1.4s2.9,2.3,4.9,2.4s2.4,0.7,5.8,0.9c3.4,0.2,2,0,5.8,0.2s2.4-0.3,3.2-1.7
						c0.4-1,1.5-1.7,2.6-1.6c0.9,0.1,4.1,0.4,4.1,0.7c0,0.3-1.4,1.8-0.7,2.5c1.1,0.8,2.2,1.4,3.4,1.9c0,0-0.6-1.7-0.6-1.9
						c0-0.2-0.2-1.5,0.2-1.8s2.7,0.1,4.1-1.9s-1-1.9-1-1.9s-0.9,0-0.4-0.8c0.4-0.8,3-1.3,3-1.3s0.2,0.4-0.2-0.3
						c-0.4-0.7-2-0.5-3.8-0.6s-3-0.3-3.4-1.3c-0.3-1.6-0.5-3.3-0.4-4.9c0-1.6,1.8-1,2.1-1.9c0.2-2,0-4.1-0.5-6
						c-0.4-0.9,0.6-2.8,0.9-4s2-0.7,2-0.7c-0.3-0.4,0.5-1.6,2.9-2.1c2.3-0.3,4.6-0.3,6.9,0c0,0-0.4,0-1.5,1.1s-0.4,2.9-2.1,4.2
						s-5.9,0.9-5.9,0.9s1.3,2.1,0.8,2.8c-0.4,0.6-0.7,1.3-0.9,2.1c0,0,3.8,0.7,3.9,2.4c0.1,1.7,2.1,2,2.5,3.5s-1.8,2.9-1.4,3.1
						c0.6,0.3,1.3,0.5,2,0.4c1.4,0,3.2,0.2,3.2,0.2c-0.4,0.5-0.5,1.2-0.1,1.6c0.7,0.8,0.2,1.4,0.2,2.3s0.8,1.7,1.1,1.5
						c0.9-1,1.6-2.2,2.1-3.5c0.3-1,0.6-1.6,1.2-1.6c1.2,0.4,2.2,1,3,1.9c0.2,0.5,0.4,1.2-0.8,2.6s-1.1,2,0,2.5c1,0.4,2,0.8,3,1
						c1.9,0.6,1.5,0.6,2.7,0.3c1.2-0.3-0.5-2.3-0.4-2.4s2.8-0.3,2.2-1.3s-1.2-1.6,0-2.1s2.1-1,2.1-1c-0.7-0.7-1.2-1.6-1.6-2.5
						c-0.9-1.8,0.8-1.3,4.2-1.1c3.4,0.2,3.6,1,5.4,1.7s0.7,0.9,1.3,2s-1.5,1.2-1.5,1.2s-1.4,0.2-1.1,1c0.5,1.1,1.2,2.1,2,3.1
						c1,1.3-0.3,2.1-1.8,3.2c-1.6,0.9-3.4,1.4-5.2,1.4s-2.6,0.6-2.8,0.2s-1-0.7-2-0.6s-3.3,0.8-2.5,1s2.9,0.2,2,1.3
						c-0.9,1.1-1.6,1.2-3.4,1s-3.4-0.1-4.5-0.2l-6.6-0.3c2.2,0.9,4.4,1.7,6.7,2.3c2,0.4,4,0.5,6.1,0.3c0,0-1.2,1.6-2.6,3.3
						c-1.4,1.7-2.8,0.9-4,1s-1.9,0.8-4.1,1s-6.9-0.4-6.2-0.2c0.7,0.4,1.5,0.7,2.3,0.8c1.1,0,2.2,0.4,3.2,0.9c1.1,0.7-0.7,0.8-2.2,1
						c-1,0-1.9,0.3-2.6,1s-3.2,3.2-4,4c-1,1-1.6,2.3-1.8,3.7c-0.3,1.6-2.2,3.4-1.4,3.8s4,0.4,5.3,1s2.8,3.4,3.8,4.5s1.8,1.9,2.9,1.1
						c1.1-0.8,3.3-0.6,5.4-0.1c2.7,0.9,5.2,2.1,7.6,3.5c1.3,0.9,3.6,0.8,6.2,1s2.9,1,2.9,1s2.7,0.1,1.6,0.9c-1.1,0.8-1.4,0-0.3,1.4
						c0.9,1.2,1.2,2.7,0.8,4.1c-0.3,0.9,3.6,0.5,5.2,1.1s1.7,3.5,2.6,3.1s2.2-1,2.4-1.7c0.1-1,0-2-0.2-3c-0.2-1.3-0.6-3.6-1.5-4.5
						s1.6-1.3,1.2-1.7s-0.3-1.2,1.4-1.5s1.8,0,2.7-0.5s1.1-2.9,1.2-3.7c0.1-1.2-0.2-2.3-0.7-3.4c-0.8-1.2-1.6-2.3-2.6-3.4
						c-0.6-0.5-1.4-0.6,0.3-2.1c1.7-1.5,0.7-1.2,0.4-1.6c-0.4-0.8-0.7-1.7-0.9-2.6c-0.3-1,0.7-2.1,0.1-3.5s-1.2-1.1-1.1-1.4
						c0.1-0.3,3.9-0.2,6.7,0c1.6,0.1,3.2,0,4.7-0.2c1.3,0.2,2.6,0.6,3.8,1.3c1.6,0.7,2.2,0.5,3,1.4c0.6,0.9,1.7,1.4,2.9,1.3
						c1.2,0,2.3,0.2,3.4,0.5c-0.7,0.4-1.2,1.2-1,2c0,1.1,0,2.2-0.2,3.3c0,0.6,0.5,0.7,1.2,0.7s2.8,1.4,4.9,1.9s2.7,0.4,3.4-0.8
						c0.7-1.2,0.8-1.1,1.7-1.2s1.1,0.1,1.5-0.1s-0.6-0.8-0.4-1.6c0.5-1.1,1.3-2,2.4-2.6c1-0.6,1.6,0.6,2.5,1.8s3.8,4.9,4.6,6.2
						c0.8,1.3,1.9,1.3,0.9,2.5s-1.5,1.7,0.1,2.2s3,1.4,2.8,2.3c-0.2,0.9-0.5,0.9,0.1,1.1s2.4-0.5,3.8,0c1.4,0.3,2.7,0.8,4,1.5
						c1,0.7,0.9,0.9-0.5,1.3c-1.2,0.3-2.3,0.6-3.4,1c-0.7,0.3-1.8,0.9-1.7,1.3s-0.3,1.2,0.8,0.6c1.3-0.7,2.7-1.1,4.1-1.4
						c1.3-0.3,0.3,0,1.5-0.1s2.3,0.4,3.9,0.7s1.2,1,0.8,1.7s-0.8,1.3-0.1,2c0.7,0.7-0.3,1.4-1.7,2.3s-2.4,1-4.7,1.2
						c-2.3,0.2-3.4,1.2-5,2.2s-2.4,0.8-4.7,0.9c-2.3,0.1-1.4-0.8-2.1-0.6c-1,0.4-2,0.7-3.1,0.9c-1.5,0.1-6.5,0.2-8.4,0.6
						s-1.3,1.3-1.8,2.1s-1.2,0.4-2.7,0.8s-3.2,1.9-4.8,3.9c-1.1,1.3-2.5,2.5-4,3.3c1.4-0.5,2.8-1.2,4-2.1c1.1-1,6-3.4,7.5-4.1
						s4.7-1.8,5.4-1.7c0.7,0.1,2.6,1.2,2.6,1.7s-0.6,1-1.9,1.9s-3.2,0-3,0.4c0.5,0.7,1.3,1.2,2.1,1.4c1,0.2,1,1.1,1,1.5
						s-0.6,1,1.8,2.5c1.7,1.1,3.8,1.6,5.8,1.4c1.8-0.1,0.8,0.4,1.6,0.4c0.8,0,0.9-1,1.1-1.8s0.6-1.4,1.3-1.9c0.6-0.3,1.1-1,1.3,0.2
						c0.1,1.3-0.5,2.6-1.6,3.3c-0.9,0.4-0.7,0.9-0.7,1.2s-1,0.4-3.5,1.4s-3.3,1.2-3.7,1.1c-0.9,0-1.8,0.3-2.6,0.9
						c-1.2,0.8-2.5,1.8-3.4,1.8s-1.6-0.3-0.4-1.2s1.6-2.1,2.8-2.5c0.9-0.3,1.8-0.4,2.8-0.4s0.5-0.4,1.3-0.9s-0.6-0.3-2-0.4
						s-0.3-1-0.3-1l-1.4,0.5c-0.9,0.3-1.8,0.6-2.7,0.9c-0.6,0-0.4,0.3-0.6,0.5c-0.7,0.2-1.4,0.2-2.2,0.3c-0.6,0.9-1.6,1.5-2.6,1.7
						c-1.5,0.2-0.5,0.1-1.6,0.5s-0.9-0.4-1.2-0.2c-0.5,0.4-1.1,0.8-1.7,1.1c-1.2,0.7-2,0.9-2.8,3.3c-0.8,2.4,0.2,3.3,0.1,3.6
						s-1.6-0.2-2,0c-0.8,0.7-1.7,1.2-2.8,1.5c-1.3,0.3-3.9,0.7-4.5,1.2s-0.6,1.1-0.9,2c-0.5,1.1-1.1,2.1-1.8,3.1
						c0.2-0.6-0.1-1.3-0.7-1.5c-1.1-0.6-0.9-1.2-0.9-1.2c-0.1,0.6-0.1,1.2,0.1,1.8c0.4,0.9,1.2,1.8,0.8,2.8c-0.3,1-1,1.9-1.9,2.5
						c-0.8,0.4,0.2-0.7,0.2-1.4s-0.6-0.9-0.9-1.2s-0.4-1.4,0.3-2.8c0.7-1.4-0.6-0.5-1.3,0.4s-1.2,2.6-0.1,3.6s-0.7,1,0,2.5
						s-0.9,2.3-0.6,2.6s1.2-0.1,1.6,0.7s-0.8,0.4-1.2,0.6s-0.2,0.5,0,0.9s0.7,0.2,0.5,0.3c-0.5,0.4-1.1,0.7-1.8,0.9
						c-1,0.2-1.1-0.1-1.8,0.4c-0.7,0.5-1.1,1-1.8,1.6s-1.2,0.4-1.9,0.8s-1,0.8-1.9,1.3c-1.4,0.7-2.7,1.5-3.9,2.4
						c-1.1,1-0.8,1.3-1.3,3s1.3,4.6,2.5,7.3s1.6,2,1.5,2.9c-0.2,1-0.7,1.9-1.5,2.5s-1.3-0.4-2.5-1s-0.2-1-1.4-2.3
						c-0.7-0.7-1.2-1.6-1.2-2.6c-0.1-1.1-0.4-2.2-0.9-3.3c-0.7-1.4-2.3-2.1-3.8-1.8c-1.9,0.5-1.4,0.3-2.5,0s-3.8-1-5.2-0.5
						s-5.8-0.2-6.8,0s-1.6,0.2-1.6,0.7s-0.4,0.5,1.2,0.8c1.6,0.3,1.4,0.7,1.3,1.2c-0.1,0.5-1.3-0.3-2-0.4s-1.2,0.4-2.4,0.4
						s-1.3-0.8-2.3-0.9c-0.8,0-1.6-0.1-2.4-0.3c-1.1-0.4-2.2-0.6-3.4-0.7c-1.1,0.1-5.4,2.1-7.5,3.2c-2.1,1.1-3.6,2.1-4.1,3
						s-0.5,0.9,1.1,2.2s0.9,1.1,0.6,1.8s-1.3,1.6-2.4,3.5s-0.5,2.8,0.9,4.6c1,1.5,2.3,2.8,3.8,3.9c0.9,0.8,1.8,1.4,2.9,1.9
						c0.6,0.1,1.1,0.4,1.6,0.7c0.4,0.3,0.3,0.5,1.8,0.2c1.2-0.3,2.5-0.6,3.7-0.7c0.9-0.1,1.8,0.1,2.7,0.4c0.6,0.4,0.7,0.2,0.7,0
						c0.2-0.4,0.4-0.8,0.6-1.2c0.7-0.7,1.3-1.5,1.8-2.5c0.2-0.8,0.2-2.4,1.6-2.5c2.4-0.3,4.7-0.5,7.1-0.5c2.7,0.1,1.5,1.1,0.8,2.1
						s-1,1.1-1,1.9s0.3,0.8-0.6,1.2c-0.9,0.4-0.3-0.3-0.7,0.2c-0.4,0.4-0.9,0.8-1.5,1c0.1-0.1,0.6,0.8,0.6,1.2s-0.1,0.6-0.1,1.7
						c0,1.1-2.8,2.1-2.8,2.1c0.8,0.3,1.7,0.4,2.6,0.4c1.7-0.1,3.3,0.1,4.9,0.5c1.6,0.5,4.6-0.4,6.9,0.4c2.3,0.8,1.4,1.3,1.6,2
						c0.2,1.3,0.3,2.6,0.3,3.9c-0.2,0.6-1.2,2.2-1.8,3.4c-0.6,1.2,1.6,2,3.6,3c1.5,0.7,3.1,1.3,4.8,1.6c1,0.2,2.9-1.1,6.5-1
						s4.7,2.3,4.7,2.3c0.5-1.2,1.1-2.2,2-3.1c1.6-1.8,1.7-2.3,3.8-2.9c2.1-0.6,2.9-0.7,6.4-1.5s2.9-0.2,4.7-0.1
						c3.5,0.2,6.9,0.6,10.3,1.3c4.2,0.9,10.7,1.2,13.2,1.9c2.5,0.7,3.6,2.8,6.1,4.5s5.8,3.2,7.1,4c1.3,0.8,8.9,1.5,10.6,2
						s4,2.4,4.1,3.6s1.8,1.7,4.1,2.4c2.3,0.7,3,1.5,4.6,3.6s1,2.7,3.1,3.2s16.5,3.3,20,4.3s8.1,3.7,9.4,4s3.4-0.3,4.3,0.1
						s-0.6,2.4,0.6,3.8s1.3,1.5,0.6,2.6c-0.7,1.1-3.6,3.6-4.7,4.9s-3.5,2.1-4.9,2.6s-2.6,0-1.4,1.1s0.1,2-1,2.9s0.1,0.8-0.2,3.9
						c-0.3,3.1,0,6.4-0.5,7.7s-3.3-1.2-6.5,1.7c-3.2,2.9-4.1,5-6,5.3c-2.8,0.6-5.4,1.6-7.9,2.9c-1.2,0.7-2.1,1.7-2.8,2.9
						c-1,1.5-1.9,4.5-3,6.4s-2.7,2.9-6.5,5.4s-5.5,5-8,7s-1.8,1.5-2.4,1.9c-1.3,1-6.8-1.5-5.4-0.1c1,1-0.6,0,0.3,0.9s1.5,1.3-0.4,3
						s-4.1,1.4-5.6,1.6s-3.8-1.1-3.9-0.4c-0.3,1.2-1.1,2.2-2.2,2.8c-1.2,0.4-4.4,1.1-4.3,1.3c1.5,5,4.6,5.5,1.3,5.3
						c-9-0.6-2.6-2.1-8.8,7.2c-1,1.4-1.9,0.7-1.8,2.4c0.1,1.7,0,3,1.3,4s0.4,1-1.8,2.4c-2.2,1.4-2.3,1.2-4.3,3.4
						c-2,2.2-3.9,2.1-3.2,3.7s0.9,4.1,2.1,6.5s3.7,2,7.6,3.7s4.4,0.8,6.3,1.2c1.9,0.4-1.4,0.5-4.8,1s-5.7,0.9-8.1,0.5
						s-8.1-2.7-10-3.7s-5-2.8-6.1-4.5s-1.9-3.5-3.4-5.9s-0.4-3.9,0.2-9.1s1.1-9.3,2.2-12.1c1.1-2.8,4.2-15.3,5.1-18.5
						s5-16.3,5.3-18.4c0.2-1.9,0.6-3.8,1.2-5.7c0.6-2.1,0.2-6.2,0.2-6.5s-0.2-0.4-1.1-2.3s-2.3-2.8-4.3-3.6s-4.1-1.9-5.7-2.7
						c-1.8-0.9-3.6-2-5.1-3.3c-1.6-1.4-3.1-4.3-3.9-5.5c-2-2.9-4.1-5.6-6.5-8.2c-2.7-2.9-2.9-2.9-4.2-5.9c-1.3-3,1.2-3.1,1.7-4.8
						c0.5-1.7,2.1-3.4,3.8-5.8c1.8-2.4,4.1-3.1,5.4-5.2s0.3-2.1-0.2-4.2s0.2-1.7-0.7-2.9c-0.9-1.2-1.4-2.5-2.1-2.9
						c-0.8-0.5-1.9-0.5-2.7-0.1c-0.7,0.6-2,2.3-2.8,2.4s-1.1-0.5-1.6-0.9s-2.8-0.4-3.3-0.7c-0.8-0.3-1.6-0.5-2.5-0.7
						c-1.6-0.6-3.2-1.2-4.8-2c-1.1-0.7-1.9-1.9-2-3.2c0-1.4-1.7-1.9-5.4-3.8s-5.4-2.2-9.9-3s-6.4-3.1-7.9-3.7s-1.4-1.3-4.7-1.1
						c-3.3,0.2-7.4-1.1-10-1.8s-7.1-1.3-9-2.2s-5.3-1.2-6.7-3.4s-1.2-1.3-0.6-3.2c0.6-1.9-3.3-3.5-5.6-5.3s-4.1-2.1-5.3-4.3
						s-2.9-2.1-5.3-3.7c-2.4-1.6-2.1-3.3-3.1-5.1s-7.3-4.4-7.3-4.4s1.7,3,2.4,4.2c1.2,2.2,2.7,4.3,4.3,6.3c1.9,2.2,3.6,2.7,5.4,4.9
						c1.8,2.2,0.1,3.5-0.6,2.6s-3.2-1.2-3.2-2.2c-0.1-0.9-0.5-1.8-1.2-2.4c-0.6-0.8-3-1.7-5.4-3.1c-2.4-1.4-4.1-2-2.6-2
						s3.7,1,3.3,0.4s-3.1-2.6-4.4-4s-1.7-2.9-3-5.2s-6-4.5-8.3-4.7s-3-0.9-3.7-2.6s-1-3.5-2-4.8s-5.5-5.8-5.6-7.4
						c-0.1-1.6-1.4-6.6,0.2-9.4c1.6-2.8,1.2-8.9,1-10.1c-0.2-1.2-3.1-3.5-3.1-4.4s1.7-0.4,2.9-0.1s4,1.1,4,1.1
						c-1-1.3-2.1-2.6-3.3-3.7c-2.1-1.2-4.4-2-6.7-2.4c-1.7-0.3-3.8-0.7-4.7-1.7s-1.8-2.3-2.5-3.2s-3.3-1.9-4-2.8s-0.5-2.6-1.4-3.5
						c-0.9-1-2.3-1.4-3.6-1.1c-1.4,0.4-1.9-0.5-3-1.9s-3.6-2-4.3-2.1c-1.3-0.8-2.5-1.8-3.3-3.1c-0.2-0.6-4.1-3.6-5.3-4.3
						c-1.2-0.7-13.7-3.5-14-3.5c-1.6,0.2-3.3,0.2-4.9,0.2c-1-0.2-4.2-2.2-5.9-2.6c-1.5-0.4-3,0.4-3.7,1.8c-0.8,1.3-4.7,3.6-6.9,4.6
						c-2.2,1-3.9,1.1-3.8,0.6c0.1-0.9,0.4-1.8,0.8-2.6c0.7-1.3,1.1-1.6,3.3-2.4c2.2-0.8,2.2-0.8,1.3-0.8c-0.9,0-1.5-0.1,0.2-0.8
						s2.5-0.9,2.4-1.5s-3.8,0.9-6.2,2.2c-2.3,1.2-4.3,2.8-5.9,4.8c-2.1,2.4,0.2,1.5-1.5,3.1c-1.7,1.6-7.8,4.8-9.5,6s-9,3.9-12,4.6
						c-3,0.7-4.1,0.9-5.6,1.7s-5,1.1-3.8,0.5s3.4-1.9,4.9-2.5s5.6-1.8,6.8-2.1c2.2-0.7,4.4-1.7,6.3-3.1c1.4-1.2,2.7-2.6,3.9-4.1
						c1.1-1.3,1.4-1.9-1-1.3c-1.9,0.4-4,0.4-5.9,0c-1.2-0.3-4.3,1-5.4,0.4c-1.1-0.6,0.1-1.8-0.6-2.4c-0.7-0.6-3.2-0.2-4.8-0.4
						s-3.8-1.1-3.8-2.7s-1.6-3-0.7-4.2c0.9-1.2,2.2-1.5,3.6-2.2c2-0.8,4.1-1.3,6.2-1.6c1-0.1,1.9-0.5,2.6-1.1
						c0.7-0.5-1.7-2.4-1.7-2.4s0.4-0.2,1.4-0.6s0.2-1.3-1.4-1.2s-5.3,1.4-7.5,1.8s-5.3,0.2-5.2-0.5s0.6-1.1-0.2-1.6
						s-1.4-1.1-0.6-1.4c0.8-0.3,5.8-2.8,5.8-2.8c1.1,0.8,2.3,1.3,3.7,1.5c1.9,0.2,6-2.4,6-2.4c-2.6-1.1-2-1.4-2-1.4
						s-4.1-0.1-5.1-0.5c-0.8-0.4-1.3-1.1-1.5-2c-0.2-0.7-4.3-1.3-3.2-2.5s3.2-1.6,4.5-2.9c1.4-1.2,2.6-3.5,6.5-4.8s8.6-2.4,10.7-3.5
						s3,0,3.8,0.1s5.8-0.1,7.7-0.1s2.2,1.5,2.9,1.9c0.7,0.4,17.5,0.7,17.5,0.7s14.3,0.2,17.2,0.7s8.1,2.1,8.1,2.1
						C114.2,117.5,113.9,114.8,115.9,114.8z M307.9,53.4c0,0-1.4,4.2-7.2,5.4c-5.8,1.2-16.3,4.5-16.8,4.7s0.6,2.5,2.1,3.7
						s2.8,1.9,4.1,3.1c1.3,1.2,3.5,1.1,5.3,2.2s3,0.8,7.8,0.8s3.5,0.3,8.9,0.5s11,0.5,12.8,1.7s4.5,5.7,6.1,8.5s4.6,7.3,4.6,7.7
						s-1.8,3.7-1.8,4.3s1,1.4,1.8,2.2c0.8,0.7,0.4,1.3,0.2,2c-0.2,0.7,1,2.4,1.1,2.7c0.1,0.2,2.5-1.7,4.1-2s5.3,1.9,5.3,3.4
						c0,3.5,1.3,2.3-6.6,6.4c-1,0.6-2.1,4.7-1.3,6.7c0.8,2,2.7,4.4,4.2,7.2s6,6.9,7.4,8.7s1.8,4.4,5,5s6.2,1.4,8.5,1.7
						s3.8,0.9,5-0.6s3.4-7.3,5.2-11.6c1.8-4.3-0.2-5.5,4.1-6.4c4.3-0.9,11.2-2.9,13-3.4s1.5-4.8,5.6-6.1c2.8-0.9,5.7-1.7,8.6-2.2
						c4.7-1.1,9.2-2.6,13.6-4.7c4-2,5.1-1,6.5-2.8s-1.4-4.6-1.8-7.3c-0.3-2.8,1.3-2.9,2.1-5.4s1.2-4.1,4.3-5.8s4.8-2.6,4.2-4.2
						s-2.1-4-2.1-5.7s0.6-0.7-0.7-3.2s-1.3-2.8-0.1-5s4.4-1.7,4.2-2.7s-5.1-2.5-5.2-5.3s0.9-3.6,1.7-4.3c0.8-0.7,8.9-5.3,9.5-5.7
						s-0.2-1.6,3.8-3s5.4-2.3,6.9-2.7s3.9-0.4-0.7-1.3s-5.7-1.4-8.7-1.1s-4.1,1.5-9.5,1.8c-3.9,0.4-7.7,1.1-11.5,2.2
						c0,0,1.8-1.2,0.2-2.3s4.2-4.8,5.1-5.2s-7.5-1.9-11.9-2.5s-13-2.4-18-2.2c-5,0.2-12.2,0.2-14.7,0.8s-2.1,2.9-5,3s-8-1.2-12-0.8
						s-10.4,2.4-11.1,2.5s2.5,1.5,4.6,1.8s4.8,3.4,4.8,3.4s-5.6-1.3-11.3-2.4c-5.7-1.1-12.3,0-14.6,0.5c-3.3,0.8-6.6,1.4-10,1.5
						c-4.6,0.2-9.9,2.8-12.5,4.1s-10.9,4.6-12.9,5.5s-1.3,1.2,1,1.6C305.5,53.2,307.9,53.4,307.9,53.4L307.9,53.4z M189.6,97.1
						c0.6,1.9,0.6,4.7-0.9,3.5S186,97,183.6,98s-5,0.7-4.6,0.5s-0.1-1.3-1.3-1.6c-1.2-0.3-2,0.2-3.2,0.7s-5.3,1.2-3.7,0.3
						c1.6-0.9,1.1-1.4,0.5-2.5s-4.8,0.7-7,1.9s-3.6,2.9-4.9,4c-1.3,1.2-0.4,1.9,1.6,2.3s5.3,0.7,2.6,1.4s-4.8,1.2-3.4,1.8
						c2,0.6,4.1,0.8,6.2,0.5c2.7-0.4,5.5-0.4,8.3,0.1c2,0.4,4.1,0.7,6.1,0.7c-1.3,0.5-2.6,0.8-4,1c-2.6,0.3-7.2,0-9.6,0.3
						c-2.4,0.3-6.2,0.8-5.2,1.4c1.4,1.2,3.2,2,5,2.4c3.3,0.7,3.9,0,5.9,0.4s0.9,1.9,1.4,2.2c0.5,0.3,4.3-0.2,8-0.7s2.3-0.9,5.3-1.4
						s3-2.1,4.7-2.5s0.5,0.8,2.5,1.2c2,0.3,0.9,0.5,3.1,0.7s1.8,0.8,3.9,0.7c2.1-0.1,4.6-1.1,4.3-1.3c-0.5-0.3-0.6-0.9-0.4-1.3
						c0.2-0.7-2.1,0.1-3,0.5c-0.9,0.3-0.8-1,1-1.6s3.4,0,4.5,0s0.1-2.2-1.8-2.5c-1.9-0.3-2.8-1.2-5.6-2.3c-2.9-1.1-1.4-1.6-2.2-3.1
						s-2.7-5.9-4.3-6.6c-1.6-0.8-3.3-0.6-4.9-1.3C189.1,95.2,189.2,96.2,189.6,97.1z M145.4,94.1c0.7,1.4,0.8,0.5-0.6,2.1
						c-1.4,1.6-0.6,2.1-1.5,3.3c-1,1.2-3.5,2.7-2.7,3.5s3.4,1.2,4.4,1.8c1.1,0.6,2.1,1.8,4,1.4c1.3-0.3,2.6-0.7,3.9-1.3
						c1.3-0.5,2.4-1.1,2.4-2.3c0-1.2-0.1-1.8,0.4-1.7s1.4,0.7,1.8-0.1c0.5-1,1.2-1.8,2.1-2.5c0.9-0.6,3.5-1.3,4.7-2s3.3-1.6,3.9-2.2
						c0.6-0.6-1.1-1.1-2.1-1.4s-2.2-1.4-4.5-1.4s-3.6,1.3-3.5,0.7c0.1-0.6-1.6-0.8-2.6-1.1c-1.6-0.5-3.3-0.6-4.9-0.4
						c-2.3,0.1-4.5,0.4-6.7,0.9C141.8,91.8,144.7,92.7,145.4,94.1L145.4,94.1z M214.7,111c-0.9,0.4-1.7,0.8-2.6,1.3
						c-0.9,0.7,1.8,0.3,2.7,0.5s1.5,0.8,2.2,1c2,0.3,4,0.2,6-0.3c1.5-0.5,1.7-0.7,1.5-0.9c-1.7-1.3-3.5-2.4-5.4-3.2
						c-2.2-0.8-2.3-0.9-2.8-0.7C215.9,109,215,110.7,214.7,111L214.7,111z M204.6,94.5c-1.4,0.5-2.5,1.1,0,2
						c1.7,0.7,3.3,1.5,4.9,2.4c1.6,0.7,2.3,2.9,5.8,1.9s4.9-2.1,5.3-3.1c0.5-1-0.5-1.2-1.3-2.1c-0.6-1-1.7-1.4-2.8-1.2
						c-1.8,0.1-2.4,0.1-2.4,0.1c0.9-0.8,2-1.3,3.1-1.7c1.9-0.7,0.3-1.1,1.2-1.8c0.9-0.7-2.3-1-3.7-0.7s-1.4-0.1-3.7-0.1
						s-5.9,1.4-5.8,1.9c0.1,0.5,1.9,0.3,3.5,1s2.1,0.6,0.5,2.4s-2.4-0.4-3-0.7C205.6,94.5,206.1,94,204.6,94.5z M194.4,91.3
						c-2.4,0.2-3.2,1.3-2.3,1.5s1.5-0.2,2.9,0.9s2.7,1.7,3.3-0.1C198.9,91.8,198.1,91,194.4,91.3L194.4,91.3z M156,77.6
						c-2.7,1.5-3.2,2.7-5.3,3.7s-1.6,1.8-0.9,2.3s2.8,0,3.7-0.4c1-0.4,1.8-1.2,2.3-0.7s3-1.8,4-2.6c0.8-0.7,1.7-1.2,2.7-1.6
						c0.3,0-0.9,0.9-0.5,1.7c0.4,0.8,2.3,0.8,4-0.5s0.2-2.4,1.5-3.4s2.4-0.8-0.2-1.7c-1.6-0.7-3.4-0.5-4.8,0.6
						C162.1,75.4,161.2,74.7,156,77.6z M172.2,80c-1.6,0.1-3.2,0.4-4.7,1c-1.9,0.7-3.4,2.1-4.1,3.9c-0.6,1.1,0.3,1.1,2.6,1.7
						s5.5-0.2,6.2-1.7s1.7,0.4,1.2,1.1s1.6,0.1,2.6-0.3c1.3-0.3,2.7-0.5,4-0.5c-1.5,0.9-3.1,1.6-4.8,2s-3.5,0.8-5.2,1
						c-0.7,0.1,0.6,0.8,3.6,1.2s4.7-1.3,8.9-2.4s4-1.3,5.4-1s2.9-0.5,4.6-0.8c1.7-0.3,2.4,0.2,3.1-1.6c0.7-1.8,2.1-3.5-0.3-3.6
						c-2.4-0.1-2.6-0.1-2.9,1.8s-0.5,0.7-0.5,0.7s-1.6-1.7-2.6-2.6s-1.6-2.3-2.7-3s-1.6,0.3-3.2,1.6c-1.6,1.3-0.3,1.8,1.3,2.4
						s2.8,2,2,2.4s-1.7-0.1-4.7,0.2s-2.9-0.7-3.8-1c-0.9-0.3,1.4-0.9-1.8-1.8C173.2,79.8,173.3,80,172.2,80L172.2,80z M162.3,81.9
						c0.3-0.4-4,1.8-4.7,2.6c-0.7,0.8,0.7,0.6,2,0.6S161.2,83.2,162.3,81.9z M170.8,77.2c-1.1,0.3-1.1,0.6,0.7,0.8
						c1.8,0.2,2.8-0.4,2.4-1C173.5,76.4,171.6,76.9,170.8,77.2z M179.8,70.5c-1.2,0.1-4.6,1-4.8,1.4c-0.1,0.7,0.1,1.5,0.6,2.1
						c0.5,0.7,0.7,0.8,3.7,0.3s5-1.7,4-1.8c-1-0.1-1.6-0.5-2.5-0.6s0.8-0.4,2.7-0.9S186.2,69.8,179.8,70.5L179.8,70.5z M169.8,71.6
						c-0.8,0.3-1.1,0.3,0.6,0.8s3.6,0.4,3.4,0.1S172.1,70.8,169.8,71.6L169.8,71.6z M176.6,68.2c-1,0.3-1.8,0.8-2.4,1.7
						c-0.4,0.3,1.9-0.2,2.9-0.4c1-0.2,1.3,0.3,2.3-0.4c1-0.7,3,0,4.8-0.3s2.1-1.1,1.7-1.9C185.5,66.1,181.4,66.8,176.6,68.2z
						 M194.6,71.3c-0.5,0.2-0.3,0.7,0.1,1.4c0.4,0.7,0.5,0.5,1.4,0.7c0.7,0.2,1.4,0.5,2,0.9c0.2,0.2,0.4,0.2,0.7-0.4
						s-0.2-0.5-1.2-1.4S195.9,70.9,194.6,71.3L194.6,71.3z M200.8,76.9c-0.9-0.2-1.9,0-2.7,0.5c-0.5,0.2,0.3,0.6,0.6,1.3
						c0.3,0.7,0.1,1,2.1,1.1s2.6-0.2,2.8-1.1S202.1,77.1,200.8,76.9L200.8,76.9z M208.7,78.5c-1.3-0.7-1.9-1.2-3.1-0.8
						s-0.2,0.8-0.2,1.1s1.5,0,1.6,0.6s0.5,0.8-1.4,0.9s-2.4,0-3.1,0.4s1.4-0.1,2,0.5s1.7,0.7,3.5,0.5s4.2-0.5,4.2-0.5
						c-0.7,0.4-1.3,0.9-1.8,1.5s-0.8,1.5,0.2,1.9s1-0.5,3.6-0.5s3.4-1,3.4-1c-0.4-0.3-0.6-0.8-0.5-1.3c0.1-0.4,0.1-0.8,0-1.1
						c0.4,0.2,0.9,0.5,1.3,0.7c0,0-0.2-0.6-0.6-1.5c-0.4-0.9-0.1-1.1-0.5-2.4s-0.3-1.6-2.3-1.6s-3.3,0.5-4.9,0.5s-2.3,0.2-1.1,0.6
						c0.8,0.3,1.4,0.8,1.9,1.4c0.6,0.5,0.5,1.6,0.5,1.6L208.7,78.5z M198.9,83.5L198.9,83.5c-0.7,0.2-1.1,0.7-1.2,1.4
						c-0.1,0.5,1.1,0.2,2.9-0.2S201.5,83,198.9,83.5z M224.1,81.1c-1.3,0.5-2.5,1.2-3.5,2c-0.9,0.7-0.1,0.8,2.1,1.6
						c2.2,0.8,4.6,1,5.6,0.1S227.8,79.7,224.1,81.1L224.1,81.1z M234.4,75c-2.8,0.2-2,0.5-5.2-0.3c-2.8-0.6-5.7-0.9-8.5-0.8
						c-1.1,0-0.6,0.4,0.6,1.7c1.2,1.3,1.5,1.8,3.9,1.4s4.4-0.7,6.1,1.1c1.7,1.8,2.7,2.4,1.2,3s-0.8,1.7,0.1,3.1s2.8,1.3,5.4,1.3
						c2.6,0,19.6-0.2,22.3-0.5c2.7-0.3,5-1.9,6.4-2.7s2.1-1.8,0.2-2.6c-2.1-0.9-4.4-1.5-6.8-1.6c-2.1,0-4,0.8-7.3,1
						s-2.6,1.4-5.5,1.4s-1.5,1-5.2-0.1s-6.3-2.4-4.6-2.6s3.1-0.3,2.1-0.9S237,74.8,234.4,75L234.4,75z M200.5,65.1
						c1.8,0.4,2.2,0.7,0.2,1.1s-3.5,1.3-1.5,1.2c2.1-0.1,4.1,0.1,6.1,0.4c2.5,0.3,2.3,0.1,3.4,1.1s2.3,1,4,0.7s2-0.4,0.8-1.3
						s-2.3-2.5-3.8-3.1s-2.8-1.5-4.3-1.4c-1.2,0.3-2.5-0.1-3.2-1.1c-1.3-1.3-2.4-0.7-4.3-0.3s-2.5,1.3-3.3,1.8
						C193.3,65.1,198.7,64.8,200.5,65.1L200.5,65.1z M223.5,52.1c-2.1,1.8-3.8,3.4-1.4,3.6s3.4-0.1,3.6,0.4s-0.4,0.9-3.9,0.9
						s-2.4,0.6-0.5,2.2c1.9,1.6,2.2,1.1,5.1,1c2.9-0.1,4-0.8,6.5-0.4s3.2,0.9,1,1.4s-7.5,1.5-6.3,2.3c1.2,0.8,4.9,2.7,6.6,2.9
						c1.7,0.2,2-0.8,5.7-0.5s2.8,0.6,3.1-0.2c0.3-0.8,2.4-2.5,2.8-3.2c0.4-0.7,1.4-1.1,3.4-1.4s2.6-0.8,0.8-1.2s-4-0.7-3.8-1
						s1.4-1.5,0.6-2s-2.1-0.5-3.1-0.8s-2.2-1.6-3.5-2.2s-2.5-0.6-4.1-1.5s-4.1-3-7.3-2.9C226.5,49.5,225.6,50.4,223.5,52.1
						L223.5,52.1z M219.4,67.6c-0.8,0.3-2.8,0.3-1.3,1.2s1.1,0.9,2.9,0.4c1.7-0.4,3.3-1.2,4.8-2.1c0.2-0.4-1.9-1.1-3.3-1.4
						c-1.4-0.3-2.4-1.1-5.4-1.7C212.8,63.2,220.2,67.4,219.4,67.6L219.4,67.6z M317.1,40.1c-3.3-0.6-15.1-2.3-19-1.6s-3.6-1.4-9-0.9
						s-13.5,0.2-16.1,0.5s1.3,1.1,2.7,1.7s-6.6-0.7-12.7,0.5s-10,1.8-3.5,3.6s7.3,2.3,7.3,2.3s-8.3-1.1-11.8-2
						c-3.5-0.9-1.6-0.9-8.2,0.4c-6.6,1.3-13,2-12.7,3.5s5.3,3.3,8.6,3.8s10.1-0.7,10.7-0.8c0.6-0.1-2.7,1.9-2.7,1.9s3.4-0.5,7.2-1.2
						c3.8-0.7,6.8-1.5,10.4-2.4c1.4-0.3,2.9-0.7,4.3-1.2c-3.4,1.9-6.9,3.5-10.6,4.7c-4.1,1.1-8.4,1.8-12.7,2
						c-2.7,0.1-2.2,1.3,0.4,2.3c2.6,1,4.7,3.1,6.1,3.8c0.8,0.4,1.4,1,1.6,1.8c-2.7-1.4-6-1.4-8.7,0c-4.6,2.3-3.9,3.5-2.8,3.8
						c1.1,0.3,5.2,0.6,6,1.6s6.1-0.9,6.1-0.9s-2.7,2.5-5.3,2.5s-2.4-1.6-6.2-1.3c-3.8,0.3-3.5,0.9-1.9,1.8s2.9,1.2,0.1,2.1
						s-4,1.2-4.1,2.3c-0.1,1.1,3.6,1.1,6,1.1s4.6-0.2,8.8-0.2s3.7-1.1,5.3-1.1s3.2,0.3,2.6,1.5s0.6,0.4,5.3-0.8
						c4.7-1.2,2.6-3,2.2-3.7s-2-0.8-3.1-1.2c-1.1-0.4,3.2-3.5,2.6-4.5s5.2-0.2,7.9-2.7c2.7-2.5,1.7-4.3-0.2-4.7
						c-1.9-0.4,3.5-0.1,5.2-0.8s5.4-1.6,6.9-2.9s2-1.8-1.6-1.6s5.2-1.1,9.5-3.1s9.2-4.3,10.2-4.9s2-0.3-3-0.1s-11-0.3-7.7-0.6
						s13.1-1.1,15.7-2.5C314.6,41.3,315.9,40.7,317.1,40.1L317.1,40.1z M257.5,89c-5.3-0.3-13.1-1.3-14.7,2
						c-1.7,3.8-3.1,7.8-4.2,11.8c-0.2,1.3,6.4,3.3,11,3.4s12,0.3,10.5-0.4c-1.5-0.8-0.2-1.2,4.1-1.1c4.3,0.1,4.7-0.6,4.7-1.3
						c0-0.7,0.8,0.8,3.7,1.9c3,1.1,5.5,4.3,8.2,6.1c2.7,1.8,8.6,4.3,7.5,5.7s1.3,6.4-7.9,7.5c-9.2,1.1-9.7,0.4-9.6,1.8
						s0.5,2.1,4.1,2.1s8.6-2.1,10.3-0.6c1.6,1.3,3.5,2.1,5.5,2.5c1.5,0.4-1.8,1-2.7,1.2c-0.9,0.2,1.8,0.4,7,2.2s11.5,2,8.4,0.7
						s-4.6-3.6-6-4.4s-0.1-0.1,2.4,0.3c2,0.5,4,1.3,5.7,2.5c1.1,0.6,1.6-0.2,2.3-2.7c0.7-2.5-0.3-2.5-4.5-4.4s-5.4-3.5-5.9-4.9
						s2.1-1.7,3.2-2.7s4,1.8,6.1,3.4s3.7,4.4,5.3,2.4c1.5-2.3,2.6-4.9,3.1-7.7c0-1-1.6,0.1-8.4-2.3s-10.3-3.3-11-3.3s1.8-0.9,4.8-2
						s4.3-0.9-2.1-5.2c-6.4-4.3-8.2-5.2-12.4-5.5c-4.2-0.3-5.3-3.4-8.3-4.4s-9.9,1.3-11.9,1.6c-2,0.4-1.4,0.9-3.9-1.7
						C259.5,91,257.5,89.1,257.5,89L257.5,89z M262.3,89c-2.6,0.2,1.6,3.7,5,3.8c2.4,0,4.7-0.4,7-1.2
						C275.1,91.5,266.4,88.8,262.3,89L262.3,89z M250.3,124c-0.8,1.3-1.4,2.8-1.7,4.3c-0.1,0.9-0.4,1.8-0.9,2.5
						c-0.4,0.9,1.3-0.2,2.4,1.2c1.1,1.4,0.6,1.7,2.6,0.2c2-1.6,4.6-2.1,7-1.4c2.8,0.6,5,0.9,4-0.3s-2.2-1.1-4.1-2.8
						c-1.6-1.4-3.6-2.3-5.8-2.7C251.6,124.4,251.3,122.4,250.3,124L250.3,124z M270.4,247.6c-0.8-1.2-2.1-3.2-7.3-3.9
						c-5.2-0.7-6.9,0.7-8.8,1.1c-1.9,0.4,1.8,0.7,4.3,0s4.3-0.1,4.7,0.2s-0.8,0.5-1.3,0.2s-0.5,0.8,2.3,1.5s3.5,1,3.7,1.9
						c0.1,0.7,0.4,1.4,0.9,2c0.6,0.7,0.9,1-0.3,1.3s-0.8,0.3,0.1,0.6c1.6,0.7,3.3,1.1,5,1.1c2.4,0.1,3.2,0.5,1.6-1.1
						C273.7,250.9,270.7,248,270.4,247.6L270.4,247.6z M278.2,255.3c0.9,0.6,1.2,1.7,0.9,2.6c-0.1,0.6-1.5,0.1-4.2-0.4
						s-2.3-0.3,0.1,0.6s3.8,0.7,3.7,1.9c-0.1,1.2,2.1,0.1,3.1-0.6s0.9-0.1,5,0.4s5,1,4.3-0.3s1.9-1.2-1.8-2.4
						C285.6,255.9,276.6,254.2,278.2,255.3L278.2,255.3z M266.4,256c-1.6-1.2-3.5-1.4-3.5-0.4s0.5,1,2,1.3
						C266.4,257.2,267.4,256.8,266.4,256L266.4,256z M296.4,261.3c-1.7-0.4-2,0.5-0.9,1.3s2.9,0.5,4.5,0.4S299.3,262.1,296.4,261.3
						L296.4,261.3z M277,113.8c-2.2,0.7-3.6,1.1-1.6,3s3.1,3,3.9,1.6C280.1,117,280.8,112.7,277,113.8z M259,133.4
						c-3.4,0.4-4.5,0.4-3.9,1.8c0.6,1.4,1.4,1.1,3.7,0.3S262.7,133,259,133.4L259,133.4z M266,135.4c-0.6,0.1-0.8,1.1,0,1.9
						c0.8,0.8,2.2-0.3,2.8-1.3S268.2,135,266,135.4L266,135.4z M229.2,70.4c-3.2,0.1-8,0.9-5.3,0.9s4.8,0.4,9.2,0.3s4.7-0.4,4.8-1.9
						C238,68.2,235.1,70.2,229.2,70.4z M209.2,57.9c-3.3,0.7-2.4,1.2,1.4,2.4s3.9,0.6,3.5-1.6C213.7,56.5,211.2,57.5,209.2,57.9
						L209.2,57.9z M436.8,116.9c-4,0.8-5.4,0.3-6.1,1.8s-2.3,0.7-3.3,0.9c-1,0.2-2.2,4.2-2.8,3.6c-0.7-0.7-1.3-1.5-1.8-2.3
						c-0.9-1.4,0.3-1.1-1.5-2.6s-5.3-1.3-5.5-0.7c-0.2,0.6,2.4,1.1,1.5,1.8s-3.1,1.5-3.9,2s1.6,0.3,3.1,0c1.3-0.1,2.5,0.5,3.2,1.6
						c0.6,0.8-0.7,1.5-1.4,1.8c-0.7,0.3,2.2,0.3,3.3,0.4s1.7,0.8,1,1.8s3.4,0.1,5.7,0s2.9,1.1,6.4,0.4s5.1-0.7,8.3-2.4
						s2.9-1.3,5-2.4s1.6-1.4,1.7-2.6s1.4,0.3,0.9-1.5s-3.1-1.3-4.9-1.4s-1.8-1.2-2.7-1.5C442.1,115.3,440.9,116.1,436.8,116.9
						L436.8,116.9z M706.4,272.2c-0.3,0.6-0.4,1.2-0.4,1.9c-0.1,1-0.1,1.9-0.1,2.9c0.1,1,0.2,1.6,0.9,1.8c0.8,0.3,1.7,0.3,2.5,0
						c1.2-0.4,2.4-1.1,1.8-2.2c-0.7-1.2-1.5-2.3-2.4-3.4C708,272.5,706.7,271.4,706.4,272.2L706.4,272.2z M705.4,270.9
						c0.1,0.4,0.3,0.3,0.6,0.6c0.3,0.3,0.6,0,0.2-0.3c-0.4-0.3-0.3-0.4-0.3-0.4S705.3,270.7,705.4,270.9 M820.3,327.2l-0.1,0.1
						c-2.2,1.6-4.2,1.1-7.9,2s-10.5,3.6-11,4.8c-0.5,1.2,0,1.4-0.5,1.2c-0.5-0.2-0.9-0.5-1.3-0.9c-0.6,0.8-0.9,1.8-0.8,2.8
						c0.2,1.3,1.1,2.1,1,3.8s-1,2.7-0.9,3.9s2.8,3.4,3.5,4.8s1.2,1,1.6,3.5s2.2,3.9,0.4,5.2s-3.2,1.1-1,2.4s4.1,2.3,7.7,1.4
						c3.6-0.9,2.6-1.7,5.4-2.1s3.3-0.8,5.8-1s4.1,0,5-1.2s0.2-1.2,2.6-2c2.4-0.8,2.2-1.1,3.8-1.3s2.6,0.6,4.8-0.6s0.6-1.3,5.3-1.3
						c2.9-0.1,5.8,0.2,8.5,0.9c1.8,0.4,4.6,1.5,5.3,2.3s1.7,1.8,2,1.8s0.7,0,1.8-0.7c1.4-0.9,2.8-1.7,4.3-2.4
						c-0.1,0.8-0.4,1.6-0.9,2.3c-0.5,0.5-0.8,1.2-0.7,1.9c0,0.3,1.8-1,2.1-1s0.5,2.3,0.7,2.5s1,0.1,1.7,0.8c1,0.7,1.8,1.5,2.4,2.5
						c0.7,1.3,3.8,2.6,5.7,2.9c1.7,0.2,3.3,0.1,5-0.1c1.4-0.1,1.5-1.4,3-0.9s-0.1,1.5,3.5,1.3c2.1,0,4.2-0.6,6-1.8
						c1.4-0.7,1.6,1,3.4-0.8c1.8-1.8,2.2-1.4,2.5-3.5s0.2-2.6,2-4.6s2.2-1.1,3.4-4.1s2.7-5.9,2.5-8.4s0.1-0.9-0.7-3.6
						s-0.2-2.5-2.8-3.6s-3.2-0.9-3.8-2.5s0.2-2.1-1-2.1s-2.2,0.4-3-0.7s-0.6-1.5-2-2.6s-2.6-0.9-5.1-1.6s-1.2-1-1.2-2.4
						s0.1-2.8-1.8-3.5c-1.9-0.7-0.8,0.4-0.8-1.9s0-1.9-1.6-2.3s-2.1-0.4-3.1-1.7c-1-1.5-2-3-2.8-4.5c-0.5-0.9-1.1,0.1-1.7,0.8
						c-0.9,1-1.4,2.2-1.5,3.5c0,1.4,0.8,2.1,0.8,4s-1.8,3.7-2.9,4.7s-2,0.1-3-0.2s-1.2-1.3-3.2-2s-5.8-1.3-7.5-2.4s-0.5-1.1,0-2.3
						c0.5-1.2,1.4-2.2,2.6-2.8c1.3-0.7,0.9-1-0.7-1.6s-3.8-0.7-6.5-0.7s-4.3-0.1-4.2,1s1.8,1.5-0.5,1.2s-4.3-0.5-5.3,0.3
						s-1.2,1.2-1.8,2.9s0.2,1.8-0.8,1.8s-4.7-1.3-6-1.7s-2-0.4-3.5,0.6c-2.8,1.8-5.6,3.5-8.6,5C822.2,323,822.3,322.9,820.3,327.2
						L820.3,327.2z M749.3,279.5c-1.1-0.1-1.8-0.3-0.4,1c0.9,0.9,2,1.7,3.1,2.4c1.3,0.9,1.8-0.6,2.8,1.1s0.6,1.7,1.7,2.4
						c1.1,0.7,1.9,0.8,2.1,1.4c0.3,1,0.9,1.8,1.8,2.3c0.9,0.4,1.6,1.1,1.9,2c0.7,1.4,1.8,2.4,2.3,3.5s3.6,2.3,5.1,3.7
						s4.2,3.5,4.6,2.9s1.5,0,2.3-0.2s1.1-1,1.6-3c0.5-1.3,0-2.7-1.2-3.4c-0.7-0.5-2.1-0.6-2.5-1s-1-1.9-1.9-2.3s-1.1,0-1.1-1.1
						s1.1-1-0.3-1.6c-0.7-0.3-1.4-0.8-1.9-1.4c-0.4-0.3-3.3-0.8-4-1.4s-3.9-1.6-5.4-2.6s-3.1-1.9-3.6-2.7
						C755.8,280.7,754.2,280,749.3,279.5L749.3,279.5z M780.3,302.3c-1.3,0-1.9-0.5-2.8,0.6s-0.7,1.1,0.6,1.1s1.1,0.5,1,0.6
						s-0.6-0.1,2.1,0.7c1.7,0.6,3.6,0.7,5.4,0.2c0.8-0.3,1,0.7,4.7,1.1s5.7-0.3,8.1,0.2s1.8-0.2,0.1-1.1s-1.5-0.4-3.3-1.3
						s-4.1-0.9-5.2-1.1c-1.1-0.2,1,0.8-2.4,0.5s-2.2,0.2-4-0.6s-1.8-1-2.9-1.1S780.3,302.3,780.3,302.3L780.3,302.3z M807.3,306.2
						c-1,0.2-2.9,0.6-2,0.9s0.2,0.5,3,0.3s5.3-0.4,5.6-0.9s-0.5-0.1-1.7-0.4s-1.1,0.2-2.7,0.3C808.9,306.5,808.1,306.4,807.3,306.2
						L807.3,306.2z M817.2,306c-1.9,0.2-1.7,0.5-0.2,0.8c1.3,0.3,2.7,0.4,4,0.2c1.1-0.3,2.2-0.5,3.4-0.7c2.1-0.2,2.8-0.2,4.4-0.4
						l1.7-0.1c0,0-0.2-0.2-1.3-0.2s-1.9,0.1-3,0.1s-3,0.7-3.8,0.7c-0.9-0.2-1.8-0.2-2.7-0.2C819.3,306.4,819.3,305.8,817.2,306
						L817.2,306z M827.9,307.7L827.9,307.7c-1.4,0.6-1.5,0.8-1.3,1.3c0.1,0.3,0,0.5-0.1,0.7c1.2-0.1,2.4-0.5,3.4-1.1
						c0.9-0.8,1.9-1.3,3-1.4c1.1-0.4,2.2-0.9,3.2-1.6c-0.8,0.1-1.7,0.2-2.5,0.1c-1,0-2.1,0.2-3,0.7
						C830.2,306.8,831,306.9,827.9,307.7L827.9,307.7z M816.8,308.3c-1.4-0.7-2.7-0.6-2.8-0.2s-1.2,0.4,0.8,0.9s3.8,1.2,3.7,0.5
						C818.4,308.8,817.4,308.6,816.8,308.3L816.8,308.3z M804,278.9c-0.8,0.8,0.8,0.6-0.4,1.3c-1.2,0.7-2.1,0.4-3.2,1.4
						c-1.1,0.9-2.4,1.6-3.7,2.2c-0.7,0.4-3.2,0.8-4.2,1.9s0.4,1.6,0.4,1.6c-0.8,0.1-1.6,0-2.3-0.3c-1.7-0.5-1.8-1-1.8-1
						c-0.8,0-1.6,0.5-1.9,1.3c-0.7,1.3-1.1,1.4,0.2,2.2c1.3,0.8-0.8,0.8-0.6,1.3s0.3,1.5,1,1.6s0.9-0.5,1.8,0.3
						c0.9,0.8,0.2,3.1,1.3,3.2s2-0.3,3,0.1s2.1,0.5,3.1,0.3c1.2-0.2,2.4-0.1,3.5,0.3c1.4,0.5,2.9,0.8,4.4,0.8
						c1.2-0.1,1.4,0.1,1.7-1.1s0.1-2.4,1.5-3.3s1.5-1,1.7-1.8c0-1,0.3-2,1-2.7c0.9-0.9,1.4,0.5,1.9-0.2s1-0.7,0.7-1.1
						c-0.3-0.3-1.7-0.4-2.2-1s0.2-1-0.5-2.4s-1-0.9-0.1-1.6s1.7-0.9,1.8-1.5s0.5-0.6,1.6-1.2s-0.2-0.3-1.3-0.9s-3-2.7-4.3-2.7
						C807.4,276,804.9,278.1,804,278.9L804,278.9z M961.4,353.7c-0.5-0.3-1-0.1,0.2,0.9s1.3,0.7,2,0.7s1.4,2,1.8,2.5
						c0.4,0.4,0.8,0.8,1.2,1.1c0.2,1,0.2,2.1,0,3.1c-0.4,1-1.2,1.4-1.4,2.3s1.2,0.6,2.2,0.9s0.8,0.3,0.4,1.1s-1.5,1.1-1.5,1.3
						c0,0.2,2.2,1,3.3,0.1s2.9-2.4,3.3-3.4s-0.8-0.6,0.7-1.3c1.5-0.7,1.3-0.4,2.1-1.3s1.7-1.9,0.8-2.4s-1.9,0.6-2.7,0.8
						c-0.8,0.3-1.7,0.2-2.6-0.1c-1.1-0.4-1.3-0.4-1.8-1.1c-0.3-0.4-0.6-0.8-1-1.1c0,0-0.3,1.2-1.1,0.8s-0.6-0.8-1.2-1.5
						c-0.4-0.4-0.7-0.9-1-1.4c-0.4-0.5,0-1.4-1.9-1.6S961.9,354,961.4,353.7z M961.7,366.5c-1,0.6-2,1.4-2.8,2.2
						c-0.8,0.7-1.5,1.6-2,2.5c-0.4,0.7-2,1.5-4.5,2.5s-3.5,1.3-4.4,2.2s-3.9,3.6-4.3,4s1.4,0.6,3.3,0.6s4.8,1.2,6.4,0
						c1.6-1.2,3.2-4.2,4.2-5.2c1.1-1,2.3-1.8,3.6-2.5c1.6-1,4.3-2.9,4.3-3.7c-0.1-0.7-0.3-1.3-0.7-1.9c-0.5,0.6-1.3,0.8-2,0.7
						c-0.6,0-1.1-0.5-1.1-1.2C961.7,366.7,961.7,366.6,961.7,366.5z M949.2,380.1c-1.9-0.7-2.2,0.6-2.5,2s0.8,0.2,2.4-0.4
						S949.9,380.3,949.2,380.1z M885.8,370.8c-2.1-0.5-1.8,0.9-1.4,2c0.3,1,0.8,2,1.5,2.8c0.8,0.9,3.8,1.2,5,0.8s2-1.7,3.2-2.9
						c1.2-1.2,1.7-2.6,1.5-3.4s-1.7,0.7-2.7,1s-2.2,1.1-4,0.8C887.9,371.6,886.8,371.3,885.8,370.8L885.8,370.8z M859.3,295.2
						c-1.7,0.3-2.6-0.8-3.9-2.8s-2.5-2.3-6-1.4s-3,0.7-0.6,1.3s2.7,0.9,3,0.9s3.7,0.4,3,0.7c-0.7,0.3-3.9,0.7-1.9,1.7
						s1.2,0.3,6.5,2.2s6.2,0.5,7.9,3s1.7,2,0.3,2.7s-3.2,1.3-2.5,1.3s2.1,0.3,5.8,0.4s0.2,1.6,4.3,1.6s5.1-0.9,6.7-2.3
						s1.9-0.6,5.3-0.1s4.6,2.7,8.8,3.5s6.1,2,3.4,0.2c-2.7-1.8-3.6-3-7.2-5.1s-3.8-2.3-4.9-3.8s-4.8-3.4-9-4.6s-6.5-1.4-11.4-2.3
						C862,291.4,861,294.9,859.3,295.2L859.3,295.2z M831.3,288.2c-1.6,0.8-1.8,0.3-3-0.2s-0.9,1.1-3.5,0.2
						c-2.7-0.9-3.7-1.3-6.5,0.2s-1.1,2.1-1.1,3.2s-2.4,4-3.3,5.1s-0.9,1.5-0.2,2.2s1.6,0.4,2,0.8s0,3.1-0.5,4s1.1,1.1,2.8,0.8
						c1.7-0.3,0.2-0.4,0.2-1.3s0.8-1.4,0.8-3.2v-2.7c0,0,0.5-0.2,1.1,0.4s1.5,2.3,2.2,3.2s1.5,1.5,2.6,0.9s2.2-1.3,2.2-1.3
						s-2.2-0.5-2.2-1s0.9-1-0.6-2.7s-2.3-1.8-0.4-1.9c1.9-0.1,1.9-1.5,3-1.9c0.9-0.2,1.8-0.3,2.7-0.3c-0.8-0.5-1.9-0.7-2.8-0.5
						c-1.6,0.2-3.2,0.6-4.7,1.1c-1.5,0.6-2.7,0.9-3-0.1c-0.3-0.9-0.4-1.8-0.3-2.8c0.2-1.5,2.5-0.4,4.3-0.7c1.8-0.3,1.7-0.3,5.5-0.1
						c3.8,0.2,4-0.4,5.2-1.5c0.7-0.7,1.3-1.5,1.8-2.4C835.5,285.8,832.9,287.3,831.3,288.2L831.3,288.2z M840.3,284.3
						c0.3-0.4-2.8,1.5-3.3,1.9s0,1,0.4,1.5c0.4,0.6,0.3,2.5,0.5,2.9s1.8,0.8,1.8,0.8c0-0.7,0.1-1.3,0.5-1.9c0.6-0.6,0-1.3,0-2.4
						C840.2,286,839.3,285.5,840.3,284.3L840.3,284.3z M834.2,295.9c-2.5-0.7-3.4-0.2-3.4,0.7s-0.3,1.4,2.3,1.4
						S838.7,297.1,834.2,295.9L834.2,295.9z M839.1,295.3c-0.8,0.5-1.2,1.4-0.9,2.3c0.3,0.8,0.8,0.3,2.1,0.1c1.3-0.2,1.2-1,2.9-1
						c1.8,0.1,3.6,0.4,5.3,0.9c0,0,0.8-0.6-2-1.9S842.4,294.5,839.1,295.3L839.1,295.3z M790.4,250.5h-2.8c-0.4,0-1.2,0.7-1.8,0.9
						s-0.6,0.6-0.2,1.3s1.1,0.7,2.3,1s0.8-0.4,1.7-0.6c0.6-0.2,1.2-0.7,1.3-1.3c0.2-0.5,0.8-0.8,1-0.9s-0.7-0.8-0.7-0.8
						C790.8,250.2,790.6,250.3,790.4,250.5L790.4,250.5z M819.2,252.9c-1-0.5-1.5,1.3-1.8,2.2s-0.6,1.5-0.1,2.2s0.3,0.9,0.3,0.9
						l-1.4-0.7c-0.2,0.5-0.3,1-0.4,1.6c0,0.7-0.4,1,1.2,1.6s2.1,0.3,2.3,1.1c0.2,0.8,0.2,1.2,1.3,1.3c1,0.1,1.9,0.4,2.7,1
						c0.4,0.5,0.2-1.3,1-1.2c0.8,0.2,1.6,0.7,2.1,1.4c0.4,0.4,0.8,0.6,1.3,0.6c0,0-1.2-1.5-0.7-1.6s0.7-0.3-0.7-0.9
						c-1.1-0.4-2.4-0.6-3.6-0.6c-1.1-0.1-1.1,0.5-1.9-1c-0.5-0.8-0.5-1.8-0.2-2.7c0-0.3,0.6,0.5,1.2-0.5c0.6-0.8,0.8-1.8,0.7-2.8
						s1-1.4,0.2-1.4C821.6,253.2,820.4,253.1,819.2,252.9L819.2,252.9z M831.9,271.8c0.2,0.7-1-0.2-1.4,0.2s-0.6,0.3-1.3,0.5
						c-0.8,0.4-1.6,0.8-2.3,1.3c0-0.3,0-0.6,0-0.9c0-0.2-0.5-1-1-0.4c-0.6,0.6-1.3,1.1-2.1,1.3c-1.1,0.4-1.8,1-2,1.7
						s0.7,0.7,0.7,0.7c0.4-0.3,0.8-0.6,1.2-1.1c0.7-0.8,0.9-0.8,2.2-0.9s1.2-0.1,1.7,0.4s0.1,1.3,0.1,1.9s0,1.3,1.3,1.6
						c1.3,0.3,0.7,0,2,0s1.2-0.1,1.1-0.5c-0.3-0.4-0.5-0.9-0.6-1.4s0.7-0.8,1-0.9s0.4,0.5,0.8,1.2c0.4,0.7,0.5,0.6,0.7,0.1
						c0.3-0.7,0.5-1.5,0.4-2.3c-0.2-0.5-0.2-1.1-0.2-1.6c-0.1-0.6-0.5-1.1-1-1.4c-0.4-0.2-1.6-1-1.6-1S831.7,271.1,831.9,271.8
						L831.9,271.8z M825.7,267.5c0,0,0-0.5-1.1-1.3c-0.8-0.8-1.9-1.2-3-1.3c-1.8-0.2-3.5,0.1-2.8,1.5s1,1.5,2.5,1.7
						c0.8,0.1,1.7,0,2.4-0.4c0,0,0.1,0.2-1.3,0.8s-1.6,1.8-0.5,2.3s1.1,1.2,1.7,0.8s1.1-1.6,2.4-2.5s1.4-1,1.5-1.9
						c0.1-0.5,0.1-1.1,0-1.6L825.7,267.5z M828.7,264.9c-0.2,0.1-1.1-0.1-0.1,0.6s1.8,0.8,1.7,1.3s0,0.6-0.6,0.5s-0.7-0.1-0.9-0.2
						s-0.3,0.3-0.1,0.6c0.2,0.3,0.1,0,0.6,0.5s0.3,0.7,0.5,1.3s0.5,0.3,0.5,0.3c-0.1-0.6-0.1-1.1-0.1-1.7c0.1-0.3-0.2-1,0.5-0.8
						s0.5,1.1,0.9,0.3c0.3-0.7,0.3-1.5,0-2.1c-0.2-0.6-0.9-0.7-1.7-0.7C829.4,264.9,829.1,264.9,828.7,264.9L828.7,264.9z
						 M814.9,267.4c-0.4,0.1-0.7,0.3-0.9,1.3c-0.3,0.9-1,1.6-1.8,2c-1.1,0.7-2.2,1.5-3.2,2.4c-0.1,0.3-0.1,0.1,1.5-0.4s3-1.3,3.2-2
						s-0.2-0.3,1.3-0.8s0.7-0.6,0.8-1.4S815.7,267.2,814.9,267.4L814.9,267.4z M903.1,296.3c-0.2,1,0.4,1.3-0.9,2
						c-1.3,0.6-2.7,0.9-4.1,0.9c-1.3,0.1-0.4-0.2-2-0.2s-2.1,0-1.3,0.6s0.6,1.2,3.1,1.1s4.5-1,6.1-1.4s1.5-1.3,1.6-1.7
						S903.2,295.2,903.1,296.3L903.1,296.3z M910,298.4c0.7,0.7,0.4,0.6,1.3,1.5s2.3,1.1,3.3,1.3c1,0.2,0-0.3-0.8-1
						c-0.6-0.7-1.2-1.4-2-1.9C910.7,297.5,908.8,297.1,910,298.4L910,298.4z M820,239.1c-3.4,1.5-5,1.4-3.6,3.4s2.2,2.8,2.4,3.2
						s0.9-0.3,1.8-1.8s1-3.6,1.4-4.2S821.2,238.5,820,239.1L820,239.1z M878.5,163.1c0.4,1,0.7,2.6-0.1,2.8s-1.4,1.3-1.7,2.5
						s-0.6,2.6,0.3,3.6s0.3,1,0.3,1.8s0.3,2.8-0.2,3.9s-0.8,1.4-0.6,2.7c0.1,1.1,0.1,2.2,0,3.2c0,1.8-0.2,3.2,0,3.9s0.6-0.4,1-0.6
						c0.9-0.3,1.8-0.3,2.6,0.2l0.8,0.6c0,0,1.3,0.4-0.5-2.3s-2.1-2.1-1.6-4.6s0.7-2.5,2.5-2.7s2.8,1.5,3,1.7s-0.2-0.6-0.8-2
						s-1.2-1.8-1.4-3.6s-1-3.2-1.9-3.7s-0.5-1.3,0-2c0.5-0.9,0.6-1.9,0.4-2.9c-0.2-1.2-0.6-2.3-1-3.4c-0.3-0.6-1.3,0.4-1.3,0.4
						L878.5,163.1z M876.9,190.1c0.2,0.8,0,1.7-0.5,2.4c-0.8,0.9-0.2,1.1-0.6,2.3s-2.5,0-2.5,0.3c-0.1,0.6-0.4,1.1-0.9,1.4
						c-0.5,0.3-2.3,0.4-1.8,1.6c0.4,0.9,0.9,1.7,1.5,2.5c0.4-0.3,0.9-0.6,1.4-0.8l1.2-0.3c0,0-0.2-0.4-1.3-0.7s-1.1-1.2-0.9-1.4
						s1.7,0.1,2.6,0s1.8-0.4,2.9,0.2c0.9,0.5,1.9,0.8,2.9,0.9c0.1-0.6,0.4-1.2,0.7-1.7c0.5-0.7,2.1-0.4,3.6-0.7s2.7-0.5,2.2-1
						s-0.5-1.5-0.8-2.3s-1.3,0-2.1,0.3c-1,0.2-2,0.1-2.9-0.4c-1.4-0.9-2.6-1.9-3.7-3.1C877.8,189.6,876.8,189.2,876.9,190.1
						L876.9,190.1z M872.1,201.5c-0.7,0.5-1.1,1.3-1,2.1c0.1,1,1.4-0.1-0.2,3.1s-2.4,3.9-4,4.7c-1.1,0.6-2.4,0.8-3.6,0.6
						c-0.6-0.2,0.2-0.9,0.6-1.1s-1.4-0.3-2.1-0.2s0,0.7-0.1,1.2s-1.6,1.9-1.4,2.5s0.2,0.8-0.8,1s-1.6-0.5-1.9-0.6
						c-1.2,0-2.4,0.2-3.6,0.4c-1.3,0-2.4,0.6-3.2,1.6s-2.7,1.1-4,1.5s-0.8,1.7-2.3,2.2c-1,0.2-1.6,1.1-1.6,2.1
						c-0.1,0.7,0.9,0.2,1.1,0.2s0.2-1,1.1-0.9s1,0.1,0.6,0.9s-0.8,1.1-1.2,1.8s0.2,0.9,0.9,1.6s1.4-0.2,2.9-1.3s1.6-1.4,1.5-2.7
						s-0.7-1.3-1.8-1.7s-1.4,0-0.1-1s1.8,0,2.6-0.5s2.9-0.4,4.8-0.8s3.8-0.8,3.9-0.3s0.7,2,0.8,2.3s1.4-0.4,2.7-0.8s0.1-0.5,0-1.1
						s0.6-1,0.6-1s0.7,1,2.8,0.3s2.3-1,2.8-0.9s0.9,0.5,1.8,0.1s1,0,0.9,0.3s2.6-0.6,3.2-0.9s0.3,0,0-1.1s-1-1.2-0.6-2.6
						c0.3-0.8,0.4-1.6,0.4-2.5c0.1-0.9,0.6-1,0.9-1.1s0.3-1.3,1-1.9s0.5-0.9,0.5-2.4s-1.1-1.2-1.2-2.2c0-0.7,0.1-1.4,0.3-2
						c-0.9,0.2-1.7,0.6-2.5,1l-0.2,0.4C873,201.3,872.5,201.3,872.1,201.5z M857.2,217.4c-2.4,0.3-4,0.5-5.4,0.8s-1.7,0.8-1.5,1.8
						c0.3,0.9,0.6,1.7,1,2.5c0.2,0.5,1,0,2.3-0.5s1.2-1.9,2.5-1.9s0.8,1,2.5-0.4s0.4-1.6,0.5-2.3S857.2,217.5,857.2,217.4
						L857.2,217.4z M1006.4,139.1c-2.5-0.4-3.3-0.7-3.5-0.1s-0.5,0.9,1.1,1.3s2.4-0.3,3.9,0.5c0.9,0.6,2,0.8,3.1,0.7
						c0.6,0,1.1-0.2,1.6-0.5C1010.6,140.2,1008.5,139.6,1006.4,139.1L1006.4,139.1z M977.6,110.9c-0.9,0.2-1.7-0.4-1.4,1.2
						s0.8,1.8,3.7,1.5s0.7-0.1,4.7-0.3s4.8-0.6,4.8-0.6c-0.5-0.6-1.2-1.2-1.9-1.5c-1.4-0.7-3.2,0.5-6.2,0.1
						C978.1,110.9,977.6,110.9,977.6,110.9z M887.6,87.1c0,0.6,4,2.3,5.4,2.8s2.6,0.3,5.6,0.1c3-0.2,3.3-1.2,3.6-1.7
						s-1.4-0.3-3.5-0.6c-2.1-0.3-3.7,0.3-4.4,0s1.1-0.5-0.7-1s-2.2,0.2-2.6,0c-0.4-0.2-0.5-0.7-1.4-0.7S887.6,86.5,887.6,87.1
						L887.6,87.1z M871.9,90.7c-1.4,0.4-1.3,0.7,0.3,1.7s1,0.7,0.4,1.4s0,0,2.2,0.7s3.2,2,4.5,2.3c0.8,0.2,1.6,0.2,2.4-0.1
						c-0.5-0.9-1.1-1.7-1.8-2.3c-1.3-1.3-4.2-1.6-4.7-2.8C874.7,90.4,873.9,90.2,871.9,90.7L871.9,90.7z M886.2,85.5
						c0,0-2-0.9-5.1-2.3s-4.2-1.7-5.3-1.8s-0.9,0.8-1.3,1.5c-0.4,0.7-0.7,0.6-2.3,0c-1.6-0.7-3.2-1.2-4.8-1.7
						c-1.6-0.3-2.6,0.7-4.5,2s-0.8,1.7,1.5,3.7s3.3,2.1,5.1,1.3c1.8-0.8,1.3-1.3,2.6-0.9s5.9-0.4,6-0.4s-0.3,1.8,1.7,1.3
						s3.8-0.7,4.8-1.4S886.2,85.5,886.2,85.5z M747.9,47.8c-0.6,0.3-4,0.1-5.8,2.1s-3,0.6-3.9,1.8c-0.6,0.8-1.2,1.7-1.7,2.7
						c0.9,0.8,2.1,1.2,3.3,1.2c1.7-0.1,4.7,0.4,6.3,2s2.9,1.6,6.9,2.1s2.2,0.8,4.3,0.7s4.9,0.2,4.3-0.6c-0.8-0.6-1.1-1.7-0.8-2.7
						c0.3-1.4,2.1-1.4-0.1-2.3c-1.1-0.5-2.4-0.6-3.6-0.4c0.1-0.2,2-0.7,1.2-0.7s-4.4-0.2-4.8-1.7s1-1.6,1.8-1.7s0.5-0.3-1.6-1.4
						s-5-2.2-5-2.2C747.4,47.3,748.6,47.4,747.9,47.8z M767.9,58.5c-1.5,0.3-2.8,1.1-3.7,2.3c-1.2,1.1-2.4,2.1-3.8,3
						c-1.1,0.6-0.8,0.8,1,1.3s5-0.8,5.9-0.8s1.6,1,4.5,0.7s7.2-0.6,5.1-1.7s-1.4-0.6-3.7-1.9c-1.7-0.9-3.5-1.3-5.3-1.4
						c0,0,4.8-1.2,3.7-1.2S768,58.5,767.9,58.5L767.9,58.5z M644.9,41.1c-2.8,0.7-1.8,1.1-3.6,2.1s-0.6,1.3,3.3,0.6
						c2.3-0.3,4.5-0.9,6.6-1.8C653.7,41.2,649,40,644.9,41.1z M651,46.1c-2.6,0.8-1.9,1.7-1.2,2.4s2.6-0.4,3.1,0.4s0.7,0.4,3.2-0.7
						s1.5-0.8,0.6-2C655.8,45,655.6,44.7,651,46.1L651,46.1z M636.5,45.5c-1.7,0.6-1.7,0.5-0.1,1c1.6,0.5,5.5,1,7.5,0s1.8-0.7-0.7-1
						S638.4,44.9,636.5,45.5z M611.8,47.7c2.4-0.2,4.7-0.2,7.1-0.1c2.1,0.2,1.3,1.4-2.5,1.7s0.4,0.7,3.1,0.6s1-1.7,3.2-2.2
						s3.7-0.2,6.4-0.9s-1.5-1.3-4.7-1.3s-4.2,0.2-6.9,0.1c-2.7-0.1-4.8,0.7-7.6,1C604.3,47.3,609.2,47.8,611.8,47.7L611.8,47.7z
						 M632.2,48.2c-2.3,0-7.8,0.9-3.2,1.2s4.3,0.5,6.2,0S634.6,48.2,632.2,48.2L632.2,48.2z M648.3,48.9c-3.3-0.8-3.3-0.5-5.8-0.4
						s-3.5,1.2-1.9,1.7c1.3,0.4,2.7,0.4,4.1,0.1c1.3-0.2,1.3-0.4,0.4-0.7S650.2,49.3,648.3,48.9L648.3,48.9z M662,46
						c-2.5,0.2-2.6,0.5-2.9,1.1s0.4,0.5,3,0.2c1.9-0.1,3.8-0.5,5.6-1.2c1.7-0.7-0.4-2.3-0.4-2.6s-2.4,0.9-3.1,1.3S664.9,45.8,662,46
						z M466.4,147.4c-1.3,2.5-3.3,3.6-0.9,2.9s4.9-2.8,4.8-1s-2.5,1.6-1.8,3.3s0.2,1.6,4.3,2.3s0.8,0.4,1.8,2.1s1.7,2.2,0.6,2.7
						s-4.2-1.6-4.4-0.7c-0.2,0.9,0.4,1.5,1.2,2.7c0.8,1.2-0.5,1.9-2.9,2.7s-0.3,1.3,1.5,1.2s6.4-0.7,5.6,0.5s-3-0.2-4.5,1.7
						s-7.4,3.5-4.3,3.4s2.6-0.7,11.6-1.6s2.8-0.1,8.7-1.4s4-1.6,0.8-1.3s2.1-2.3,1.4-4.7s-2.9-0.1-4.3-1.7s-1.2-2,1.5-1.4
						s2.4-0.4-2.7-2.7s-1.9-1.9-4.3-3.8s-6.3-1.7-6.3-1.7c1.1-0.5,2-1.2,2.7-2.1c0.8-1,1.6-2,2.3-3c1.1-1.7-1.1-1.6-3.8-1.1
						s-3.6,0.6-3-0.1c0.6-0.8,1.4-1.5,2.2-2c1.3-0.9,1.5-1.4-0.8-1.1c-1.6,0.2-3.1,0.5-4.6,1C465.6,143.6,467.7,145,466.4,147.4z
						 M460.1,153.2c-4.1,1.2-3,1.9-2.3,2.3s1.9-0.4-1.9,1.2s-3.9,3.3-1.9,3.6s1.8-0.8-0.4,2s-3.6,4.8,0.8,4.1s5.5-2.3,7.6-2.5
						s2.5-1.4,2.5-3.1s-1.4-1.8,0.3-3.3s1.8-3-1.5-3.8S462.7,152.5,460.1,153.2z M511.7,193c-0.2,0.4,0.3,1.5-1.4,2.2
						s0.8,1.4,1.3,2.1c0.5,0.7,1.2-2.4,1.1-3.9C512.6,191.9,512.4,191.8,511.7,193L511.7,193z M510.9,198.9c-2.7,0.9-2.9,1.6-3.2,3
						s2.2,0.3,1.5,1.6s0,1.9,2.8,0.7c2.8-1.2,1.2-2.3,1.6-3.8S514.4,197.7,510.9,198.9z M552.6,214.5c-2.4-0.2-3.4,0.9,0.6,1.2
						s5.9,0.4,7.4,0.1s0.2-0.1-1.8-1S555.6,214.7,552.6,214.5z M575.2,215.4c-3.3-0.5-2.4,2.3,1,1.9c3.4-0.4,2.1,0.2,3.6-1.6
						S578.7,215.9,575.2,215.4L575.2,215.4z M493.7,202.2c-2.7,0.3-2.9,0.9-0.8,1.3s1.8-0.1,3-0.7S494.9,202.1,493.7,202.2
						L493.7,202.2z M332.4,167.7c-2.3,1.3-4.3,3.1-5.8,5.2c-2.3,3-2.1,2.6-4.3,4.3c-2.2,1.7-1.1,1.3,5.8,2.2s6.4,1.7,8,1.4
						s1.9,0.6,1.9,1.6s1.5,0.4,2.2-1.2c0.7-1.6-0.7-4.4-2.1-6.1c-1.4-1.7-1.8-1.6-4-1.2c-2.2,0.4-1.5-0.4-2.3-1.6
						c-0.8-1.2-2.1-0.3-0.2-2.2S334,166.8,332.4,167.7L332.4,167.7z M119.9,164.4c0,1.6,2.3,4.3,4.1,5.1c1.8,0.8,1.4,0.4,0.6-1.5
						s-0.2-1.9-0.5-3.1C123.8,163.7,119.9,163.8,119.9,164.4z M131.6,173c1.3,1.2,2.7,2.1,4.3,2.9c1.8,0.9,3.7,1.5,5.6,1.8
						c2.6,0.5,3.7-0.2,2-1.2s-0.3-0.9-3.2-1.4s-3.6-0.3-5.1-1S130.5,172.2,131.6,173z M66.6,155.4c-1.9-0.3-2.7-0.4-4,0.4
						s-1.7,1.4-1,2.2s0.3,0.4,2-0.4c1.7-0.8,0.9-0.9,3-1.3s1.7-0.9,1.7-0.9C67.7,155.5,67.1,155.6,66.6,155.4z M65.9,153.6
						c-1.3,0.6-1.7,1-0.3,0.8c1.4-0.2,1.2-0.8,2.2-0.7s1.2-0.1,1.2-0.1C68,153.3,66.9,153.3,65.9,153.6L65.9,153.6z M29.1,149.4
						c-1.8,0.6-3.4-0.1-2.3,0.4c1.2,0.5,2.4,0.8,3.7,0.8c1.2-0.1,1.9-0.1,1.5-0.5s-0.6-0.5-0.6-1S30.8,148.8,29.1,149.4z
						 M618.5,321.7c-2,3.2-6.3,1.6-9.7,4s-2.9,1.6-0.3,4.9c2.6,3.3-2.1,2.9-3.3,6.7c-1.2,3.8,1.4,3.1,2.8,6.3c1.4,3.2,2,2.3,4.6,1.8
						c1.5-0.2,3-0.7,4.4-1.3c0.5-2.4,1.2-4.7,2.1-7c1.7-4.2,2.9-7.2,3.2-9.9c0.3-2.7,0.6-4.7,1.5-3.9c0.9,0.8,1,0.9,1-0.5
						s-1-5.1-2.7-6C619.1,315.3,620.5,318.5,618.5,321.7z M621.5,104.8c-2.8,0.4-4.1,1.7-2.1,2.1s1.8,0.2,5.2-0.6
						C627.9,105.5,624.2,104.4,621.5,104.8L621.5,104.8z M673.6,68.8c-1-1.1-1.8,0.3-11.6,3.4s-9.7,0.4-18.8,5.6s-7.1,4.5-7.7,7.6
						c-0.6,3.1-2.7,1.8-3.5,4.6c-0.8,2.8-5.5,3-3.2,5.3s5.4,3.7,10.3,4.7c4.9,1,6.3-0.1,5.2-0.4s-4.8-4.5-4-9.2s3.2-4,5.3-5.8
						s7.7-6.3,11.3-7.9s12.9-3.6,17.6-4.8c0.1,0,0.3,0,0.4-0.1C678.6,68.7,674.6,69.9,673.6,68.8L673.6,68.8z M647.2,100.5
						c-1.2,0.1-1.7,0.1,0.4,1.6c2.1,1.5,4,2.6,3.3,0.6C650.4,101.3,648.8,100.3,647.2,100.5z M682.2,86.2c-1.5-0.5-2.4-1.1-2.8-0.2
						c-0.4,0.9,1.8,2,3.8,2.3S683.7,86.6,682.2,86.2L682.2,86.2z M315.6,174.9c-2-0.8-4.1-1.3-6.2-1.5c-1.5,0,0.3,1.2,2.8,2.1
						S317,175.4,315.6,174.9z M310,181.9c0.1-1.4-1.3,1.6,0.5,2.3s2.7,0.8,3.8,0s0.2-0.3-1.3-0.5S309.9,183.1,310,181.9L310,181.9z
						 M1007.6,133.4c-1.7,0.1-3.4,0-5-0.4c-0.1,0.9-0.4,1.7-1,2.4c-0.5,0.4-0.6,1.1-0.3,1.6c0,0-2.9-0.9-4.5-1.3s-3.2-0.1-4.2-1.9
						s-3.8-1.5-6.1-1.5c-0.8,0.1-1.6-0.5-1.7-1.3c0-0.3,0-0.5,0.1-0.8h-1.4c-1.4,0.1-1.1,2.4-2.9,3.1c-1.8,0.7-7.3,1.2-7.3,1.2
						s3.5,1.8,4.2,3.3c0.6,1.1,1.3,2,2.1,2.9c0,0-0.3,0.7-4.6,0.1s-4,0.6-8.5,1.9c-3.8,1.1-7.4,2.4-11,4.1c-1.3,0.7-1.4,0.3-5.3-0.4
						s-4.8,0.8-5.8,1.2s-0.6-1.7-0.6-1.7c-1.1,0-2.2,0.3-3.2,0.6c-18.2,6.6-5.7,6.2-6.2,7.6l-1.9,5.1c-2.7,5.7-4.5,2.7-6.8,7.2
						c-7.2,14.3-11.3-2.2-11.3-6c0-2.3-0.7-5.3,1.4-6c17.9-5.9,1.7-0.8,18.4-9c5.4-2.6,2.5-4.2,3.7-5c1-0.5,2-0.9,3.1-1l-3-0.2
						c-3-0.2-3,0.3-5.4,2.1s-4.2,2.1-3.7,0.7s0.6-2.8-1.2-2.1s-2.5,0.6-5.8,1.1c-3.6,0.4-7,1.9-9.8,4.2c-3,2.6-1.3,2.3-0.3,3
						s-4.7,0.5-7.4,0.3s-1.3-0.5,0.3-0.9s-2.4-0.7-5.9-1.2s-2.2,0.4-4.2,1s-2-0.5-3-0.7s-5.7-0.4-8.9-0.6s-3,0.2-3.9,0.9
						s-7,4.6-9.6,6.8s-5.9,2.6-8.9,4.6s-3.4,1.9-1,2.2s2.7,0.2,3.1,1.8c0.4,1.6,1.5,2.1,4.1,2.1s1.8,0.5,2.3-0.9s-0.6-3,1.5-1.7
						s3.9,2.1,4.5,3.9s-0.2,3-1.3,5.9s-1.5,7.1-3,9.2s-2.7,3.7-4.4,6s-9.8,8.2-11.7,8.7s-3,0.6-3.9-0.6s-1.5-1-3.6,0.4
						s-3,2.1-3.8,4.2s-2.6,2.1-4.4,3.7s-2.3,1.2-1,3s3.6,3.7,3.8,5.4s-1.1,4.3-2,5.4s-5,1.6-5,1.1c0.1-1.6,0.1-3.1,0-4.7
						c-0.2-1.5-1.8-1.5-1.2-2s2.9-1.3,1.2-2.4s-2.9-0.2-3.6-1.5s0.3-2.4-0.1-2.9s-1.6-1-4.1-1.2s-3,1.6-3.6,0.1s0.3-1.7-0.9-2.3
						s-2.1-0.2-5,1.5s-3.4,1.4-5.8,2.1s-2.4,1.2-1.8,1.8s2.6,3.1,4.2,3.4s2.9-0.5,5.4-0.5s3,0.3,2.4,0.9s-2.4,1.4-5.5,3.6
						s-2.2,1.8-1.1,2.7c1.4,1.1,2.6,2.3,3.7,3.8c1.1,1.7,0,2.4-0.2,3.4c-0.4,1.6,0.3,3.3,1.7,4.1c2.1,1.6,0.6,1.1,0.4,1.6
						s-3.8,5.1-5.3,7.4s-1.6,2.5-6.8,5.1c-3.2,1.8-6.7,2.9-10.3,3.2c-2.2,0.3-4.5,0.8-6.6,1.4c-1.4,0.4-0.9,1.3-1,1.8
						s-1.5,0-1.3-0.7s0.1-1.4-0.6-1.6c-1.8-0.6-3.7-0.3-5.3,0.7c-2.3,1.6-5.1,1.7-6.1,3.7s-0.8,1.3,0.3,2.2s6.1,4.3,7.3,6.1
						c1,1.5,1.6,3.4,1.5,5.2c0.1,2-5.8,5.7-8.3,6.9c-2.5,1.2-3.1,2.4-2.7,0.5s-1.1-3-3-4.4s-7.4-2.6-8.5-2.8
						c-1.1-0.2,0.4-1.3-0.3-1.3s-2.4-0.3-2.2,1.6s-1.7,1.3-2.1,3.1c-0.4,1.8-0.9,3.8,0.8,3.6c1.7-0.2,1.3,1.6,2.6,3.6s0.8,0.9,4,2.8
						s2.4,1.5,3.1,3.4s0.5,2.9,2.1,4.6s1.7,2.1-1,1.1c-2.2-0.6-4.2-1.8-5.8-3.3c-1-1.2-1.7-4.1-2.3-5.6s-5-3.2-6.4-4.3
						s-0.6-1.9,0.2-4.3s-0.3-4.8-0.6-6.2c-0.6-2.4-1.6-4.8-2.7-7c-0.8-1.4-0.5-1.2-1.7,0c-1.2,1.2-2.2,2-3.4,2s-3-0.1-2.8-0.7
						s1.4-2.7,1-3.5s-1.5-3.3-3.2-4.2c-2-0.9-3.6-2.4-4.7-4.2c-1.1-2.1-1.3-1.5-3.4-0.4s-6.8,1.2-9.1,1.3s-0.4,0.9-1,1.7
						s-3.2,1.8-8.6,5.8c-5.4,4-6.2,4.1-7.6,4.5s-2.3,0.3-2.2,1.9c0.2,1.3,0.2,2.7,0,4c-0.2,1.1-0.7,2.1-1.5,3
						c-0.6,1.1-1.1,2.3-1.4,3.5c-0.2,0.9-1.4,1.9-3.1,2.8c-1.7,0.9-1.8,0.7-2.6-0.6c-0.8-1.3-5-6.4-8.3-11.1s-2.6-5.6-2.9-7
						c-0.3-3.4-0.4-6.8-0.2-10.3c0.1-0.4-1.6,1-2.1,1.6s-0.5,1.5-2.4,1.6c-1.5,0.3-3-0.1-4.1-1.1c-1.8-1.3-2.6-2-2.3-2
						c1.2,0,2.4-0.2,3.6-0.6c1.2-0.4,0.8-0.9,0.8-0.9s-1.3,0.1-2.8,0.2s-0.8-0.3-2.9-0.8c-2.1-0.5-2.5-0.6-2.8-1.3s-0.8-1.6-1.1-2.1
						s-0.5-0.5-0.9-1.1s-1.3,0.1-3.5,0.1s-1.7,0.1-4.4,0.9c-2.7,0.8-3.1,0.5-6.1,0.4c-2.3-0.2-4.5-0.6-6.6-1.4
						c-1.3-0.3-2.7-0.4-4-0.4c-2.2-0.2-1.8-1-2.3-1.7s-1.5-0.8-4.4-0.7c-1.6,0.2-3.1,0.1-4.7-0.3c-1.7-0.3-1.8-0.7-3.2-1.7
						s-0.9-0.2-1.8-0.7c-1.1-0.6-2-1.5-2.5-2.6c-0.7-1.4-0.6-1.7-1.4-2.3s-0.8-0.5-3.3-0.5s-1.4,0.1-1.7,0.3c-0.7,0.5-1.3,1-1.8,1.6
						c-0.7,0.6,0.6,1.5,1.6,2.4s0.1,0.8,1.8,2.1s1.1,1.2,2.3,3s1.9,2.3,2.2,2.8s0.5-0.2,0.8-0.7c0.1-0.7,0.1-1.5-0.1-2.3
						c0.4,0.6,0.7,1.3,1,2c0.5,1.3,0.1,1.3,0.5,2.1s0,0.7,2,0.7c1.8,0.1,3.6,0,5.4-0.3c2.2-0.4,3.2-1.8,4.2-2.2s1-1.9,1.7-1.8
						s0,1.8,0.7,2.8s0.8,0.7,2.3,1.1s2,0.7,3.5,1.1s0.5,0.5,1.4,1.6s0.8,0.5,1.6,0.9s0.5,0.1-0.1,1.4c-0.6,1.3-0.7,1.3-2.1,2.4
						c-1.4,1.1-1.4,0.7-1.6,0.7s-0.6-0.8-0.6-0.8c-0.5,0.8-0.9,1.8-1,2.8c-0.1,1.5,0.7,1-1.8,1.7s-4,1-5,1.6s-1,1.4-1.5,1.8
						c-0.5,0.4-1.3,0-3,0.5c-1,0.2-1.9,0.5-2.7,1.1c-1.4,0.8-0.2,0.7-2,1.2s-5.2,1.6-6.8,1.8c-1.6,0.2-1.3,0.4-1.8,0.9
						s-0.5,0.7-2.6,0.9c-2.1,0.1-4.1,0.4-6.1,0.9c-1.3,0.5-3.2,1.5-4.6,1.3c-1.4-0.2-1-0.2-1.5-1.1s-0.8-2-0.9-3
						c-0.3-1.8-1-3.5-2.1-5c-1.2-1.4-1.2-1.5-2.4-3s-2.1-2.7-3.3-3.3c-0.8-0.3-1.5-0.6-2.2-1c-0.5-0.4-0.2-1.9-0.8-3.1
						c-0.4-1.2-1-2.2-1.8-3.1c-1.2-0.8-2.3-1.8-3.2-2.9c-1.2-1.5-1.2-1.6-2.9-3.9c-1.7-2.3-2.3-2.5-3.3-4.1s-0.4-1.2-0.8-2.1
						c-0.4-0.9-1.4,1.5-2.3,1.9c-0.9,0.4-1.3,0.2-1.9-1.1c-0.6-1.3-1.2-2.5-1.7-2s-0.9,1.1-0.2,2.5s1,1.1,1.9,2.5s3.4,4.8,4.4,6.2
						c0.7,0.8,1.2,1.8,1.5,2.9c0.5,1.4,1.4,2.6,2.7,3.3c1.3,0.9,1,0.4,1.6,1.9c0.4,1.3,0.5,2.7,0.4,4c0.1,0.9,0.8,1.3,2.3,2.2
						s0.8,0.6,1.4,1.5c0.7,1,1.3,2.1,1.8,3.2c0.3,0.9,1.1,1.7,2,2s1.8,0.6,2.7,0.8c1.2,0.3,0.8,0.5,1.6,1.2s2.3,1.3,3.3,2.4
						s0.3,0.8,0.3,1.9s-0.5,0.6,0.1,1.2c1.2,0.8,2.5,1.5,3.9,2c2,1,0.4,0.3,2.2,0.3c1.4-0.1,2.8-0.3,4.1-0.7
						c1.9-0.3,4.4-0.8,6.8-1.2c2.4-0.4,4.7-0.7,6-1s1.3,0.7,0.3,2.1s-1.4,2.7-2.2,3.9c-0.8,1.2-1.1,1.3-1.7,2.3
						c-0.6,1-4.5,4.9-5.3,6.2c-0.8,1.2-1.9,2.3-3,3.3c-1.2,1-5,2.9-6.7,3.9s-1.3,1-2.6,2.2s-5.3,4.5-6.3,5.6
						c-0.9,0.9-1.7,1.8-2.5,2.7c-0.8,1.1-3.1,2.8-3.2,3.6c-0.1,0.8-1.4,0.9-0.5,1.7c0.9,0.8,1.5,0.8,1.8,1.8s-1.1,2-0.2,3.6
						c0.9,1.6,0.3,0.5,1.6,1.8s1.3,2.2,1.4,4.1c0.2,1.7,0.2,3.5-0.2,5.2c-0.4,1.1-1,2.2-1.6,3.2c-0.6,1.1-4,1.9-5.9,2.5
						s-1.9,0.4-2.8,1.1c-0.9,0.7-3.5,2.4-4.4,3.6s-1.5,1.1-1.2,1.8c0.6,1.1,1.3,2.1,2,3.2c0.9,1.4,0.3,1.3,0,2.5s-0.2,1-0.4,2.5
						s-2.7,1.5-5.5,2.3s-1.8,0.4-2.1,1.5c-0.2,1.5-0.3,3-0.2,4.5c-0.1,1.3-1,0.8-2.5,2.3s-2.1,2.3-3.8,4.2c-1.7,1.9-1.5,1.6-3.5,2.8
						c-2,1.2-3.7,1.5-4.6,2.8c-0.9,1.3-1.9,0.5-6.3,1.5c-4.4,1-1.2,0.5-5.4,0.8s-5.7,0.6-7.9,0.9s-1.9-0.1-3.3-1.1
						c-1.4-1-1.6-1-2.2-1.9c-0.6-0.9-0.2-1.1-0.4-2.7c0-1-0.4-2-1.2-2.6c-0.7-0.8-1.2-1.8-1.7-2.7c-0.6-1.1-1.4-2.2-2.3-3.1
						c-1-1.1-1.3-0.7-2.2-1.4c-0.7-0.5-1.1-1.4-1.2-2.3c-0.2-1-0.5-3.3-1-5.7s0-1.1-0.6-2.1c-0.6-1.2-1.3-2.4-2.1-3.6
						c-0.6-1-1.3-1.8-2-2.7c-0.8-0.9-1.5-1.9-2.1-2.9c-0.9-1.5-1-0.8-1.1-1.4s0.5-1.6,0.5-2.6c0.2-1.2,0.5-2.5,0.9-3.6
						c0.4-1.5-0.5-1.5,0.4-2.5s1.7-2,2.4-3.2c0.5-0.8,0.7-1.8,0.5-2.7c0-1.5-0.2-1.4-0.9-2.6s-0.9-2.7-1.6-4.7
						c-0.4-0.9-0.7-1.8-0.9-2.7c-0.2-1.2-0.6-2.4-1.2-3.6c-0.5-1.1-0.8-0.6-2-1.3c-1.2-0.7-0.5-0.2-1.5-1s-0.8-1-1.8-1.8
						c-0.7-0.5-1.4-1.1-1.9-1.8c-0.8-0.9-0.4-0.4-0.3-1.9c0.2-2.1,0.6-4.2,1.1-6.3c0.4-1.7,0.5-1.6-0.5-2.4s-1.6-1.8-2.3-1.9
						c-0.7-0.1-2.5,0.2-5,0.1s-2.4-0.4-3.5-1.3s-2.5-2.1-3-2.5s-1.4-0.3-5.7-0.1c-4.3,0.2-1.7,0.3-4.6,0.6c-2.9,0.3-4,1.4-6.2,1.9
						s-2.9,0.4-6.7-0.1s-5.8,0.6-7.8,1.2c-1.4,0.5-3,0.4-4.4-0.4s-2.9-1.5-4.5-2.1c-2.2-0.8-1.7-1.2-3.9-2c-2.2-0.8-1.5-0.8-3.3-2
						s-1.9-2.5-3.2-3.7c-1.3-1.2-2.3-3-4-4.4s-3.3-4-4.1-4.9s-1.5-0.9-1.4-1.3s1.6-2.7,2.3-3.8s0.9-1,1.1-1.8s-0.4-2.9-1-4
						s-1.4-3.6-1.9-4.8s0.3-1.2,0.9-1.8c1.3-1.3,2.5-2.6,3.6-4c1.5-2,2.4-3,3.2-3.9s2.6-3.8,3.8-4.6c1.8-1.1,3.6-2,5.6-2.8
						c1.3-0.5,2.4-0.7,2.6-1.2s0.8-3.9,1.1-5.4s-0.1-2.3,1.4-2.8s3.9-1.6,5.1-2.1s1.4-1.2,2.1-2.3s0.9-2.4,1.9-2.9s0.7,0.2,1.9,0.8
						c0.6,0.4,1.3,0.6,2,0.7c0.6,0.1,1.1-0.3,2.6-0.4c0.9-0.1,1.7,0.1,2.5,0.5c0.9,0.3,0.4,0.3,2.9-0.8s5.1-2,7.8-2.6
						c2.3-0.7,4.6-1.2,7-1.5c1.5-0.1,0.8,0,2.5,0.5s1.8,0.7,2.1,0.3s1.5-1.3,2.2-1.3s1.5,0.3,3.4,0.5c1.1,0.2,2.3,0.2,3.4-0.2
						c0.7-0.3,1.7-0.8,1.9-0.8s1.8,0.4,3,0.7s1.3,0.4,1,0.6c-0.5,0.4-0.9,0.9-1.3,1.5c-0.6,1-0.3,0.5,0.3,1.5s1,1,0.7,1.7
						s-1.5,1.5-2.3,2.2s-0.7,0.9,1.5,1.7c1.3,0.6,2.7,1.1,4.1,1.5c2.4,0.8,2.5,0.5,5.4,1.1s2.5,0.7,3.5,1.5s1,1.6,2.8,2
						s3.5,0.4,4.5,0.9c1,0.6,2,1,3.1,1.3c1.3,0.2,1.3,0.3,2-0.4s1.2-1.3,0.9-1.7s-1-0.9-0.8-1.2c0.5-0.7,1-1.4,1.6-2.1
						c0.3-0.4,1.2-0.5,3.3-0.6s3.6-0.3,3.9,0.6s0.3,0.5,1.9,0.9c1.6,0.4,1.8,0.5,3.1,0.9s0.7,0.9,1.4,0.9c1-0.1,2.1,0,3.1,0.2
						c2,0.6,4,0.9,6.1,1.1c1.3,0.1,2.6-0.1,3.8-0.6c0.4-0.1,2.1-1.6,3.2-0.6c1.1,1,2.4,1.1,5,1s2.6-0.4,3.2-0.9c1.1-1,2-2.2,2.7-3.5
						c0.5-1.2,1.9-3.9,2.3-5.1c0.2-1,0.2-2-0.2-2.9c-0.1-0.7,0.1-1.4,0.5-2c0.4-0.8-1.3-0.3-1.9-0.2c-0.6,0.1-0.8-0.3-1.5-0.4
						s-1.3-0.2-1.7,0.6s-0.2,1.2-2.7,1.1s-2-0.2-2.8-0.8c-1-0.6-2.1-0.9-3.3-1c-1.1-0.2-1.2-0.2-1.3,0.3s-0.1,0.8-0.9,1
						c-1.4,0.1-2.8-0.1-4.1-0.6c-1.3-0.4-2.4-1-3.5-1.8c-1.5-1-1.3-1-1.9-2.6c-0.5-1.1-0.6-2.3-0.3-3.4c0.3-0.5,0.7-0.6-0.5-0.4
						s-1.9,0.4-1.2-0.8c0.5-0.8,1.3-1.4,2.3-1.4c1.2-0.2,2.4-0.2,3.5-0.3s2.2-0.4,3.2-0.8c0.5-0.2,1.6-0.4,1.1-0.5s-2.2-0.2-2-0.6
						s0.5-0.3,1.4-0.4c0.9-0.1,2.3-0.1,3.5-0.2s1.9,0.1,2.3-0.4c0.5-0.7,1.1-1.3,1.8-1.7c0.9-0.4,1.9-0.2,4.4-0.3s2.1,0.4,2.9,0.8
						s1.3,0.2,2.4,0.4c1.1,0.2,0.4,0.6,1.2,0.8s2.3,0.5,4,0.9s0.6,0.2,2.8,0.2c1.3,0.1,2.6,0,3.8-0.2c1.3-0.2,2.5-0.6,3.7-1.3
						c1.2-0.6,0.4-2-0.1-3s-2.4-1.7-3.3-2.2c-0.9-0.5-2.8-2-3.8-2.6c-1.1-0.5-2.2-0.9-3.3-1.2c-1.1-0.4-3.1-1.2-3.3-1.8
						s0.4-0.6,2.1-0.9s1.1-0.5,1.4-1.1s0.5-0.6,1.8-1s-1.6-1.1-2-1.5s0.9-0.3,2.3-0.5c1.4-0.2,1.5-0.7,1.7-1.1s0.1-0.6-1.5-0.6
						c-2.1,0.2-4.2,0.5-6.3,1c-2.7,0.5-1.5,0.5-3.1,1.4s-1.7,0.5-1.5,1s0.3,1,2,1.6s1,0.6,1.4,0.7c0.4,0.1,1.6,0.2,1.1,0.3
						s-1,0.7-1.7,0.7s-1.1,0.5-2.3,1.1c-0.9,0.4-1.8,0.6-2.8,0.7c-0.9,0.1-1.6-0.1-1.5-1.2c0.1-1.1-0.5-0.4-1.5-0.6
						c-0.5-0.1-0.9-0.3-1.4-0.6c0.7-0.2,1.4-0.4,2-0.7c0.8-0.2,1.5-0.8,1.9-1.6c0.5-0.9-1.1-0.4-2.2-0.5c-1.1-0.1-0.8-0.2-1.9-0.3
						c-0.6,0-1.1-0.3-1.5-0.7c0.5,0.1,1,0.1,1.4,0.1c0.9-0.1,0.7-0.3,1.1-0.4c0.4-0.1,0.6-0.3,0.3-0.3s-1.4,0.1-2.2,0
						s-1.6-0.1-2.3,0c-1.1,0.1-0.7,0.4-1.5,0.8c-0.5,0.2-1,0.5-1.3,1c-0.4,0.5-0.6,0.4-0.8,0.8c-0.2,0.6-0.3,1.2-0.3,1.8
						s-0.2,0.8-0.7,1.3s-0.5,0.3-1.4,0.6s-0.3,0.5-0.4,1.1c-0.2,0.5-0.4,1.1-0.5,1.6c-0.1,0.8-0.5,0.8-1.2,1.4s-1,0.5-1.1,1.1
						s-0.1,1.3,0,1.9c0.2,1.1,0.6,0.8,1.8,1.9c1.2,1.1,1.8,0.7,1.4,1.3c-0.4,0.6-0.3,0.4-1.8,0.2c-1-0.2-2,0.1-2.8,0.8
						c-1.1,0.7-1.3,1.1-1.8,1.4s-0.4-0.5-0.6-0.9s-2.7-0.5-4.3-0.8s-2.1-0.5-2.6-0.5c-1,0-2,0.2-2.8,0.6c-1.8,0.7-1.4,1.1-1.2,2
						s1.5,1.1,1.1,3.2c-0.4,2.1,1.5,1.1,2.3,2.4s0.1,1.2-0.4,1.3s-1,1.3-1.3,2.3s0,1.2-0.4,1.1c-0.7,0.1-1.3-0.2-1.8-0.7
						c-0.8-0.9-1.5,0-1.6-0.6s-1.2-1.3-0.8-2.5s1-1.3-0.4-1.9c-1.4-0.6-1.1-0.7-1.8-1.9c-0.5-1-1.2-1.9-2.2-2.6
						c-1.3-1.1-1.2-0.8-0.8-2s0.6-2.6-0.2-3.4c-2.1-1.7-4.4-3-6.8-4c-2.7-1-3.3-0.2-4.5-1.9s-1.8-3.4-3.8-4.4s-1-1.1-2.9-0.6
						s-2,0.7-1.8,1.1c0.4,0.6,0.5,1.3,0.3,2c-0.3,1.1-0.7,0.7,1.3,1.6s1.2,0.7,2.2,2.2c0.5,1,1.2,1.8,2,2.5c0.8,0.9,1.9,1.4,3.1,1.5
						c2,0.3,1.7-0.1,2.2,0.3s-1.4,0.5-1,0.6c0.8,0.5,1.6,1,2.5,1.4c1.7,0.7,3.4,1.5,3.8,2.1c0.4,0.6,1.9,2.8-0.2,1.2
						c-2.1-1.6-2.2-0.9-2.8,0.2s0.6,2,0.5,2.8s-1.1,0.5-1.8,1.2s-1,1.4-1.8,1.9s-0.5-0.5-1-0.5s-0.6,0.4-1.2,1.2
						c-0.6,0.8,0,1.1,0.2,2.1s0.6,1.1-0.9,1.1s-1.2-1.1-2.6-1.8c-1.4-0.7-2.3-0.4-3.5-1s0.5-0.7,3.5-0.9s3.4-0.5,4.3-1
						c0.9-0.5,0.6-0.6,1.6-1.6s0-1.4-0.7-2.6c-0.6-0.9-1.4-1.6-2.4-2c-0.8-0.5-1.6-1-2.3-1.6c-1-0.6-2.1-1-3.3-1.1
						c-1.5-0.3-1.2-1.2-2.1-1.5c-0.9-0.3-1.7-1.1-3.6-2.4c-1.9-1.3-1.2-2.2-2.1-3.3c-0.8-1.3-2.2-2-3.7-1.9c-1.9,0-3.4,0.9-5.3,2.3
						s-1.5,2-3.8,1s-3-0.9-4.6,0s-1.9,1.9-1.9,3.8s-1.9,1.1-3.4,1.6s-2.9,1.9-5.2,5s0.2,1.6-0.3,2.7s0.2,1.9-2,3.3s-1.2-0.2-2.5,0.9
						c-1.7,1.4-3.9,2.1-6.1,1.8c-3-0.3-2.2,0.6-4.1,0.9s-3,0.8-2.5-0.7s0.1-1.3-3.6-1.2s-5,0.8-4.6,0.4c0.5-0.8,0.8-1.6,0.9-2.5
						c0.4-1.5,1-2,0.4-2s-1.8,0.2-0.9-2.4s1.2-3.1,0.8-4.6s0.1-3.6-0.3-4.5s1-1.8,0.3-2.3s-1.4-1.1-0.9-1.1c1.7,0,3.3,0.2,5,0.4
						c2.6,0.3,5.2-0.3,6.7-0.2s4.7,0.6,7.9,0.9s3.1-0.3,2.8-3.6s0.2-4.9-0.7-5.6s-2-0.6-3-1.5s-0.3-2.2-2.5-2.7s-4.7-0.1-3.5-0.4
						s1.7-0.4,0.4-1.1s-1.6-1.4-0.6-1.5s3.7-0.1,3.7-0.1s0.2,0.9,1.7,0.5s3.3-0.8,2.9-1.5s-1.1-1.5-0.9-1.5c1.1,0.7,2.5,1.1,3.8,0.9
						c3,0,2.8-0.3,2.6-1.2c-0.2-0.9,2-0.9,3.5-1.6s-0.6-1.6-0.2-2.3s2.1-1.1,5.2-1.3s2.5-0.5,2.2-0.8s0.1-1.4,0.3-2.8
						c0.2-1.4-0.2-1.9,1.4-2.6s1.1-0.4,4.4-0.6s1.3-0.7,1.8-0.8s4.5-0.8,5.2-1s0.6-0.2,0-1.2s-1.5-1.6-2.2-6.2s-0.6-4.6,3.4-5.5
						s3.1-0.6,2.8,2s-2.1,2.6-2.5,4.5s-0.1,3.1,1.6,5.1c1.7,2,1.5,1,5.1,1s2.8,0.6,5.2,1.2s1.6-1.1,3.9-1.6s1.8,0.4,7.3-0.2
						c2.1-0.2,2.8-0.3,2.9-0.3c-0.2,0-0.8,0-0.2-0.2c1.3-0.5,1.6-1.5,3.4-1.6s3.1,0.4,3-1.6s-1.1-1.7-0.8-3.2s0.4-0.9,0.6-2.1
						s-0.2-1.4,2.1-1.9s0.7,1.5,3.5,1.9s2.4,0.7,2.9-0.8s2-3.6,0.6-3.4c-1.4,0.2-1.7-0.1-3-1.5s-2.2-1.7-1.3-1.7
						c2.7-0.3,5.4-0.5,8.1-0.5c4.2,0.1,5.4,0.4,5.7,0.1c0.3-0.3-0.7-0.6,0.7-1.3s6.2,0.3,5.4-0.3s-4.9-1.4-7.7-1.1
						s-9.6,0.9-10.6,0.8c-1.2-0.1-2.4-0.4-3.4-0.9c-0.5-0.4-2-0.6-2-2.4s0.9-2.4-0.6-4.1s2.6-3.1,5.4-4.9s2.1-3.3,3.8-3.4
						s2.3-0.7,1.5-1.3c-0.8-0.6-3.8-2.6-5.2-2.8s-3.6-1.4-5.8,1.4s0.2,3,0.6,4.4c0.4,1.4-3.1,2.5-5.8,3.8s-3.6,1-4.4,4.4
						s-1.6,3.5,1.3,4.6c3,1.2,3.5,1.7,2.2,2.8s-4.2,1-6,3.3s-1,3.5-1.8,4.6s-3,1.5-3.6,2.6s-0.6,3.1-3.4,2.8s-1.2-2.9-2.4-4.2
						s-2.2-2.4-3.6-4.1c-1.4-1.7-0.3-3.2-1.7-4.1c-0.9-0.6-1.5-1.5-1.7-2.5l-0.5,0.8c-0.5,0.8-0.2,1.3-3,3.6c-2.5,2-5.7,2.7-8.8,2
						c-2-0.6-1.7-2-1.7-3.7s-0.5-4.1-0.1-6.8s1.5-2.5,5.8-4.3s4.3-1.7,5.4-2.9c1.1-1.2,4.1-2.8,5.8-3.9s4.8-5.1,6.4-7.9
						c1.6-2.8,4.5-4.6,7.4-7.7s8-5.8,14.5-7.7c6.5-2,5.4-2.2,6.9-3.7s2.2-0.6,4.7-1s2.2,0-0.4,1.8c-2.6,1.8-3.7,3.7-1.5,2.3
						c2.2-1.4,3.8-3.1,7.2-3s2,0,5.3,1.1s3.8,1.2,2,2c-1.6,0.5-3.3,0.8-5,0.6c0,0,1,1.8,4.1,2s4.7-1.7,6.7-1s2.5,1.3-0.2,1.1
						s-3.5,1.1-0.2,1.9c2.6,0.8,5.3,1.2,8.1,1.4c4.4,0.4,6.3,2.7,9.7,3.7s7.3,0.2,6.2,2.3c-1.1,2.2,0.9,4.3-5,5.3s-5.7-0.3-10.5-1.4
						s-8.3-2.1-8.3-2.1c1.1,1,2.3,1.9,3.5,2.7c2.2,1.5,2.5,2.9,2.2,5.6s-1.3,3.4,2.5,4.8s3.3,0.9,4.5,0.7s3.2-0.5,2.7-0.9
						c-0.6-0.7-1.3-1.3-2.2-1.6c-1.3-0.4-1.3-1.4-0.1-1.9s2.5,0.4,5.3,0.3s0-0.7,1.4-1.8c1.4-1.1,1.4-2.7,4.7-3.6s6.8,0.4,7.7-0.6
						s1.8-2.2,0-3.7s-3.3-2.1-2.2-2.8s3.4-2.7,4.4-1.6s3.7,2.3,0.3,2.1c-3.3-0.2-1,3.5,2,3.3s2.8-0.9,5.3-1.7
						c2.5-0.8,7.3-3.6,10.8-4.5c3.4-0.8,4.2-0.6,5.5-0.2s1.4,1.2,5.1,0.7s4.9-1.2,8.4-1.6s-0.2,0.9,1.4,1.3c1.6,0.4,1.8,0.7,3,0.1
						s5-1.5,3.3-2.5s-3-1.6-3-1.6s1.3-2,4.6-1.9c3.4,0.2,8.5,2.4,11.7,4c2.6,1.4,5,3.1,7.3,5c0,0,1.4-1.7,0.2-4.6s-4.2-2.2-4.2-5
						s-2.8-2-1.8-4s3.7-2.7,4.4-5.2s1.3-4.5,3.8-4.5s7.8,0.5,7.8,0.5c-0.2,2-0.9,4-2,5.7c-2,3.4,1,3.8,0.6,7.9s-0.6,4.6,0.8,5.6
						s3.9,2.1,3,3.9s-1.4,2.9-5,3.9s-8.1,0.4-6.5,1.2c2,0.9,4.1,1.5,6.2,1.7c2.4,0.3,1.2-0.1,3.1-1.2s6.2-3.3,6.1-4.4
						c-0.1-1.1-2.5-2.7-0.9-3.5s2.2-2,4.7-1s4.9,4.8,4.9,4.6c-0.3-2.3-1.6-4.4-3.4-5.8c-3-2.1-7.8-0.1-7.8-2s1.4-4.4,1-6.4
						s-1.4-4,0.4-5.8c1-0.8,1.7-1.9,1.9-3.1c0.5,1.2,0.5,2.5,0.2,3.7c-0.6,2.1,0.3,3.3,1.7,3.3s7.4,0.1,4.2-0.6s-4.2-1.3-1-2.6
						c3.3-1.3,3.1-0.4,7.9,0.4c4.8,0.8,5.9,1.4,7.5,1.3s1.4-0.2,0.8-1.2c-0.6-1.1-1.6-1.9-2.8-2.4c-1.5-0.7-2.5,0.2-3-0.9
						s-1.4-3.7-1.8-4.7s1.2-0.2,3.8-0.2s9.5-0.3,14.9-0.4s0.1-4.1-0.3-6.9c-0.4-2.8,9.9-2.9,14.9-3.4s10.9-0.4,20.3-2
						s3.4-1.3,4.7-3.2s3.7-2.2,6.5-2.2s5.3,0.4,4.3,0.6s-4.2,1.4,0.7,2.1s3.6,0.7,1,1.3c-2.6,0.6-0.4,1.8,4.5,1.8s2-0.3,1.2-1.5
						s0.7-0.7,4.8-0.3c4.1,0.4,5.7,1,7.9,2.4s2.6,1.1,3.4,3.2c0.8,2.1-0.1,1.8-3.5,3.7s-5.5,1.9-10.5,4.1s-3.8,3.4-6.5,4.9
						s-2,1.1,3.8,0s8.9-1.8,11.8-1.5s4.4,1,6.6,1c2.3,0.2,4.6,0.3,6.9,0.3c7,0,6,0,3.4,1.4s0.5,1.8,3.6,1.8s7,0.1,9.8-0.2
						c2.8-0.3,0.4-1.8,3.8-2c3.4-0.2,4.5-0.3,8.2-0.3s2.6,1.1,3.8,2s3,1.6,1.8,3.5s-1.8,2-1.1,4.5s2.6,3,4.8,3.4s2.2-2.3,4.4-3.3
						s2.6,1.9,5.1,1.5s5-0.3,7.4,0.3c2.3,0.6,4.7,0.7,7,0.3c3-0.5,2.1-1.3,1-2.6c-1.1-1.3-1.1-1.2,0.8-2.6c1.9-1.4,3.2-0.7,9.4,0.5
						s4.2,1.2,7.7,1.8c3.5,0.7,2.4,0.5,7.8,2.3c5.4,1.8,4.3,3.8,6.8,4.9s2.6,0,7.6-0.3s4.9,0.4,10.3,1.4s4,2.3,4,3.4
						s-1.5,1.9,1.8,2.5s4.7,1,7.6,0.5s0.3,0.5,6.7,0.6s4.2-0.5,6.2,0.4s2.4,2.9,5.5,2.6s2.9-0.2,1.6-2.1c-1.3-1.9-2.1-2.3-0.2-2.2
						s5.6,0.6,12.5,1.4s7.2,1.7,12.9,4.2s7.3,2.8,11.4,5c0.7,0.3,1.3,0.7,1.9,1.2c0.7,0.1,1.4,0.4,2.1,0.6c4.5,1.5,3.7,1,7.5,2.3
						c2.4,0.9,4.8,1.9,7.1,3.2C1010.2,132.8,1010.4,133.2,1007.6,133.4z M635,187.1c0,0-0.4,0.4,1.8-0.9c2.2-1.3-1-0.1-2.3-0.3
						s-1.7-0.7-1.3-1.9s-0.2-1.2-1.5-2.7c-0.8-0.2-1.6-0.1-2.2,0.3c-1.5,0.6-2.4-0.6-4.2-0.1s-3.8,0.3-5,2.2s-2.4,0.7-2.8,2.3
						c-0.4,1.6-3.8,2.4-3.8,2.4s1.4,0.9,2.4,1.9s0.3,0.3,1.3,3.3s1.8,2.7,3.2,3.1c1.2,0.4,2.5,0.9,3.7,1.4c0,0-1.3-0.6-1.3,1
						s-2.2,2.7-1.9,5s-3,4.5-0.4,4.7s1.8,1,4.5,1.5c2.8,0.6,5.6,0.9,8.5,0.9c4.1,0,1.8-1.1,1.3-2.8c-0.5-1.4-0.9-3-1-4.5
						c-0.2-1.8-1.1-1.3-1.8-2.4c-0.7-1.1,0.3-1.8,2.2-1.8s2.2,0,1.1-1.3c-1.1-1.3-0.4-1.7-1.7-2.2S632,198,632,198s-0.8-0.5-0.5-2.8
						s0.6-1.2-0.4-1.6s-1.5,0.1-2.8-1.4s-0.2-1.2-1.7-3s-0.7-0.9,1-0.9s0.8-0.3,0-0.8s-1.4-1.5,0.8-1.4s5,0.4,6,0.5
						S635,187.1,635,187.1z M337,105.6c-0.7,0.9,1.3,2.1,2.7,1.7s1.9,0,2.7-0.4c0.8-0.4,0.9-1.1-0.1-1.8s-0.6-1.1-0.7-1.1
						C339.8,103.2,337.8,104.7,337,105.6z M731.8,47.3c-2.2,0-4.6,0.1-2.6,0.6s1.2,2.9,5,1.5s3-1.4,5.7-2.2s1.1-0.4-2.1-1
						C735.9,45.9,734,47.3,731.8,47.3z"/>
				</g>
			</g>
		</g>
	</g>
</g>
<path class="st2" d="M180,360.7c-18.5,0-36.7-3.6-53.8-10.8c-33.1-13.9-59.4-40.1-73.6-73c-14.5-34.1-14.5-72.6,0-106.7
	c7-16.3,17.1-31.1,29.7-43.6c12.7-12.5,27.6-22.5,43.9-29.4C178,75.4,237.8,87,277.7,126.6l-3,3c-25.1-24.9-59.1-38.8-94.5-38.7
	c-17.9,0-35.5,3.5-52,10.4c-15.8,6.6-30.2,16.2-42.5,28.2c-25.4,24.7-39.6,58.6-39.5,94c-0.1,35.2,14,69,39,93.8
	c25.1,24.9,59.1,38.8,94.5,38.7c17.9,0,35.6-3.5,52.1-10.4c15.8-6.7,30.2-16.3,42.4-28.4c25-24.8,39.1-58.5,39-93.8v-2.1h59.2v4.2
	h-54.7c-0.2,17.6-3.9,35-10.9,51.2c-7,16.3-17.1,31.1-29.7,43.7c-12.6,12.5-27.6,22.5-43.9,29.4C216.4,357.2,198.3,360.8,180,360.7z
	"/>
<path d="M359,240.9l-3-3l15.4-14.2L356,209.3l3-3l18.8,17.4L359,240.9z"/>
<radialGradient id="SVGID_3_" cx="-1245.0619" cy="-1071.5983" r="1.0006" gradientTransform="matrix(56.99 0 0 56.53 71225.7813 60721.4531)" gradientUnits="userSpaceOnUse">
	<stop  offset="0.18" style="stop-color:#000000"/>
	<stop  offset="0.24" style="stop-color:#242424"/>
	<stop  offset="0.36" style="stop-color:#5D5D5D"/>
	<stop  offset="0.48" style="stop-color:#8F8F8F"/>
	<stop  offset="0.59" style="stop-color:#B7B7B7"/>
	<stop  offset="0.7" style="stop-color:#D6D6D6"/>
	<stop  offset="0.81" style="stop-color:#EDEDED"/>
	<stop  offset="0.91" style="stop-color:#FAFAFA"/>
	<stop  offset="1" style="stop-color:#FFFFFF"/>
</radialGradient>
<path class="st3" d="M269.7,195.6c31.5,0,57-25.3,57-56.5s-25.5-56.5-57-56.5s-57,25.3-57,56.5S238.2,195.6,269.7,195.6z"/>
<path class="st4" d="M302.8,162.1c14.4-14.2,14.6-37.5,0.4-51.9c-0.1-0.1-0.3-0.3-0.4-0.4c-14.7-14.4-38.2-14.4-52.9,0
	c-14.4,14.2-14.6,37.5-0.4,51.9c0.1,0.1,0.3,0.3,0.4,0.4C264.6,176.6,288.1,176.6,302.8,162.1z"/>
<path class="st5" d="M276.3,176.1c-22.2-0.2-40.1-18.3-39.9-40.5s18.3-40.1,40.5-39.9c22.1,0.2,39.9,18.1,39.9,40.2
	C316.7,158.2,298.6,176.2,276.3,176.1L276.3,176.1z M276.3,102.1c-18.7,0.1-33.8,15.4-33.6,34.1s15.4,33.8,34.1,33.6
	c18.6-0.1,33.6-15.3,33.6-33.9C310.3,117.2,295,102,276.3,102.1z"/>
<path class="st2" d="M515.8,360.7c-18.5,0-36.7-3.6-53.8-10.8c-33.1-13.9-59.4-40.1-73.6-73c-14.5-34.1-14.5-72.6,0-106.7
	c7-16.3,17.1-31.1,29.7-43.6s27.6-22.5,43.9-29.4c51.8-21.8,111.6-10.2,151.5,29.4l-3,3c-25.1-24.9-59.1-38.8-94.5-38.7
	c-17.9,0-35.6,3.5-52.1,10.4c-15.8,6.6-30.2,16.2-42.4,28.3c-25,24.8-39.1,58.5-39,93.8c-0.1,35.2,14,69,39,93.8
	c25.1,24.9,59.1,38.9,94.5,38.7c17.8,0,35.5-3.5,52-10.4c15.8-6.6,30.3-16.2,42.5-28.3c25-24.8,39.1-58.5,39-93.8v-2.1h59.1v4.2
	h-54.8c-0.2,17.6-3.9,35-10.9,51.2c-7,16.3-17.1,31.1-29.7,43.6c-12.7,12.5-27.6,22.5-44,29.4C552.5,357,534.2,360.8,515.8,360.7z"
	/>
<path d="M694.6,240.9l-3-3l15.4-14.2l-15.4-14.4l3-3l18.8,17.4L694.6,240.9z"/>
<radialGradient id="SVGID_4_" cx="-1245.061" cy="-1071.5983" r="1" gradientTransform="matrix(56.99 0 0 56.53 71561.4297 60721.4531)" gradientUnits="userSpaceOnUse">
	<stop  offset="0.18" style="stop-color:#000000"/>
	<stop  offset="0.24" style="stop-color:#242424"/>
	<stop  offset="0.36" style="stop-color:#5D5D5D"/>
	<stop  offset="0.48" style="stop-color:#8F8F8F"/>
	<stop  offset="0.59" style="stop-color:#B7B7B7"/>
	<stop  offset="0.7" style="stop-color:#D6D6D6"/>
	<stop  offset="0.81" style="stop-color:#EDEDED"/>
	<stop  offset="0.91" style="stop-color:#FAFAFA"/>
	<stop  offset="1" style="stop-color:#FFFFFF"/>
</radialGradient>
<path class="st6" d="M605.2,195.6c31.5,0,57-25.3,57-56.5s-25.5-56.5-57-56.5s-57,25.3-57,56.5S573.8,195.6,605.2,195.6z"/>
<path class="st7" d="M648.8,141.8c3.4-20.3-10.3-39.6-30.6-43s-39.6,10.3-43,30.6s10.3,39.6,30.6,43c0.1,0,0.1,0,0.2,0
	c20.1,3.5,39.3-10,42.7-30.2C648.8,142.1,648.8,141.9,648.8,141.8z"/>
<path class="st5" d="M612,176.1c-22.2-0.2-40.1-18.3-39.9-40.5s18.3-40.1,40.5-39.9c22.1,0.2,39.9,18.1,39.9,40.2
	C652.6,158.1,634.2,176.1,612,176.1z M612,102.1c-18.7,0.1-33.8,15.4-33.6,34.1c0.1,18.7,15.4,33.8,34.1,33.6
	c18.6-0.1,33.6-15.3,33.6-33.9C646,117.2,630.8,102,612,102.1z"/>
<path class="st2" d="M851.4,360.7c-55.4,0.1-105.5-32.9-127.4-83.8c-14.5-34.1-14.5-72.6,0-106.7c7-16.3,17.1-31.1,29.7-43.6
	c12.7-12.5,27.6-22.5,43.9-29.4c51.8-21.8,111.6-10.2,151.5,29.4l-3,3C921,104.7,887,90.7,851.6,90.8c-17.8,0-35.5,3.5-52,10.4
	c-15.8,6.6-30.3,16.3-42.5,28.3c-25,24.8-39.1,58.5-39,93.8c-0.1,35.2,14,69,39,93.8c25.1,24.9,59.1,38.9,94.5,38.8
	c17.9,0,35.6-3.5,52.1-10.4c15.8-6.7,30.2-16.3,42.5-28.4c25-24.8,39.1-58.5,39-93.8h4.3c0.1,18.3-3.6,36.5-10.8,53.3
	c-7,16.3-17.1,31.1-29.7,43.6c-12.7,12.5-27.6,22.5-44,29.4C888,357,869.8,360.8,851.4,360.7z"/>
<radialGradient id="SVGID_5_" cx="-1245.071" cy="-1071.6024" r="1" gradientTransform="matrix(56.99 0 0 56.54 71897.0703 60722.9922)" gradientUnits="userSpaceOnUse">
	<stop  offset="0.18" style="stop-color:#000000"/>
	<stop  offset="0.24" style="stop-color:#242424"/>
	<stop  offset="0.36" style="stop-color:#5D5D5D"/>
	<stop  offset="0.48" style="stop-color:#8F8F8F"/>
	<stop  offset="0.59" style="stop-color:#B7B7B7"/>
	<stop  offset="0.7" style="stop-color:#D6D6D6"/>
	<stop  offset="0.81" style="stop-color:#EDEDED"/>
	<stop  offset="0.91" style="stop-color:#FAFAFA"/>
	<stop  offset="1" style="stop-color:#FFFFFF"/>
</radialGradient>
<path class="st8" d="M940.8,195.6c31.5,0,57-25.3,57-56.5s-25.5-56.5-57-56.5s-57,25.3-57,56.5S909.3,195.6,940.8,195.6z"/>
<path class="st9" d="M984.4,141.8c3.4-20.3-10.3-39.6-30.7-43c-20.3-3.4-39.6,10.3-43,30.7s10.3,39.6,30.7,43c0.1,0,0.1,0,0.2,0
	c20.1,3.5,39.3-10.1,42.7-30.2C984.4,142.2,984.4,142,984.4,141.8z"/>
<path class="st5" d="M947.6,176.1c-22.2-0.2-40.1-18.3-39.9-40.5c0.2-22.2,18.3-40.1,40.5-39.9c22.1,0.2,39.9,18.1,39.9,40.2
	C988,158.2,969.9,176.2,947.6,176.1L947.6,176.1z M947.6,102.1c-18.7,0.1-33.7,15.4-33.6,34.1c0.1,18.7,15.4,33.7,34.1,33.6
	c18.6-0.1,33.6-15.3,33.6-33.9C981.6,117.2,966.3,102,947.6,102.1z"/>
<path class="st9" d="M843.4,156.8l5.5-5.5l2.1,2.3l10.7-10.4l1.7,1.7l0.6-4.2l0.2-0.2v-0.2l0.4-3l-7.7,1.3l1.9,1.9l-7.9,7.8
	l-2.1-2.3l-6,5.7v-17.1h-3.2v25.6h25.8v-3.4L843.4,156.8L843.4,156.8z"/>
<path class="st7" d="M495.7,137.8v20.3H526v-20.3H495.7z M510.8,148.4l-11.5-8.9h23L510.8,148.4z M506.8,147.8l-9.4,7.6v-14.6
	L506.8,147.8z M508.2,148.8l2.6,1.9l2.6-1.9l9.2,7.4h-23.5L508.2,148.8z M514.9,147.8l9.2-7v14.6L514.9,147.8z"/>
<path class="st4" d="M183.6,156.3H174c-0.6,0.1-1.1-0.4-1.2-1c-0.1-0.6,0.4-1.1,1-1.2c0.1,0,0.1,0,0.2,0h9.6c0.6,0,1,0.4,1.1,0.9
	v0.1C184.6,155.8,184.1,156.2,183.6,156.3z"/>
<path class="st4" d="M181.9,159.9h-6c-0.6,0.1-1.1-0.4-1.2-1c-0.1-0.6,0.4-1.1,1-1.2c0.1,0,0.1,0,0.2,0h6c0.6,0,1,0.4,1.1,0.9
	c0,0,0,0,0,0.1C182.9,159.4,182.4,159.8,181.9,159.9z"/>
<path class="st4" d="M183.8,151.4h-10c-0.5,0-0.8-0.4-0.9-0.9c-0.1-2.6-1.2-5.1-3.2-7c-2.8-2.5-4.5-5.9-4.5-9.5
	c0-7,6-12.7,13.4-12.7S192,127,192,134l0,0c0.1,3.6-1.6,7.1-4.5,9.5c-2.1,1.8-3.2,4.4-3.2,7C184.6,151,184.2,151.4,183.8,151.4z
	 M174.4,149.8h8.5c0.2-2.8,1.6-5.4,3.8-7.2c4.8-4.2,5.1-11.3,0.7-15.8c-4.4-4.5-11.9-4.8-16.7-0.7c-2.4,2.1-3.8,5.1-3.8,8.2
	c0.1,3.1,1.5,6.1,3.8,8.2C172.9,144.5,174.2,147,174.4,149.8z"/>
<path class="st4" d="M175,129.2c-3.4,1.9-4.6,6.1-2.8,9.5l0,0c0.2,0.5,0,1-0.4,1.3c-0.2,0-0.2,0.2-0.4,0.2c-0.3,0-0.7-0.2-0.9-0.4
	c-2.4-4.3-0.8-9.7,3.4-12.1c0.5-0.2,1,0,1.3,0.4C175.7,128.4,175.5,129,175,129.2z"/>
<path class="st5" d="M268.4,147.8c-2.7,0.2-5.2-1-6.8-3.2c-3.1-5.1-3.1-11.5,0-16.5c3.2-3.8,8.8-4.2,12.6-1.1
	c0.4,0.3,0.7,0.7,1.1,1.1c3.1,5.1,3.1,11.5,0,16.5C273.6,146.7,271,147.9,268.4,147.8z M265.2,131.1c-1.4,3.4-1.4,7.2,0,10.6
	c1,1.8,3.2,2.4,4.9,1.5c0.6-0.3,1.1-0.8,1.5-1.5c1.4-3.4,1.4-7.2,0-10.6c-1-1.8-3.2-2.4-4.9-1.5C266,129.9,265.5,130.4,265.2,131.1z
	"/>
<path class="st5" d="M279.7,125.5h9v22H284v-17.7h-4.3V125.5z"/>
<path class="st5" d="M601.4,147.8c-2.7,0.2-5.2-1-6.8-3.2c-3.1-5.1-3.1-11.4,0-16.5c3.2-3.8,8.8-4.2,12.6-1.1
	c0.4,0.3,0.7,0.7,1.1,1.1c3.1,5.1,3.1,11.4,0,16.5C606.6,146.7,604,147.9,601.4,147.8z M598.2,131.1c-1.4,3.4-1.4,7.2,0,10.6
	c1,1.8,3.2,2.4,4.9,1.5c0.6-0.3,1.1-0.8,1.5-1.5c1.4-3.4,1.4-7.2,0-10.6c-1-1.8-3.2-2.4-4.9-1.5C599,129.9,598.5,130.4,598.2,131.1z
	"/>
<path class="st5" d="M622.7,134c0.6-0.6,0.9-1.5,0.9-2.3c0-0.7-0.2-1.3-0.6-1.9c-0.5-0.5-1.2-0.7-1.9-0.6c-1.5,0-2.8,1.1-4.1,3
	l-4-2.3c0.9-1.4,2-2.7,3.4-3.6s3-1.3,4.7-1.3c1.9,0,3.7,0.7,5.1,1.9c2.2,2,2.8,5.4,1.3,8c-1,1.4-2,2.8-3.2,4l-3.8,4.2h8.7v4.4h-15.6
	v-3.6l6.4-6.6C621,136.3,621.9,135.2,622.7,134z"/>
<path class="st5" d="M936.3,147.8c-2.7,0.2-5.2-1-6.8-3.2c-3.1-5.1-3.1-11.5,0-16.5c3.2-3.8,8.8-4.2,12.6-1.1
	c0.4,0.3,0.7,0.7,1.1,1.1c3.1,5.1,3.1,11.4,0,16.5C941.6,146.7,939,147.9,936.3,147.8z M932.9,131.1c-1.4,3.4-1.4,7.2,0,10.6
	c1,1.8,3.2,2.4,4.9,1.5c0.6-0.3,1.1-0.8,1.5-1.5c1.4-3.4,1.4-7.2,0-10.6c-0.6-1.2-1.8-2-3.2-1.9
	C934.8,129.2,933.6,129.9,932.9,131.1z"/>
<path class="st5" d="M948.9,129.8v-4.3h13.4v3.4l-4.5,5.1c1.6,0.2,3,0.9,4,2.1c1,1.1,1.5,2.5,1.5,4c0,2.1-0.8,4.1-2.3,5.5
	c-1.7,1.3-3.8,2-6,1.9c-2.7-0.1-5.3-1-7.5-2.5l1.9-3.8c1.6,1.2,3.5,2,5.5,2.1c0.8,0,1.7-0.2,2.3-0.6c1.2-0.9,1.4-2.5,0.5-3.7
	c-0.2-0.2-0.3-0.4-0.5-0.5c-0.9-0.7-1.9-1-3-0.8c-1,0.1-2,0.3-3,0.6v-3.6l4.3-4.9H948.9L948.9,129.8z"/>
<rect x="84.5" y="223.5" class="st10" width="215.9" height="113.5"/>
<text transform="matrix(1 0 0 1 84.5102 234.5726)" class="st11"><tspan x="0" y="0" class="st12 st13">Our fully automated intelligent </tspan><tspan x="0" y="18" class="st12 st13">platform will understand your </tspan><tspan x="0" y="36" class="st12 st13">needs by asking relevant </tspan><tspan x="0" y="54" class="st12 st13">questions to understand your </tspan><tspan x="0" y="72" class="st12 st13">business goals and needs.</tspan></text>
<rect x="85.8" y="172.9" class="st10" width="216.4" height="38"/>
<text transform="matrix(1 0 0 1 85.7929 185.4896)" class="st14 st15">Information Gathering</text>
<rect x="418" y="223.5" class="st10" width="224.9" height="113.5"/>
<text transform="matrix(1 0 0 1 418.043 234.5726)" class="st11"><tspan x="0" y="0" class="st12 st13">Based on your business goals, we </tspan><tspan x="0" y="18" class="st12 st13">will match you to the right sales </tspan><tspan x="0" y="36" class="st12 st13">talent for your business real-time. </tspan><tspan x="0" y="54" class="st12 st13">However, our average time to </tspan><tspan x="0" y="72" class="st12 st13">match is under 96 hours.</tspan></text>
<rect x="419.3" y="172.9" class="st10" width="216.4" height="38"/>
<text transform="matrix(1 0 0 1 419.3257 185.4896)"><tspan x="0" y="0" class="st14 st15">Hand Vetted Sales</tspan><tspan x="0" y="20.4" class="st14 st15">Talent</tspan></text>
<rect x="757.4" y="223.5" class="st10" width="215.9" height="113.5"/>
<text transform="matrix(1 0 0 1 757.443 234.5726)" class="st11"><tspan x="0" y="0" class="st12 st13">Guaranteed Work with your new </tspan><tspan x="0" y="18" class="st12 st13">team member on a trial basis </tspan><tspan x="0" y="36" class="st12 st13">(pay only if satisfied), ensuring </tspan><tspan x="0" y="54" class="st12 st13">you hire the right.</tspan></text>
<rect x="758.7" y="172.9" class="st10" width="216.4" height="38"/>
<text transform="matrix(1 0 0 1 758.7257 185.4896)" class="st14 st15">Most Relevant Match</text>
</svg>
