<?xml version="1.0" encoding="utf-8"?>
<!-- Generator: Adobe Illustrator 24.1.2, SVG Export Plug-In . SVG Version: 6.00 Build 0)  -->
<svg version="1.1" id="Layer_1" xmlns="http://www.w3.org/2000/svg" xmlns:xlink="http://www.w3.org/1999/xlink" x="0px" y="0px"
	 viewBox="0 0 306 1030" style="enable-background:new 0 0 306 1030;" xml:space="preserve">
<style type="text/css">
	.st0{fill-opacity:0.4;}
	.st1{opacity:0.4;enable-background:new    ;}
	.st2{fill:url(#SVGID_1_);}
	.st3{fill:#00C3E6;}
	.st4{fill:#FFFFFF;}
	.st5{opacity:0.64;enable-background:new    ;}
	.st6{font-family:'Lato-Regular';}
	.st7{font-size:15px;}
	.st8{font-family:'Lato-Bold';}
	.st9{font-size:17px;}
	.st10{fill:none;stroke:#000000;stroke-width:0.5;stroke-miterlimit:10;}
	.st11{fill:url(#SVGID_2_);}
	.st12{fill:#4B3AD1;}
	.st13{fill:url(#SVGID_3_);}
	.st14{fill:#FFAA00;}
</style>
<g id="Layer_2_1_">
	<g id="Layer_1-2">
		<path class="st0" d="M280.3,144.2c-0.2,17.6-3.9,35-10.9,51.2c-7,16.3-17.1,31.1-29.7,43.6c-12.7,12.5-27.6,22.5-44,29.4
			c-16.9,7.3-35,11.1-53.4,11c-55.4,0.1-105.5-32.9-127.4-83.8C0.4,161.5,0.4,123,14.9,88.9C45.2,18.5,126.8-14,197.1,16.3
			c16,6.9,30.5,16.7,42.9,28.9l-3,3c-52.4-51.7-136.6-51.7-189,0C-3.8,99.8-4,183.6,47.5,235.4l0,0c0.2,0.2,0.3,0.3,0.5,0.5
			c25.1,24.9,59.1,38.9,94.5,38.7c17.9,0,35.5-3.5,52-10.4c15.9-6.6,30.3-16.2,42.5-28.3c25-24.8,39.1-58.6,39-93.8V140h4.1"/>
		<rect x="143.9" y="278.7" class="st1" width="4.2" height="53.3"/>
		<path class="st0" d="M280.1,140h0.6"/>
		<path d="M128.7,319.9l3-3l14,15.6l14.6-15.2l3,3L145.6,339L128.7,319.9z"/>
		
			<radialGradient id="SVGID_1_" cx="-2770.6514" cy="1624.5419" r="1" gradientTransform="matrix(56.99 0 0 -56.53 158136.875 91905.7891)" gradientUnits="userSpaceOnUse">
			<stop  offset="0.18" style="stop-color:#000000"/>
			<stop  offset="0.24" style="stop-color:#242424"/>
			<stop  offset="0.36" style="stop-color:#5D5D5D"/>
			<stop  offset="0.48" style="stop-color:#8F8F8F"/>
			<stop  offset="0.59" style="stop-color:#B7B7B7"/>
			<stop  offset="0.7" style="stop-color:#D6D6D6"/>
			<stop  offset="0.81" style="stop-color:#EDEDED"/>
			<stop  offset="0.91" style="stop-color:#FAFAFA"/>
			<stop  offset="1" style="stop-color:#FFFFFF"/>
		</radialGradient>
		<path class="st2" d="M237.8,121.7c31.5,0,57-25.3,57-56.5s-25.5-56.5-57-56.5s-57,25.3-57,56.5S206.3,121.7,237.8,121.7z"/>
		<path class="st3" d="M270.9,88.2c14.4-14.2,14.6-37.4,0.4-51.9l-0.4-0.4c-14.7-14.4-38.2-14.4-52.9,0
			c-14.4,14.2-14.6,37.4-0.4,51.9l0.4,0.4C232.6,102.7,256.2,102.7,270.9,88.2z"/>
		<path class="st4" d="M244.4,102.2c-22.3-0.1-40.3-18.2-40.2-40.5s18.2-40.3,40.5-40.2C267,21.6,285,39.7,284.9,62
			c-0.1,22.2-18,40.1-40.2,40.2H244.4z M244.4,28.2c-18.7,0.1-33.9,15.4-33.8,34.1S226,96.1,244.7,96s33.9-15.4,33.8-34.1
			c-0.1-18.6-15.2-33.7-33.8-33.8L244.4,28.2L244.4,28.2z"/>
		<path class="st3" d="M151.7,82.4h-9.6c-0.6,0.1-1.1-0.4-1.2-1s0.4-1.1,1-1.2h9.8c0.5,0,1,0.4,1.1,0.9v0.1
			C152.7,81.8,152.2,82.3,151.7,82.4z"/>
		<path class="st3" d="M150,86h-6c-0.6,0.1-1.1-0.4-1.2-1s0.4-1.1,1-1.2h6.2c0.5,0,1,0.4,1.1,0.9v0.1C151,85.4,150.6,85.9,150,86z"
			/>
		<path class="st3" d="M151.9,77.5h-10c-0.5,0-0.8-0.4-0.9-0.9c-0.1-2.7-1.3-5.2-3.2-7c-2.8-2.4-4.4-5.8-4.5-9.5
			c0-7,6-12.7,13.4-12.7s13.4,5.7,13.4,12.7l0,0c0,3.7-1.6,7.2-4.5,9.5c-2,1.8-3.2,4.3-3.2,7c0.2,0.3,0.1,0.6-0.1,0.8
			C152.1,77.5,152,77.5,151.9,77.5z M142.5,75.9h8.5c0.2-2.8,1.6-5.4,3.8-7.2c4.5-3.8,5.1-10.6,1.3-15.2l0,0
			c-0.2-0.2-0.4-0.4-0.6-0.6c-4.6-4.5-11.8-4.8-16.7-0.7c-2.4,2.1-3.8,5-3.8,8.2c0.1,3.1,1.5,6.1,3.8,8.2
			C141,70.4,142.3,73.1,142.5,75.9L142.5,75.9z"/>
		<path class="st3" d="M143.1,55.3c-3.4,1.9-4.6,6.1-2.8,9.5l0,0c0.2,0.5,0,1-0.4,1.3c-0.2,0-0.2,0.2-0.4,0.2
			c-0.3,0-0.7-0.2-0.9-0.4c-2.3-4.3-0.8-9.7,3.4-12.1c0.5-0.2,1,0,1.3,0.4C143.8,54.5,143.6,55.1,143.1,55.3z"/>
		<path class="st4" d="M236.5,73.9c-2.7,0.2-5.3-1-6.8-3.2c-3.1-5.1-3.1-11.4,0-16.5c3.2-3.8,8.8-4.2,12.6-1.1
			c0.4,0.3,0.8,0.7,1.1,1.1c3.1,5.1,3.1,11.4,0,16.5C241.7,72.8,239.1,74,236.5,73.9z M233.3,57.2c-1.4,3.4-1.4,7.2,0,10.6
			c1,1.8,3.1,2.4,4.9,1.5c0.6-0.3,1.2-0.9,1.5-1.5c1.4-3.4,1.4-7.2,0-10.6c-1-1.7-3.1-2.4-4.9-1.5C234.1,56,233.6,56.5,233.3,57.2
			L233.3,57.2z"/>
		<path class="st4" d="M247.8,51.6h9v22h-4.7V55.9h-4.3L247.8,51.6L247.8,51.6z"/>
	</g>
</g>
<text transform="matrix(1 0 0 1 51.228 151.2732)" class="st5 st6 st7">Our fully automated intelligent </text>
<text transform="matrix(1 0 0 1 51.228 169.2732)" class="st5 st6 st7">platform will understand your </text>
<text transform="matrix(1 0 0 1 51.228 187.2732)" class="st5 st6 st7">needs by asking relevant </text>
<text transform="matrix(1 0 0 1 51.228 205.2732)" class="st5 st6 st7">questions to understand your </text>
<text transform="matrix(1 0 0 1 51.228 223.2732)" class="st5 st6 st7">business goals and needs.</text>
<text transform="matrix(1 0 0 1 51.228 109.19)" class="st8 st9">Information Gathering</text>
<text transform="matrix(1 0 0 1 51.228 109.19)" class="st10 st8 st9">Information Gathering</text>
<g id="Layer_2_2_">
	<g id="Layer_1-2_1_">
		<path class="st0" d="M285.9,513.6c-0.2,17.4-4,34.7-11.1,50.7c-7.2,16.1-17.5,30.8-30.3,43.1c-12.9,12.4-28.2,22.2-44.9,29.1
			c-17.2,7.3-35.8,11-54.6,10.9c-56.6,0.1-107.8-32.5-130.1-82.9C0,530.7,0,492.6,14.8,458.9c30.9-69.6,114.3-101.7,186.1-71.8
			c16.3,6.8,31.1,16.5,43.8,28.6l-3.1,3c-25.7-24.6-60.4-38.4-96.5-38.3c-18.3,0-36.3,3.5-53.2,10.3
			C23.1,418.5-9.5,495.1,19.2,561.8c6.7,15.7,16.6,29.9,28.9,42l0.5,0.5c25.6,24.7,60.4,38.5,96.5,38.3c36.1,0,70.8-13.7,96.5-38.3
			c25.6-24.5,39.9-57.9,39.8-92.8v-2.1h4.2"/>
		<rect x="146.6" y="646.7" class="st1" width="4.3" height="52.7"/>
		<path class="st0" d="M285.7,509.4h0.6"/>
		
			<radialGradient id="SVGID_2_" cx="-2842.6116" cy="1895.6709" r="1" gradientTransform="matrix(58.1966 0 0 -55.9255 165666.9531 106448.9141)" gradientUnits="userSpaceOnUse">
			<stop  offset="0.18" style="stop-color:#000000"/>
			<stop  offset="0.24" style="stop-color:#242424"/>
			<stop  offset="0.36" style="stop-color:#5D5D5D"/>
			<stop  offset="0.48" style="stop-color:#8F8F8F"/>
			<stop  offset="0.59" style="stop-color:#B7B7B7"/>
			<stop  offset="0.7" style="stop-color:#D6D6D6"/>
			<stop  offset="0.81" style="stop-color:#EDEDED"/>
			<stop  offset="0.91" style="stop-color:#FAFAFA"/>
			<stop  offset="1" style="stop-color:#FFFFFF"/>
		</radialGradient>
		<path class="st11" d="M236.2,484c32.2,0,58.2-25,58.2-55.9s-26-55.9-58.2-55.9s-58.2,25-58.2,55.9S204.2,484,236.2,484z"/>
		<path class="st12" d="M280.8,430.8c3.5-20.1-10.5-39.2-31.2-42.5c-20.8-3.4-40.4,10.2-43.9,30.3c-3.5,20.1,10.5,39.2,31.2,42.5
			l0,0h0.2c20.5,3.5,40-9.8,43.6-29.7l0,0v-0.2C280.7,431,280.8,430.9,280.8,430.8z"/>
		<path class="st4" d="M243.2,464.7c-22.7-0.2-40.9-18.1-40.7-40.1s18.7-39.6,41.4-39.4c22.5,0.2,40.7,17.9,40.7,39.8
			S265.8,464.7,243.2,464.7z M243.2,391.5c-19.1,0.1-34.6,15.2-34.5,33.7c0.1,18.5,15.7,33.5,34.8,33.4s34.6-15.2,34.5-33.7
			c-0.1-18.4-15.5-33.3-34.5-33.4H243.2z"/>
		<path class="st12" d="M124.4,426.8v20.1h30.9v-20.1H124.4z M139.8,437.3l-11.7-8.8h23.5L139.8,437.3z M135.7,436.7l-9.6,7.5v-14.4
			L135.7,436.7z M137.2,437.7l2.7,1.9l2.7-1.9l9.4,7.3h-24L137.2,437.7z M144,436.7l9.4-6.9v14.4L144,436.7z"/>
		<path class="st4" d="M232.4,436.7c-2.7,0.2-5.4-1-6.9-3.2c-3.2-5-3.2-11.3,0-16.3c3.3-3.7,9-4.2,12.9-1.1c0.4,0.3,0.8,0.7,1.1,1.1
			c3.2,5,3.2,11.3,0,16.3C237.7,435.6,235.1,436.8,232.4,436.7z M229.1,420.2c-1.4,3.4-1.4,7.1,0,10.5c1,1.8,3.2,2.4,5,1.5
			c0.7-0.3,1.2-0.9,1.5-1.5c1.4-3.4,1.4-7.1,0-10.5c-1-1.7-3.2-2.4-5-1.5C229.9,419,229.4,419.5,229.1,420.2z"/>
		<path class="st4" d="M254.1,423c1.1-1.1,1.2-2.9,0.3-4.2c-0.5-0.5-1.2-0.7-1.9-0.6c-1.5,0-2.9,1.1-4.2,3l-4.1-2.3
			c0.9-1.4,2.1-2.6,3.5-3.6c1.4-0.9,3.1-1.3,4.8-1.3c1.9,0,3.8,0.7,5.2,1.9c2.3,2,2.8,5.3,1.3,7.9c-1,1.4-2.1,2.7-3.3,4l-3.9,4.2
			h8.9v4.4h-15.9v-3.6l6.5-6.5C252.4,425.3,253.3,424.2,254.1,423z"/>
		<path d="M131.1,687.4l3.1-3l14.3,15.4l14.9-15l3.1,3l-18,18.4L131.1,687.4z"/>
	</g>
</g>
<text transform="matrix(1 0 0 1 44.9659 520.1204)" class="st5 st6 st7">Based on your business goals, we </text>
<text transform="matrix(1 0 0 1 44.9659 538.1204)" class="st5 st6 st7">will match you to the right sales </text>
<text transform="matrix(1 0 0 1 44.9659 556.1204)" class="st5 st6 st7">talent for your business real-time. </text>
<text transform="matrix(1 0 0 1 44.9659 574.1204)" class="st5 st6 st7">However, our average time to </text>
<text transform="matrix(1 0 0 1 44.9659 592.1204)" class="st5 st6 st7">match is under 96 hours.</text>
<text transform="matrix(1 0 0 1 46.2486 469.0377)" class="st8 st9">Hand Vetted Sales</text>
<text transform="matrix(1 0 0 1 46.2486 469.0377)" class="st10 st8 st9">Hand Vetted Sales</text>
<text transform="matrix(1 0 0 1 46.2486 489.4377)" class="st8 st9">Talent</text>
<text transform="matrix(1 0 0 1 46.2486 489.4377)" class="st10 st8 st9">Talent</text>
<path class="st0" d="M143,1015.6c-55.4,0.1-105.5-32.9-127.4-83.8c-14.5-34.1-14.5-72.6,0-106.7c7-16.3,17.1-31.1,29.7-43.6
	C58,769,72.9,759,89.2,752.1c51.8-21.8,111.6-10.2,151.5,29.4l-3,3c-25.1-24.9-59.1-38.9-94.5-38.8c-17.8,0-35.5,3.5-52,10.4
	c-15.8,6.6-30.3,16.3-42.5,28.3c-25,24.8-39.1,58.5-39,93.8c-0.1,35.2,14,69,39,93.8c25.1,24.9,59.1,38.9,94.5,38.8
	c17.9,0,35.6-3.5,52.1-10.4c15.8-6.7,30.2-16.3,42.5-28.4c25-24.8,39.1-58.5,39-93.8h4.3c0.1,18.3-3.6,36.5-10.8,53.3
	c-7,16.3-17.1,31.1-29.7,43.6c-12.7,12.5-27.6,22.5-44,29.4C179.6,1011.9,161.4,1015.7,143,1015.6z"/>
<radialGradient id="SVGID_3_" cx="-2063.1125" cy="-710.9498" r="1" gradientTransform="matrix(56.99 0 0 56.54 117808.8672 40986.6094)" gradientUnits="userSpaceOnUse">
	<stop  offset="0.18" style="stop-color:#000000"/>
	<stop  offset="0.24" style="stop-color:#242424"/>
	<stop  offset="0.36" style="stop-color:#5D5D5D"/>
	<stop  offset="0.48" style="stop-color:#8F8F8F"/>
	<stop  offset="0.59" style="stop-color:#B7B7B7"/>
	<stop  offset="0.7" style="stop-color:#D6D6D6"/>
	<stop  offset="0.81" style="stop-color:#EDEDED"/>
	<stop  offset="0.91" style="stop-color:#FAFAFA"/>
	<stop  offset="1" style="stop-color:#FFFFFF"/>
</radialGradient>
<path class="st13" d="M232.4,850.5c31.5,0,57-25.3,57-56.5s-25.5-56.5-57-56.5s-57,25.3-57,56.5S200.9,850.5,232.4,850.5z"/>
<path class="st14" d="M276,796.7c3.4-20.3-10.3-39.6-30.7-43c-20.3-3.4-39.6,10.3-43,30.7c-3.4,20.4,10.3,39.6,30.7,43
	c0.1,0,0.1,0,0.2,0c20.1,3.5,39.3-10.1,42.7-30.2C276,797.1,276,796.9,276,796.7z"/>
<path class="st4" d="M239.2,831c-22.2-0.2-40.1-18.3-39.9-40.5c0.2-22.2,18.3-40.1,40.5-39.9c22.1,0.2,39.9,18.1,39.9,40.2
	C279.6,813.1,261.5,831.1,239.2,831L239.2,831z M239.2,757c-18.7,0.1-33.7,15.4-33.6,34.1c0.1,18.7,15.4,33.7,34.1,33.6
	c18.6-0.1,33.6-15.3,33.6-33.9C273.2,772.1,257.9,756.9,239.2,757z"/>
<path class="st14" d="M135,811.7l5.5-5.5l2.1,2.3l10.7-10.4l1.7,1.7l0.6-4.2l0.2-0.2v-0.2l0.4-3l-7.7,1.3l1.9,1.9l-7.9,7.8l-2.1-2.3
	l-6,5.7v-17.1h-3.2v25.6H157v-3.4L135,811.7L135,811.7z"/>
<path class="st4" d="M227.9,802.7c-2.7,0.2-5.2-1-6.8-3.2c-3.1-5.1-3.1-11.5,0-16.5c3.2-3.8,8.8-4.2,12.6-1.1
	c0.4,0.3,0.7,0.7,1.1,1.1c3.1,5.1,3.1,11.4,0,16.5C233.2,801.6,230.6,802.8,227.9,802.7z M224.5,786c-1.4,3.4-1.4,7.2,0,10.6
	c1,1.8,3.2,2.4,4.9,1.5c0.6-0.3,1.1-0.8,1.5-1.5c1.4-3.4,1.4-7.2,0-10.6c-0.6-1.2-1.8-2-3.2-1.9C226.4,784.1,225.2,784.8,224.5,786z
	"/>
<path class="st4" d="M240.5,784.7v-4.3h13.4v3.4l-4.5,5.1c1.6,0.2,3,0.9,4,2.1c1,1.1,1.5,2.5,1.5,4c0,2.1-0.8,4.1-2.3,5.5
	c-1.7,1.3-3.8,2-6,1.9c-2.7-0.1-5.3-1-7.5-2.5l1.9-3.8c1.6,1.2,3.5,2,5.5,2.1c0.8,0,1.7-0.2,2.3-0.6c1.2-0.9,1.4-2.5,0.5-3.7
	c-0.2-0.2-0.3-0.4-0.5-0.5c-0.9-0.7-1.9-1-3-0.8c-1,0.1-2,0.3-3,0.6v-3.6l4.3-4.9H240.5L240.5,784.7z"/>
<text transform="matrix(1 0 0 1 49.0605 889.4918)" class="st5 st6 st7">Guaranteed Work with your new </text>
<text transform="matrix(1 0 0 1 49.0605 907.4918)" class="st5 st6 st7">team member on a trial basis </text>
<text transform="matrix(1 0 0 1 49.0605 925.4918)" class="st5 st6 st7">(pay only if satisfied), ensuring </text>
<text transform="matrix(1 0 0 1 49.0605 943.4918)" class="st5 st6 st7">you hire the right.</text>
<text transform="matrix(1 0 0 1 50.3432 840.4088)" class="st8 st9">Most Relevant Match</text>
<text transform="matrix(1 0 0 1 50.3432 840.4088)" class="st10 st8 st9">Most Relevant Match</text>
</svg>
