<svg xmlns="http://www.w3.org/2000/svg" width="30" height="30" viewBox="0 0 30 30">
  <g id="Quora" transform="translate(-630.8 -210.8)">
    <path id="Path_2130" data-name="Path 2130" d="M630.8,225.807V213.489a2.409,2.409,0,0,1,2.68-2.689h24.632a2.409,2.409,0,0,1,2.689,2.68v24.632a2.409,2.409,0,0,1-2.68,2.689H633.489a2.411,2.411,0,0,1-2.689-2.68Zm18.452,4.366a1.006,1.006,0,0,1,.073-.187c.132-.15.273-.292.4-.442a6.827,6.827,0,0,0,1.5-6.913,6.353,6.353,0,0,0-4.917-4.548,6.2,6.2,0,0,0-6.781,2.7,6.69,6.69,0,0,0-.264,7.633,6.363,6.363,0,0,0,6.713,3.14,1.191,1.191,0,0,1,1.4.57,3.233,3.233,0,0,0,3.719,1.449,3.078,3.078,0,0,0,2.105-3.254c-.383.087-.861-.278-1.13.351a1.1,1.1,0,0,1-1.8.52A9.019,9.019,0,0,1,649.252,230.173Z" fill="#fff"/>
    <path id="Path_2131" data-name="Path 2131" d="M861.848,400.106c-1.941-1.823-3.8-2.069-5.428-.743.1.488.251.8.907.747,1.23-.091,2.005.624,2.529,2.2a2.7,2.7,0,0,1-2.825-.283,5.4,5.4,0,0,1-2.092-3.687,7.249,7.249,0,0,1,1.135-5.742c1.445-2.019,3.746-2.064,5.182-.05a7.406,7.406,0,0,1,.693,7.383A1.121,1.121,0,0,1,861.848,400.106Z" transform="translate(-213.776 -172.043)" fill="#fff"/>
  </g>
</svg>
