<?xml version="1.0"?>
<svg xmlns="http://www.w3.org/2000/svg" id="_x33_0" enable-background="new 0 0 64 64" height="512px" viewBox="0 0 64 64" width="512px" class=""><g><g><circle cx="42" cy="30" r="1" data-original="#000000" class="active-path" data-old_color="#000000" fill="#3DC0DF"/><circle cx="50" cy="30" r="1" data-original="#000000" class="active-path" data-old_color="#000000" fill="#3DC0DF"/><path d="m51 35h-2c0 1.103-.897 2-2 2h-4v2h4c2.206 0 4-1.794 4-4z" data-original="#000000" class="active-path" data-old_color="#000000" fill="#3DC0DF"/><path d="m50.768 43.142-.211-.633c2.298-.906 4.001-2.992 4.363-5.51h.08c2.206 0 4-1.794 4-4 0-.819-.249-1.581-.673-2.215.443-1.853.673-3.756.673-5.661v-7.123c0-1.654-1.346-3-3-3h-12.877c-2.69 0-5.05 1.699-5.926 4.198-2.498.875-4.197 3.235-4.197 5.925 0 1.905.23 3.807.673 5.662-.424.635-.673 1.396-.673 2.215 0 2.206 1.794 4 4 4h.08c.363 2.518 2.065 4.603 4.363 5.51l-.211.633c-5.642 1.171-10.014 5.313-11.589 10.634l-.595-3.572c1.273-2.049 1.952-4.392 1.952-6.81v-9.395c0-1.302-.839-2.402-2-2.816v-28.184c0-1.103-.897-2-2-2h-24c-1.103 0-2 .897-2 2v34c0 1.103.897 2 2 2h.062c.104.422.34.802.688 1.081l3.597 2.877c.538.431.958.997 1.215 1.639l.171.427c.87 2.174 2.311 4.033 4.179 5.423l-1.759 10.553h-10.153v2h62v-4.834c0-7.333-5.111-13.546-12.232-15.024zm-8.903 1.908 2.059 1.03-2.221 1.333-.446-2.233c.2-.048.403-.091.608-.13zm3.916 5.95h.438l2.5 10h-5.439zm.498-2h-.558l-.463-1.388.742-.446.742.445zm1.798-2.92 2.059-1.03c.205.039.408.082.609.13l-.446 2.233zm6.923-11.08v-4c1.103 0 2 .897 2 2s-.897 2-2 2zm-20-2c0-1.103.897-2 2-2v4c-1.103 0-2-.897-2-2zm2-5v1c-.568 0-1.107.123-1.596.337-.266-1.389-.404-2.801-.404-4.214 0-1.968 1.333-3.675 3.242-4.153l.582-.146.146-.582c.477-1.909 2.185-3.242 4.153-3.242h12.877c.552 0 1 .449 1 1v7.123c0 1.414-.138 2.826-.404 4.214-.49-.214-1.028-.337-1.596-.337v-1c0-1.654-1.346-3-3-3h-8c-.552 0-1-.449-1-1v-3h-2v2.101c-2.279.464-4 2.484-4 4.899zm2 8v-8c0-1.381.938-2.547 2.211-2.895.441 1.109 1.525 1.895 2.789 1.895h8c.552 0 1 .449 1 1v8c0 2.757-2.243 5-5 5h-4c-2.757 0-5-2.243-5-5zm5 7h4c.203 0 .404-.013.603-.031l.175.524-2.778 1.389-2.777-1.388.175-.524c.198.017.399.03.602.03zm-4.661 2.793.959 4.795 3.203-1.922.458 1.375-2.739 10.959h-4.22v-6h-2v6h-4v-2.834c0-5.556 3.376-10.372 8.339-12.373zm-36.339-42.793h24v28.184c-.038.014-.079.021-.116.036-.345-1.275-1.501-2.22-2.884-2.22-.771 0-1.468.301-2 .78-.532-.48-1.229-.78-2-.78-.352 0-.686.072-1 .184v-2.184h6v-2h-6v-1c0-.352-.072-.686-.184-1h6.184v-2h-14v2h2.184c-.112.314-.184.648-.184 1v1h-8v2h8v2h-8v2h8v4.697c0 .719-.584 1.303-1.303 1.303-.258 0-.508-.076-.723-.219l-1.188-.792c-.97-.647-2.099-.989-3.267-.989-1.394 0-2.59.821-3.16 2h-.359zm7.589 41.28-.171-.426c-.384-.961-1.014-1.811-1.822-2.458l-3.596-2.877c0-.838.682-1.519 1.52-1.519.771 0 1.517.226 2.157.653l1.188.792c.544.363 1.178.555 1.832.555 1.822 0 3.303-1.481 3.303-3.303v-11.697c0-.551.448-1 1-1s1 .449 1 1v15h2v-7c0-.551.448-1 1-1s1 .449 1 1v7h2v-7c0-.551.448-1 1-1s1 .449 1 1v7h2v-5c0-.551.448-1 1-1s1 .449 1 1v9.395c0 1.984-.534 3.911-1.551 5.605h-13.138c-1.674-1.184-2.957-2.81-3.722-4.72zm4.258 6.72h12.306l1.667 10h-15.64zm46.153 10h-4v-6h-2v6h-4.22l-2.739-10.96.458-1.375 3.203 1.922.959-4.795c4.963 2.002 8.339 6.818 8.339 12.374z" data-original="#000000" class="active-path" data-old_color="#000000" fill="#3DC0DF"/><path d="m21 17c0-2.26-1.256-4.23-3.107-5.253.682-.718 1.107-1.682 1.107-2.747 0-2.206-1.794-4-4-4s-4 1.794-4 4c0 1.065.425 2.029 1.107 2.747-1.851 1.023-3.107 2.993-3.107 5.253v2h12zm-8-8c0-1.103.897-2 2-2s2 .897 2 2-.897 2-2 2-2-.897-2-2zm-2 8c0-2.206 1.794-4 4-4s4 1.794 4 4z" data-original="#000000" class="active-path" data-old_color="#000000" fill="#3DC0DF"/><path d="m5 21h4v2h-4z" data-original="#000000" class="active-path" data-old_color="#000000" fill="#3DC0DF"/></g></g> </svg>
