<svg xmlns="http://www.w3.org/2000/svg" width="30" height="30" viewBox="0 0 30 30">
  <g id="reddit" transform="translate(0)">
    <path id="Path_2126" data-name="Path 2126" d="M173.774,257.563a1.563,1.563,0,1,0-1.563,1.563A1.566,1.566,0,0,0,173.774,257.563Zm0,0" transform="translate(-160.649 -241)" fill="#fff"/>
    <path id="Path_2127" data-name="Path 2127" d="M197.65,341.431a5.855,5.855,0,0,1-6.276,0,.405.405,0,0,0-.573.573c1.065,1.065,3.111,1.149,3.711,1.149s2.643-.084,3.711-1.149a.409.409,0,0,0,0-.573A.4.4,0,0,0,197.65,341.431Zm0,0" transform="translate(-179.509 -321.313)" fill="#fff"/>
    <path id="Path_2128" data-name="Path 2128" d="M289.563,256a1.563,1.563,0,1,0,1.563,1.563A1.566,1.566,0,0,0,289.563,256Zm0,0" transform="translate(-271.125 -241)" fill="#fff"/>
    <path id="Path_2129" data-name="Path 2129" d="M27.837,0H2.164A2.164,2.164,0,0,0,0,2.164V27.836A2.164,2.164,0,0,0,2.164,30H27.837A2.164,2.164,0,0,0,30,27.836V2.164A2.164,2.164,0,0,0,27.837,0ZM23.7,17a4.352,4.352,0,0,1,.051.657c0,3.366-3.918,6.093-8.751,6.093s-8.751-2.727-8.751-6.093a4.4,4.4,0,0,1,.051-.663,2.186,2.186,0,1,1,2.406-3.573,10.726,10.726,0,0,1,5.955-1.854c0-.03,1.092-5.232,1.092-5.232a.385.385,0,0,1,.168-.246.39.39,0,0,1,.294-.054l3.636.774a1.563,1.563,0,1,1-.159.765L16.44,6.882l-1,4.689a10.7,10.7,0,0,1,5.85,1.857A2.185,2.185,0,0,1,25,15a2.2,2.2,0,0,1-1.3,2Zm0,0" fill="#fff"/>
  </g>
</svg>
