<svg xmlns="http://www.w3.org/2000/svg" viewBox="0 0 480 480"><defs><style>.cls-1{fill:#3dc0df;}</style></defs><g id="Layer_2" data-name="Layer 2"><g id="Outline-Expanded"><path class="cls-1" d="M423.92,358a56,56,0,1,0-63.84,0A88.1,88.1,0,0,0,304,440v32a8,8,0,0,0,8,8H472a8,8,0,0,0,8-8V440a88.1,88.1,0,0,0-56.08-82ZM352,312a40,40,0,1,1,40,40A40,40,0,0,1,352,312ZM464,464H320V440a72,72,0,0,1,144,0Z"/><path class="cls-1" d="M119.92,358A56,56,0,0,0,144,312h24V296H141.68a56,56,0,1,0-85.6,62A88.1,88.1,0,0,0,0,440v32a8,8,0,0,0,8,8H168a8,8,0,0,0,8-8V440A88.1,88.1,0,0,0,119.92,358ZM88,272a40.23,40.23,0,0,1,36.72,24H51.28A40.23,40.23,0,0,1,88,272ZM48,312h80a39.53,39.53,0,0,1-8,24,16,16,0,0,1-16-16H88a31.91,31.91,0,0,0,17,28.24A40,40,0,0,1,48,312ZM160,464H16V440a72,72,0,0,1,144,0Z"/><path class="cls-1" d="M384,384h16v16H384Z"/><path class="cls-1" d="M384,416h16v16H384Z"/><path class="cls-1" d="M358.32,115.12l-17.2-22.24L345,65a8,8,0,0,0-5-8.48L314,46,303.44,20A8.07,8.07,0,0,0,295,15l-27.84,3.84L244.88,1.68a7.93,7.93,0,0,0-9.76,0l-22.24,17.2L185,15a8,8,0,0,0-8.48,5L166,46,140,56.56A8,8,0,0,0,135,65l3.84,27.84-17.2,22.24a7.93,7.93,0,0,0,0,9.76l17.2,22.24L135,175a8,8,0,0,0,5,8.48l22.72,9.2-33,42.48a8,8,0,0,0,4.72,12.72l37.68,7.52,22.24,22.32A8.05,8.05,0,0,0,200,280a9.22,9.22,0,0,0,2.08-.24,7.89,7.89,0,0,0,5.6-5.68l12.8-47,14.64,11.28a7.93,7.93,0,0,0,9.76,0L259.52,227l12.8,47a7.89,7.89,0,0,0,5.6,5.68A9.22,9.22,0,0,0,280,280a8.05,8.05,0,0,0,5.68-2.32l22.24-22.32,37.68-7.52a8,8,0,0,0,4.72-12.72l-33-42.48,22.72-9.2a8,8,0,0,0,5-8.48l-3.84-27.84,17.2-22.24a7.93,7.93,0,0,0,0-9.76ZM195.92,256.56l-14.24-14.24a8.11,8.11,0,0,0-4.08-2.16l-27.36-5.44,21.2-27.28L176.56,220a8,8,0,0,0,8.48,5l20.32-2.8Zm133.84-21.84-27.36,5.44a8.11,8.11,0,0,0-4.08,2.16l-14.24,14.24-9.44-34.4L295,225a8.13,8.13,0,0,0,8.48-5l5.12-12.56ZM326.4,140a8.27,8.27,0,0,0-1.6,5.92l3.44,25-23.36,9.52a7.92,7.92,0,0,0-4.4,4.4L291,208.24l-25-3.44a8.27,8.27,0,0,0-5.92,1.6l-20,15.52L220,206.4a8.18,8.18,0,0,0-4.88-1.68c-.32,0-.72.08-1,.08l-25,3.44-9.52-23.36a7.92,7.92,0,0,0-4.4-4.4L151.76,171l3.44-25a8.27,8.27,0,0,0-1.6-5.92l-15.52-20,15.52-20a8.27,8.27,0,0,0,1.6-5.92l-3.44-25,23.36-9.52a7.92,7.92,0,0,0,4.4-4.4L189,31.76l25,3.44A8.27,8.27,0,0,0,220,33.6l20-15.52L260,33.6a8.27,8.27,0,0,0,5.92,1.6l25-3.44,9.52,23.36a7.92,7.92,0,0,0,4.4,4.4L328.24,69l-3.44,25a8.27,8.27,0,0,0,1.6,5.92l15.52,20Z"/><path class="cls-1" d="M240,184a64,64,0,1,1,64-64A64.07,64.07,0,0,1,240,184Zm0-112a48,48,0,1,0,48,48A48.05,48.05,0,0,0,240,72Z"/></g></g></svg>