<svg xmlns="http://www.w3.org/2000/svg" viewBox="0 0 377.5 1154"><defs><style>.cls-1,.cls-2,.cls-3,.cls-4,.cls-7{fill:#3dc1e0;}.cls-1,.cls-2,.cls-3,.cls-4,.cls-5,.cls-6{stroke:#3dc1e0;}.cls-1{stroke-width:0.1px;}.cls-2{stroke-width:0.3px;}.cls-3{stroke-width:0.5px;}.cls-4,.cls-5,.cls-6{stroke-linecap:round;stroke-width:4px;}.cls-4,.cls-6{stroke-linejoin:round;}.cls-4{fill-rule:evenodd;}.cls-5,.cls-6{fill:none;}</style></defs><g id="Layer_2" data-name="Layer 2"><g id="BACKGROUND"><g id="Group_14" data-name="Group 14"><g id="Group_13" data-name="Group 13"><g id="Group_12" data-name="Group 12"><path id="Path_660" data-name="Path 660" class="cls-1" d="M62.54,109.82l-3.75-2.28h0l-2.06-1.25v-1.37a9.1,9.1,0,0,0,1.54-3.36,1.12,1.12,0,0,1,.31-.6l0,0a2.89,2.89,0,0,0,.83-2.07V96.9a2.88,2.88,0,0,0-.31-1.32L59,95.35a1.13,1.13,0,0,1-.12-.51V92a5.27,5.27,0,0,0-5.25-5.29H50.37A5.27,5.27,0,0,0,45.12,92v2.8a1.13,1.13,0,0,1-.12.51l-.11.22a3.06,3.06,0,0,0-.32,1.33v1.94a3,3,0,0,0,.84,2.07l0,0a1.2,1.2,0,0,1,.31.6,9.08,9.08,0,0,0,1.53,3.36v1.37l-2.12,1.29,0,0-3.69,2.23a4.79,4.79,0,0,0-2.28,4.07v2.2a.92.92,0,0,0,.92.92H63.91a.93.93,0,0,0,.92-.92v-2.2A4.77,4.77,0,0,0,62.54,109.82ZM46.77,99.68l0,0a1.15,1.15,0,0,1-.33-.8V96.9a1.13,1.13,0,0,1,.12-.51l.12-.23A3,3,0,0,0,47,94.84V92.05a3.44,3.44,0,0,1,3.41-3.46h3.25A3.43,3.43,0,0,1,57,92h0v2.79a3.09,3.09,0,0,0,.31,1.33l.12.22a1.16,1.16,0,0,1,.11.52v1.94a1.09,1.09,0,0,1-.33.8l0,0a3.11,3.11,0,0,0-.79,1.51h0A7.28,7.28,0,0,1,55.15,104a1.4,1.4,0,0,0-.27.84v1.49L52,107.6l-2.83-1.31v-1.5a1.43,1.43,0,0,0-.27-.85,7.24,7.24,0,0,1-1.29-2.75,3.11,3.11,0,0,0-.79-1.51Zm6.1,11.07-.5.76h-.85l-.51-.76.94-.89Zm-4.24,4.42H41v-1.28a2.93,2.93,0,0,1,1.4-2.5l3.14-1.91,1.81,1.42a2.8,2.8,0,0,0,1.74.6l.22,0,.66,1Zm1.12-5.75a.77.77,0,0,1-.34.19,1,1,0,0,1-.93-.15l-1.25-1,1-.6,2.13,1Zm.93,5.75.92-1.83h.7l.91,1.83Zm5.12-7.3.93.56-1.32,1a1,1,0,0,1-1,.12.66.66,0,0,1-.29-.17l-.58-.55Zm7.2,7.3H55.27l-1.35-2.68.67-1,.22,0a2.78,2.78,0,0,0,1.73-.6l1.86-1.45,3.2,1.93a2.94,2.94,0,0,1,1.4,2.5v1.29Z"/><path id="Path_661" data-name="Path 661" class="cls-1" d="M52,82.17A10.09,10.09,0,1,0,41.91,72.08,10.09,10.09,0,0,0,52,82.17h0Zm0-18.33a8.25,8.25,0,1,1-8.24,8.25h0A8.24,8.24,0,0,1,52,63.84Z"/><path id="Path_662" data-name="Path 662" class="cls-1" d="M44.66,85.83A10.09,10.09,0,1,0,34.58,95.92,10.07,10.07,0,0,0,44.66,85.83ZM34.58,94.09a8.26,8.26,0,1,1,8.25-8.26h0a8.26,8.26,0,0,1-8.25,8.26Z"/><path id="Path_663" data-name="Path 663" class="cls-1" d="M69.41,75.75A10.09,10.09,0,1,0,79.5,85.84h0A10.1,10.1,0,0,0,69.41,75.75Zm0,18.34a8.26,8.26,0,1,1,8.25-8.26h0A8.25,8.25,0,0,1,69.41,94.09Z"/><path id="Path_664" data-name="Path 664" class="cls-1" d="M52,78.5a6.42,6.42,0,1,0-6.41-6.42A6.41,6.41,0,0,0,52,78.5Zm0-11a4.59,4.59,0,1,1-4.58,4.59h0A4.58,4.58,0,0,1,52,67.5Z"/><path id="Path_665" data-name="Path 665" class="cls-1" d="M52,74.84a2.75,2.75,0,1,0-2.75-2.75A2.76,2.76,0,0,0,52,74.84Zm0-3.67a.92.92,0,1,1-.91.92h0a.93.93,0,0,1,.91-.93h0Z"/><path id="Path_666" data-name="Path 666" class="cls-1" d="M34.58,84.92a.92.92,0,1,1,0-1.83h1.84a.92.92,0,0,0,0-1.84H35.5v-.92a.92.92,0,0,0-1.83,0v1.09a2.74,2.74,0,0,0,.92,5.33.92.92,0,0,1,0,1.83H32.75a.92.92,0,0,0,0,1.84h.92v.91a.92.92,0,1,0,1.83,0V90.25a2.74,2.74,0,0,0-.91-5.33Z"/><path id="Path_667" data-name="Path 667" class="cls-1" d="M74.85,82.78a.19.19,0,0,0,0-.07s0,0,0,0a1,1,0,0,0-.17-.24l-.06-.06a1,1,0,0,0-.6-.23H72.16a.91.91,0,0,0-.91.91.9.9,0,0,0,.8.91l-2.59,3.12L67.4,84.37a1,1,0,0,0-.76-.37.91.91,0,0,0-.73.41l-1.84,2.75a.92.92,0,0,0,1.53,1h0l1.11-1.67,2,2.63a.89.89,0,0,0,.71.36h0a.93.93,0,0,0,.7-.32l3.13-3.76a.9.9,0,0,0,.75.42.92.92,0,0,0,.92-.92h0V83A1.1,1.1,0,0,0,74.85,82.78Z"/></g></g></g><g id="soft-skills"><path id="Path_668" data-name="Path 668" class="cls-1" d="M129.13,274.48c-.3,0-.6,0-.89,0,0-.31,0-.62,0-.92a13.35,13.35,0,0,0-26.69-.9q0,.45,0,.9c0,.31,0,.61,0,.91l-.78,0a13.1,13.1,0,0,0-6.37,24.68.82.82,0,0,0,1.08-.36.79.79,0,0,0-.31-1,11.48,11.48,0,0,1-3.3-2.62l.32-1.55a9.64,9.64,0,0,1,3.1-5.34,8.16,8.16,0,0,0,11.4-.41c.14-.16.29-.32.43-.49l.91,1-.7,2.19a13.09,13.09,0,0,0-5.61,8.57c-.31,0-.64,0-.94,0a12,12,0,0,1-2.6-.28.81.81,0,0,0-.94.63.79.79,0,0,0,.59.91,13.34,13.34,0,0,0,2.95.33l.76,0c0,.22,0,.44,0,.67a13.35,13.35,0,0,0,26.69.9q0-.45,0-.9c0-.23,0-.46,0-.68l.87,0a13.14,13.14,0,1,0,.46-26.28Zm11.73,13.13a11.39,11.39,0,0,1-1.54,5.73l0-.06a11.32,11.32,0,0,0-3.61-6.23,7.82,7.82,0,0,0,.35-8.77,11.5,11.5,0,0,1,4.83,9.33ZM126,282.55a1.33,1.33,0,0,0-1.23-.78h-2a6.48,6.48,0,1,1,5.91,7h-.11a6.52,6.52,0,0,1-4.66-2.68l1.9-2.1a1.27,1.27,0,0,0,.22-1.42Zm-17-.78a7.68,7.68,0,0,0-1.15-3.48,11.57,11.57,0,0,1,3,3.07l-.25.41Zm2.71-1.9a13.18,13.18,0,0,0-4-3.55,9.76,9.76,0,0,1,1.8-2.1,8.1,8.1,0,0,0,4.33,2Zm8.82-5.64a9.83,9.83,0,0,1,1.82,2.14,13.38,13.38,0,0,0-4,3.58l-2.21-3.69a8.09,8.09,0,0,0,4.35-2Zm1.79,4.06a7.89,7.89,0,0,0-1.15,3.49h-1.66l-.2-.32a11.8,11.8,0,0,1,3-3.17Zm4.44-4.7c0,.38,0,.76,0,1.13a13.75,13.75,0,0,0-2.94.92,11.29,11.29,0,0,0-2.17-2.6,8.78,8.78,0,0,0,.84-1.46.78.78,0,0,0-.38-1.05h0a.82.82,0,0,0-1.08.38l0,.05a6.52,6.52,0,0,1-8.53,3.29,6.34,6.34,0,0,1-3.39-8.3s0-.07,0-.1a6.5,6.5,0,0,1,8.52-3.29,6.36,6.36,0,0,1,3.88,5.43.81.81,0,0,0,.88.73.8.8,0,0,0,.73-.83h0a7.87,7.87,0,0,0-1.15-3.62,11.48,11.48,0,0,1,4.82,9.33Zm-23.44,0a11.43,11.43,0,0,1,4.82-9.32,7.8,7.8,0,0,0,.35,8.76,11.25,11.25,0,0,0-2.16,2.56,13.86,13.86,0,0,0-3-.9,8,8,0,0,1,0-1.1Zm-12.54,19.7v.07A11.41,11.41,0,0,1,94,278.3a7.82,7.82,0,0,0,.35,8.77,11.25,11.25,0,0,0-3.61,6.23Zm10.18-4.5a6.37,6.37,0,1,1,6.44-7h-2.15a1.33,1.33,0,0,0-1.34,1.31,1.27,1.27,0,0,0,.34.9l2,2.16a6.59,6.59,0,0,1-5.25,2.65Zm4.89-5.43h4.88a1.38,1.38,0,0,0,1.16-.65l3.16-5.25,3.16,5.25a1.35,1.35,0,0,0,1.15.65h4.88l-3.67,4.07a1.31,1.31,0,0,0-.27,1.27l1.82,5.75L119.65,293a.8.8,0,0,0-1.1.26.77.77,0,0,0,.24,1.08h0l2.61,1.59v.27a6.47,6.47,0,0,1-12.94,0v-.27l6.46-3.95.94.58a.82.82,0,0,0,1.11-.26.78.78,0,0,0-.24-1.08h0l-1.08-.66a1.33,1.33,0,0,0-1.41,0l-6.37,3.9,1.83-5.76a1.33,1.33,0,0,0-.28-1.27Zm.77,10-.4,1.27a1.28,1.28,0,0,0,.46,1.44,1.38,1.38,0,0,0,.29.17,7.82,7.82,0,0,0,1.52,4.59,11.32,11.32,0,0,0-3.61,6.23v.06a11.42,11.42,0,0,1,1.74-13.77ZM115,313a11.78,11.78,0,0,1-8.91-4l.31-1.54a9.82,9.82,0,0,1,3.1-5.35,8.14,8.14,0,0,0,11,0,9.71,9.71,0,0,1,3.1,5.35l.32,1.54a11.76,11.76,0,0,1-8.9,4Zm10.18-5.82v-.06a11.32,11.32,0,0,0-3.61-6.23,7.82,7.82,0,0,0,1.52-4.59,1.32,1.32,0,0,0,.75-1.61l-.4-1.27a11.42,11.42,0,0,1,1.75,13.76Zm4-8c-.35,0-.7,0-1-.05a13.15,13.15,0,0,0-5.61-8.55l-.7-2.2,1-1.08a8.15,8.15,0,0,0,11.32,1.44,6.57,6.57,0,0,0,.57-.48,9.76,9.76,0,0,1,3.1,5.35l.31,1.54a11.8,11.8,0,0,1-8.91,4Z"/></g><g id="customer"><g id="Group_15" data-name="Group 15"><path id="Path_669" data-name="Path 669" class="cls-2" d="M138.16,655.46a3.74,3.74,0,0,0,4-3.48v-1.12a4,4,0,0,0-7.92,0V652A3.75,3.75,0,0,0,138.16,655.46ZM135.73,652v-1.12a2.46,2.46,0,0,1,4.86,0V652a2.27,2.27,0,0,1-2.38,2.18,2.31,2.31,0,0,1-2.48-2.09Z"/><path id="Path_670" data-name="Path 670" class="cls-2" d="M155.24,653.24a3.38,3.38,0,0,0,3.56-3.13v-1a3.59,3.59,0,0,0-7.12,0v1A3.38,3.38,0,0,0,155.24,653.24Zm-2-4.12a2,2,0,0,1,4.07,0v1a2,2,0,0,1-4.07,0Z"/><path id="Path_671" data-name="Path 671" class="cls-2" d="M121.11,653.24a3.38,3.38,0,0,0,3.56-3.13v-1a3.59,3.59,0,0,0-7.12,0v1A3.38,3.38,0,0,0,121.11,653.24Zm-2-4.12a2,2,0,0,1,4.06,0v1a2,2,0,0,1-4.06,0Z"/><path id="Path_672" data-name="Path 672" class="cls-2" d="M128.9,662.57v-6a3.37,3.37,0,0,0-3.24-3.5h0l-2.6,0h0a.79.79,0,0,0-.66.34l-1.14,1.74-1.07-1.73a.78.78,0,0,0-.67-.35h-2.31a3.46,3.46,0,0,0-3.67,3.22h0c0,.09,0,6.29,0,6.29a2.17,2.17,0,0,0,2.3,2h0a2.51,2.51,0,0,0,.81-.14l.36,10.94v.05a1.56,1.56,0,0,0,1.63,1.29h5.16a1.55,1.55,0,0,0,1.62-1.3v0l.35-10.93a2.4,2.4,0,0,0,3-1.18A1.89,1.89,0,0,0,128.9,662.57Zm-1.53-6.09v6.09a.78.78,0,0,1-1.55,0v0a.74.74,0,0,0-.77-.66h0a.71.71,0,0,0-.75.67v.49l-.39,12.26a.12.12,0,0,1-.1.07h-5.17a.1.1,0,0,1-.1-.07l-.41-12.27v-.53a.74.74,0,0,0-.77-.66h0a.71.71,0,0,0-.75.67.75.75,0,0,1-.78.72.73.73,0,0,1-.79-.68h0s0-6.2,0-6.29a1.8,1.8,0,0,1,.63-1.33h0a2.35,2.35,0,0,1,1.52-.55H119l1.51,2.43a.82.82,0,0,0,1,.27.64.64,0,0,0,.29-.25l1.6-2.44h2a2,2,0,0,1,1.9,2Z"/><path id="Path_673" data-name="Path 673" class="cls-2" d="M145.65,669.15c-7.38,0-13.37,5.25-13.37,11.74s6,11.74,13.37,11.74S159,687.37,159,680.89,153,669.15,145.65,669.15Zm0,22.14c-6.54,0-11.84-4.65-11.84-10.4s5.3-10.4,11.84-10.4,11.84,4.66,11.84,10.4S152.19,691.29,145.65,691.29Z"/><path id="Path_674" data-name="Path 674" class="cls-2" d="M167.59,696.28l-5.1-4.48a.85.85,0,0,0-1.08,0h0l-1.13,1-1.93-1.7a14.09,14.09,0,0,0,4.52-10.21,13.86,13.86,0,0,0-3.21-8.79l.24-7.63a2.41,2.41,0,0,0,3-1.18,1.74,1.74,0,0,0,.15-.71v-6a3.37,3.37,0,0,0-3.23-3.5h-.06s-.13,0-2.59,0h0a.8.8,0,0,0-.67.34l-1.13,1.73-1.07-1.73a.81.81,0,0,0-.67-.35H151.3a3.48,3.48,0,0,0-3.67,3.23c0,.08,0,6.28,0,6.28a2.18,2.18,0,0,0,2.3,2h0a2.67,2.67,0,0,0,.79-.13l0,2a20,20,0,0,0-3.84-.65v-6.41a3.74,3.74,0,0,0-3.59-3.9h-.07l-3,0h0a.77.77,0,0,0-.67.34l-1.39,2.13L137,655.81a.76.76,0,0,0-.67-.35h-2.65a3.86,3.86,0,0,0-4.08,3.58c0,.1,0,6.9,0,7.19a2.38,2.38,0,0,0,2.52,2.21h0a2.67,2.67,0,0,0,1-.2l0,2.2a14.18,14.18,0,0,0-4.77,10.44c0,8.35,7.73,15.13,17.22,15.13a18.54,18.54,0,0,0,11.64-4l1.93,1.7-1.19,1a.62.62,0,0,0-.08.87l.08.08,5.1,4.47a3.46,3.46,0,0,0,4.47,0,2.55,2.55,0,0,0,.31-3.59A2.91,2.91,0,0,0,167.59,696.28Zm-15.33-33.76a.73.73,0,0,0-.77-.66h0a.71.71,0,0,0-.75.67.76.76,0,0,1-.78.72.73.73,0,0,1-.79-.68h0s0-6.2,0-6.29a2,2,0,0,1,2.14-1.88h1.86l1.51,2.42a.83.83,0,0,0,1,.28.73.73,0,0,0,.29-.26l1.6-2.44h2a2,2,0,0,1,1.9,2h0v0a.09.09,0,0,0,0,.07v6a.79.79,0,0,1-.87.69.78.78,0,0,1-.69-.67v0a.73.73,0,0,0-.77-.65h0a.73.73,0,0,0-.76.67V663l-.24,7.46a17.79,17.79,0,0,0-5.85-3.57Zm-19.15,3.67a1,1,0,0,1-1,.91.93.93,0,0,1-1-.87h0c0-.07,0-7.08,0-7.18a2.43,2.43,0,0,1,2.56-2.24h2.2l1.75,2.83a.77.77,0,0,0,.67.34h0a.78.78,0,0,0,.67-.33l1.85-2.84c1,0,2.19,0,2.37,0a2.33,2.33,0,0,1,2.27,2.4v6.53a18.66,18.66,0,0,0-10.72,3.46l-.05-2.43v-.6a.77.77,0,0,0-1.53,0Zm12.54,28.37c-8.59,0-15.57-6.13-15.57-13.67s7-13.67,15.57-13.67,15.57,6.13,15.57,13.67-7,13.67-15.57,13.67Zm20.86,4.7a1.81,1.81,0,0,1-2.32,0l-4.56-4,2.32-2,4.56,4a1.33,1.33,0,0,1,.18,1.86h0A1.45,1.45,0,0,1,166.51,699.26Z"/><path id="Path_675" data-name="Path 675" class="cls-2" d="M150.88,685.69h2.56a.72.72,0,0,0,.76-.67v-9a.73.73,0,0,0-.76-.67h-2.56a.73.73,0,0,0-.76.67v9A.72.72,0,0,0,150.88,685.69Zm.77-9h1v7.62h-1Z"/><path id="Path_676" data-name="Path 676" class="cls-2" d="M140.63,685.69h2.56A.72.72,0,0,0,144,685v-2.63a.72.72,0,0,0-.76-.67h-2.56a.72.72,0,0,0-.76.67V685A.73.73,0,0,0,140.63,685.69Zm.77-2.63h1v1.29h-1Z"/><path id="Path_677" data-name="Path 677" class="cls-2" d="M145.76,685.69h2.56a.73.73,0,0,0,.76-.67v-6a.73.73,0,0,0-.76-.68h-2.56a.73.73,0,0,0-.76.68v6a.71.71,0,0,0,.76.67Zm.76-6h1v4.63h-1Z"/><path id="Path_678" data-name="Path 678" class="cls-2" d="M153.51,686.55H139.06V676.8a.77.77,0,0,0-.86-.67.76.76,0,0,0-.66.67v10.41a.7.7,0,0,0,.76.67h15.21a.67.67,0,1,0,.16-1.34h-.16Z"/></g></g><g id="safe"><path id="Path_679" data-name="Path 679" class="cls-1" d="M134.45,864.62V849.89L113,839,91.5,849.89v14.44a27.08,27.08,0,0,0,11.86,22.48l9.62,6.5,7.41-5a14.47,14.47,0,0,0,17,4.62,14.87,14.87,0,0,0-2.9-28.32ZM113,891.23l-8.67-5.87a25.32,25.32,0,0,1-11.09-21V851L113,841l19.76,10v13.46c-.28,0-.57,0-.86,0s-.57,0-.86,0V852l-18-9.15-18,9.15v12.28a23.63,23.63,0,0,0,10.34,19.6l7.71,5.21,5.62-3.8a14.23,14.23,0,0,0,.81,1.55Zm5-7.56L113,887l-6.76-4.57-1-.71V874h-1.72v6.33a22.12,22.12,0,0,1-2.57-2.9v-5.07a2.59,2.59,0,0,1,2-2.53l5.82-1.48a4.33,4.33,0,0,0,3.4,3.82v3.58h1.72v-3.58a4.34,4.34,0,0,0,3.39-3.82l3.82,1a14.91,14.91,0,0,0-3.1,14.38Zm-9.27-26.26h2.38a8.74,8.74,0,0,0,3.83-.88h.24l2.15,2.91v3.63l-2.87,2.18h-2.87l-2.86-2.18ZM107,855.66a3.43,3.43,0,0,1,1.84-2.52,8.59,8.59,0,0,1,6-.38l.2.29h1.31a.86.86,0,0,1,.86.87h0v2.62L116,854.79h-1.49l-.18.1a7.21,7.21,0,0,1-3.25.78Zm8.52,10.9v1.3a2.58,2.58,0,0,1-5.15.13v-1.43l.57.43h4Zm1.72,0v-1.27l1.72-1.31v-10a2.59,2.59,0,0,0-2.57-2.61h-.57a9.7,9.7,0,0,0-6.53-.23,5.41,5.41,0,0,0-4.08,5.45v.88H107V864l1.72,1.3v1.27l-6.2,1.58a4.33,4.33,0,0,0-3.25,4.23v2.36a22,22,0,0,1-2.58-10.35V853.13L113,844.84l16.32,8.29v11.5a14.37,14.37,0,0,0-6.8,3.23Zm14.6,25.76A13.08,13.08,0,1,1,144.75,879h0v.19a13,13,0,0,1-12.88,13.07Z"/><path id="Path_680" data-name="Path 680" class="cls-1" d="M136.18,853.92h10.31v1.74H136.18Z"/><path id="Path_681" data-name="Path 681" class="cls-1" d="M136.18,857.41h6.87v1.74h-6.87Z"/><path id="Path_682" data-name="Path 682" class="cls-1" d="M136.18,860.9h3.44v1.74h-3.44Z"/><path id="Path_683" data-name="Path 683" class="cls-1" d="M128.72,878.58l-3-3.08-4.86,4.93,7.9,8,13.36-13.55L137.22,870Zm0,7.4-5.47-5.55,2.43-2.46,3,3.08,8.51-8.63,2.44,2.46Z"/></g><g id="action"><path id="Path_684" data-name="Path 684" class="cls-3" d="M62.3,1064.57a4.8,4.8,0,0,0,4.85-3.1,3.75,3.75,0,0,0-3-4.29,5.8,5.8,0,0,0-6,1.41,3.22,3.22,0,0,0,.24,4.56,2.72,2.72,0,0,0,.38.29,5.79,5.79,0,0,0,3.5,1.13ZM60,1059a3.9,3.9,0,0,1,4.56,0,2.13,2.13,0,0,1,0,3.53,3.9,3.9,0,0,1-4.56,0,2.11,2.11,0,0,1-.61-2.93A2.18,2.18,0,0,1,60,1059Z"/><path id="Path_685" data-name="Path 685" class="cls-3" d="M58.85,1073.73a3.27,3.27,0,0,0-.89,4.54,3.42,3.42,0,0,0,.89.89,6,6,0,0,0,7,0,3.27,3.27,0,0,0,.9-4.53h0a3.5,3.5,0,0,0-.9-.9A6,6,0,0,0,58.85,1073.73Zm5.78,4.49a3.92,3.92,0,0,1-4.55,0,2.13,2.13,0,0,1-.58-3h0a2,2,0,0,1,.58-.58,3.89,3.89,0,0,1,4.55,0,2.13,2.13,0,0,1,.58,3h0A2.41,2.41,0,0,1,64.63,1078.22Z"/><path id="Path_686" data-name="Path 686" class="cls-3" d="M72.44,1072.44a4.78,4.78,0,0,0,4.84-3.09,3.74,3.74,0,0,0-3-4.3,5.81,5.81,0,0,0-6,1.42,3.23,3.23,0,0,0,.25,4.56,3.27,3.27,0,0,0,.37.28A5.72,5.72,0,0,0,72.44,1072.44Zm-2.28-5.6a3.87,3.87,0,0,1,4.56,0,2.11,2.11,0,0,1,.58,3h0a2,2,0,0,1-.58.58,3.9,3.9,0,0,1-4.56,0,2.12,2.12,0,0,1-.6-2.93A2,2,0,0,1,70.16,1066.84Z"/><path id="Path_687" data-name="Path 687" class="cls-3" d="M48.72,1071.28a6,6,0,0,0,7,0,3.28,3.28,0,0,0,.9-4.54,3.31,3.31,0,0,0-.9-.89,6,6,0,0,0-7,0,3.26,3.26,0,0,0-.9,4.54A3.18,3.18,0,0,0,48.72,1071.28Zm1.22-4.49a3.92,3.92,0,0,1,4.55,0,2.14,2.14,0,0,1,.58,3,2.1,2.1,0,0,1-.58.57,3.89,3.89,0,0,1-4.55,0,2.12,2.12,0,0,1-.59-2.94h0a2.07,2.07,0,0,1,.59-.59Z"/><path id="Path_688" data-name="Path 688" class="cls-3" d="M62.3,1071.64a3.8,3.8,0,0,0,3.83-2.44,3,3,0,0,0-2.33-3.4,4.56,4.56,0,0,0-4.75,1.12,2.54,2.54,0,0,0,.18,3.59,2.34,2.34,0,0,0,.31.24A4.51,4.51,0,0,0,62.3,1071.64Zm-1.54-4.24a2.66,2.66,0,0,1,3.09,0,1.45,1.45,0,0,1,.39,2h0a1.41,1.41,0,0,1-.38.39,2.66,2.66,0,0,1-3.09,0,1.45,1.45,0,0,1-.41-2h0a1.6,1.6,0,0,1,.41-.41Z"/><path id="Path_689" data-name="Path 689" class="cls-3" d="M71.18,1081.29H70.1c8.32-3,12.42-10.43,9.52-17.22s-11.84-10.81-20.85-9.39v-4c.35-2.91-2.38-5.5-6.12-5.79l-5.27,0h0a1,1,0,0,0-.75.34l-3,4-2.8-4a1,1,0,0,0-.77-.35H35.34c-3.77,0-6.84,2.38-6.84,5.32,0,.15,0,11,0,11.43a3.68,3.68,0,0,0,4,3.14h0a4.69,4.69,0,0,0,2.34-.63l.79,20.81v0a2.47,2.47,0,0,0,2.64,1.85H49a2.45,2.45,0,0,0,2.63-1.86.06.06,0,0,0,0-.06l0-5a21.74,21.74,0,0,0,10.73,2.73H63l.16,0h8a15.21,15.21,0,0,1,10.8,4.1,1,1,0,0,0,1.21.12.59.59,0,0,0,.29-.77.7.7,0,0,0-.13-.17,17.18,17.18,0,0,0-12.16-4.63Zm7.64-12.78c0,7-7.35,12.77-16.43,12.77s-16.45-5.72-16.45-12.77,7.36-12.77,16.44-12.77,16.43,5.72,16.44,12.77Zm-28.91,16.35a.87.87,0,0,1-.92.63H38.38a.86.86,0,0,1-.91-.63l-.86-22.37v-1a.8.8,0,0,0-.87-.66h0a.8.8,0,0,0-.86.67,2.12,2.12,0,0,1-2.29,1.86h0a2.11,2.11,0,0,1-2.31-1.8c0-.11,0-11.28,0-11.43,0-2.2,2.29-4,5.11-4h4.25l3.3,4.71a1,1,0,0,0,.75.35.93.93,0,0,0,.75-.34l3.49-4.72,4.61,0c2.8.23,4.84,2.18,4.56,4.36a.08.08,0,0,0,0,.07V1055c-6.18,1.48-10.88,5.4-12.35,10.29s.54,10,5.25,13.47Z"/><path id="Path_690" data-name="Path 690" class="cls-3" d="M50.06,1038.93v-1.79c0-2.84-3-5.14-6.61-5.14s-6.62,2.3-6.62,5.14v1.79c0,2.84,3,5.14,6.62,5.14S50.06,1041.76,50.06,1038.93Zm-11.5,0v-1.79c0-2.1,2.19-3.8,4.89-3.8s4.88,1.7,4.88,3.8v1.79c0,2.1-2.18,3.8-4.88,3.8s-4.9-1.7-4.9-3.8Z"/></g><path id="Path_692" data-name="Path 692" class="cls-4" d="M8.63,2C18,19.66,19.89,25.52,28.17,44.18m43.38,92c12.59,33.63,23.26,65.43,31.76,101.84m22.56,99.05c5.33,34.08,7.89,57.78,10.38,93m7,101.84c2.18,34.29,2.55,56.94.37,91.23m-3.77,100.71c-3.07,35.21-6.25,58.71-12.82,92.79m-22.63,98.07c-9,37.89-16.75,62.09-30,97.09m-44.62,91.21c-8.3,18.66-14.74,31.29-24.07,49"/><path id="Path_710" data-name="Path 710" class="cls-5" d="M101.73,95h186"/><line id="Line_22" data-name="Line 22" class="cls-6" x1="165" y1="287.5" x2="346.55" y2="287.78"/><path id="Path_713" data-name="Path 713" class="cls-5" d="M189.64,480.6H373.36"/><line id="Line_24" data-name="Line 24" class="cls-6" x1="191" y1="673.5" x2="375.5" y2="673.42"/><line id="Line_25" data-name="Line 25" class="cls-6" x1="169" y1="866.5" x2="353.44" y2="866.24"/><line id="Line_26" data-name="Line 26" class="cls-6" x1="106" y1="1059.05" x2="288.76" y2="1059.05"/><path id="Path_693" data-name="Path 693" class="cls-6" d="M52,139.5a50,50,0,1,0-50-50H2A50.11,50.11,0,0,0,52,139.5Z"/><path id="Path_711" data-name="Path 711" class="cls-6" d="M115,337.5a50,50,0,1,0-50-50h0A50.11,50.11,0,0,0,115,337.5Z"/><path id="Path_712" data-name="Path 712" class="cls-6" d="M139,530.5a50,50,0,1,0-50-50h0A50.11,50.11,0,0,0,139,530.5Z"/><path id="Path_714" data-name="Path 714" class="cls-6" d="M141,723.5a50,50,0,1,0-50-50h0A50.11,50.11,0,0,0,141,723.5Z"/><path id="Path_715" data-name="Path 715" class="cls-6" d="M119,916.5a50,50,0,1,0-50-50h0A50.11,50.11,0,0,0,119,916.5Z"/><path id="Path_716" data-name="Path 716" class="cls-6" d="M56,1109.5a50,50,0,1,0-50-50H6A50.11,50.11,0,0,0,56,1109.5Z"/><g id="Group_21" data-name="Group 21"><g id="Group_18" data-name="Group 18"><path id="Path_700" data-name="Path 700" class="cls-1" d="M164.34,453a2.88,2.88,0,0,1,2.14,3.21v11.86a3,3,0,0,1-.93,2.26,2.64,2.64,0,0,1-1.92.66l-4.45,0a12.86,12.86,0,0,0-2.15,0l-3.46,0c-1.35,0-2.7,0-4,0a12.86,12.86,0,0,0-2.15,0c-.93,0-1.85-.06-2.77,0a2.76,2.76,0,0,1-2.84-1.67,5.64,5.64,0,0,1-.22-1.83c0-.41,0-.82,0-1.23a.43.43,0,0,0-.27-.46c-1.34-.66-2.68-1.34-4-2a2.34,2.34,0,0,1-.85-1.07,1.92,1.92,0,0,1,1.3-2.35c1.11-.57,2.21-1.15,3.33-1.7a.73.73,0,0,0,.51-.8,21.11,21.11,0,0,1,0-2.25,2.75,2.75,0,0,1,1.48-2.38c.15-.08.36-.07.44-.25Zm.41,12.68V456c0-.89-.29-1.28-1.06-1.27H146.4l-2,0a1,1,0,0,0-1.08.81,1.7,1.7,0,0,0,0,.22c0,.69,0,1.39,0,2.08a5.51,5.51,0,0,0,0,.7,1.2,1.2,0,0,1-.8,1.35c-.9.42-1.76.91-2.64,1.37l-1.9.95.83.37c1.28.67,2.56,1.36,3.85,2a1.11,1.11,0,0,1,.68.88v2.05a8,8,0,0,0,0,.85.88.88,0,0,0,.87.9h0c1.78,0,3.56,0,5.34,0a13.89,13.89,0,0,0,2,0c.9,0,1.81,0,2.72,0,1.63,0,3.27,0,4.91,0a12.51,12.51,0,0,0,2,0l2.45,0a1,1,0,0,0,1.1-.81,1.31,1.31,0,0,0,0-.28C164.77,467.35,164.75,466.51,164.75,465.68Z"/></g><g id="Group_19" data-name="Group 19"><path id="Path_701" data-name="Path 701" class="cls-1" d="M147.9,462.89a1,1,0,0,1-1-.76c.07-.71.22-.89.88-1h11.93l1,0a.79.79,0,0,1,.81.77V462a.8.8,0,0,1-.72.87h0c-.55,0-1.11,0-1.66,0l-1.5,0H147.9Z"/><path id="Path_702" data-name="Path 702" class="cls-1" d="M153.81,466.68h-2.14l-3.7,0c-.71,0-1.05-.28-1.05-.85s.34-.86,1-.87l5.84,0a12.56,12.56,0,0,1,2,.11.92.92,0,0,1,.34,1.12c-.18.47-.57.52-1,.51S154.27,466.67,153.81,466.68Z"/><path id="Path_703" data-name="Path 703" class="cls-1" d="M151.77,457.29a13.89,13.89,0,0,0,2,0l6.38,0a3.44,3.44,0,0,1,.9.09,1,1,0,0,1,.32,1.14c-.17.46-.58.5-1,.49l-1.11,0c-2.51,0-5,0-7.52,0a18.93,18.93,0,0,0-2.26,0l-1.6,0c-.66,0-1-.3-1-.86s.33-.85,1-.86h3.58Z"/></g><g id="Group_20" data-name="Group 20"><path id="Path_704" data-name="Path 704" class="cls-1" d="M147.9,462.89a1,1,0,0,1-1-.76c.07-.71.22-.89.88-1h11.93l1,0a.79.79,0,0,1,.81.77V462a.8.8,0,0,1-.72.87h0c-.55,0-1.11,0-1.66,0l-1.5,0H147.9Z"/><path id="Path_705" data-name="Path 705" class="cls-1" d="M153.81,466.68h-2.14l-3.7,0c-.71,0-1.05-.28-1.05-.85s.34-.86,1-.87l5.84,0a12.56,12.56,0,0,1,2,.11.92.92,0,0,1,.34,1.12c-.18.47-.57.52-1,.51S154.27,466.67,153.81,466.68Z"/><path id="Path_706" data-name="Path 706" class="cls-1" d="M151.77,457.29a13.89,13.89,0,0,0,2,0l6.38,0a3.44,3.44,0,0,1,.9.09,1,1,0,0,1,.32,1.14c-.17.46-.58.5-1,.49l-1.11,0c-2.51,0-5,0-7.52,0a18.93,18.93,0,0,0-2.26,0l-1.6,0c-.66,0-1-.3-1-.86s.33-.85,1-.86h3.58Z"/></g><path id="Path_707" data-name="Path 707" class="cls-1" d="M147.13,490.92a.65.65,0,0,0-.16-.72,6.5,6.5,0,0,1-2.11-4.54v-2.15c0-1.11,0-2.22.05-3.32a6.32,6.32,0,0,1,4.93-5.94,9.9,9.9,0,0,1,4.3,0l1.5.63a6.5,6.5,0,0,1,3,4.09l.22,1.93c0,1.36,0,2.71,0,4.06a6.71,6.71,0,0,1-2.12,5.23c-.19.18-.29.35-.15.6l.17,1.94c-.12.92.28,1.38,1.19,1.64,1.26.36,2.47.89,3.71,1.34a6.92,6.92,0,0,0,1.27.48,5.29,5.29,0,0,1,3.51,4.47,23.41,23.41,0,0,1,0,2.78c0,1.14,0,2.28,0,3.43,0,.7-.32,1.11-.87,1.1s-.84-.4-.85-1.08c0-.86,0-1.72,0-2.57V502.3a6,6,0,0,0-.15-2.07,3.71,3.71,0,0,0-2.89-2.57,8.48,8.48,0,0,0-1.45-.55,47.43,47.43,0,0,0-5.79-2.06,7.21,7.21,0,0,0-1.84-.29,9.59,9.59,0,0,0-4.6.41c-2,.71-3.89,1.58-5.83,2.38-.37.14-.74.26-1.1.42a3.42,3.42,0,0,0-2.1,2.83c-.11,1.91,0,3.81-.05,5.72,0,.2,0,.39,0,.59a.9.9,0,0,1-.89.89h0a.86.86,0,0,1-.83-.88.43.43,0,0,0,0-.05c0-1.27,0-2.53,0-3.8,0-.11,0-.21,0-.32l0-2.15a5.38,5.38,0,0,1,3.64-4.6c.59-.23,1.17-.5,1.76-.75l4-1.61a.32.32,0,0,0,.23-.31C147,492.66,147.07,491.79,147.13,490.92Zm-.52-9.45v2c0,.79-.06,1.58,0,2.35a4.65,4.65,0,0,0,2,3.5c.61.41,1.29.2,1.94.2,1,0,2-.05,3.05.05a2.59,2.59,0,0,0,2.51-1.27,4.61,4.61,0,0,0,.8-1.67,14.64,14.64,0,0,0,.17-3.62v-2.12a3.54,3.54,0,0,0-.08-1.17,4.35,4.35,0,0,0-2.83-3.58,4.12,4.12,0,0,0-1.89-.4,4.93,4.93,0,0,0-5.69,4,5,5,0,0,0,0,1.68Zm5.2,9.8h-2c-.94,0-1,0-1,1,0,.22,0,.43-.08.64s.07.33.32.29a14.25,14.25,0,0,1,5.78.17c.28.06.3,0,.27-.26q-.09-.61-.12-1.23c0-.47-.27-.6-.7-.6-.79,0-1.6,0-2.4,0Z"/><path id="Path_708" data-name="Path 708" class="cls-1" d="M147.13,490.92a.65.65,0,0,0-.16-.72,6.5,6.5,0,0,1-2.11-4.54v-2.15c0-1.11,0-2.22.05-3.32a6.32,6.32,0,0,1,4.93-5.94,9.9,9.9,0,0,1,4.3,0l1.5.63a6.5,6.5,0,0,1,3,4.09l.22,1.93c0,1.36,0,2.71,0,4.06a6.71,6.71,0,0,1-2.12,5.23c-.19.18-.29.35-.15.6l.17,1.94c-.12.92.28,1.38,1.19,1.64,1.26.36,2.47.89,3.71,1.34a6.92,6.92,0,0,0,1.27.48,5.29,5.29,0,0,1,3.51,4.47,23.41,23.41,0,0,1,0,2.78c0,1.14,0,2.28,0,3.43,0,.7-.32,1.11-.87,1.1s-.84-.4-.85-1.08c0-.86,0-1.72,0-2.57V502.3a6,6,0,0,0-.15-2.07,3.71,3.71,0,0,0-2.89-2.57,8.48,8.48,0,0,0-1.45-.55,47.43,47.43,0,0,0-5.79-2.06,7.21,7.21,0,0,0-1.84-.29,9.59,9.59,0,0,0-4.6.41c-2,.71-3.89,1.58-5.83,2.38-.37.14-.74.26-1.1.42a3.42,3.42,0,0,0-2.1,2.83c-.11,1.91,0,3.81-.05,5.72,0,.2,0,.39,0,.59a.9.9,0,0,1-.89.89h0a.86.86,0,0,1-.83-.88.43.43,0,0,0,0-.05c0-1.27,0-2.53,0-3.8,0-.11,0-.21,0-.32l0-2.15a5.38,5.38,0,0,1,3.64-4.6c.59-.23,1.17-.5,1.76-.75l4-1.61a.32.32,0,0,0,.23-.31C147,492.66,147.07,491.79,147.13,490.92Zm-.52-9.45v2c0,.79-.06,1.58,0,2.35a4.65,4.65,0,0,0,2,3.5c.61.41,1.29.2,1.94.2,1,0,2-.05,3.05.05a2.59,2.59,0,0,0,2.51-1.27,4.61,4.61,0,0,0,.8-1.67,14.64,14.64,0,0,0,.17-3.62v-2.12a3.54,3.54,0,0,0-.08-1.17,4.35,4.35,0,0,0-2.83-3.58,4.12,4.12,0,0,0-1.89-.4,4.93,4.93,0,0,0-5.69,4,5,5,0,0,0,0,1.68Zm5.2,9.8h-2c-.94,0-1,0-1,1,0,.22,0,.43-.08.64s.07.33.32.29a14.25,14.25,0,0,1,5.78.17c.28.06.3,0,.27-.26q-.09-.61-.12-1.23c0-.47-.27-.6-.7-.6-.79,0-1.6,0-2.4,0Z"/><path id="Path_709" data-name="Path 709" class="cls-1" d="M123.2,495.24c-1.71,0-3.43,0-5.14,0a3.17,3.17,0,0,1-1.78-.47,2.38,2.38,0,0,1-.76-1.28c-.15-.67-.33-1.34-.47-2s.17-1.2,1-1.21l2.78,0c.42,0,.85,0,1.27,0,.21,0,.29-.09.32-.27.07-.51.15-1,.23-1.53.36-2,.74-4,1.07-6a2.94,2.94,0,0,1,1.76-2.43c.15-.07.27-.11.26-.33,0-.62,0-1.25,0-1.87a11,11,0,0,0,0-1.72L121.07,478c-.7.11-1-.06-1.2-.72-.44-1.35-.88-2.7-1.31-4.05,0-.34-.21-.2-.37-.13-1.08.47-2.17.92-3.23,1.41a2.92,2.92,0,0,0-1.65,2.06,6.05,6.05,0,0,0-.08,1.7v9.67c0,.47-.13.89-.63,1s-.82-.16-1.1-.52v-12c.14,0,.1-.17.13-.27a4.89,4.89,0,0,1,3-3.42c1.17-.48,2.32-1,3.48-1.51a8.29,8.29,0,0,0,1.8-1.42.5.5,0,0,0,.12-.29c.08-.53.15-1.06.22-1.59a.41.41,0,0,0-.12-.39,6,6,0,0,1-1.89-3.68c0-.68,0-1.36,0-2,0-1,0-2,0-3a5.69,5.69,0,0,1,4.62-5.61c.14,0,.33,0,.41-.19h2.25a14,14,0,0,1,1.6.46,5.73,5.73,0,0,1,3.68,5.12l0,2.05c0,.94,0,1.89,0,2.83a5.08,5.08,0,0,1-1.37,3.51,1.73,1.73,0,0,0-.49,1.89,5.77,5.77,0,0,1,.08.58c0,.18,0,.37.24.44A10.18,10.18,0,0,0,130.5,471c.14.18.36.21.55.3,1.53.71,3.13,1.26,4.59,2.1l1.08,1.07a6.41,6.41,0,0,1,.75,1.69,10.89,10.89,0,0,1,.13,2.55c0,1.25,0,1.25,1.28,1.11a3,3,0,0,1,1.5.54,2.53,2.53,0,0,1,.62,2.42c-.32,1.72-.6,3.45-.9,5.17l-.44,2.59c-.15.77-.29,1.54-.44,2.31a3,3,0,0,1-2.91,2.42l-1.39,0H123.2Zm-5.78-1.82a10.08,10.08,0,0,0,1.9.09c.43,0,.74,0,.58-.56-.1-.32.31-.75-.05-.95s-.69,0-1,0l-1.59,0c-.12,0-.28,0-.22.19C117.14,492.58,117.07,493.07,117.42,493.42Zm9.19-18.63,1.31,1,1-3.33c.33-.53-.19-.67-.45-.89s-.41.14-.54.28c-.53.55-1,1.14-1.53,1.71S125.8,474.27,126.61,474.79Zm-1.69-20.05a5,5,0,0,0-1.55.09,3.94,3.94,0,0,0-3.25,3.1c-.15.62-.1.67.52.68a1.88,1.88,0,0,0,1.8-1.29,1,1,0,0,1,1-.68c.47.11.62.53.84.88a3.85,3.85,0,0,0,4.07,2.11c.82-.1.82-.1.78-.93a3.87,3.87,0,0,0-2.47-3.56A3.78,3.78,0,0,0,124.92,454.74Zm10.51,20.93a2.38,2.38,0,0,0-1.16-1.1c-1.06-.58-2.21-1-3.3-1.49-.3-.14-.38-.06-.47.23-.4,1.3-.81,2.58-1.23,3.87-.3.92-.82,1.09-1.61.52l-2.23-1.62v3.48c0,.23.12.25.31.25l3.48,0a12.86,12.86,0,0,0,2.15,0l4.26,0c.28,0,.27-.16.27-.34,0-.8,0-1.6,0-2.4A2.41,2.41,0,0,0,135.43,475.67Zm-12.55,10.2a16,16,0,0,0-.43,2.47c-.28,1.49-.57,3-.82,4.47a.55.55,0,0,0,.61.69l3,0h9.66c.47,0,.93,0,1.4,0a1.18,1.18,0,0,0,1.2-.95,11.5,11.5,0,0,0,.32-2,1.54,1.54,0,0,0,.08-.19c.28-1.64.57-3.27.86-4.9.19-1.1.38-2.21.56-3.32.06-.35.06-.66-.44-.62a11.58,11.58,0,0,0-2,0l-2.61,0c-1.68,0-3.35,0-5,0a13.89,13.89,0,0,0-2,0c-.9,0-1.81,0-2.72,0a1,1,0,0,0-1,.82c-.22,1.16-.39,2.34-.58,3.51Zm6.22-23.2c0-.11,0-.21,0-.32,0-1.08,0-1.08-1.09-1a5.52,5.52,0,0,1-4.76-2.18,3.33,3.33,0,0,1-1.89,1.12c-.44,0-1-.17-1.29.05s-.09.87-.08,1.32,0,.71,0,1.07a4.83,4.83,0,0,0,2.45,4.44,2.28,2.28,0,0,0,1.51.6,3.34,3.34,0,0,0,2-.18c2-1,3.39-2.66,3.15-5ZM127.2,469a5.73,5.73,0,0,1-.81.33,6,6,0,0,1-4.14-.17c-.11-.05-.33-.3-.38,0s-.25.7.07,1.05c.8.87,1.58,1.76,2.35,2.65.2.23.31.26.52,0,.65-.77,1.29-1.54,2-2.25a1.3,1.3,0,0,0,.4-1.59Zm-6,6.79c.63-.46,1.19-.89,1.78-1.29.27-.18.3-.3.07-.55-.67-.71-1.3-1.46-2-2.18-.11-.12-.21-.44-.43-.23s-.71.29-.55.79Zm-4.67,9.14v-2.05c0-.12,0-.25,0-.37,0-.76.44-1,1.29-.89a1.38,1.38,0,0,1,.45,1.27c0,1.69,0,3.39,0,5.09a.91.91,0,0,1-.52,1,.84.84,0,0,1-1.12-.44.73.73,0,0,1-.07-.41C116.53,487,116.53,486,116.52,484.91Zm15.24,1.84c.53.63.45,1.27-.18,1.53a.92.92,0,0,1-1.05-.3.89.89,0,0,1,.12-1.08A.91.91,0,0,1,131.76,486.75Z"/></g><g id="next"><g id="Group_22" data-name="Group 22"><path id="Path_717" data-name="Path 717" class="cls-7" d="M21.89,26.41l4-10.92a1.9,1.9,0,0,0-3.58-1.3l-3.35,9.07L9.89,20a1.91,1.91,0,0,0-2.44,1.14,2,2,0,0,0,1.14,2.44l10.86,4a2,2,0,0,0,2.44-1.14Zm-2-.12L9.08,22.35a.56.56,0,0,1-.34-.73.57.57,0,0,1,.73-.34l9.66,3.52a.65.65,0,0,0,.84-.37v0l3.49-9.72a.62.62,0,0,1,.74-.35.51.51,0,0,1,.39.59.88.88,0,0,1-.05.15L20.57,26a.56.56,0,0,1-.27.35C20.2,26.3,20,26.33,19.9,26.29Z"/></g></g><g id="next-2"><g id="Group_22-2" data-name="Group 22-2"><path id="Path_717-2" data-name="Path 717-2" class="cls-7" d="M92.48,191.73,97.4,181.2a1.91,1.91,0,0,0-3.46-1.61l-4.13,8.74-8.71-4.06a1.9,1.9,0,0,0-2.53.92,2,2,0,0,0,.92,2.53L90,192.65a2,2,0,0,0,2.53-.92Zm-2-.29-10.45-4.87a.57.57,0,1,1,.49-1l9.32,4.34a.65.65,0,0,0,.87-.29v0l4.33-9.38a.62.62,0,0,1,.76-.28.51.51,0,0,1,.34.62.59.59,0,0,1-.06.14l-4.92,10.53a.57.57,0,0,1-.3.33C90.82,191.48,90.6,191.49,90.52,191.44Z"/></g></g><g id="next-3"><g id="Group_22-3" data-name="Group 22-3"><path id="Path_717-3" data-name="Path 717-3" class="cls-7" d="M134.54,389.2l6.83-9.4a1.91,1.91,0,0,0-3.09-2.24l-5.71,7.79-7.78-5.65a1.92,1.92,0,0,0-2.66.42,1.94,1.94,0,0,0,.42,2.66l9.33,6.84a2,2,0,0,0,2.66-.42Zm-1.88-.66-9.32-6.77a.57.57,0,0,1-.12-.8.56.56,0,0,1,.79-.12l8.32,6a.66.66,0,0,0,.92-.12v0l6-8.38a.62.62,0,0,1,.8-.13.5.5,0,0,1,.21.67.38.38,0,0,1-.09.13l-6.83,9.4a.6.6,0,0,1-.36.26C133,388.63,132.74,388.6,132.66,388.54Z"/></g></g><g id="next-4"><g id="Group_22-4" data-name="Group 22-4"><path id="Path_717-4" data-name="Path 717-4" class="cls-7" d="M146.74,581.46l8.08-8.35a1.91,1.91,0,0,0-2.74-2.65l-6.75,6.92-6.92-6.69a1.92,1.92,0,0,0-2.69,0,2,2,0,0,0,0,2.69l8.29,8.08a2,2,0,0,0,2.69,0Zm-1.76-.91-8.29-8a.57.57,0,1,1,.8-.82l7.39,7.15a.65.65,0,0,0,.92,0l0,0,7.15-7.46a.61.61,0,0,1,.81,0,.5.5,0,0,1,.12.69l-.11.11-8.07,8.36a.56.56,0,0,1-.4.2C145.25,580.68,145.05,580.62,145,580.55Z"/></g></g><g id="next-5"><g id="Group_22-5" data-name="Group 22-5"><path id="Path_717-5" data-name="Path 717-5" class="cls-7" d="M136,776.64l9.15-7.15a1.91,1.91,0,0,0-2.34-3l-7.65,5.92-5.92-7.58a1.91,1.91,0,0,0-2.68-.33,2,2,0,0,0-.33,2.67l7.09,9.15a2,2,0,0,0,2.68.33Zm-1.63-1.15-7.09-9.08a.56.56,0,0,1,.1-.8.57.57,0,0,1,.8.09l6.33,8.11a.65.65,0,0,0,.91.14l0,0,8.11-6.4a.62.62,0,0,1,.81.1.49.49,0,0,1,0,.7l-.12.1-9.16,7.15a.56.56,0,0,1-.42.15C134.63,775.66,134.44,775.57,134.38,775.49Z"/></g></g><g id="next-6"><g id="Group_22-6" data-name="Group 22-6"><path id="Path_717-6" data-name="Path 717-6" class="cls-7" d="M90.8,969.65l10.44-5.09a1.91,1.91,0,0,0-1.66-3.43l-8.72,4.2-4.21-8.65a1.91,1.91,0,0,0-2.55-.88,2,2,0,0,0-.88,2.55l5,10.42a2,2,0,0,0,2.55.88Zm-1.35-1.46-5-10.36a.57.57,0,0,1,1-.51l4.5,9.25a.65.65,0,0,0,.87.32h0l9.27-4.57a.61.61,0,0,1,.76.26.51.51,0,0,1-.12.7l-.14.07-10.45,5.09a.56.56,0,0,1-.44.06C89.66,968.4,89.49,968.27,89.45,968.19Z"/></g></g><g id="next-2-2" data-name="next"><g id="Group_23" data-name="Group 23"><path id="Path_718" data-name="Path 718" class="cls-7" d="M16,1134.84l16.3-5.3a1.48,1.48,0,0,0,.95-1.87l-.38-1.21a1.5,1.5,0,0,0-1.88-1L17.31,1130l-4.45-13.7a1.49,1.49,0,0,0-1.88-1l-1.2.39a1.49,1.49,0,0,0-1,1.87l5.3,16.32a1.51,1.51,0,0,0,1.89,1Z"/></g></g></g></g></svg>