<?xml version="1.0" encoding="utf-8"?>
<!-- Generator: Adobe Illustrator 24.1.2, SVG Export Plug-In . SVG Version: 6.00 Build 0)  -->
<svg version="1.1" id="Layer_1" xmlns="http://www.w3.org/2000/svg" xmlns:xlink="http://www.w3.org/1999/xlink" x="0px" y="0px"
	 viewBox="0 0 377.5 1154" style="enable-background:new 0 0 377.5 1154;" xml:space="preserve">
<style type="text/css">
	.st0{fill:#3DC1E0;stroke:#3DC1E0;stroke-width:0.1;}
	.st1{fill:#3DC1E0;stroke:#3DC1E0;stroke-width:0.3;}
	.st2{fill:#3DC1E0;stroke:#3DC1E0;stroke-width:0.5;}
	
		.st3{fill-rule:evenodd;clip-rule:evenodd;fill:#3DC1E0;stroke:#3DC1E0;stroke-width:4;stroke-linecap:round;stroke-linejoin:round;}
	.st4{fill:none;stroke:#3DC1E0;stroke-width:4;stroke-linecap:round;}
	.st5{fill:none;stroke:#3DC1E0;stroke-width:4;stroke-linecap:round;stroke-linejoin:round;}
	.st6{fill:#3DC1E0;}
</style>
<g id="BACKGROUND">
	<g id="Group_14">
		<g id="Group_13">
			<g id="Group_12">
				<path id="Path_660" class="st0" d="M62.5,109.8l-3.8-2.3l0,0l-2.1-1.3v-1.4c0.7-1,1.3-2.1,1.5-3.4c0-0.2,0.1-0.4,0.3-0.6l0,0
					c0.5-0.6,0.8-1.3,0.8-2.1v-2c0-0.5-0.1-0.9-0.3-1.3L59,95.3c-0.1-0.2-0.1-0.3-0.1-0.5V92c0-2.9-2.3-5.3-5.2-5.3c0,0,0,0,0,0
					h-3.3c-2.9,0-5.3,2.4-5.3,5.3c0,0,0,0,0,0v2.8c0,0.2,0,0.4-0.1,0.5l-0.1,0.2c-0.2,0.4-0.3,0.9-0.3,1.3v1.9
					c0,0.8,0.3,1.5,0.8,2.1l0,0c0.2,0.2,0.3,0.4,0.3,0.6c0.3,1.2,0.8,2.4,1.5,3.4v1.4l-2.1,1.3l0,0l-3.7,2.2
					c-1.4,0.9-2.3,2.4-2.3,4.1v2.2c0,0.5,0.4,0.9,0.9,0.9h23.8c0.5,0,0.9-0.4,0.9-0.9v-2.2C64.8,112.2,63.9,110.7,62.5,109.8z
					 M46.8,99.7L46.8,99.7c-0.2-0.2-0.3-0.5-0.3-0.8v-2c0-0.2,0-0.4,0.1-0.5l0.1-0.2c0.2-0.4,0.3-0.9,0.3-1.3v-2.8
					c0-1.9,1.5-3.4,3.4-3.5h3.3c1.9,0,3.3,1.6,3.3,3.4l0,0v2.8c0,0.5,0.1,0.9,0.3,1.3l0.1,0.2c0.1,0.2,0.1,0.3,0.1,0.5v1.9
					c0,0.3-0.1,0.6-0.3,0.8l0,0c-0.4,0.4-0.7,0.9-0.8,1.5l0,0c-0.2,1-0.6,2-1.3,2.9c-0.2,0.2-0.3,0.5-0.3,0.8v1.5l-2.9,1.3l-2.8-1.3
					v-1.5c0-0.3-0.1-0.6-0.3-0.8c-0.6-0.8-1.1-1.8-1.3-2.8C47.5,100.6,47.2,100.1,46.8,99.7L46.8,99.7z M52.9,110.8l-0.5,0.8h-0.8
					l-0.5-0.8l0.9-0.9L52.9,110.8z M48.6,115.2H41v-1.3c0-1,0.5-2,1.4-2.5l3.1-1.9l1.8,1.4c0.5,0.4,1.1,0.6,1.7,0.6h0.2l0.7,1
					L48.6,115.2z M49.7,109.4c-0.1,0.1-0.2,0.2-0.3,0.2c-0.3,0.1-0.7,0.1-0.9-0.2l-1.3-1l1-0.6l2.1,1L49.7,109.4z M50.7,115.2
					l0.9-1.8h0.7l0.9,1.8H50.7z M55.8,107.9l0.9,0.6l-1.3,1c-0.3,0.2-0.7,0.3-1,0.1c-0.1,0-0.2-0.1-0.3-0.2l-0.6-0.6L55.8,107.9z
					 M63,115.2h-7.7l-1.3-2.7l0.7-1h0.2c0.6,0,1.2-0.2,1.7-0.6l1.9-1.4l3.2,1.9c0.9,0.5,1.4,1.5,1.4,2.5L63,115.2L63,115.2z"/>
				<path id="Path_661" class="st0" d="M52,82.2c5.6,0,10.1-4.5,10.1-10.1C62.1,66.5,57.6,62,52,62s-10.1,4.5-10.1,10.1c0,0,0,0,0,0
					C41.9,77.7,46.4,82.2,52,82.2L52,82.2z M52,63.8c4.6,0,8.3,3.7,8.3,8.2c0,4.6-3.7,8.3-8.2,8.3s-8.3-3.7-8.3-8.2c0,0,0,0,0,0l0,0
					C43.8,67.5,47.4,63.8,52,63.8C52,63.8,52,63.8,52,63.8z"/>
				<path id="Path_662" class="st0" d="M44.7,85.8c0-5.6-4.5-10.1-10.1-10.1s-10.1,4.5-10.1,10.1c0,5.6,4.5,10.1,10.1,10.1
					c0,0,0,0,0,0C40.1,95.9,44.7,91.4,44.7,85.8C44.7,85.9,44.7,85.8,44.7,85.8z M34.6,94.1c-4.6,0-8.3-3.7-8.3-8.2
					c0-4.6,3.7-8.3,8.2-8.3s8.3,3.7,8.3,8.2c0,0,0,0,0,0l0,0C42.8,90.4,39.1,94.1,34.6,94.1z"/>
				<path id="Path_663" class="st0" d="M69.4,75.8c-5.6,0-10.1,4.5-10.1,10.1s4.5,10.1,10.1,10.1s10.1-4.5,10.1-10.1v0l0,0
					C79.5,80.3,75,75.8,69.4,75.8z M69.4,94.1c-4.6,0-8.3-3.7-8.3-8.2c0-4.6,3.7-8.3,8.2-8.3c4.6,0,8.3,3.7,8.3,8.2c0,0,0,0,0,0l0,0
					C77.7,90.4,74,94.1,69.4,94.1C69.4,94.1,69.4,94.1,69.4,94.1z"/>
				<path id="Path_664" class="st0" d="M52,78.5c3.5,0,6.4-2.9,6.4-6.4c0-3.5-2.9-6.4-6.4-6.4c-3.5,0-6.4,2.9-6.4,6.4c0,0,0,0,0,0
					C45.6,75.6,48.4,78.5,52,78.5C52,78.5,52,78.5,52,78.5z M52,67.5c2.5,0,4.6,2,4.6,4.6c0,2.5-2,4.6-4.6,4.6s-4.6-2-4.6-4.6
					c0,0,0,0,0,0l0,0C47.4,69.6,49.5,67.5,52,67.5C52,67.5,52,67.5,52,67.5z"/>
				<path id="Path_665" class="st0" d="M52,74.8c1.5,0,2.8-1.2,2.8-2.8s-1.2-2.8-2.8-2.8s-2.8,1.2-2.8,2.8
					C49.3,73.6,50.5,74.8,52,74.8z M52,71.2c0.5,0,0.9,0.4,0.9,0.9S52.5,73,52,73s-0.9-0.4-0.9-0.9c0,0,0,0,0,0l0,0
					C51.1,71.6,51.5,71.2,52,71.2L52,71.2L52,71.2z"/>
				<path id="Path_666" class="st0" d="M34.6,84.9c-0.5,0.1-1-0.3-1-0.8c-0.1-0.5,0.3-1,0.8-1c0.1,0,0.1,0,0.2,0h1.8
					c0.5,0,0.9-0.4,0.9-0.9c0-0.5-0.4-0.9-0.9-0.9h-0.9v-0.9c-0.1-0.5-0.5-0.9-1-0.8c-0.4,0-0.8,0.4-0.8,0.8v1.1
					c-1.4,0.5-2.2,2.1-1.7,3.5c0.4,1.1,1.4,1.9,2.6,1.8c0.5,0.1,0.9,0.5,0.8,1c0,0.4-0.4,0.8-0.8,0.8h-1.8c-0.5,0-0.9,0.4-0.9,0.9
					c0,0.5,0.4,0.9,0.9,0.9h0.9v0.9c-0.1,0.5,0.3,1,0.8,1c0.5,0.1,1-0.3,1-0.8c0-0.1,0-0.1,0-0.2v-1.1c1.4-0.5,2.2-2.1,1.7-3.5
					C36.8,85.7,35.8,84.9,34.6,84.9L34.6,84.9z"/>
				<path id="Path_667" class="st0" d="M74.8,82.8C74.9,82.8,74.9,82.7,74.8,82.8L74.8,82.8c0-0.2-0.1-0.2-0.2-0.3l-0.1-0.1
					c-0.2-0.1-0.4-0.2-0.6-0.2h-1.9c-0.5,0-0.9,0.4-0.9,0.9v0c0,0.5,0.3,0.9,0.8,0.9l-2.6,3.1l-2.1-2.8c-0.2-0.2-0.5-0.4-0.8-0.4
					c-0.3,0-0.6,0.2-0.7,0.4l-1.8,2.8c-0.2,0.5,0,1,0.4,1.2c0.4,0.2,0.8,0.1,1.1-0.2l0,0l1.1-1.7l2,2.6c0.2,0.2,0.4,0.4,0.7,0.4l0,0
					c0.3,0,0.5-0.1,0.7-0.3l3.1-3.8c0.2,0.3,0.4,0.4,0.8,0.4c0.5,0,0.9-0.4,0.9-0.9l0,0V83C74.9,82.9,74.9,82.9,74.8,82.8z"/>
			</g>
		</g>
	</g>
	<g id="soft-skills">
		<path id="Path_668" class="st0" d="M129.1,274.5c-0.3,0-0.6,0-0.9,0c0-0.3,0-0.6,0-0.9c0.2-7.4-5.5-13.5-12.9-13.8
			c-7.4-0.2-13.5,5.5-13.8,12.9l0,0c0,0.3,0,0.6,0,0.9c0,0.3,0,0.6,0,0.9h-0.8c-7.2-0.1-13.2,5.6-13.3,12.8c-0.1,4.9,2.6,9.5,7,11.8
			c0.4,0.2,0.9,0,1.1-0.4c0.2-0.4,0-0.8-0.3-1c-1.3-0.7-2.4-1.6-3.3-2.6l0.3-1.5c0.4-2.1,1.5-3.9,3.1-5.3c3.3,3,8.3,2.8,11.4-0.4
			c0.1-0.2,0.3-0.3,0.4-0.5l0.9,1l-0.7,2.2c-3,2-5,5.1-5.6,8.6c-0.3,0-0.6,0-0.9,0c-0.9,0-1.7-0.1-2.6-0.3c-0.4-0.1-0.8,0.2-0.9,0.6
			c-0.1,0.4,0.2,0.8,0.6,0.9c1,0.2,2,0.3,2.9,0.3h0.8c0,0.2,0,0.4,0,0.7c-0.2,7.4,5.5,13.5,12.9,13.8c7.4,0.2,13.5-5.5,13.8-12.9
			c0-0.3,0-0.6,0-0.9c0-0.2,0-0.5,0-0.7h0.9c7.3,0.1,13.2-5.7,13.4-12.9c0.1-7.3-5.7-13.2-12.9-13.4L129.1,274.5z M140.9,287.6
			c0,2-0.5,4-1.5,5.7v-0.1c-0.5-2.4-1.8-4.6-3.6-6.2c1.9-2.6,2-6.1,0.4-8.8C139.1,280.4,140.9,283.9,140.9,287.6L140.9,287.6z
			 M126,282.5c-0.2-0.5-0.7-0.8-1.2-0.8h-2c0.3-3.6,3.4-6.2,7-5.9c3.6,0.3,6.2,3.4,5.9,7c-0.3,3.6-3.4,6.2-7,5.9c0,0,0,0,0,0h-0.1
			c-1.9-0.2-3.6-1.2-4.7-2.7l1.9-2.1C126.2,283.6,126.3,283,126,282.5L126,282.5z M109,281.8c-0.1-1.2-0.5-2.4-1.2-3.5
			c1.2,0.8,2.2,1.9,3,3.1l-0.3,0.4H109z M111.7,279.9c-1.1-1.4-2.4-2.7-4-3.5c0.5-0.8,1.1-1.5,1.8-2.1c1.2,1.1,2.7,1.8,4.3,2
			L111.7,279.9z M120.5,274.2c0.7,0.6,1.3,1.3,1.8,2.1c-1.6,0.9-2.9,2.1-4,3.6l-2.2-3.7C117.8,276,119.3,275.4,120.5,274.2
			L120.5,274.2z M122.3,278.3c-0.7,1.1-1,2.3-1.2,3.5h-1.7l-0.2-0.3C120.1,280.2,121.1,279.2,122.3,278.3L122.3,278.3z M126.8,273.6
			c0,0.4,0,0.8,0,1.1c-1,0.2-2,0.5-2.9,0.9c-0.6-1-1.3-1.8-2.2-2.6c0.3-0.5,0.6-0.9,0.8-1.5c0.2-0.4,0-0.9-0.4-1c0,0,0,0,0,0l0,0
			c-0.4-0.2-0.9,0-1.1,0.4v0c-1.5,3.2-5.3,4.7-8.5,3.3c-3.2-1.4-4.7-5.1-3.4-8.3c0,0,0-0.1,0-0.1c1.5-3.2,5.3-4.7,8.5-3.3
			c2.2,0.9,3.7,3,3.9,5.4c0,0.4,0.4,0.8,0.9,0.7c0.4,0,0.7-0.4,0.7-0.8l0,0c-0.1-1.3-0.5-2.5-1.2-3.6
			C125,266.4,126.8,269.9,126.8,273.6L126.8,273.6z M103.3,273.6c0-3.7,1.8-7.2,4.8-9.3c-1.7,2.7-1.6,6.2,0.3,8.8
			c-0.8,0.7-1.6,1.6-2.2,2.6c-1-0.4-2-0.7-3-0.9C103.3,274.3,103.3,274,103.3,273.6L103.3,273.6z M90.8,293.3L90.8,293.3
			c-3-5-1.6-11.6,3.2-15c-1.7,2.7-1.6,6.2,0.3,8.8C92.5,288.7,91.2,290.9,90.8,293.3L90.8,293.3z M101,288.8c-3.5-0.1-6.3-3-6.3-6.5
			s3-6.3,6.5-6.3c3.2,0.1,5.9,2.5,6.2,5.7h-2.2c-0.7,0-1.3,0.6-1.3,1.3c0,0.3,0.1,0.7,0.3,0.9l2,2.2
			C105,287.8,103.1,288.8,101,288.8L101,288.8z M105.8,283.4h4.9c0.5,0,0.9-0.2,1.2-0.6l3.2-5.3l3.2,5.3c0.2,0.4,0.7,0.6,1.2,0.6
			h4.9l-3.7,4.1c-0.3,0.3-0.4,0.8-0.3,1.3l1.8,5.8l-2.5-1.4c-0.4-0.2-0.9-0.1-1.1,0.3c-0.2,0.4-0.1,0.8,0.2,1.1c0,0,0,0,0,0l0,0
			l2.6,1.6v0.3c0,3.6-2.9,6.5-6.5,6.5s-6.5-2.9-6.5-6.5v-0.3l6.5-4l0.9,0.6c0.4,0.2,0.9,0.1,1.1-0.3c0.2-0.4,0.1-0.8-0.2-1.1
			c0,0,0,0,0,0l0,0l-1.1-0.7c-0.4-0.3-1-0.3-1.4,0l-6.4,3.9l1.8-5.8c0.1-0.4,0-0.9-0.3-1.3L105.8,283.4z M106.6,293.4l-0.4,1.3
			c-0.2,0.5,0,1.1,0.5,1.4c0.1,0.1,0.2,0.1,0.3,0.2c0,1.7,0.5,3.3,1.5,4.6c-1.8,1.6-3.1,3.8-3.6,6.2v0.1
			C102.3,302.7,103,297,106.6,293.4L106.6,293.4z M115,313c-3.4,0-6.7-1.4-8.9-4l0.3-1.5c0.4-2.1,1.5-3.9,3.1-5.4
			c3.1,2.9,7.9,2.9,11,0c1.6,1.4,2.7,3.3,3.1,5.4l0.3,1.5C121.7,311.6,118.4,313,115,313L115,313z M125.2,307.2L125.2,307.2
			c-0.5-2.5-1.8-4.7-3.6-6.3c1-1.3,1.5-2.9,1.5-4.6c0.6-0.3,1-1,0.8-1.6l-0.4-1.3C127.1,297.1,127.8,302.7,125.2,307.2L125.2,307.2z
			 M129.2,299.2c-0.4,0-0.7,0-1,0c-0.6-3.5-2.7-6.6-5.6-8.5l-0.7-2.2l1-1.1c2.8,3.5,7.8,4.1,11.3,1.4c0.2-0.1,0.4-0.3,0.6-0.5
			c1.6,1.4,2.7,3.3,3.1,5.4l0.3,1.5C135.9,297.7,132.7,299.2,129.2,299.2L129.2,299.2z"/>
	</g>
	<g id="customer">
		<g id="Group_15">
			<path id="Path_669" class="st1" d="M138.2,655.5c2.1,0.1,3.9-1.4,4-3.5c0,0,0,0,0,0v-1.1c-0.3-2.2-2.3-3.7-4.5-3.4
				c-1.8,0.3-3.1,1.6-3.4,3.4v1.1C134.4,654,136.1,655.6,138.2,655.5z M135.7,652v-1.1c0.2-1.3,1.5-2.3,2.8-2c1.1,0.2,1.9,1,2,2v1.1
				c0,1.3-1.1,2.2-2.4,2.2c0,0,0,0,0,0C137,654.3,135.8,653.3,135.7,652L135.7,652z"/>
			<path id="Path_670" class="st1" d="M155.2,653.2c1.8,0.1,3.4-1.3,3.6-3.1v-1c-0.3-2-2.1-3.4-4-3.1c-1.6,0.2-2.9,1.5-3.1,3.1v1
				C151.8,652,153.4,653.3,155.2,653.2z M153.2,649.1c0-1.1,0.9-2,2-2s2,0.9,2,2v1c0,1.1-0.9,2-2,2s-2-0.9-2-2V649.1z"/>
			<path id="Path_671" class="st1" d="M121.1,653.2c1.8,0.1,3.4-1.3,3.6-3.1v-1c-0.3-2-2.1-3.4-4-3.1c-1.6,0.2-2.9,1.5-3.1,3.1v1
				C117.7,652,119.3,653.3,121.1,653.2z M119.1,649.1c0-1.1,0.9-2,2-2s2,0.9,2,2v1c0,1.1-0.9,2-2,2s-2-0.9-2-2V649.1z"/>
			<path id="Path_672" class="st1" d="M128.9,662.6v-6c0.1-1.9-1.4-3.4-3.2-3.5c0,0,0,0,0,0l0,0h-2.6l0,0c-0.3,0-0.5,0.1-0.7,0.3
				l-1.1,1.7l-1.1-1.7c-0.1-0.2-0.4-0.4-0.7-0.3h-2.3c-1.9-0.1-3.5,1.3-3.7,3.2l0,0c0,0.1,0,6.3,0,6.3c0.1,1.2,1.1,2.1,2.3,2l0,0
				c0.3,0,0.5,0,0.8-0.1l0.4,10.9v0c0.1,0.8,0.8,1.3,1.6,1.3h5.2c0.8,0,1.5-0.5,1.6-1.3l0,0l0.3-10.9c1.2,0.4,2.5-0.1,3-1.2
				C128.9,663.1,128.9,662.8,128.9,662.6z M127.4,656.5v6.1c0,0.4-0.4,0.7-0.9,0.7c-0.4,0-0.6-0.3-0.7-0.7l0,0
				c0-0.4-0.4-0.7-0.8-0.7l0,0c-0.4,0-0.7,0.3-0.7,0.7c0,0,0,0,0,0v0.5l-0.4,12.3c0,0-0.1,0.1-0.1,0.1h-5.2c0,0-0.1,0-0.1-0.1
				l-0.4-12.3v-0.5c0-0.4-0.4-0.7-0.8-0.7l0,0c-0.4,0-0.7,0.3-0.7,0.7c0,0,0,0,0,0c0,0.4-0.4,0.7-0.8,0.7c0,0,0,0,0,0
				c-0.4,0-0.8-0.3-0.8-0.7c0,0,0,0,0,0l0,0c0,0,0-6.2,0-6.3c0-0.5,0.2-1,0.6-1.3l0,0c0.4-0.4,1-0.6,1.5-0.5h1.8l1.5,2.4
				c0.2,0.3,0.6,0.4,1,0.3c0.1-0.1,0.2-0.1,0.3-0.3l1.6-2.4h2C126.5,654.5,127.3,655.4,127.4,656.5L127.4,656.5z"/>
			<path id="Path_673" class="st1" d="M145.6,669.2c-7.4,0-13.4,5.3-13.4,11.7s6,11.7,13.4,11.7s13.4-5.3,13.4-11.7
				S153,669.2,145.6,669.2z M145.6,691.3c-6.5,0-11.8-4.7-11.8-10.4s5.3-10.4,11.8-10.4s11.8,4.7,11.8,10.4S152.2,691.3,145.6,691.3
				L145.6,691.3z"/>
			<path id="Path_674" class="st1" d="M167.6,696.3l-5.1-4.5c-0.3-0.3-0.8-0.3-1.1,0l0,0l-1.1,1l-1.9-1.7c2.8-2.6,4.5-6.3,4.5-10.2
				c0-3.2-1.2-6.3-3.2-8.8l0.2-7.6c1.2,0.4,2.4-0.1,3-1.2c0.1-0.2,0.2-0.5,0.1-0.7v-6c0.1-1.9-1.4-3.4-3.2-3.5h-0.1c0,0-0.1,0-2.6,0
				l0,0c-0.3,0-0.5,0.1-0.7,0.3l-1.1,1.7l-1.1-1.7c-0.2-0.2-0.4-0.4-0.7-0.3h-2.3c-1.9-0.1-3.5,1.3-3.7,3.2c0,0.1,0,6.3,0,6.3
				c0.1,1.2,1.1,2.1,2.3,2l0,0c0.3,0,0.5,0,0.8-0.1v2c-1.3-0.3-2.5-0.6-3.8-0.7v-6.4c0.1-2.1-1.5-3.8-3.6-3.9c0,0,0,0,0,0h-0.1h-3
				l0,0c-0.3,0-0.5,0.1-0.7,0.3l-1.4,2.1l-1.2-2.2c-0.1-0.2-0.4-0.4-0.7-0.3h-2.6c-2.1-0.1-3.9,1.5-4.1,3.6c0,0.1,0,6.9,0,7.2
				c0.1,1.3,1.2,2.3,2.5,2.2l0,0c0.3,0,0.7-0.1,1-0.2v2.2c-3,2.7-4.7,6.4-4.8,10.4c0,8.3,7.7,15.1,17.2,15.1c4.2,0,8.3-1.4,11.6-4
				l1.9,1.7l-1.2,1c-0.3,0.2-0.3,0.6-0.1,0.9l0.1,0.1l5.1,4.5c1.3,1.1,3.2,1.1,4.5,0c1.1-0.9,1.2-2.5,0.3-3.6
				C167.8,696.4,167.7,696.4,167.6,696.3z M152.3,662.5c0-0.4-0.4-0.7-0.8-0.7l0,0c-0.4,0-0.7,0.3-0.7,0.7c0,0,0,0,0,0
				c0,0.4-0.4,0.7-0.8,0.7c-0.4,0-0.8-0.3-0.8-0.7c0,0,0,0,0,0l0,0c0,0,0-6.2,0-6.3c0.1-1.1,1-1.9,2.1-1.9c0,0,0,0,0,0h1.9l1.5,2.4
				c0.2,0.3,0.6,0.4,1,0.3c0.1-0.1,0.2-0.1,0.3-0.3l1.6-2.4h2c1.1,0.1,1.9,0.9,1.9,2l0,0l0,0c0,0,0,0,0,0.1v6
				c-0.1,0.4-0.4,0.7-0.9,0.7c-0.4,0-0.6-0.3-0.7-0.7l0,0c0-0.4-0.4-0.7-0.8-0.7l0,0c-0.4,0-0.7,0.3-0.8,0.7v0.5l-0.2,7.5
				c-1.7-1.6-3.7-2.8-5.9-3.6L152.3,662.5z M133.1,666.2c0,0.5-0.5,0.9-1,0.9c-0.5,0-1-0.3-1-0.9c0,0,0,0,0,0l0,0c0-0.1,0-7.1,0-7.2
				c0.1-1.3,1.2-2.3,2.6-2.2h2.2l1.8,2.8c0.1,0.2,0.4,0.4,0.7,0.3l0,0c0.3,0,0.5-0.1,0.7-0.3l1.9-2.8c1,0,2.2,0,2.4,0
				c1.3,0,2.3,1.1,2.3,2.4c0,0,0,0,0,0v6.5c-3.8,0-7.6,1.2-10.7,3.5l-0.1-2.4v-0.6c0-0.4-0.4-0.7-0.9-0.7
				C133.5,665.5,133.2,665.8,133.1,666.2L133.1,666.2z M145.6,694.6c-8.6,0-15.6-6.1-15.6-13.7s7-13.7,15.6-13.7s15.6,6.1,15.6,13.7
				S154.2,694.6,145.6,694.6z M166.5,699.3c-0.7,0.6-1.6,0.6-2.3,0l-4.6-4l2.3-2l4.6,4c0.6,0.5,0.6,1.3,0.2,1.9l0,0
				C166.6,699.2,166.6,699.2,166.5,699.3z"/>
			<path id="Path_675" class="st1" d="M150.9,685.7h2.6c0.4,0,0.7-0.3,0.8-0.7v-9c0-0.4-0.4-0.7-0.8-0.7h-2.6
				c-0.4,0-0.7,0.3-0.8,0.7v9C150.1,685.4,150.5,685.7,150.9,685.7z M151.7,676.7h1v7.6h-1V676.7z"/>
			<path id="Path_676" class="st1" d="M140.6,685.7h2.6c0.4,0,0.8-0.2,0.8-0.6c0,0,0,0,0-0.1v-2.6c0-0.4-0.4-0.7-0.8-0.7h-2.6
				c-0.4,0-0.7,0.3-0.8,0.7v2.6C139.9,685.4,140.2,685.7,140.6,685.7z M141.4,683.1h1v1.3h-1V683.1z"/>
			<path id="Path_677" class="st1" d="M145.8,685.7h2.6c0.4,0,0.7-0.3,0.8-0.7v-6c0-0.4-0.4-0.7-0.8-0.7h-2.6
				c-0.4,0-0.7,0.3-0.8,0.7v6C145,685.4,145.4,685.7,145.8,685.7C145.8,685.7,145.8,685.7,145.8,685.7z M146.5,679.7h1v4.6h-1V679.7
				z"/>
			<path id="Path_678" class="st1" d="M153.5,686.5h-14.4v-9.8c-0.1-0.4-0.4-0.7-0.9-0.7c0,0,0,0,0,0c-0.3,0-0.6,0.3-0.7,0.7v10.4
				c0,0.4,0.3,0.7,0.7,0.7c0,0,0,0,0,0h15.2c0.4,0,0.7-0.2,0.8-0.6c0-0.4-0.2-0.7-0.6-0.8L153.5,686.5L153.5,686.5z"/>
		</g>
	</g>
	<g id="safe">
		<path id="Path_679" class="st0" d="M134.4,864.6v-14.7L113,839l-21.5,10.9v14.4c0,9,4.4,17.4,11.9,22.5l9.6,6.5l7.4-5
			c4,5.2,10.9,7.1,17,4.6c7.6-3.2,11.2-11.9,8-19.5C143.5,868.9,139.4,865.6,134.4,864.6L134.4,864.6z M113,891.2l-8.7-5.9
			c-7-4.7-11.1-12.6-11.1-21V851l19.8-10l19.8,10v13.5c-0.3,0-0.6,0-0.9,0s-0.6,0-0.9,0V852l-18-9.2L95,852v12.3
			c0,7.8,3.9,15.2,10.3,19.6l7.7,5.2l5.6-3.8c0.2,0.5,0.5,1.1,0.8,1.5L113,891.2z M118,883.7l-5,3.3l-6.8-4.6l-1-0.7V874h-1.7v6.3
			c-0.9-0.9-1.8-1.9-2.6-2.9v-5.1c0-1.2,0.8-2.3,2-2.5l5.8-1.5c0.2,1.9,1.6,3.4,3.4,3.8v3.6h1.7v-3.6c1.8-0.4,3.2-1.9,3.4-3.8l3.8,1
			C117.6,873.3,116.4,878.7,118,883.7L118,883.7z M108.7,857.4h2.4c1.3,0,2.6-0.3,3.8-0.9h0.2l2.2,2.9v3.6l-2.9,2.2h-2.9l-2.9-2.2
			L108.7,857.4z M107,855.7c0.2-1.1,0.9-2,1.8-2.5c1.9-0.8,4-1,6-0.4l0.2,0.3h1.3c0.5,0,0.9,0.4,0.9,0.9c0,0,0,0,0,0l0,0v2.6
			l-1.2-1.7h-1.5l-0.2,0.1c-1,0.5-2.1,0.8-3.3,0.8L107,855.7z M115.5,866.6v1.3c0,1.4-1.2,2.5-2.7,2.5c-1.3,0-2.4-1.1-2.5-2.4v-1.4
			l0.6,0.4h4L115.5,866.6z M117.2,866.6v-1.3l1.7-1.3v-10c0-1.4-1.1-2.6-2.6-2.6c0,0,0,0,0,0h-0.6c-2.1-0.8-4.4-0.9-6.5-0.2
			c-2.5,0.6-4.2,2.9-4.1,5.5v0.9h1.8v6.5l1.7,1.3v1.3l-6.2,1.6c-1.9,0.5-3.3,2.2-3.3,4.2v2.4c-1.7-3.2-2.6-6.7-2.6-10.3v-11.3
			l16.3-8.3l16.3,8.3v11.5c-2.5,0.5-4.9,1.6-6.8,3.2L117.2,866.6z M131.8,892.3c-7.2,0.1-13.2-5.7-13.2-12.9s5.7-13.2,12.9-13.2
			c7.2-0.1,13.1,5.6,13.2,12.8l0,0v0.2C144.8,886.4,139,892.2,131.8,892.3L131.8,892.3z"/>
		<path id="Path_680" class="st0" d="M136.2,853.9h10.3v1.7h-10.3V853.9z"/>
		<path id="Path_681" class="st0" d="M136.2,857.4h6.9v1.7h-6.9V857.4z"/>
		<path id="Path_682" class="st0" d="M136.2,860.9h3.4v1.7h-3.4V860.9z"/>
		<path id="Path_683" class="st0" d="M128.7,878.6l-3-3.1l-4.9,4.9l7.9,8l13.4-13.5l-4.9-4.9L128.7,878.6z M128.7,886l-5.5-5.5
			l2.4-2.5l3,3.1l8.5-8.6l2.4,2.5L128.7,886z"/>
	</g>
	<g id="action">
		<path id="Path_684" class="st2" d="M62.3,1064.6c2.1,0.2,4.1-1.1,4.9-3.1c0.3-2-1-3.9-3-4.3c-2.1-0.7-4.4-0.2-6,1.4
			c-1.2,1.3-1.1,3.4,0.2,4.5c0,0,0,0,0,0c0.1,0.1,0.2,0.2,0.4,0.3C59.8,1064.2,61,1064.6,62.3,1064.6L62.3,1064.6z M60,1059
			c1.4-1,3.2-1,4.6,0c1,0.7,1.2,2,0.6,3c-0.2,0.2-0.3,0.4-0.6,0.6c-1.4,1-3.2,1-4.6,0c-1-0.6-1.3-1.9-0.6-2.9c0,0,0,0,0,0
			C59.6,1059.4,59.8,1059.2,60,1059z"/>
		<path id="Path_685" class="st2" d="M58.8,1073.7c-1.5,1-1.9,3-0.9,4.5c0,0,0,0,0,0c0.2,0.3,0.5,0.7,0.9,0.9c2.1,1.5,4.9,1.5,7,0
			c1.5-1,1.9-3,0.9-4.5l0,0c-0.2-0.4-0.5-0.7-0.9-0.9C63.8,1072.2,60.9,1072.2,58.8,1073.7z M64.6,1078.2c-1.4,1-3.2,1-4.5,0
			c-1-0.6-1.3-2-0.6-2.9c0,0,0,0,0-0.1l0,0c0.2-0.2,0.3-0.4,0.6-0.6c1.4-1,3.2-1,4.5,0c1,0.6,1.3,2,0.6,2.9c0,0,0,0,0,0.1l0,0
			C65.1,1077.9,64.9,1078.1,64.6,1078.2z"/>
		<path id="Path_686" class="st2" d="M72.4,1072.4c2.1,0.2,4.1-1.1,4.8-3.1c0.3-2-1-3.9-3-4.3c-2.1-0.7-4.4-0.2-6,1.4
			c-1.2,1.3-1.1,3.4,0.3,4.6c0.1,0.1,0.2,0.2,0.4,0.3C69.9,1072.1,71.2,1072.5,72.4,1072.4z M70.2,1066.8c1.4-1,3.2-1,4.6,0
			c1,0.6,1.3,1.9,0.6,2.9c0,0,0,0.1-0.1,0.1l0,0c-0.2,0.2-0.3,0.4-0.6,0.6c-1.4,1-3.2,1-4.6,0c-1-0.6-1.2-2-0.6-2.9
			C69.7,1067.2,69.9,1067,70.2,1066.8z"/>
		<path id="Path_687" class="st2" d="M48.7,1071.3c2.1,1.5,4.9,1.5,7,0c1.5-1,1.9-3,0.9-4.5c-0.2-0.4-0.5-0.7-0.9-0.9
			c-2.1-1.5-4.9-1.5-7,0c-1.5,1-1.9,3-0.9,4.5c0,0,0,0,0,0C48.1,1070.7,48.4,1071,48.7,1071.3z M49.9,1066.8c1.4-1,3.2-1,4.5,0
			c1,0.7,1.3,2,0.6,3c0,0,0,0,0,0c-0.2,0.2-0.4,0.4-0.6,0.6c-1.4,1-3.2,1-4.5,0c-1-0.6-1.2-2-0.6-2.9c0,0,0,0,0,0l0,0
			C49.5,1067.2,49.7,1067,49.9,1066.8L49.9,1066.8z"/>
		<path id="Path_688" class="st2" d="M62.3,1071.6c1.7,0.1,3.2-0.9,3.8-2.4c0.2-1.6-0.8-3.1-2.3-3.4c-1.7-0.6-3.5-0.1-4.8,1.1
			c-0.9,1-0.9,2.6,0.2,3.6c0,0,0,0,0,0c0.1,0.1,0.2,0.2,0.3,0.2C60.3,1071.3,61.3,1071.7,62.3,1071.6z M60.8,1067.4
			c0.9-0.7,2.2-0.7,3.1,0c0.7,0.4,0.8,1.3,0.4,2l0,0c-0.1,0.2-0.2,0.3-0.4,0.4c-0.9,0.7-2.2,0.7-3.1,0c-0.7-0.4-0.8-1.3-0.4-2l0,0
			C60.5,1067.6,60.6,1067.5,60.8,1067.4L60.8,1067.4z"/>
		<path id="Path_689" class="st2" d="M71.2,1081.3h-1.1c8.3-3,12.4-10.4,9.5-17.2s-11.8-10.8-20.8-9.4v-4c0.3-2.9-2.4-5.5-6.1-5.8
			h-5.3l0,0c-0.3,0-0.6,0.1-0.8,0.3l-3,4l-2.8-4c-0.2-0.2-0.5-0.4-0.8-0.3h-4.7c-3.8,0-6.8,2.4-6.8,5.3c0,0.2,0,11,0,11.4
			c0.3,1.9,2,3.3,4,3.1l0,0c0.8,0,1.6-0.2,2.3-0.6l0.8,20.8l0,0c0.3,1.2,1.4,2,2.6,1.8H49c1.2,0.1,2.3-0.7,2.6-1.9c0,0,0,0,0-0.1v-5
			c3.3,1.8,7,2.8,10.7,2.7H63h0.2h8c4-0.1,7.9,1.4,10.8,4.1c0.3,0.3,0.8,0.4,1.2,0.1c0.3-0.1,0.4-0.5,0.3-0.8c0-0.1-0.1-0.1-0.1-0.2
			C80,1082.8,75.7,1081.1,71.2,1081.3L71.2,1081.3z M78.8,1068.5c0,7-7.3,12.8-16.4,12.8s-16.5-5.7-16.5-12.8s7.4-12.8,16.4-12.8
			S78.8,1061.5,78.8,1068.5z M49.9,1084.9c-0.1,0.4-0.5,0.7-0.9,0.6H38.4c-0.4,0-0.8-0.2-0.9-0.6l-0.9-22.4v-1
			c-0.1-0.4-0.5-0.7-0.9-0.7l0,0c-0.4,0-0.8,0.3-0.9,0.7c-0.1,1.1-1.1,2-2.3,1.9l0,0c-1.1,0.1-2.1-0.7-2.3-1.8c0-0.1,0-11.3,0-11.4
			c0-2.2,2.3-4,5.1-4h4.3l3.3,4.7c0.2,0.2,0.5,0.3,0.8,0.3c0.3,0,0.6-0.1,0.8-0.3l3.5-4.7h4.6c2.8,0.2,4.8,2.2,4.6,4.4
			c0,0,0,0,0,0.1v4.4c-6.2,1.5-10.9,5.4-12.4,10.3s0.5,10,5.3,13.5L49.9,1084.9z"/>
		<path id="Path_690" class="st2" d="M50.1,1038.9v-1.8c0-2.8-3-5.1-6.6-5.1s-6.6,2.3-6.6,5.1v1.8c0,2.8,3,5.1,6.6,5.1
			S50.1,1041.8,50.1,1038.9z M38.6,1038.9v-1.8c0-2.1,2.2-3.8,4.9-3.8s4.9,1.7,4.9,3.8v1.8c0,2.1-2.2,3.8-4.9,3.8
			S38.5,1041,38.6,1038.9L38.6,1038.9z"/>
	</g>
	<path id="Path_692" class="st3" d="M8.6,2C18,19.7,19.9,25.5,28.2,44.2 M71.6,136.2c12.6,33.6,23.3,65.4,31.8,101.8 M125.9,337.1
		c5.3,34.1,7.9,57.8,10.4,93 M143.3,531.9c2.2,34.3,2.6,56.9,0.4,91.2 M139.8,723.9c-3.1,35.2-6.3,58.7-12.8,92.8 M104.4,914.7
		c-9,37.9-16.8,62.1-30,97.1 M29.8,1103c-8.3,18.7-14.7,31.3-24.1,49"/>
	<path id="Path_710" class="st4" d="M101.8,95h169"/>
	<line id="Line_22" class="st5" x1="165.1" y1="287.5" x2="334.1" y2="287.8"/>
	<path id="Path_713" class="st4" d="M191,480.6h169"/>
	<line id="Line_24" class="st5" x1="193.8" y1="673.5" x2="362.8" y2="673.4"/>
	<line id="Line_25" class="st5" x1="170.7" y1="866.5" x2="339.7" y2="866.2"/>
	<line id="Line_26" class="st5" x1="108.1" y1="1059.1" x2="277.1" y2="1059.1"/>
	<path id="Path_693" class="st5" d="M52,139.5c27.6,0,50-22.4,50-50s-22.4-50-50-50S2,61.9,2,89.5l0,0
		C2.1,117.1,24.4,139.4,52,139.5z"/>
	<path id="Path_711" class="st5" d="M115,337.5c27.6,0,50-22.4,50-50s-22.4-50-50-50s-50,22.4-50,50l0,0l0,0
		C65.1,315.1,87.4,337.4,115,337.5z"/>
	<path id="Path_712" class="st5" d="M139,530.5c27.6,0,50-22.4,50-50s-22.4-50-50-50s-50,22.4-50,50l0,0l0,0
		C89.1,508.1,111.4,530.4,139,530.5z"/>
	<path id="Path_714" class="st5" d="M141,723.5c27.6,0,50-22.4,50-50s-22.4-50-50-50s-50,22.4-50,50l0,0l0,0
		C91.1,701.1,113.4,723.4,141,723.5z"/>
	<path id="Path_715" class="st5" d="M119,916.5c27.6,0,50-22.4,50-50s-22.4-50-50-50s-50,22.4-50,50l0,0l0,0
		C69.1,894.1,91.4,916.4,119,916.5z"/>
	<path id="Path_716" class="st5" d="M56,1109.5c27.6,0,50-22.4,50-50s-22.4-50-50-50s-50,22.4-50,50l0,0
		C6.1,1087.1,28.4,1109.4,56,1109.5z"/>
	<g id="Group_21">
		<g id="Group_18">
			<path id="Path_700" class="st0" d="M164.3,453c1.4,0.4,2.4,1.7,2.1,3.2v11.9c0,0.9-0.3,1.7-0.9,2.3c-0.5,0.5-1.2,0.7-1.9,0.7
				h-4.4c-0.7-0.1-1.4-0.1-2.1,0h-3.5c-1.4,0-2.7,0-4,0c-0.7-0.1-1.4-0.1-2.1,0c-0.9,0-1.9-0.1-2.8,0c-1.2,0.1-2.4-0.5-2.8-1.7
				c-0.2-0.6-0.2-1.2-0.2-1.8c0-0.4,0-0.8,0-1.2c0-0.2-0.1-0.4-0.3-0.5c-1.3-0.7-2.7-1.3-4-2c-0.4-0.3-0.7-0.6-0.9-1.1
				c-0.3-1,0.3-2.1,1.3-2.4c1.1-0.6,2.2-1.1,3.3-1.7c0.3-0.1,0.6-0.4,0.5-0.8c0-0.7,0-1.5,0-2.3c0-1,0.6-1.9,1.5-2.4
				c0.1-0.1,0.4-0.1,0.4-0.3L164.3,453z M164.8,465.7V456c0-0.9-0.3-1.3-1.1-1.3h-17.3h-2c-0.5-0.1-1,0.3-1.1,0.8c0,0.1,0,0.1,0,0.2
				c0,0.7,0,1.4,0,2.1c0,0.2,0,0.5,0,0.7c0.1,0.6-0.2,1.2-0.8,1.4c-0.9,0.4-1.8,0.9-2.6,1.4l-1.9,1l0.8,0.4c1.3,0.7,2.6,1.4,3.9,2
				c0.4,0.2,0.6,0.5,0.7,0.9v2c0,0.3,0,0.6,0,0.9c0,0.5,0.4,0.9,0.9,0.9c0,0,0,0,0,0l0,0c1.8,0,3.6,0,5.3,0c0.7,0,1.3,0,2,0
				c0.9,0,1.8,0,2.7,0c1.6,0,3.3,0,4.9,0c0.7,0.1,1.3,0.1,2,0h2.4c0.5,0.1,1-0.3,1.1-0.8c0-0.1,0-0.2,0-0.3
				C164.8,467.4,164.8,466.5,164.8,465.7z"/>
		</g>
		<g id="Group_19">
			<path id="Path_701" class="st0" d="M147.9,462.9c-0.5,0-0.9-0.3-1-0.8c0.1-0.7,0.2-0.9,0.9-1h11.9h1c0.4,0,0.8,0.3,0.8,0.8
				c0,0,0,0,0,0v0.1c0,0.4-0.3,0.8-0.7,0.9l0,0c-0.6,0-1.1,0-1.7,0h-1.5L147.9,462.9L147.9,462.9z"/>
			<path id="Path_702" class="st0" d="M153.8,466.7h-2.1H148c-0.7,0-1.1-0.3-1.1-0.9s0.3-0.9,1-0.9h5.8c0.7,0,1.3,0,2,0.1
				c0.4,0.2,0.5,0.7,0.3,1.1c-0.2,0.5-0.6,0.5-1,0.5S154.3,466.7,153.8,466.7z"/>
			<path id="Path_703" class="st0" d="M151.8,457.3c0.7,0,1.3,0,2,0h6.4c0.3,0,0.6,0,0.9,0.1c0.3,0.3,0.5,0.7,0.3,1.1
				c-0.2,0.5-0.6,0.5-1,0.5h-1.1c-2.5,0-5,0-7.5,0c-0.8,0-1.5,0-2.3,0h-1.6c-0.7,0-1-0.3-1-0.9s0.3-0.9,1-0.9h3.6L151.8,457.3z"/>
		</g>
		<g id="Group_20">
			<path id="Path_704" class="st0" d="M147.9,462.9c-0.5,0-0.9-0.3-1-0.8c0.1-0.7,0.2-0.9,0.9-1h11.9h1c0.4,0,0.8,0.3,0.8,0.8
				c0,0,0,0,0,0v0.1c0,0.4-0.3,0.8-0.7,0.9l0,0c-0.6,0-1.1,0-1.7,0h-1.5L147.9,462.9L147.9,462.9z"/>
			<path id="Path_705" class="st0" d="M153.8,466.7h-2.1H148c-0.7,0-1.1-0.3-1.1-0.9s0.3-0.9,1-0.9h5.8c0.7,0,1.3,0,2,0.1
				c0.4,0.2,0.5,0.7,0.3,1.1c-0.2,0.5-0.6,0.5-1,0.5S154.3,466.7,153.8,466.7z"/>
			<path id="Path_706" class="st0" d="M151.8,457.3c0.7,0,1.3,0,2,0h6.4c0.3,0,0.6,0,0.9,0.1c0.3,0.3,0.5,0.7,0.3,1.1
				c-0.2,0.5-0.6,0.5-1,0.5h-1.1c-2.5,0-5,0-7.5,0c-0.8,0-1.5,0-2.3,0h-1.6c-0.7,0-1-0.3-1-0.9s0.3-0.9,1-0.9h3.6L151.8,457.3z"/>
		</g>
		<path id="Path_707" class="st0" d="M147.1,490.9c0.1-0.2,0-0.5-0.2-0.7c-1.3-1.2-2-2.8-2.1-4.5v-2.1c0-1.1,0-2.2,0.1-3.3
			c0.1-2.9,2.1-5.3,4.9-5.9c1.4-0.3,2.9-0.3,4.3,0l1.5,0.6c1.5,0.9,2.6,2.4,3,4.1l0.2,1.9c0,1.4,0,2.7,0,4.1c0.1,2-0.7,3.9-2.1,5.2
			c-0.2,0.2-0.3,0.4-0.1,0.6l0.2,1.9c-0.1,0.9,0.3,1.4,1.2,1.6c1.3,0.4,2.5,0.9,3.7,1.3c0.4,0.2,0.8,0.4,1.3,0.5
			c1.9,0.7,3.3,2.4,3.5,4.5c0.1,0.9,0.1,1.9,0,2.8c0,1.1,0,2.3,0,3.4c0,0.7-0.3,1.1-0.9,1.1s-0.8-0.4-0.9-1.1c0-0.9,0-1.7,0-2.6v-2
			c0.1-0.7,0-1.4-0.1-2.1c-0.4-1.3-1.5-2.3-2.9-2.6c-0.5-0.2-1-0.4-1.4-0.5c-1.9-0.8-3.8-1.5-5.8-2.1c-0.6-0.2-1.2-0.3-1.8-0.3
			c-1.5-0.2-3.1-0.1-4.6,0.4c-2,0.7-3.9,1.6-5.8,2.4c-0.4,0.1-0.7,0.3-1.1,0.4c-1.2,0.5-2,1.6-2.1,2.8c-0.1,1.9,0,3.8-0.1,5.7
			c0,0.2,0,0.4,0,0.6c0,0.5-0.4,0.9-0.9,0.9l0,0c-0.5,0-0.8-0.4-0.8-0.9c0,0,0,0,0,0c0-1.3,0-2.5,0-3.8c0-0.1,0-0.2,0-0.3v-2.1
			c0.2-2.1,1.6-3.9,3.6-4.6c0.6-0.2,1.2-0.5,1.8-0.8l4-1.6c0.1,0,0.2-0.2,0.2-0.3C147,492.7,147.1,491.8,147.1,490.9z M146.6,481.5
			v2c0,0.8-0.1,1.6,0,2.4c0.1,1.4,0.8,2.7,2,3.5c0.6,0.4,1.3,0.2,1.9,0.2c1,0,2,0,3.1,0c1,0.1,2-0.4,2.5-1.3
			c0.4-0.5,0.6-1.1,0.8-1.7c0.2-1.2,0.3-2.4,0.2-3.6v-2.1c0-0.4,0-0.8-0.1-1.2c-0.2-1.6-1.3-3-2.8-3.6c-0.6-0.3-1.2-0.4-1.9-0.4
			c-2.7-0.5-5.2,1.3-5.7,4C146.5,480.3,146.5,480.9,146.6,481.5L146.6,481.5z M151.8,491.3h-2c-0.9,0-1,0-1,1c0,0.2,0,0.4-0.1,0.6
			s0.1,0.3,0.3,0.3c1.9-0.3,3.9-0.3,5.8,0.2c0.3,0.1,0.3,0,0.3-0.3c-0.1-0.4-0.1-0.8-0.1-1.2c0-0.5-0.3-0.6-0.7-0.6
			C153.5,491.3,152.7,491.3,151.8,491.3L151.8,491.3z"/>
		<path id="Path_708" class="st0" d="M147.1,490.9c0.1-0.2,0-0.5-0.2-0.7c-1.3-1.2-2-2.8-2.1-4.5v-2.1c0-1.1,0-2.2,0.1-3.3
			c0.1-2.9,2.1-5.3,4.9-5.9c1.4-0.3,2.9-0.3,4.3,0l1.5,0.6c1.5,0.9,2.6,2.4,3,4.1l0.2,1.9c0,1.4,0,2.7,0,4.1c0.1,2-0.7,3.9-2.1,5.2
			c-0.2,0.2-0.3,0.4-0.1,0.6l0.2,1.9c-0.1,0.9,0.3,1.4,1.2,1.6c1.3,0.4,2.5,0.9,3.7,1.3c0.4,0.2,0.8,0.4,1.3,0.5
			c1.9,0.7,3.3,2.4,3.5,4.5c0.1,0.9,0.1,1.9,0,2.8c0,1.1,0,2.3,0,3.4c0,0.7-0.3,1.1-0.9,1.1s-0.8-0.4-0.9-1.1c0-0.9,0-1.7,0-2.6v-2
			c0.1-0.7,0-1.4-0.1-2.1c-0.4-1.3-1.5-2.3-2.9-2.6c-0.5-0.2-1-0.4-1.4-0.5c-1.9-0.8-3.8-1.5-5.8-2.1c-0.6-0.2-1.2-0.3-1.8-0.3
			c-1.5-0.2-3.1-0.1-4.6,0.4c-2,0.7-3.9,1.6-5.8,2.4c-0.4,0.1-0.7,0.3-1.1,0.4c-1.2,0.5-2,1.6-2.1,2.8c-0.1,1.9,0,3.8-0.1,5.7
			c0,0.2,0,0.4,0,0.6c0,0.5-0.4,0.9-0.9,0.9l0,0c-0.5,0-0.8-0.4-0.8-0.9c0,0,0,0,0,0c0-1.3,0-2.5,0-3.8c0-0.1,0-0.2,0-0.3v-2.1
			c0.2-2.1,1.6-3.9,3.6-4.6c0.6-0.2,1.2-0.5,1.8-0.8l4-1.6c0.1,0,0.2-0.2,0.2-0.3C147,492.7,147.1,491.8,147.1,490.9z M146.6,481.5
			v2c0,0.8-0.1,1.6,0,2.4c0.1,1.4,0.8,2.7,2,3.5c0.6,0.4,1.3,0.2,1.9,0.2c1,0,2,0,3.1,0c1,0.1,2-0.4,2.5-1.3
			c0.4-0.5,0.6-1.1,0.8-1.7c0.2-1.2,0.3-2.4,0.2-3.6v-2.1c0-0.4,0-0.8-0.1-1.2c-0.2-1.6-1.3-3-2.8-3.6c-0.6-0.3-1.2-0.4-1.9-0.4
			c-2.7-0.5-5.2,1.3-5.7,4C146.5,480.3,146.5,480.9,146.6,481.5L146.6,481.5z M151.8,491.3h-2c-0.9,0-1,0-1,1c0,0.2,0,0.4-0.1,0.6
			s0.1,0.3,0.3,0.3c1.9-0.3,3.9-0.3,5.8,0.2c0.3,0.1,0.3,0,0.3-0.3c-0.1-0.4-0.1-0.8-0.1-1.2c0-0.5-0.3-0.6-0.7-0.6
			C153.5,491.3,152.7,491.3,151.8,491.3L151.8,491.3z"/>
		<path id="Path_709" class="st0" d="M123.2,495.2c-1.7,0-3.4,0-5.1,0c-0.6,0-1.2-0.1-1.8-0.5c-0.4-0.3-0.7-0.8-0.8-1.3
			c-0.2-0.7-0.3-1.3-0.5-2s0.2-1.2,1-1.2h2.8c0.4,0,0.8,0,1.3,0c0.2,0,0.3-0.1,0.3-0.3c0.1-0.5,0.2-1,0.2-1.5c0.4-2,0.7-4,1.1-6
			c0.1-1.1,0.8-2,1.8-2.4c0.2-0.1,0.3-0.1,0.3-0.3c0-0.6,0-1.3,0-1.9c0-0.6,0-1.1,0-1.7l-2.7,1.9c-0.7,0.1-1-0.1-1.2-0.7
			c-0.4-1.4-0.9-2.7-1.3-4c0-0.3-0.2-0.2-0.4-0.1c-1.1,0.5-2.2,0.9-3.2,1.4c-0.8,0.4-1.5,1.1-1.7,2.1c-0.1,0.6-0.1,1.1-0.1,1.7v9.7
			c0,0.5-0.1,0.9-0.6,1s-0.8-0.2-1.1-0.5v-12c0.1,0,0.1-0.2,0.1-0.3c0.4-1.6,1.5-2.8,3-3.4c1.2-0.5,2.3-1,3.5-1.5
			c0.7-0.4,1.3-0.9,1.8-1.4c0.1-0.1,0.1-0.2,0.1-0.3c0.1-0.5,0.2-1.1,0.2-1.6c0-0.1,0-0.3-0.1-0.4c-1-1-1.7-2.3-1.9-3.7
			c0-0.7,0-1.4,0-2c0-1,0-2,0-3c0-2.7,1.9-5.1,4.6-5.6c0.1,0,0.3,0,0.4-0.2h2.3c0.5,0.1,1.1,0.3,1.6,0.5c2.1,0.8,3.6,2.8,3.7,5.1v2
			c0,0.9,0,1.9,0,2.8c0,1.3-0.5,2.6-1.4,3.5c-0.5,0.5-0.7,1.2-0.5,1.9c0,0.2,0.1,0.4,0.1,0.6c0,0.2,0,0.4,0.2,0.4
			c0.4,0.4,0.8,0.7,1.2,1.1c0.1,0.2,0.4,0.2,0.6,0.3c1.5,0.7,3.1,1.3,4.6,2.1l1.1,1.1c0.3,0.5,0.6,1.1,0.8,1.7
			c0.1,0.8,0.2,1.7,0.1,2.5c0,1.3,0,1.3,1.3,1.1c0.5,0,1.1,0.2,1.5,0.5c0.6,0.6,0.9,1.6,0.6,2.4c-0.3,1.7-0.6,3.5-0.9,5.2l-0.4,2.6
			c-0.1,0.8-0.3,1.5-0.4,2.3c-0.3,1.4-1.5,2.4-2.9,2.4h-1.4L123.2,495.2L123.2,495.2z M117.4,493.4c0.6,0.1,1.3,0.1,1.9,0.1
			c0.4,0,0.7,0,0.6-0.6c-0.1-0.3,0.3-0.8-0.1-1s-0.7,0-1,0h-1.6c-0.1,0-0.3,0-0.2,0.2C117.1,492.6,117.1,493.1,117.4,493.4
			L117.4,493.4z M126.6,474.8l1.3,1l1-3.3c0.3-0.5-0.2-0.7-0.4-0.9s-0.4,0.1-0.5,0.3c-0.5,0.5-1,1.1-1.5,1.7
			S125.8,474.3,126.6,474.8L126.6,474.8z M124.9,454.7c-0.5-0.1-1,0-1.6,0.1c-1.6,0.3-2.9,1.5-3.3,3.1c-0.2,0.6-0.1,0.7,0.5,0.7
			c0.8,0,1.5-0.5,1.8-1.3c0.1-0.4,0.6-0.7,1-0.7c0.5,0.1,0.6,0.5,0.8,0.9c0.7,1.5,2.4,2.4,4.1,2.1c0.8-0.1,0.8-0.1,0.8-0.9
			c0-1.6-1-3-2.5-3.6C126.1,454.9,125.5,454.7,124.9,454.7z M135.4,475.7c-0.2-0.5-0.7-0.9-1.2-1.1c-1.1-0.6-2.2-1-3.3-1.5
			c-0.3-0.1-0.4-0.1-0.5,0.2c-0.4,1.3-0.8,2.6-1.2,3.9c-0.3,0.9-0.8,1.1-1.6,0.5l-2.2-1.6v3.5c0,0.2,0.1,0.3,0.3,0.3h3.5
			c0.7,0.1,1.4,0.1,2.1,0h4.3c0.3,0,0.3-0.2,0.3-0.3c0-0.8,0-1.6,0-2.4C135.9,476.6,135.7,476.1,135.4,475.7L135.4,475.7z
			 M122.9,485.9c-0.2,0.8-0.4,1.6-0.4,2.5c-0.3,1.5-0.6,3-0.8,4.5c-0.1,0.3,0.1,0.6,0.4,0.7c0.1,0,0.2,0,0.2,0h3h9.7
			c0.5,0,0.9,0,1.4,0c0.6,0,1.1-0.4,1.2-1c0.2-0.7,0.3-1.3,0.3-2c0-0.1,0.1-0.1,0.1-0.2c0.3-1.6,0.6-3.3,0.9-4.9
			c0.2-1.1,0.4-2.2,0.6-3.3c0.1-0.4,0.1-0.7-0.4-0.6c-0.7-0.1-1.3-0.1-2,0h-2.6c-1.7,0-3.4,0-5,0c-0.7,0-1.3,0-2,0
			c-0.9,0-1.8,0-2.7,0c-0.5,0-0.9,0.3-1,0.8C123.3,483.5,123.2,484.7,122.9,485.9L122.9,485.9z M129.1,462.7c0-0.1,0-0.2,0-0.3
			c0-1.1,0-1.1-1.1-1c-1.9,0.1-3.6-0.7-4.8-2.2c-0.5,0.6-1.2,1-1.9,1.1c-0.4,0-1-0.2-1.3,0s-0.1,0.9-0.1,1.3s0,0.7,0,1.1
			c-0.1,1.8,0.9,3.5,2.4,4.4c0.4,0.4,1,0.6,1.5,0.6c0.7,0.1,1.4,0.1,2-0.2C127.9,466.6,129.3,464.9,129.1,462.7L129.1,462.7z
			 M127.2,469c-0.3,0.1-0.5,0.2-0.8,0.3c-1.4,0.4-2.8,0.4-4.1-0.2c-0.1,0-0.3-0.3-0.4,0s-0.3,0.7,0.1,1c0.8,0.9,1.6,1.8,2.3,2.6
			c0.2,0.2,0.3,0.3,0.5,0c0.7-0.8,1.3-1.5,2-2.3C127.3,470.2,127.5,469.6,127.2,469L127.2,469z M121.2,475.8
			c0.6-0.5,1.2-0.9,1.8-1.3c0.3-0.2,0.3-0.3,0.1-0.5c-0.7-0.7-1.3-1.5-2-2.2c-0.1-0.1-0.2-0.4-0.4-0.2s-0.7,0.3-0.6,0.8L121.2,475.8
			z M116.5,484.9v-2c0-0.1,0-0.3,0-0.4c0-0.8,0.4-1,1.3-0.9c0.4,0.3,0.5,0.8,0.4,1.3c0,1.7,0,3.4,0,5.1c0.1,0.4-0.1,0.8-0.5,1
			c-0.4,0.2-0.9,0-1.1-0.4c0,0,0,0,0,0c-0.1-0.1-0.1-0.3-0.1-0.4C116.5,487,116.5,486,116.5,484.9L116.5,484.9z M131.8,486.8
			c0.5,0.6,0.4,1.3-0.2,1.5c-0.4,0.1-0.8,0-1.1-0.3c-0.2-0.3-0.2-0.8,0.1-1.1C130.9,486.6,131.4,486.5,131.8,486.8L131.8,486.8z"/>
	</g>
	<g id="next">
		<g id="Group_22">
			<path id="Path_717" class="st6" d="M21.9,26.4l4-10.9c0.4-1-0.2-2.1-1.1-2.4c-1-0.4-2.1,0.2-2.4,1.1L19,23.3L9.9,20
				c-1-0.4-2.1,0.2-2.4,1.1c-0.3,1,0.2,2,1.1,2.4l10.9,4C20.4,27.9,21.5,27.4,21.9,26.4L21.9,26.4z M19.9,26.3L9.1,22.4
				c-0.3-0.1-0.4-0.4-0.3-0.7c0,0,0,0,0,0c0.1-0.3,0.4-0.4,0.7-0.3l9.7,3.5c0.3,0.1,0.7,0,0.8-0.4l0,0l3.5-9.7
				c0.1-0.3,0.4-0.4,0.7-0.4c0.3,0.1,0.4,0.3,0.4,0.6c0,0.1,0,0.1,0,0.1l-4,10.9c0,0.1-0.1,0.3-0.3,0.4C20.2,26.3,20,26.3,19.9,26.3
				L19.9,26.3z"/>
		</g>
	</g>
	<g id="next-2">
		<g id="Group_22-2">
			<path id="Path_717-2" class="st6" d="M92.5,191.7l4.9-10.5c0.4-1-0.1-2.1-1-2.5c-0.9-0.4-2,0-2.4,0.9l-4.1,8.7l-8.7-4.1
				c-1-0.4-2.1,0-2.5,0.9c0,0,0,0,0,0c-0.4,1,0,2.1,0.9,2.5l10.5,4.9C91,193,92.1,192.6,92.5,191.7L92.5,191.7z M90.5,191.4
				L80,186.6c-0.3-0.1-0.5-0.4-0.4-0.7c0.1-0.3,0.4-0.5,0.7-0.4c0.1,0,0.2,0.1,0.2,0.1l9.3,4.3c0.3,0.2,0.7,0,0.9-0.3l0,0l4.3-9.4
				c0.1-0.3,0.5-0.4,0.8-0.3c0.3,0.1,0.4,0.4,0.3,0.6c0,0,0,0.1-0.1,0.1l-4.9,10.5c-0.1,0.1-0.2,0.3-0.3,0.3
				C90.8,191.5,90.6,191.5,90.5,191.4L90.5,191.4z"/>
		</g>
	</g>
	<g id="next-3">
		<g id="Group_22-3">
			<path id="Path_717-3" class="st6" d="M134.5,389.2l6.8-9.4c0.6-0.9,0.3-2.1-0.5-2.6c-0.8-0.5-1.9-0.4-2.6,0.4l-5.7,7.8l-7.8-5.6
				c-0.9-0.6-2-0.4-2.7,0.4c-0.6,0.9-0.4,2,0.4,2.7l9.3,6.8C132.7,390.2,133.9,390,134.5,389.2L134.5,389.2z M132.7,388.5l-9.3-6.8
				c-0.3-0.2-0.3-0.5-0.1-0.8c0,0,0,0,0,0c0.2-0.3,0.5-0.3,0.8-0.1c0,0,0,0,0,0l8.3,6c0.3,0.2,0.7,0.2,0.9-0.1l0,0l6-8.4
				c0.2-0.2,0.5-0.3,0.8-0.1c0.2,0.1,0.3,0.4,0.2,0.7c0,0-0.1,0.1-0.1,0.1l-6.8,9.4c-0.1,0.1-0.2,0.2-0.4,0.3
				C133,388.6,132.7,388.6,132.7,388.5L132.7,388.5z"/>
		</g>
	</g>
	<g id="next-4">
		<g id="Group_22-4">
			<path id="Path_717-4" class="st6" d="M146.7,581.5l8.1-8.3c0.7-0.8,0.6-2-0.2-2.7c-0.7-0.6-1.8-0.6-2.5,0l-6.8,6.9l-6.9-6.7
				c-0.7-0.7-1.9-0.7-2.7,0c-0.7,0.8-0.7,1.9,0,2.7l8.3,8.1C144.8,582.2,145.9,582.2,146.7,581.5L146.7,581.5z M145,580.6l-8.3-8
				c-0.2-0.2-0.2-0.6,0-0.8c0.2-0.2,0.6-0.2,0.8,0l7.4,7.2c0.3,0.3,0.7,0.3,0.9,0c0,0,0,0,0,0l0,0l7.1-7.5c0.2-0.2,0.6-0.2,0.8,0
				c0.2,0.2,0.3,0.5,0.1,0.7l-0.1,0.1l-8.1,8.4c-0.1,0.1-0.2,0.2-0.4,0.2C145.3,580.7,145.1,580.6,145,580.6L145,580.6z"/>
		</g>
	</g>
	<g id="next-5">
		<g id="Group_22-5">
			<path id="Path_717-5" class="st6" d="M136,776.6l9.1-7.2c0.8-0.7,0.8-1.9,0.1-2.7c-0.6-0.7-1.7-0.8-2.4-0.3l-7.6,5.9l-5.9-7.6
				c-0.6-0.8-1.8-1-2.7-0.3c-0.8,0.7-0.9,1.8-0.3,2.7l7.1,9.2C134,777.1,135.2,777.3,136,776.6L136,776.6z M134.4,775.5l-7.1-9.1
				c-0.2-0.2-0.2-0.6,0.1-0.8c0,0,0,0,0,0c0.2-0.2,0.6-0.2,0.8,0.1l6.3,8.1c0.2,0.3,0.6,0.4,0.9,0.1c0,0,0,0,0,0l0,0l8.1-6.4
				c0.3-0.2,0.6-0.1,0.8,0.1c0.2,0.2,0.2,0.5,0,0.7c0,0,0,0,0,0l-0.1,0.1l-9.2,7.2c-0.1,0.1-0.3,0.2-0.4,0.2
				C134.6,775.7,134.4,775.6,134.4,775.5L134.4,775.5z"/>
		</g>
	</g>
	<g id="next-6">
		<g id="Group_22-6">
			<path id="Path_717-6" class="st6" d="M90.8,969.7l10.4-5.1c0.9-0.5,1.2-1.7,0.7-2.6c-0.5-0.8-1.5-1.2-2.4-0.8l-8.7,4.2l-4.2-8.7
				c-0.5-0.9-1.6-1.3-2.6-0.9c-0.9,0.5-1.3,1.6-0.9,2.5l5,10.4C88.7,969.7,89.8,970.1,90.8,969.7L90.8,969.7z M89.5,968.2l-5-10.4
				c-0.1-0.3,0.1-0.6,0.4-0.7c0.2-0.1,0.5,0,0.6,0.2l4.5,9.3c0.1,0.3,0.5,0.5,0.9,0.3c0,0,0,0,0,0l0,0l9.3-4.6
				c0.3-0.1,0.6,0,0.8,0.3c0.2,0.2,0.1,0.5-0.1,0.7l-0.1,0.1l-10.4,5.1c-0.1,0.1-0.3,0.1-0.4,0.1C89.7,968.4,89.5,968.3,89.5,968.2z
				"/>
		</g>
	</g>
	<g id="next-2-2">
		<g id="Group_23">
			<path id="Path_718" class="st6" d="M16,1134.8l16.3-5.3c0.8-0.3,1.2-1.1,1-1.9c0,0,0,0,0,0l-0.4-1.2c-0.2-0.8-1.1-1.2-1.9-1
				c0,0,0,0,0,0l-13.7,4.5l-4.4-13.7c-0.2-0.8-1.1-1.2-1.8-1c0,0,0,0,0,0l-1.2,0.4c-0.8,0.2-1.2,1.1-1,1.9c0,0,0,0,0,0l5.3,16.3
				C14.3,1134.7,15.2,1135.1,16,1134.8C16,1134.9,16,1134.9,16,1134.8L16,1134.8z"/>
		</g>
	</g>
</g>
</svg>
