<svg xmlns="http://www.w3.org/2000/svg" viewBox="0 0 283.33 296.86"><defs><style>.cls-1{fill:#3dc0df;}</style></defs><g id="Layer_2" data-name="Layer 2"><g id="Layer_1-2" data-name="Layer 1"><path class="cls-1" d="M198.35,201.42c-1.07.34-1.91.9-2.64.8-10.61-1.57-12.37,4.74-13.5,13.42-1.07,8.34-2.09,19.62,0,26.87a42.34,42.34,0,0,1-70.49,42,41.6,41.6,0,0,1-6.45-51.11c1.89-3.19,1.77-5.28-.21-8.26a30.78,30.78,0,0,1-5.37-16.81c0-4.79-2-6.18-6.37-5.52-2.67.41-5.25-.26-8.23-1.44-.84,9.58-2.2,18.83-7.93,26.74-1.36,1.87.49,3.27,1.32,4.72,10.57,18.51,6.95,40.62-8.85,54-15.4,13-38.26,13.33-53.68.7C-.49,274.05-4.72,252.65,5.59,234c1.6-2.9,2.38-5,.54-8.35-11.87-21.73-5.51-46,15.1-57.93C40.41,156.58,66,161.75,78.8,182.9c.65,1.09,1.38,2.13,3.16,4.84V167.92q0-21.51,0-43c0-26.46,13.57-41.54,40.76-44.37-15.21-9.4-23.68-22.2-23.36-39.79.2-11.64,5-21.39,13.46-29.23,18-16.74,46.16-14.93,61.33,3.64s13.92,48.32-12.22,64.53c.64,2.18,2.53,1.16,3.79,1.34,21.09,2.89,35.4,18.88,35.55,40.19.14,21.54,0,43.09,0,66.49,5.16-7.8,9.43-14,15.94-18.32,16.83-11.1,37.74-9.63,52.5,3.9a41.83,41.83,0,0,1,8,51.46c-2,3.55-2.05,5.88-.06,9.45,10.39,18.58,6,40.1-10.52,53.53-15.37,12.5-38.22,12.11-53.73-.92s-19.3-35.6-8.87-53.45c1.66-2.83,2-4.78.06-7.66C199.8,218.51,199.06,210.06,198.35,201.42Zm-14.77-51c0-9.71.06-19.41,0-29.12s-4.46-16.92-13.42-21c-3.61-1.62-7.38-3.14-9.95,2-1.13,2.28-3.82,3.08-6.27,3.16-3.09.09-3.44,1.71-3.43,4.25q.12,24.49,0,49c0,2.88.87,4.27,3.7,5.17A40.79,40.79,0,0,1,178,182.79c1,1.65,1.93,3,4.06,2.47,2.63-.66,1.5-2.89,1.51-4.4C183.64,170.72,183.59,160.57,183.58,150.42Zm-83.9-.09h0c0,10.13,0,20.27,0,30.41,0,1.53-1.06,3.74,1.44,4.47s3.43-1.25,4.45-3a39.62,39.62,0,0,1,22.15-17.85c4.33-1.4,5.08-3.58,5-7.59-.19-14.32-.13-28.64,0-43,.05-4.57.37-8.74-6-9a5.56,5.56,0,0,1-4.54-3.52c-1.34-3.14-3.49-2.64-6-2.07-9.49,2.14-16.24,10.51-16.53,21.27C99.47,130.49,99.68,140.41,99.68,150.33Zm166,104.2c0-13.07-11.33-24.42-24.48-24.59-13.4-.18-25.06,11.4-25,24.78.11,13,11.45,24.45,24.45,24.61C254,279.5,265.72,267.9,265.69,254.53ZM166.14,42c-.17-13.32-11.26-24.42-24.45-24.46a24.71,24.71,0,0,0-24.48,25c.14,13.29,11.23,24.4,24.4,24.45C155,67.06,166.32,55.57,166.14,42Zm0,212.73a24.46,24.46,0,1,0-24.94,24.61C154.59,279.66,166.05,268.34,166.14,254.73ZM67,254.48c-.09-13.08-11.41-24.43-24.48-24.54-13.42-.12-25,11.39-24.88,24.78s11.86,24.91,25.13,24.61C55.86,279,67.1,267.52,67,254.48Zm173.79-74.6c-17.35.09-29.19,17.53-22.71,33.3,1.29,3.13,2.36,4.64,6.21,2.81,10.95-5.21,22.25-5.07,33.19,0,4.2,1.93,5.34.22,6.61-3.09C270.2,197.05,258.05,179.79,240.8,179.88Zm-198.19,0C25.35,179.74,13.08,197,19.2,212.73c1.22,3.13,2.18,5.23,6.53,3.21a38.35,38.35,0,0,1,33.19,0c3.68,1.69,4.92.64,6.28-2.67C71.67,197.53,59.9,180,42.61,179.88Zm74.57,24.93c.12,1,.23,3,.6,5,1.36,7.2,2.35,7.68,9.3,5.16,10.36-3.76,20.79-3.78,30.78.9,4.44,2.09,5.84.53,6.93-3.3,2.83-9.9,1.32-18.79-6.33-26s-16.85-8.57-26.33-4.75C122.48,185.63,117.6,193.41,117.18,204.81Z"/></g></g></svg>