<svg id="twitter" xmlns="http://www.w3.org/2000/svg" width="30" height="30" viewBox="0 0 30 30">
  <g id="post-twitter">
    <path id="Path_722" data-name="Path 722" d="M27,0H3A3.009,3.009,0,0,0,0,3V27a3.009,3.009,0,0,0,3,3H27a3.009,3.009,0,0,0,3-3V3A3.009,3.009,0,0,0,27,0ZM23.55,10.95c-.15,6.9-4.5,11.7-11.1,12A10.918,10.918,0,0,1,6,21.15a7.963,7.963,0,0,0,5.85-1.65A4.052,4.052,0,0,1,8.1,16.65a6.05,6.05,0,0,0,1.65,0A4.086,4.086,0,0,1,6.6,12.6a3.024,3.024,0,0,0,1.65.45C6.9,12.3,6,9.45,7.05,7.65a11.886,11.886,0,0,0,8.25,4.2c-1.05-4.2,4.65-6.45,6.9-3.6a10.105,10.105,0,0,0,2.55-.9A4.241,4.241,0,0,1,23.1,9.6,8.6,8.6,0,0,0,25.2,9C25.05,9.75,24.3,10.35,23.55,10.95Z" fill="#fff"/>
  </g>
</svg>
