<svg xmlns="http://www.w3.org/2000/svg" xmlns:xlink="http://www.w3.org/1999/xlink" viewBox="0 0 986.16 384.28"><defs><style>.cls-1{fill:none;}.cls-2{clip-path:url(#clip-path);}.cls-3{fill:#e8e8e8;opacity:0.6;isolation:isolate;}</style><clipPath id="clip-path" transform="translate(-4.84 -46.78)"><rect class="cls-1" width="983" height="490.8"/></clipPath></defs><g id="Layer_2" data-name="Layer 2"><g id="Layer_1-2" data-name="Layer 1"><g class="cls-2"><path class="cls-3" d="M94.3,130.3c2,0,2.2.5,3.9,0s6.6-2.8,8.3-3.1,2.8.1.3,1.1-7.4,3.1-6.6,2.9,3.4-.9,7-2.1,3.2-.7,4.1-1.9l1.4-1.9s5.6,4.1,6.2,4.3.7,0,1-.5.9-1.2,1.7-1,.1,1.2.6,1.4a6.81,6.81,0,0,0,2.8-.4c1.5-.4.7-1.1.7-1.1s-.2,0,1.6-.1,7.1,1.3,8.7,1.8,6.4.8,7.8,1.1,1.9-.6,3.8.2,3.3,1.7,1.9,2.2-4.9.9-3.1,1.2a41.67,41.67,0,0,0,7.1.7c2.6,0,7.3-.7,8.7-.7s2.3.6,3.7,2.3a7,7,0,0,0,3,2.4c.5.1-.5-.8-.2-1.6a4.92,4.92,0,0,0-.6-2.9c-.3-.5,0-.8-.6-1.6s-1.7-.6.2-1.3,3.2-1.6,5.6-1.4,2.9,2.3,4.9,2.4,2.4.7,5.8.9,2,0,5.8.2,2.4-.3,3.2-1.7a2.63,2.63,0,0,1,2.6-1.6c.9.1,4.1.4,4.1.7s-1.4,1.8-.7,2.5a16.33,16.33,0,0,0,3.4,1.9s-.6-1.7-.6-1.9-.2-1.5.2-1.8,2.7.1,4.1-1.9-1-1.9-1-1.9-.9,0-.4-.8,3-1.3,3-1.3.2.4-.2-.3-2-.5-3.8-.6-3-.3-3.4-1.3a20.28,20.28,0,0,1-.4-4.9c0-1.6,1.8-1,2.1-1.9a17.25,17.25,0,0,0-.5-6c-.4-.9.6-2.8.9-4s2-.7,2-.7c-.3-.4.5-1.6,2.9-2.1a26.56,26.56,0,0,1,6.9,0s-.4,0-1.5,1.1-.4,2.9-2.1,4.2-5.9.9-5.9.9,1.3,2.1.8,2.8a6.67,6.67,0,0,0-.9,2.1s3.8.7,3.9,2.4,2.1,2,2.5,3.5-1.8,2.9-1.4,3.1a3.44,3.44,0,0,0,2,.4c1.4,0,3.2.2,3.2.2a1.23,1.23,0,0,0-.1,1.6c.7.8.2,1.4.2,2.3s.8,1.7,1.1,1.5a11.26,11.26,0,0,0,2.1-3.5c.3-1,.6-1.6,1.2-1.6a6.72,6.72,0,0,1,3,1.9c.2.5.4,1.2-.8,2.6s-1.1,2,0,2.5a17.6,17.6,0,0,0,3,1c1.9.6,1.5.6,2.7.3s-.5-2.3-.4-2.4,2.8-.3,2.2-1.3-1.2-1.6,0-2.1a23.08,23.08,0,0,0,2.1-1,8.21,8.21,0,0,1-1.6-2.5c-.9-1.8.8-1.3,4.2-1.1s3.6,1,5.4,1.7.7.9,1.3,2-1.5,1.2-1.5,1.2-1.4.2-1.1,1a14.86,14.86,0,0,0,2,3.1c1,1.3-.3,2.1-1.8,3.2a10.67,10.67,0,0,1-5.2,1.4c-1.8,0-2.6.6-2.8.2a2.09,2.09,0,0,0-2-.6c-1,.1-3.3.8-2.5,1s2.9.2,2,1.3-1.6,1.2-3.4,1-3.4-.1-4.5-.2l-6.6-.3a53,53,0,0,0,6.7,2.3,20.69,20.69,0,0,0,6.1.3s-1.2,1.6-2.6,3.3-2.8.9-4,1-1.9.8-4.1,1-6.9-.4-6.2-.2a6.31,6.31,0,0,0,2.3.8,7.34,7.34,0,0,1,3.2.9c1.1.7-.7.8-2.2,1a3.54,3.54,0,0,0-2.6,1l-4,4a6.48,6.48,0,0,0-1.8,3.7c-.3,1.6-2.2,3.4-1.4,3.8s4,.4,5.3,1,2.8,3.4,3.8,4.5,1.8,1.9,2.9,1.1,3.3-.6,5.4-.1a40.37,40.37,0,0,1,7.6,3.5c1.3.9,3.6.8,6.2,1s2.9,1,2.9,1,2.7.1,1.6.9-1.4,0-.3,1.4a4.67,4.67,0,0,1,.8,4.1c-.3.9,3.6.5,5.2,1.1s1.7,3.5,2.6,3.1,2.2-1,2.4-1.7a10.12,10.12,0,0,0-.2-3c-.2-1.3-.6-3.6-1.5-4.5s1.6-1.3,1.2-1.7-.3-1.2,1.4-1.5,1.8,0,2.7-.5,1.1-2.9,1.2-3.7a6.72,6.72,0,0,0-.7-3.4,27.85,27.85,0,0,0-2.6-3.4c-.6-.5-1.4-.6.3-2.1s.7-1.2.4-1.6a11.42,11.42,0,0,1-.9-2.6c-.3-1,.7-2.1.1-3.5s-1.2-1.1-1.1-1.4,3.9-.2,6.7,0a24.32,24.32,0,0,0,4.7-.2,10.73,10.73,0,0,1,3.8,1.3c1.6.7,2.2.5,3,1.4a3.12,3.12,0,0,0,2.9,1.3,12.7,12.7,0,0,1,3.4.5,1.88,1.88,0,0,0-1,2,18.29,18.29,0,0,1-.2,3.3c0,.6.5.7,1.2.7s2.8,1.4,4.9,1.9,2.7.4,3.4-.8.8-1.1,1.7-1.2,1.1.1,1.5-.1-.6-.8-.4-1.6a5.5,5.5,0,0,1,2.4-2.6c1-.6,1.6.6,2.5,1.8s3.8,4.9,4.6,6.2,1.9,1.3.9,2.5-1.5,1.7.1,2.2,3,1.4,2.8,2.3-.5.9.1,1.1,2.4-.5,3.8,0a14.93,14.93,0,0,1,4,1.5c1,.7.9.9-.5,1.3a33.74,33.74,0,0,0-3.4,1c-.7.3-1.8.9-1.7,1.3s-.3,1.2.8.6a15.3,15.3,0,0,1,4.1-1.4c1.3-.3.3,0,1.5-.1s2.3.4,3.9.7,1.2,1,.8,1.7-.8,1.3-.1,2-.3,1.4-1.7,2.3-2.4,1-4.7,1.2-3.4,1.2-5,2.2-2.4.8-4.7.9-1.4-.8-2.1-.6a15.83,15.83,0,0,1-3.1.9c-1.5.1-6.5.2-8.4.6s-1.3,1.3-1.8,2.1-1.2.4-2.7.8-3.2,1.9-4.8,3.9a14.12,14.12,0,0,1-4,3.3,15.3,15.3,0,0,0,4-2.1c1.1-1,6-3.4,7.5-4.1s4.7-1.8,5.4-1.7,2.6,1.2,2.6,1.7-.6,1-1.9,1.9-3.2,0-3,.4a3.75,3.75,0,0,0,2.1,1.4,1.3,1.3,0,0,1,1,1.5c0,.4-.6,1,1.8,2.5a9.15,9.15,0,0,0,5.8,1.4c1.8-.1.8.4,1.6.4s.9-1,1.1-1.8a3.14,3.14,0,0,1,1.3-1.9c.6-.3,1.1-1,1.3.2a3.59,3.59,0,0,1-1.6,3.3c-.9.4-.7.9-.7,1.2s-1,.4-3.5,1.4-3.3,1.2-3.7,1.1a4.32,4.32,0,0,0-2.6.9c-1.2.8-2.5,1.8-3.4,1.8s-1.6-.3-.4-1.2,1.6-2.1,2.8-2.5a8.63,8.63,0,0,1,2.8-.4c1,0,.5-.4,1.3-.9s-.6-.3-2-.4-.3-1-.3-1l-1.4.5-2.7.9c-.6,0-.4.3-.6.5a14.6,14.6,0,0,1-2.2.3,4.15,4.15,0,0,1-2.6,1.7c-1.5.2-.5.1-1.6.5s-.9-.4-1.2-.2a9.91,9.91,0,0,1-1.7,1.1,4.58,4.58,0,0,0-2.8,3.3c-.8,2.4.2,3.3.1,3.6s-1.6-.2-2,0a6.9,6.9,0,0,1-2.8,1.5c-1.3.3-3.9.7-4.5,1.2s-.6,1.1-.9,2a19.23,19.23,0,0,1-1.8,3.1,1.19,1.19,0,0,0-.7-1.5c-1.1-.6-.9-1.2-.9-1.2a3.67,3.67,0,0,0,.1,1.8c.4.9,1.2,1.8.8,2.8a4.7,4.7,0,0,1-1.9,2.5c-.8.4.2-.7.2-1.4s-.6-.9-.9-1.2-.4-1.4.3-2.8-.6-.5-1.3.4-1.2,2.6-.1,3.6-.7,1,0,2.5-.9,2.3-.6,2.6,1.2-.1,1.6.7-.8.4-1.2.6-.2.5,0,.9.7.2.5.3a5.08,5.08,0,0,1-1.8.9c-1,.2-1.1-.1-1.8.4s-1.1,1-1.8,1.6-1.2.4-1.9.8-1,.8-1.9,1.3a25.45,25.45,0,0,0-3.9,2.4c-1.1,1-.8,1.3-1.3,3s1.3,4.6,2.5,7.3,1.6,2,1.5,2.9a4.07,4.07,0,0,1-1.5,2.5c-.8.6-1.3-.4-2.5-1s-.2-1-1.4-2.3a3.73,3.73,0,0,1-1.2-2.6,10.17,10.17,0,0,0-.9-3.3,3.49,3.49,0,0,0-3.8-1.8c-1.9.5-1.4.3-2.5,0s-3.8-1-5.2-.5-5.8-.2-6.8,0-1.6.2-1.6.7-.4.5,1.2.8,1.4.7,1.3,1.2-1.3-.3-2-.4-1.2.4-2.4.4-1.3-.8-2.3-.9a9.86,9.86,0,0,1-2.4-.3,12.85,12.85,0,0,0-3.4-.7c-1.1.1-5.4,2.1-7.5,3.2s-3.6,2.1-4.1,3-.5.9,1.1,2.2.9,1.1.6,1.8-1.3,1.6-2.4,3.5-.5,2.8.9,4.6a15.63,15.63,0,0,0,3.8,3.9,11.18,11.18,0,0,0,2.9,1.9,4.59,4.59,0,0,1,1.6.7c.4.3.3.5,1.8.2a24.09,24.09,0,0,1,3.7-.7,6.35,6.35,0,0,1,2.7.4c.6.4.7.2.7,0l.6-1.2a9.42,9.42,0,0,0,1.8-2.5c.2-.8.2-2.4,1.6-2.5a56.48,56.48,0,0,1,7.1-.5c2.7.1,1.5,1.1.8,2.1s-1,1.1-1,1.9.3.8-.6,1.2-.3-.3-.7.2a4,4,0,0,1-1.5,1c.1-.1.6.8.6,1.2s-.1.6-.1,1.7-2.8,2.1-2.8,2.1a7.46,7.46,0,0,0,2.6.4,16,16,0,0,1,4.9.5c1.6.5,4.6-.4,6.9.4s1.4,1.3,1.6,2a25.61,25.61,0,0,1,.3,3.9c-.2.6-1.2,2.2-1.8,3.4s1.6,2,3.6,3a19.36,19.36,0,0,0,4.8,1.6c1,.2,2.9-1.1,6.5-1s4.7,2.3,4.7,2.3a9.19,9.19,0,0,1,2-3.1c1.6-1.8,1.7-2.3,3.8-2.9s2.9-.7,6.4-1.5,2.9-.2,4.7-.1a70.74,70.74,0,0,1,10.3,1.3c4.2.9,10.7,1.2,13.2,1.9s3.6,2.8,6.1,4.5,5.8,3.2,7.1,4,8.9,1.5,10.6,2,4,2.4,4.1,3.6,1.8,1.7,4.1,2.4,3,1.5,4.6,3.6,1,2.7,3.1,3.2,16.5,3.3,20,4.3,8.1,3.7,9.4,4,3.4-.3,4.3.1-.6,2.4.6,3.8,1.3,1.5.6,2.6-3.6,3.6-4.7,4.9-3.5,2.1-4.9,2.6-2.6,0-1.4,1.1.1,2-1,2.9.1.8-.2,3.9,0,6.4-.5,7.7-3.3-1.2-6.5,1.7-4.1,5-6,5.3a31.18,31.18,0,0,0-7.9,2.9,7.79,7.79,0,0,0-2.8,2.9c-1,1.5-1.9,4.5-3,6.4s-2.7,2.9-6.5,5.4-5.5,5-8,7a26.22,26.22,0,0,1-2.4,1.9c-1.3,1-6.8-1.5-5.4-.1,1,1-.6,0,.3.9s1.5,1.3-.4,3-4.1,1.4-5.6,1.6-3.8-1.1-3.9-.4a4.42,4.42,0,0,1-2.2,2.8c-1.2.4-4.4,1.1-4.3,1.3,1.5,5,4.6,5.5,1.3,5.3-9-.6-2.6-2.1-8.8,7.2-1,1.4-1.9.7-1.8,2.4s0,3,1.3,4,.4,1-1.8,2.4-2.3,1.2-4.3,3.4-3.9,2.1-3.2,3.7.9,4.1,2.1,6.5,3.7,2,7.6,3.7,4.4.8,6.3,1.2-1.4.5-4.8,1-5.7.9-8.1.5a51.6,51.6,0,0,1-10-3.7c-1.9-1-5-2.8-6.1-4.5s-1.9-3.5-3.4-5.9-.4-3.9.2-9.1,1.1-9.3,2.2-12.1,4.2-15.3,5.1-18.5,5-16.3,5.3-18.4a29,29,0,0,1,1.2-5.7c.6-2.1.2-6.2.2-6.5s-.2-.4-1.1-2.3a7.05,7.05,0,0,0-4.3-3.6c-2-.8-4.1-1.9-5.7-2.7a24.75,24.75,0,0,1-5.1-3.3c-1.6-1.4-3.1-4.3-3.9-5.5a73.11,73.11,0,0,0-6.5-8.2c-2.7-2.9-2.9-2.9-4.2-5.9s1.2-3.1,1.7-4.8,2.1-3.4,3.8-5.8,4.1-3.1,5.4-5.2.3-2.1-.2-4.2.2-1.7-.7-2.9-1.4-2.5-2.1-2.9a2.87,2.87,0,0,0-2.7-.1c-.7.6-2,2.3-2.8,2.4s-1.1-.5-1.6-.9-2.8-.4-3.3-.7a18.24,18.24,0,0,0-2.5-.7,48.85,48.85,0,0,1-4.8-2,4.29,4.29,0,0,1-2-3.2c0-1.4-1.7-1.9-5.4-3.8s-5.4-2.2-9.9-3-6.4-3.1-7.9-3.7-1.4-1.3-4.7-1.1-7.4-1.1-10-1.8-7.1-1.3-9-2.2-5.3-1.2-6.7-3.4-1.2-1.3-.6-3.2-3.3-3.5-5.6-5.3-4.1-2.1-5.3-4.3-2.9-2.1-5.3-3.7-2.1-3.3-3.1-5.1-7.3-4.4-7.3-4.4,1.7,3,2.4,4.2a43.85,43.85,0,0,0,4.3,6.3c1.9,2.2,3.6,2.7,5.4,4.9s.1,3.5-.6,2.6-3.2-1.2-3.2-2.2a3.7,3.7,0,0,0-1.2-2.4c-.6-.8-3-1.7-5.4-3.1s-4.1-2-2.6-2,3.7,1,3.3.4-3.1-2.6-4.4-4-1.7-2.9-3-5.2-6-4.5-8.3-4.7-3-.9-3.7-2.6-1-3.5-2-4.8-5.5-5.8-5.6-7.4-1.4-6.6.2-9.4,1.2-8.9,1-10.1-3.1-3.5-3.1-4.4,1.7-.4,2.9-.1,4,1.1,4,1.1a29.07,29.07,0,0,0-3.3-3.7,20.73,20.73,0,0,0-6.7-2.4c-1.7-.3-3.8-.7-4.7-1.7s-1.8-2.3-2.5-3.2-3.3-1.9-4-2.8-.5-2.6-1.4-3.5a3.73,3.73,0,0,0-3.6-1.1c-1.4.4-1.9-.5-3-1.9s-3.6-2-4.3-2.1a9.8,9.8,0,0,1-3.3-3.1c-.2-.6-4.1-3.6-5.3-4.3s-13.7-3.5-14-3.5a40.15,40.15,0,0,1-4.9.2c-1-.2-4.2-2.2-5.9-2.6a3.24,3.24,0,0,0-3.7,1.8c-.8,1.3-4.7,3.6-6.9,4.6s-3.9,1.1-3.8.6a7.86,7.86,0,0,1,.8-2.6c.7-1.3,1.1-1.6,3.3-2.4s2.2-.8,1.3-.8-1.5-.1.2-.8,2.5-.9,2.4-1.5-3.8.9-6.2,2.2a18.35,18.35,0,0,0-5.9,4.8c-2.1,2.4.2,1.5-1.5,3.1s-7.8,4.8-9.5,6-9,3.9-12,4.6-4.1.9-5.6,1.7-5,1.1-3.8.5,3.4-1.9,4.9-2.5,5.6-1.8,6.8-2.1a21.75,21.75,0,0,0,6.3-3.1,30.41,30.41,0,0,0,3.9-4.1c1.1-1.3,1.4-1.9-1-1.3a14.65,14.65,0,0,1-5.9,0c-1.2-.3-4.3,1-5.4.4s.1-1.8-.6-2.4-3.2-.2-4.8-.4-3.8-1.1-3.8-2.7-1.6-3-.7-4.2,2.2-1.5,3.6-2.2a26.94,26.94,0,0,1,6.2-1.6,4.71,4.71,0,0,0,2.6-1.1c.7-.5-1.7-2.4-1.7-2.4s.4-.2,1.4-.6.2-1.3-1.4-1.2-5.3,1.4-7.5,1.8-5.3.2-5.2-.5.6-1.1-.2-1.6S6.2,149.3,7,149s5.8-2.8,5.8-2.8a8.07,8.07,0,0,0,3.7,1.5c1.9.2,6-2.4,6-2.4-2.6-1.1-2-1.4-2-1.4a28.52,28.52,0,0,1-5.1-.5,2.82,2.82,0,0,1-1.5-2c-.2-.7-4.3-1.3-3.2-2.5s3.2-1.6,4.5-2.9,2.6-3.5,6.5-4.8,8.6-2.4,10.7-3.5,3,0,3.8.1,5.8-.1,7.7-.1,2.2,1.5,2.9,1.9,17.5.7,17.5.7,14.3.2,17.2.7,8.1,2.1,8.1,2.1C92.6,133,92.3,130.3,94.3,130.3Zm192-61.4s-1.4,4.2-7.2,5.4-16.3,4.5-16.8,4.7.6,2.5,2.1,3.7,2.8,1.9,4.1,3.1,3.5,1.1,5.3,2.2,3,.8,7.8.8,3.5.3,8.9.5,11,.5,12.8,1.7,4.5,5.7,6.1,8.5,4.6,7.3,4.6,7.7-1.8,3.7-1.8,4.3,1,1.4,1.8,2.2.4,1.3.2,2,1,2.4,1.1,2.7,2.5-1.7,4.1-2,5.3,1.9,5.3,3.4c0,3.5,1.3,2.3-6.6,6.4-1,.6-2.1,4.7-1.3,6.7s2.7,4.4,4.2,7.2,6,6.9,7.4,8.7,1.8,4.4,5,5,6.2,1.4,8.5,1.7,3.8.9,5-.6,3.4-7.3,5.2-11.6-.2-5.5,4.1-6.4,11.2-2.9,13-3.4,1.5-4.8,5.6-6.1a63.78,63.78,0,0,1,8.6-2.2,66.36,66.36,0,0,0,13.6-4.7c4-2,5.1-1,6.5-2.8s-1.4-4.6-1.8-7.3,1.3-2.9,2.1-5.4,1.2-4.1,4.3-5.8,4.8-2.6,4.2-4.2-2.1-4-2.1-5.7.6-.7-.7-3.2-1.3-2.8-.1-5,4.4-1.7,4.2-2.7-5.1-2.5-5.2-5.3.9-3.6,1.7-4.3,8.9-5.3,9.5-5.7-.2-1.6,3.8-3,5.4-2.3,6.9-2.7,3.9-.4-.7-1.3-5.7-1.4-8.7-1.1-4.1,1.5-9.5,1.8A64.83,64.83,0,0,0,399.9,59s1.8-1.2.2-2.3,4.2-4.8,5.1-5.2-7.5-1.9-11.9-2.5-13-2.4-18-2.2-12.2.2-14.7.8-2.1,2.9-5,3-8-1.2-12-.8-10.4,2.4-11.1,2.5,2.5,1.5,4.6,1.8,4.8,3.4,4.8,3.4-5.6-1.3-11.3-2.4-12.3,0-14.6.5a48.33,48.33,0,0,1-10,1.5c-4.6.2-9.9,2.8-12.5,4.1s-10.9,4.6-12.9,5.5-1.3,1.2,1,1.6,4.7.6,4.7.6ZM168,112.6c.6,1.9.6,4.7-.9,3.5s-2.7-3.6-5.1-2.6-5,.7-4.6.5-.1-1.3-1.3-1.6-2,.2-3.2.7-5.3,1.2-3.7.3,1.1-1.4.5-2.5-4.8.7-7,1.9a27,27,0,0,0-4.9,4c-1.3,1.2-.4,1.9,1.6,2.3s5.3.7,2.6,1.4-4.8,1.2-3.4,1.8a14.42,14.42,0,0,0,6.2.5,25.72,25.72,0,0,1,8.3.1,31.7,31.7,0,0,0,6.1.7,18,18,0,0,1-4,1c-2.6.3-7.2,0-9.6.3s-6.2.8-5.2,1.4a11.63,11.63,0,0,0,5,2.4c3.3.7,3.9,0,5.9.4s.9,1.9,1.4,2.2,4.3-.2,8-.7,2.3-.9,5.3-1.4,3-2.1,4.7-2.5.5.8,2.5,1.2.9.5,3.1.7,1.8.8,3.9.7,4.6-1.1,4.3-1.3a1,1,0,0,1-.4-1.3c.2-.7-2.1.1-3,.5s-.8-1,1-1.6,3.4,0,4.5,0,.1-2.2-1.8-2.5-2.8-1.2-5.6-2.3-1.4-1.6-2.2-3.1-2.7-5.9-4.3-6.6-3.3-.6-4.9-1.3A3.89,3.89,0,0,0,168,112.6Zm-44.2-3c.7,1.4.8.5-.6,2.1s-.6,2.1-1.5,3.3-3.5,2.7-2.7,3.5,3.4,1.2,4.4,1.8,2.1,1.8,4,1.4a19.84,19.84,0,0,0,3.9-1.3c1.3-.5,2.4-1.1,2.4-2.3s-.1-1.8.4-1.7,1.4.7,1.8-.1a7.21,7.21,0,0,1,2.1-2.5c.9-.6,3.5-1.3,4.7-2a31.92,31.92,0,0,0,3.9-2.2c.6-.6-1.1-1.1-2.1-1.4s-2.2-1.4-4.5-1.4-3.6,1.3-3.5.7-1.6-.8-2.6-1.1a11.68,11.68,0,0,0-4.9-.4,37.25,37.25,0,0,0-6.7.9c-2.1.4.8,1.3,1.5,2.7Zm69.3,16.9c-.9.4-1.7.8-2.6,1.3-.9.7,1.8.3,2.7.5a23.46,23.46,0,0,1,2.2,1,15.21,15.21,0,0,0,6-.3c1.5-.5,1.7-.7,1.5-.9a24.78,24.78,0,0,0-5.4-3.2c-2.2-.8-2.3-.9-2.8-.7s-1.3,2-1.6,2.3ZM183,110c-1.4.5-2.5,1.1,0,2a44.42,44.42,0,0,1,4.9,2.4c1.6.7,2.3,2.9,5.8,1.9s4.9-2.1,5.3-3.1-.5-1.2-1.3-2.1a2.62,2.62,0,0,0-2.8-1.2c-1.8.1-2.4.1-2.4.1a9.41,9.41,0,0,1,3.1-1.7c1.9-.7.3-1.1,1.2-1.8s-2.3-1-3.7-.7-1.4-.1-3.7-.1-5.9,1.4-5.8,1.9,1.9.3,3.5,1,2.1.6.5,2.4-2.4-.4-3-.7S184.5,109.5,183,110Zm-10.2-3.2c-2.4.2-3.2,1.3-2.3,1.5s1.5-.2,2.9.9,2.7,1.7,3.3-.1-.2-2.6-3.9-2.3ZM134.4,93.1c-2.7,1.5-3.2,2.7-5.3,3.7s-1.6,1.8-.9,2.3,2.8,0,3.7-.4,1.8-1.2,2.3-.7,3-1.8,4-2.6a9.19,9.19,0,0,1,2.7-1.6c.3,0-.9.9-.5,1.7s2.3.8,4-.5.2-2.4,1.5-3.4,2.4-.8-.2-1.7a4.65,4.65,0,0,0-4.8.6C140.5,90.9,139.6,90.2,134.4,93.1Zm16.2,2.4a15.19,15.19,0,0,0-4.7,1,6.88,6.88,0,0,0-4.1,3.9c-.6,1.1.3,1.1,2.6,1.7s5.5-.2,6.2-1.7,1.7.4,1.2,1.1,1.6.1,2.6-.3a18.25,18.25,0,0,1,4-.5,16.84,16.84,0,0,1-4.8,2,47.63,47.63,0,0,1-5.2,1c-.7.1.6.8,3.6,1.2s4.7-1.3,8.9-2.4,4-1.3,5.4-1,2.9-.5,4.6-.8,2.4.2,3.1-1.6,2.1-3.5-.3-3.6-2.6-.1-2.9,1.8-.5.7-.5.7-1.6-1.7-2.6-2.6-1.6-2.3-2.7-3-1.6.3-3.2,1.6-.3,1.8,1.3,2.4,2.8,2,2,2.4-1.7-.1-4.7.2-2.9-.7-3.8-1,1.4-.9-1.8-1.8-3.1-.7-4.2-.7Zm-9.9,1.9c.3-.4-4,1.8-4.7,2.6s.7.6,2,.6S139.6,98.7,140.7,97.4Zm8.5-4.7c-1.1.3-1.1.6.7.8s2.8-.4,2.4-1S150,92.4,149.2,92.7Zm9-6.7c-1.2.1-4.6,1-4.8,1.4a2.74,2.74,0,0,0,.6,2.1c.5.7.7.8,3.7.3s5-1.7,4-1.8-1.6-.5-2.5-.6.8-.4,2.7-.9,2.7-1.2-3.7-.5Zm-10,1.1c-.8.3-1.1.3.6.8s3.6.4,3.4.1a3.61,3.61,0,0,0-4-.9Zm6.8-3.4a4.14,4.14,0,0,0-2.4,1.7c-.4.3,1.9-.2,2.9-.4s1.3.3,2.3-.4,3,0,4.8-.3,2.1-1.1,1.7-1.9S159.8,82.3,155,83.7Zm18,3.1c-.5.2-.3.7.1,1.4s.5.5,1.4.7a7.22,7.22,0,0,1,2,.9c.2.2.4.2.7-.4s-.2-.5-1.2-1.4-1.7-1.6-3-1.2Zm6.2,5.6a3.69,3.69,0,0,0-2.7.5c-.5.2.3.6.6,1.3s.1,1,2.1,1.1,2.6-.2,2.8-1.1-1.5-1.6-2.8-1.8Zm7.9,1.6c-1.3-.7-1.9-1.2-3.1-.8s-.2.8-.2,1.1,1.5,0,1.6.6.5.8-1.4.9-2.4,0-3.1.4,1.4-.1,2,.5,1.7.7,3.5.5,4.2-.5,4.2-.5a6.55,6.55,0,0,0-1.8,1.5c-.5.6-.8,1.5.2,1.9s1-.5,3.6-.5,3.4-1,3.4-1a1.3,1.3,0,0,1-.5-1.3,2,2,0,0,0,0-1.1c.4.2.9.5,1.3.7,0,0-.2-.6-.6-1.5s-.1-1.1-.5-2.4-.3-1.6-2.3-1.6-3.3.5-4.9.5-2.3.2-1.1.6a4.5,4.5,0,0,1,1.9,1.4,2.11,2.11,0,0,1,.5,1.6Zm-9.8,5h0a1.6,1.6,0,0,0-1.2,1.4c-.1.5,1.1.2,2.9-.2S179.9,98.5,177.3,99Zm25.2-2.4a13.3,13.3,0,0,0-3.5,2c-.9.7-.1.8,2.1,1.6s4.6,1,5.6.1-.5-5.1-4.2-3.7Zm10.3-6.1c-2.8.2-2,.5-5.2-.3a35,35,0,0,0-8.5-.8c-1.1,0-.6.4.6,1.7s1.5,1.8,3.9,1.4,4.4-.7,6.1,1.1,2.7,2.4,1.2,3-.8,1.7.1,3.1,2.8,1.3,5.4,1.3,19.6-.2,22.3-.5,5-1.9,6.4-2.7,2.1-1.8.2-2.6a19.35,19.35,0,0,0-6.8-1.6c-2.1,0-4,.8-7.3,1s-2.6,1.4-5.5,1.4-1.5,1-5.2-.1-6.3-2.4-4.6-2.6,3.1-.3,2.1-.9-2.6-2.1-5.2-1.9Zm-33.9-9.9c1.8.4,2.2.7.2,1.1s-3.5,1.3-1.5,1.2a30.78,30.78,0,0,1,6.1.4c2.5.3,2.3.1,3.4,1.1s2.3,1,4,.7,2-.4.8-1.3-2.3-2.5-3.8-3.1-2.8-1.5-4.3-1.4a3,3,0,0,1-3.2-1.1c-1.3-1.3-2.4-.7-4.3-.3a7.53,7.53,0,0,0-3.3,1.8c-1.3.9,4.1.6,5.9.9Zm23-13c-2.1,1.8-3.8,3.4-1.4,3.6s3.4-.1,3.6.4-.4.9-3.9.9-2.4.6-.5,2.2,2.2,1.1,5.1,1,4-.8,6.5-.4,3.2.9,1,1.4-7.5,1.5-6.3,2.3,4.9,2.7,6.6,2.9,2-.8,5.7-.5,2.8.6,3.1-.2,2.4-2.5,2.8-3.2,1.4-1.1,3.4-1.4,2.6-.8.8-1.2-4-.7-3.8-1,1.4-1.5.6-2-2.1-.5-3.1-.8-2.2-1.6-3.5-2.2-2.5-.6-4.1-1.5-4.1-3-7.3-2.9c-2.3,0-3.2.9-5.3,2.6Zm-4.1,15.5c-.8.3-2.8.3-1.3,1.2s1.1.9,2.9.4a17.1,17.1,0,0,0,4.8-2.1c.2-.4-1.9-1.1-3.3-1.4s-2.4-1.1-5.4-1.7c-4.3-.8,3.1,3.4,2.3,3.6Zm97.7-27.5c-3.3-.6-15.1-2.3-19-1.6s-3.6-1.4-9-.9-13.5.2-16.1.5,1.3,1.1,2.7,1.7-6.6-.7-12.7.5-10,1.8-3.5,3.6,7.3,2.3,7.3,2.3-8.3-1.1-11.8-2-1.6-.9-8.2.4-13,2-12.7,3.5,5.3,3.3,8.6,3.8,10.1-.7,10.7-.8-2.7,1.9-2.7,1.9,3.4-.5,7.2-1.2,6.8-1.5,10.4-2.4a34.52,34.52,0,0,0,4.3-1.2,59,59,0,0,1-10.6,4.7,60,60,0,0,1-12.7,2c-2.7.1-2.2,1.3.4,2.3s4.7,3.1,6.1,3.8a2.84,2.84,0,0,1,1.6,1.8,9.54,9.54,0,0,0-8.7,0c-4.6,2.3-3.9,3.5-2.8,3.8s5.2.6,6,1.6,6.1-.9,6.1-.9-2.7,2.5-5.3,2.5-2.4-1.6-6.2-1.3-3.5.9-1.9,1.8,2.9,1.2.1,2.1-4,1.2-4.1,2.3,3.6,1.1,6,1.1,4.6-.2,8.8-.2,3.7-1.1,5.3-1.1,3.2.3,2.6,1.5.6.4,5.3-.8,2.6-3,2.2-3.7-2-.8-3.1-1.2,3.2-3.5,2.6-4.5,5.2-.2,7.9-2.7,1.7-4.3-.2-4.7,3.5-.1,5.2-.8,5.4-1.6,6.9-2.9,2-1.8-1.6-1.6,5.2-1.1,9.5-3.1,9.2-4.3,10.2-4.9,2-.3-3-.1-11-.3-7.7-.6,13.1-1.1,15.7-2.5q2.1-.9,3.9-1.8Zm-59.6,48.9c-5.3-.3-13.1-1.3-14.7,2a82.82,82.82,0,0,0-4.2,11.8c-.2,1.3,6.4,3.3,11,3.4s12,.3,10.5-.4-.2-1.2,4.1-1.1,4.7-.6,4.7-1.3.8.8,3.7,1.9,5.5,4.3,8.2,6.1,8.6,4.3,7.5,5.7,1.3,6.4-7.9,7.5-9.7.4-9.6,1.8.5,2.1,4.1,2.1,8.6-2.1,10.3-.6a12.54,12.54,0,0,0,5.5,2.5c1.5.4-1.8,1-2.7,1.2s1.8.4,7,2.2,11.5,2,8.4.7-4.6-3.6-6-4.4-.1-.1,2.4.3a17.1,17.1,0,0,1,5.7,2.5c1.1.6,1.6-.2,2.3-2.7s-.3-2.5-4.5-4.4-5.4-3.5-5.9-4.9,2.1-1.7,3.2-2.7,4,1.8,6.1,3.4,3.7,4.4,5.3,2.4a20.82,20.82,0,0,0,3.1-7.7c0-1-1.6.1-8.4-2.3s-10.3-3.3-11-3.3,1.8-.9,4.8-2,4.3-.9-2.1-5.2-8.2-5.2-12.4-5.5-5.3-3.4-8.3-4.4-9.9,1.3-11.9,1.6-1.4.9-3.9-1.7-4.4-4.4-4.4-4.5Zm4.8,0c-2.6.2,1.6,3.7,5,3.8a21,21,0,0,0,7-1.2c.8-.1-7.9-2.8-12-2.6Zm-12,35a13.33,13.33,0,0,0-1.7,4.3,5.38,5.38,0,0,1-.9,2.5c-.4.9,1.3-.2,2.4,1.2s.6,1.7,2.6.2a7.72,7.72,0,0,1,7-1.4c2.8.6,5,.9,4-.3s-2.2-1.1-4.1-2.8a12,12,0,0,0-5.8-2.7c-2.2-.6-2.5-2.6-3.5-1Zm20.1,123.6c-.8-1.2-2.1-3.2-7.3-3.9s-6.9.7-8.8,1.1,1.8.7,4.3,0a6.3,6.3,0,0,1,4.7.2c.4.3-.8.5-1.3.2s-.5.8,2.3,1.5,3.5,1,3.7,1.9a4,4,0,0,0,.9,2c.6.7.9,1-.3,1.3s-.8.3.1.6a12.52,12.52,0,0,0,5,1.1c2.4.1,3.2.5,1.6-1.1s-4.6-4.5-4.9-4.9Zm7.8,7.7a2.28,2.28,0,0,1,.9,2.6c-.1.6-1.5.1-4.2-.4s-2.3-.3.1.6,3.8.7,3.7,1.9,2.1.1,3.1-.6.9-.1,5,.4,5,1,4.3-.3,1.9-1.2-1.8-2.4-12.7-2.9-11.1-1.8Zm-11.8.7c-1.6-1.2-3.5-1.4-3.5-.4s.5,1,2,1.3,2.5-.1,1.5-.9Zm30,5.3c-1.7-.4-2,.5-.9,1.3s2.9.5,4.5.4-.7-.9-3.6-1.7ZM255.4,129.3c-2.2.7-3.6,1.1-1.6,3s3.1,3,3.9,1.6S259.2,128.2,255.4,129.3Zm-18,19.6c-3.4.4-4.5.4-3.9,1.8s1.4,1.1,3.7.3,3.9-2.5.2-2.1Zm7,2c-.6.1-.8,1.1,0,1.9s2.2-.3,2.8-1.3-.6-1-2.8-.6Zm-36.8-65c-3.2.1-8,.9-5.3.9s4.8.4,9.2.3,4.7-.4,4.8-1.9S213.5,85.7,207.6,85.9Zm-20-12.5c-3.3.7-2.4,1.2,1.4,2.4s3.9.6,3.5-1.6-2.9-1.2-4.9-.8Zm227.6,59c-4,.8-5.4.3-6.1,1.8s-2.3.7-3.3.9-2.2,4.2-2.8,3.6a13,13,0,0,1-1.8-2.3c-.9-1.4.3-1.1-1.5-2.6s-5.3-1.3-5.5-.7,2.4,1.1,1.5,1.8-3.1,1.5-3.9,2,1.6.3,3.1,0a3.43,3.43,0,0,1,3.2,1.6c.6.8-.7,1.5-1.4,1.8s2.2.3,3.3.4,1.7.8,1,1.8,3.4.1,5.7,0,2.9,1.1,6.4.4,5.1-.7,8.3-2.4,2.9-1.3,5-2.4,1.6-1.4,1.7-2.6,1.4.3.9-1.5-3.1-1.3-4.9-1.4-1.8-1.2-2.7-1.5-2.1.5-6.2,1.3ZM684.8,287.7a4.06,4.06,0,0,0-.4,1.9,28.1,28.1,0,0,0-.1,2.9c.1,1,.2,1.6.9,1.8a3.58,3.58,0,0,0,2.5,0c1.2-.4,2.4-1.1,1.8-2.2a26.16,26.16,0,0,0-2.4-3.4c-.7-.7-2-1.8-2.3-1Zm-1-1.3c.1.4.3.3.6.6s.6,0,.2-.3-.3-.4-.3-.4-.6-.1-.5.1m114.9,56.3-.1.1c-2.2,1.6-4.2,1.1-7.9,2s-10.5,3.6-11,4.8,0,1.4-.5,1.2a3.81,3.81,0,0,1-1.3-.9,4,4,0,0,0-.8,2.8c.2,1.3,1.1,2.1,1,3.8s-1,2.7-.9,3.9,2.8,3.4,3.5,4.8,1.2,1,1.6,3.5,2.2,3.9.4,5.2-3.2,1.1-1,2.4,4.1,2.3,7.7,1.4,2.6-1.7,5.4-2.1,3.3-.8,5.8-1,4.1,0,5-1.2.2-1.2,2.6-2,2.2-1.1,3.8-1.3,2.6.6,4.8-.6.6-1.3,5.3-1.3a30,30,0,0,1,8.5.9c1.8.4,4.6,1.5,5.3,2.3s1.7,1.8,2,1.8.7,0,1.8-.7a36.23,36.23,0,0,1,4.3-2.4,5,5,0,0,1-.9,2.3,2.28,2.28,0,0,0-.7,1.9c0,.3,1.8-1,2.1-1s.5,2.3.7,2.5,1,.1,1.7.8a8.16,8.16,0,0,1,2.4,2.5c.7,1.3,3.8,2.6,5.7,2.9a20.92,20.92,0,0,0,5-.1c1.4-.1,1.5-1.4,3-.9s-.1,1.5,3.5,1.3a10.82,10.82,0,0,0,6-1.8c1.4-.7,1.6,1,3.4-.8s2.2-1.4,2.5-3.5.2-2.6,2-4.6,2.2-1.1,3.4-4.1,2.7-5.9,2.5-8.4.1-.9-.7-3.6-.2-2.5-2.8-3.6-3.2-.9-3.8-2.5.2-2.1-1-2.1-2.2.4-3-.7-.6-1.5-2-2.6-2.6-.9-5.1-1.6-1.2-1-1.2-2.4.1-2.8-1.8-3.5-.8.4-.8-1.9,0-1.9-1.6-2.3-2.1-.4-3.1-1.7c-1-1.5-2-3-2.8-4.5-.5-.9-1.1.1-1.7.8a5.82,5.82,0,0,0-1.5,3.5c0,1.4.8,2.1.8,4s-1.8,3.7-2.9,4.7-2,.1-3-.2-1.2-1.3-3.2-2-5.8-1.3-7.5-2.4-.5-1.1,0-2.3a5.46,5.46,0,0,1,2.6-2.8c1.3-.7.9-1-.7-1.6a19.8,19.8,0,0,0-6.5-.7c-2.7,0-4.3-.1-4.2,1s1.8,1.5-.5,1.2-4.3-.5-5.3.3-1.2,1.2-1.8,2.9.2,1.8-.8,1.8-4.7-1.3-6-1.7a3.35,3.35,0,0,0-3.5.6,91.73,91.73,0,0,1-8.6,5c-1.7.3-1.6.2-3.6,4.5Zm-71-47.7c-1.1-.1-1.8-.3-.4,1a18.31,18.31,0,0,0,3.1,2.4c1.3.9,1.8-.6,2.8,1.1s.6,1.7,1.7,2.4,1.9.8,2.1,1.4a3.79,3.79,0,0,0,1.8,2.3,3.4,3.4,0,0,1,1.9,2c.7,1.4,1.8,2.4,2.3,3.5s3.6,2.3,5.1,3.7,4.2,3.5,4.6,2.9,1.5,0,2.3-.2,1.1-1,1.6-3a2.74,2.74,0,0,0-1.2-3.4c-.7-.5-2.1-.6-2.5-1s-1-1.9-1.9-2.3-1.1,0-1.1-1.1,1.1-1-.3-1.6a5.22,5.22,0,0,1-1.9-1.4c-.4-.3-3.3-.8-4-1.4s-3.9-1.6-5.4-2.6-3.1-1.9-3.6-2.7-2.1-1.5-7-2Zm31,22.8c-1.3,0-1.9-.5-2.8.6s-.7,1.1.6,1.1,1.1.5,1,.6-.6-.1,2.1.7a9,9,0,0,0,5.4.2c.8-.3,1,.7,4.7,1.1s5.7-.3,8.1.2,1.8-.2.1-1.1-1.5-.4-3.3-1.3-4.1-.9-5.2-1.1,1,.8-2.4.5-2.2.2-4-.6-1.8-1-2.9-1.1-1.4.2-1.4.2Zm27,3.9c-1,.2-2.9.6-2,.9s.2.5,3,.3,5.3-.4,5.6-.9-.5-.1-1.7-.4-1.1.2-2.7.3a5.81,5.81,0,0,1-2.2-.2Zm9.9-.2c-1.9.2-1.7.5-.2.8a10.8,10.8,0,0,0,4,.2,34,34,0,0,1,3.4-.7c2.1-.2,2.8-.2,4.4-.4l1.7-.1s-.2-.2-1.3-.2-1.9.1-3,.1-3,.7-3.8.7a12.29,12.29,0,0,0-2.7-.2c-.4.2-.4-.4-2.5-.2Zm10.7,1.7h0c-1.4.6-1.5.8-1.3,1.3a.82.82,0,0,1-.1.7,8,8,0,0,0,3.4-1.1,5.21,5.21,0,0,1,3-1.4,13.69,13.69,0,0,0,3.2-1.6,10.48,10.48,0,0,1-2.5.1,6.3,6.3,0,0,0-3,.7c-.4.4.4.5-2.7,1.3Zm-11.1.6c-1.4-.7-2.7-.6-2.8-.2s-1.2.4.8.9,3.8,1.2,3.7.5-1.1-.9-1.7-1.2Zm-12.8-29.4c-.8.8.8.6-.4,1.3s-2.1.4-3.2,1.4a17.22,17.22,0,0,1-3.7,2.2c-.7.4-3.2.8-4.2,1.9s.4,1.6.4,1.6a4.45,4.45,0,0,1-2.3-.3c-1.7-.5-1.8-1-1.8-1a2.05,2.05,0,0,0-1.9,1.3c-.7,1.3-1.1,1.4.2,2.2s-.8.8-.6,1.3.3,1.5,1,1.6.9-.5,1.8.3.2,3.1,1.3,3.2,2-.3,3,.1a5.53,5.53,0,0,0,3.1.3,6.9,6.9,0,0,1,3.5.3,13.17,13.17,0,0,0,4.4.8c1.2-.1,1.4.1,1.7-1.1s.1-2.4,1.5-3.3,1.5-1,1.7-1.8a3.78,3.78,0,0,1,1-2.7c.9-.9,1.4.5,1.9-.2s1-.7.7-1.1-1.7-.4-2.2-1,.2-1-.5-2.4-1-.9-.1-1.6,1.7-.9,1.8-1.5.5-.6,1.6-1.2-.2-.3-1.3-.9-3-2.7-4.3-2.7c-.7.1-3.2,2.2-4.1,3Zm157.4,74.8c-.5-.3-1-.1.2.9s1.3.7,2,.7,1.4,2,1.8,2.5a12,12,0,0,0,1.2,1.1,8.08,8.08,0,0,1,0,3.1c-.4,1-1.2,1.4-1.4,2.3s1.2.6,2.2.9.8.3.4,1.1-1.5,1.1-1.5,1.3,2.2,1,3.3.1,2.9-2.4,3.3-3.4-.8-.6.7-1.3,1.3-.4,2.1-1.3,1.7-1.9.8-2.4-1.9.6-2.7.8a3.9,3.9,0,0,1-2.6-.1c-1.1-.4-1.3-.4-1.8-1.1a5.24,5.24,0,0,0-1-1.1s-.3,1.2-1.1.8-.6-.8-1.2-1.5a7.1,7.1,0,0,1-1-1.4c-.4-.5,0-1.4-1.9-1.6S940.3,369.5,939.8,369.2Zm.3,12.8a15.1,15.1,0,0,0-2.8,2.2,9.58,9.58,0,0,0-2,2.5c-.4.7-2,1.5-4.5,2.5s-3.5,1.3-4.4,2.2-3.9,3.6-4.3,4,1.4.6,3.3.6,4.8,1.2,6.4,0,3.2-4.2,4.2-5.2a17.83,17.83,0,0,1,3.6-2.5c1.6-1,4.3-2.9,4.3-3.7a4.38,4.38,0,0,0-.7-1.9,2.2,2.2,0,0,1-2,.7,1.13,1.13,0,0,1-1.1-1.2Zm-12.5,13.6c-1.9-.7-2.2.6-2.5,2s.8.2,2.4-.4S928.3,395.8,927.6,395.6Zm-63.4-9.3c-2.1-.5-1.8.9-1.4,2a7.61,7.61,0,0,0,1.5,2.8c.8.9,3.8,1.2,5,.8s2-1.7,3.2-2.9a4.19,4.19,0,0,0,1.5-3.4c-.2-.8-1.7.7-2.7,1s-2.2,1.1-4,.8a19.17,19.17,0,0,1-3.1-1.1Zm-26.5-75.6c-1.7.3-2.6-.8-3.9-2.8s-2.5-2.3-6-1.4-3,.7-.6,1.3,2.7.9,3,.9,3.7.4,3,.7-3.9.7-1.9,1.7,1.2.3,6.5,2.2,6.2.5,7.9,3,1.7,2,.3,2.7-3.2,1.3-2.5,1.3,2.1.3,5.8.4.2,1.6,4.3,1.6,5.1-.9,6.7-2.3,1.9-.6,5.3-.1,4.6,2.7,8.8,3.5,6.1,2,3.4.2-3.6-3-7.2-5.1-3.8-2.3-4.9-3.8-4.8-3.4-9-4.6a104.15,104.15,0,0,0-11.4-2.3c-4.9-.9-5.9,2.6-7.6,2.9Zm-28-7c-1.6.8-1.8.3-3-.2s-.9,1.1-3.5.2-3.7-1.3-6.5.2-1.1,2.1-1.1,3.2-2.4,4-3.3,5.1-.9,1.5-.2,2.2,1.6.4,2,.8,0,3.1-.5,4,1.1,1.1,2.8.8.2-.4.2-1.3.8-1.4.8-3.2v-2.7s.5-.2,1.1.4,1.5,2.3,2.2,3.2,1.5,1.5,2.6.9,2.2-1.3,2.2-1.3-2.2-.5-2.2-1,.9-1-.6-2.7-2.3-1.8-.4-1.9,1.9-1.5,3-1.9a12.41,12.41,0,0,1,2.7-.3,4,4,0,0,0-2.8-.5,24.72,24.72,0,0,0-4.7,1.1c-1.5.6-2.7.9-3-.1a6.55,6.55,0,0,1-.3-2.8c.2-1.5,2.5-.4,4.3-.7s1.7-.3,5.5-.1,4-.4,5.2-1.5a10.77,10.77,0,0,0,1.8-2.4c-.1.1-2.7,1.6-4.3,2.5Zm9-3.9c.3-.4-2.8,1.5-3.3,1.9s0,1,.4,1.5.3,2.5.5,2.9,1.8.8,1.8.8a3.2,3.2,0,0,1,.5-1.9c.6-.6,0-1.3,0-2.4s-.9-1.6.1-2.8Zm-6.1,11.6c-2.5-.7-3.4-.2-3.4.7s-.3,1.4,2.3,1.4,5.6-.9,1.1-2.1Zm4.9-.6a2,2,0,0,0-.9,2.3c.3.8.8.3,2.1.1s1.2-1,2.9-1a23.51,23.51,0,0,1,5.3.9s.8-.6-2-1.9-4.1-1.2-7.4-.4ZM768.8,266H766c-.4,0-1.2.7-1.8.9s-.6.6-.2,1.3,1.1.7,2.3,1,.8-.4,1.7-.6a1.89,1.89,0,0,0,1.3-1.3,2,2,0,0,1,1-.9c.2-.1-.7-.8-.7-.8a1.51,1.51,0,0,0-.8.4Zm28.8,2.4c-1-.5-1.5,1.3-1.8,2.2s-.6,1.5-.1,2.2.3.9.3.9l-1.4-.7a7.49,7.49,0,0,0-.4,1.6c0,.7-.4,1,1.2,1.6s2.1.3,2.3,1.1.2,1.2,1.3,1.3a5.23,5.23,0,0,1,2.7,1c.4.5.2-1.3,1-1.2a3.75,3.75,0,0,1,2.1,1.4,1.76,1.76,0,0,0,1.3.6s-1.2-1.5-.7-1.6.7-.3-.7-.9a10.88,10.88,0,0,0-3.6-.6c-1.1-.1-1.1.5-1.9-1a3.19,3.19,0,0,1-.2-2.7c0-.3.6.5,1.2-.5a4,4,0,0,0,.7-2.8c-.1-1,1-1.4.2-1.4-1.1-.2-2.3-.3-3.5-.5Zm12.7,18.9c.2.7-1-.2-1.4.2s-.6.3-1.3.5a17.1,17.1,0,0,0-2.3,1.3v-.9c0-.2-.5-1-1-.4a4.65,4.65,0,0,1-2.1,1.3,2.93,2.93,0,0,0-2,1.7c-.2.7.7.7.7.7a6,6,0,0,0,1.2-1.1c.7-.8.9-.8,2.2-.9s1.2-.1,1.7.4.1,1.3.1,1.9,0,1.3,1.3,1.6.7,0,2,0,1.2-.1,1.1-.5a3.51,3.51,0,0,1-.6-1.4c-.1-.5.7-.8,1-.9s.4.5.8,1.2.5.6.7.1a4.49,4.49,0,0,0,.4-2.3,4.4,4.4,0,0,1-.2-1.6,2.07,2.07,0,0,0-1-1.4c-.4-.2-1.6-1-1.6-1a11.59,11.59,0,0,0,.3,1.5Zm-6.2-4.3s0-.5-1.1-1.3a4.82,4.82,0,0,0-3-1.3c-1.8-.2-3.5.1-2.8,1.5s1,1.5,2.5,1.7a4,4,0,0,0,2.4-.4s.1.2-1.3.8-1.6,1.8-.5,2.3,1.1,1.2,1.7.8,1.1-1.6,2.4-2.5,1.4-1,1.5-1.9a4.3,4.3,0,0,0,0-1.6Zm3-2.6c-.2.1-1.1-.1-.1.6s1.8.8,1.7,1.3,0,.6-.6.5a3,3,0,0,1-.9-.2c-.2-.1-.3.3-.1.6s.1,0,.6.5.3.7.5,1.3.5.3.5.3a9.7,9.7,0,0,1-.1-1.7c.1-.3-.2-1,.5-.8s.5,1.1.9.3a2.56,2.56,0,0,0,0-2.1c-.2-.6-.9-.7-1.7-.7a5.28,5.28,0,0,1-1.2.1Zm-13.8,2.5c-.4.1-.7.3-.9,1.3a3.55,3.55,0,0,1-1.8,2,24.28,24.28,0,0,0-3.2,2.4c-.1.3-.1.1,1.5-.4s3-1.3,3.2-2-.2-.3,1.3-.8.7-.6.8-1.4-.1-1.3-.9-1.1Zm88.2,28.9c-.2,1,.4,1.3-.9,2a9.78,9.78,0,0,1-4.1.9c-1.3.1-.4-.2-2-.2s-2.1,0-1.3.6.6,1.2,3.1,1.1a26.29,26.29,0,0,0,6.1-1.4c1.6-.4,1.5-1.3,1.6-1.7s-2.4-2.4-2.5-1.3Zm6.9,2.1c.7.7.4.6,1.3,1.5a6.22,6.22,0,0,0,3.3,1.3c1,.2,0-.3-.8-1a9,9,0,0,0-2-1.9c-1.1-.8-3-1.2-1.8.1Zm-90-59.3c-3.4,1.5-5,1.4-3.6,3.4s2.2,2.8,2.4,3.2.9-.3,1.8-1.8,1-3.6,1.4-4.2-.8-1.2-2-.6Zm58.5-76c.4,1,.7,2.6-.1,2.8s-1.4,1.3-1.7,2.5-.6,2.6.3,3.6.3,1,.3,1.8.3,2.8-.2,3.9a3.64,3.64,0,0,0-.6,2.7,17.09,17.09,0,0,1,0,3.2,24.26,24.26,0,0,0,0,3.9c.2.7.6-.4,1-.6a3,3,0,0,1,2.6.2l.8.6s1.3.4-.5-2.3-2.1-2.1-1.6-4.6.7-2.5,2.5-2.7,2.8,1.5,3,1.7-.2-.6-.8-2-1.2-1.8-1.4-3.6a4.87,4.87,0,0,0-1.9-3.7c-.9-.5-.5-1.3,0-2a4.17,4.17,0,0,0,.4-2.9,19.06,19.06,0,0,0-1-3.4c-.3-.6-1.3.4-1.3.4Zm-1.6,27a3,3,0,0,1-.5,2.4c-.8.9-.2,1.1-.6,2.3s-2.5,0-2.5.3a1.94,1.94,0,0,1-.9,1.4c-.5.3-2.3.4-1.8,1.6a12.75,12.75,0,0,0,1.5,2.5,6.38,6.38,0,0,1,1.4-.8l1.2-.3s-.2-.4-1.3-.7-1.1-1.2-.9-1.4,1.7.1,2.6,0a4.23,4.23,0,0,1,2.9.2,7.54,7.54,0,0,0,2.9.9,5.09,5.09,0,0,1,.7-1.7c.5-.7,2.1-.4,3.6-.7s2.7-.5,2.2-1-.5-1.5-.8-2.3-1.3,0-2.1.3a4.17,4.17,0,0,1-2.9-.4,18.46,18.46,0,0,1-3.7-3.1c-.1,0-1.1-.4-1,.5ZM850.5,217a2.28,2.28,0,0,0-1,2.1c.1,1,1.4-.1-.2,3.1s-2.4,3.9-4,4.7a5.66,5.66,0,0,1-3.6.6c-.6-.2.2-.9.6-1.1s-1.4-.3-2.1-.2,0,.7-.1,1.2-1.6,1.9-1.4,2.5.2.8-.8,1a2.64,2.64,0,0,1-1.9-.6,22,22,0,0,0-3.6.4,4,4,0,0,0-3.2,1.6c-.8,1-2.7,1.1-4,1.5s-.8,1.7-2.3,2.2a2.05,2.05,0,0,0-1.6,2.1c-.1.7.9.2,1.1.2s.2-1,1.1-.9,1,.1.6.9-.8,1.1-1.2,1.8.2.9.9,1.6,1.4-.2,2.9-1.3,1.6-1.4,1.5-2.7-.7-1.3-1.8-1.7-1.4,0-.1-1,1.8,0,2.6-.5,2.9-.4,4.8-.8,3.8-.8,3.9-.3.7,2,.8,2.3,1.4-.4,2.7-.8.1-.5,0-1.1.6-1,.6-1,.7,1,2.8.3,2.3-1,2.8-.9.9.5,1.8.1,1,0,.9.3,2.6-.6,3.2-.9.3,0,0-1.1-1-1.2-.6-2.6a6.9,6.9,0,0,0,.4-2.5,1.09,1.09,0,0,1,.9-1.1c.3-.1.3-1.3,1-1.9s.5-.9.5-2.4-1.1-1.2-1.2-2.2a6.45,6.45,0,0,1,.3-2,10.89,10.89,0,0,0-2.5,1l-.2.4A1,1,0,0,0,850.5,217Zm-14.9,15.9c-2.4.3-4,.5-5.4.8s-1.7.8-1.5,1.8a18.61,18.61,0,0,0,1,2.5c.2.5,1,0,2.3-.5s1.2-1.9,2.5-1.9.8,1,2.5-.4.4-1.6.5-2.3-1.9.1-1.9,0Zm149.2-78.3c-2.5-.4-3.3-.7-3.5-.1s-.5.9,1.1,1.3,2.4-.3,3.9.5a4.77,4.77,0,0,0,3.1.7,3,3,0,0,0,1.6-.5,44.4,44.4,0,0,0-6.2-1.9ZM956,126.4c-.9.2-1.7-.4-1.4,1.2s.8,1.8,3.7,1.5a42.24,42.24,0,0,1,4.7-.3c4-.2,4.8-.6,4.8-.6a5.5,5.5,0,0,0-1.9-1.5c-1.4-.7-3.2.5-6.2.1C956.5,126.4,956,126.4,956,126.4Zm-90-23.8c0,.6,4,2.3,5.4,2.8s2.6.3,5.6.1,3.3-1.2,3.6-1.7-1.4-.3-3.5-.6-3.7.3-4.4,0,1.1-.5-.7-1-2.2.2-2.6,0-.5-.7-1.4-.7-2,.5-2,1.1Zm-15.7,3.6c-1.4.4-1.3.7.3,1.7s1,.7.4,1.4,0,0,2.2.7,3.2,2,4.5,2.3a3.94,3.94,0,0,0,2.4-.1,8.36,8.36,0,0,0-1.8-2.3c-1.3-1.3-4.2-1.6-4.7-2.8s-1.3-1.4-3.3-.9Zm14.3-5.2-5.1-2.3c-3.1-1.4-4.2-1.7-5.3-1.8s-.9.8-1.3,1.5-.7.6-2.3,0a45.88,45.88,0,0,0-4.8-1.7c-1.6-.3-2.6.7-4.5,2s-.8,1.7,1.5,3.7,3.3,2.1,5.1,1.3,1.3-1.3,2.6-.9,5.9-.4,6-.4-.3,1.8,1.7,1.3,3.8-.7,4.8-1.4A13.07,13.07,0,0,0,864.6,101ZM726.3,63.3c-.6.3-4,.1-5.8,2.1s-3,.6-3.9,1.8a17.77,17.77,0,0,0-1.7,2.7,5,5,0,0,0,3.3,1.2c1.7-.1,4.7.4,6.3,2s2.9,1.6,6.9,2.1,2.2.8,4.3.7,4.9.2,4.3-.6a2.48,2.48,0,0,1-.8-2.7c.3-1.4,2.1-1.4-.1-2.3a6.32,6.32,0,0,0-3.6-.4c.1-.2,2-.7,1.2-.7s-4.4-.2-4.8-1.7,1-1.6,1.8-1.7.5-.3-1.6-1.4-5-2.2-5-2.2C725.8,62.8,727,62.9,726.3,63.3Zm20,10.7a6.05,6.05,0,0,0-3.7,2.3,27.87,27.87,0,0,1-3.8,3c-1.1.6-.8.8,1,1.3s5-.8,5.9-.8,1.6,1,4.5.7,7.2-.6,5.1-1.7-1.4-.6-3.7-1.9a12.68,12.68,0,0,0-5.3-1.4s4.8-1.2,3.7-1.2-3.6-.3-3.7-.3Zm-123-17.4c-2.8.7-1.8,1.1-3.6,2.1s-.6,1.3,3.3.6a24.82,24.82,0,0,0,6.6-1.8C632.1,56.7,627.4,55.5,623.3,56.6Zm6.1,5c-2.6.8-1.9,1.7-1.2,2.4s2.6-.4,3.1.4.7.4,3.2-.7,1.5-.8.6-2-1.1-1.5-5.7-.1ZM614.9,61c-1.7.6-1.7.5-.1,1s5.5,1,7.5,0,1.8-.7-.7-1S616.8,60.4,614.9,61Zm-24.7,2.2a56.08,56.08,0,0,1,7.1-.1c2.1.2,1.3,1.4-2.5,1.7s.4.7,3.1.6,1-1.7,3.2-2.2,3.7-.2,6.4-.9S606,61,602.8,61s-4.2.2-6.9.1-4.8.7-7.6,1c-5.6.7-.7,1.2,1.9,1.1Zm20.4.5c-2.3,0-7.8.9-3.2,1.2s4.3.5,6.2,0-.6-1.2-3-1.2Zm16.1.7c-3.3-.8-3.3-.5-5.8-.4s-3.5,1.2-1.9,1.7a8.11,8.11,0,0,0,4.1.1c1.3-.2,1.3-.4.4-.7s5.1-.3,3.2-.7Zm13.7-2.9c-2.5.2-2.6.5-2.9,1.1s.4.5,3,.2a18.11,18.11,0,0,0,5.6-1.2c1.7-.7-.4-2.3-.4-2.6s-2.4.9-3.1,1.3S643.3,61.3,640.4,61.5ZM444.8,162.9c-1.3,2.5-3.3,3.6-.9,2.9s4.9-2.8,4.8-1-2.5,1.6-1.8,3.3.2,1.6,4.3,2.3.8.4,1.8,2.1,1.7,2.2.6,2.7-4.2-1.6-4.4-.7.4,1.5,1.2,2.7-.5,1.9-2.9,2.7-.3,1.3,1.5,1.2,6.4-.7,5.6.5-3-.2-4.5,1.7-7.4,3.5-4.3,3.4,2.6-.7,11.6-1.6,2.8-.1,8.7-1.4,4-1.6.8-1.3,2.1-2.3,1.4-4.7-2.9-.1-4.3-1.7-1.2-2,1.5-1.4,2.4-.4-2.7-2.7-1.9-1.9-4.3-3.8-6.3-1.7-6.3-1.7a7.05,7.05,0,0,0,2.7-2.1c.8-1,1.6-2,2.3-3,1.1-1.7-1.1-1.6-3.8-1.1s-3.6.6-3-.1a8.33,8.33,0,0,1,2.2-2c1.3-.9,1.5-1.4-.8-1.1a23.55,23.55,0,0,0-4.6,1C444,159.1,446.1,160.5,444.8,162.9Zm-6.3,5.8c-4.1,1.2-3,1.9-2.3,2.3s1.9-.4-1.9,1.2-3.9,3.3-1.9,3.6,1.8-.8-.4,2-3.6,4.8.8,4.1,5.5-2.3,7.6-2.5,2.5-1.4,2.5-3.1-1.4-1.8.3-3.3,1.8-3-1.5-3.8S441.1,168,438.5,168.7Zm51.6,39.8c-.2.4.3,1.5-1.4,2.2s.8,1.4,1.3,2.1,1.2-2.4,1.1-3.9-.3-1.6-1-.4Zm-.8,5.9c-2.7.9-2.9,1.6-3.2,3s2.2.3,1.5,1.6,0,1.9,2.8.7,1.2-2.3,1.6-3.8S492.8,213.2,489.3,214.4ZM531,230c-2.4-.2-3.4.9.6,1.2s5.9.4,7.4.1.2-.1-1.8-1S534,230.2,531,230Zm22.6.9c-3.3-.5-2.4,2.3,1,1.9s2.1.2,3.6-1.6-1.1.2-4.6-.3Zm-81.5-13.2c-2.7.3-2.9.9-.8,1.3s1.8-.1,3-.7-1-.7-2.2-.6ZM310.8,183.2a18.12,18.12,0,0,0-5.8,5.2,14.47,14.47,0,0,1-4.3,4.3c-2.2,1.7-1.1,1.3,5.8,2.2s6.4,1.7,8,1.4,1.9.6,1.9,1.6,1.5.4,2.2-1.2-.7-4.4-2.1-6.1-1.8-1.6-4-1.2-1.5-.4-2.3-1.6-2.1-.3-.2-2.2,2.4-3.3.8-2.4ZM98.3,179.9c0,1.6,2.3,4.3,4.1,5.1s1.4.4.6-1.5-.2-1.9-.5-3.1S98.3,179.3,98.3,179.9Zm11.7,8.6a18,18,0,0,0,4.3,2.9,19.27,19.27,0,0,0,5.6,1.8c2.6.5,3.7-.2,2-1.2s-.3-.9-3.2-1.4-3.6-.3-5.1-1S108.9,187.7,110,188.5ZM45,170.9c-1.9-.3-2.7-.4-4,.4s-1.7,1.4-1,2.2.3.4,2-.4.9-.9,3-1.3,1.7-.9,1.7-.9A3.26,3.26,0,0,1,45,170.9Zm-.7-1.8c-1.3.6-1.7,1-.3.8s1.2-.8,2.2-.7,1.2-.1,1.2-.1a5.45,5.45,0,0,0-3.1,0ZM7.5,164.9c-1.8.6-3.4-.1-2.3.4a9.46,9.46,0,0,0,3.7.8c1.2-.1,1.9-.1,1.5-.5s-.6-.5-.6-1S9.2,164.3,7.5,164.9ZM596.9,337.2c-2,3.2-6.3,1.6-9.7,4s-2.9,1.6-.3,4.9-2.1,2.9-3.3,6.7,1.4,3.1,2.8,6.3,2,2.3,4.6,1.8a17.11,17.11,0,0,0,4.4-1.3,43.3,43.3,0,0,1,2.1-7c1.7-4.2,2.9-7.2,3.2-9.9s.6-4.7,1.5-3.9,1,.9,1-.5-1-5.1-2.7-6C597.5,330.8,598.9,334,596.9,337.2Zm3-216.9c-2.8.4-4.1,1.7-2.1,2.1s1.8.2,5.2-.6-.4-1.9-3.1-1.5Zm52.1-36c-1-1.1-1.8.3-11.6,3.4s-9.7.4-18.8,5.6-7.1,4.5-7.7,7.6-2.7,1.8-3.5,4.6-5.5,3-3.2,5.3,5.4,3.7,10.3,4.7,6.3-.1,5.2-.4-4.8-4.5-4-9.2,3.2-4,5.3-5.8,7.7-6.3,11.3-7.9,12.9-3.6,17.6-4.8a.6.6,0,0,0,.4-.1c3.7-3.1-.3-1.9-1.3-3ZM625.6,116c-1.2.1-1.7.1.4,1.6s4,2.6,3.3.6A3.55,3.55,0,0,0,625.6,116Zm35-14.3c-1.5-.5-2.4-1.1-2.8-.2s1.8,2,3.8,2.3.5-1.7-1-2.1ZM294,190.4a22.47,22.47,0,0,0-6.2-1.5c-1.5,0,.3,1.2,2.8,2.1S295.4,190.9,294,190.4Zm-5.6,7c.1-1.4-1.3,1.6.5,2.3s2.7.8,3.8,0,.2-.3-1.3-.5-3.1-.6-3-1.8ZM986,148.9a16.66,16.66,0,0,1-5-.4,4.29,4.29,0,0,1-1,2.4,1.25,1.25,0,0,0-.3,1.6s-2.9-.9-4.5-1.3-3.2-.1-4.2-1.9-3.8-1.5-6.1-1.5a1.55,1.55,0,0,1-1.7-1.3,2.2,2.2,0,0,1,.1-.8h-1.4c-1.4.1-1.1,2.4-2.9,3.1s-7.3,1.2-7.3,1.2,3.5,1.8,4.2,3.3a15.35,15.35,0,0,0,2.1,2.9s-.3.7-4.6.1-4,.6-8.5,1.9a72.8,72.8,0,0,0-11,4.1c-1.3.7-1.4.3-5.3-.4s-4.8.8-5.8,1.2-.6-1.7-.6-1.7a11.34,11.34,0,0,0-3.2.6c-18.2,6.6-5.7,6.2-6.2,7.6l-1.9,5.1c-2.7,5.7-4.5,2.7-6.8,7.2-7.2,14.3-11.3-2.2-11.3-6,0-2.3-.7-5.3,1.4-6,17.9-5.9,1.7-.8,18.4-9,5.4-2.6,2.5-4.2,3.7-5a8.67,8.67,0,0,1,3.1-1l-3-.2c-3-.2-3,.3-5.4,2.1s-4.2,2.1-3.7.7.6-2.8-1.2-2.1-2.5.6-5.8,1.1a18.77,18.77,0,0,0-9.8,4.2c-3,2.6-1.3,2.3-.3,3s-4.7.5-7.4.3-1.3-.5.3-.9-2.4-.7-5.9-1.2-2.2.4-4.2,1-2-.5-3-.7-5.7-.4-8.9-.6-3,.2-3.9.9-7,4.6-9.6,6.8-5.9,2.6-8.9,4.6-3.4,1.9-1,2.2,2.7.2,3.1,1.8,1.5,2.1,4.1,2.1,1.8.5,2.3-.9-.6-3,1.5-1.7,3.9,2.1,4.5,3.9-.2,3-1.3,5.9-1.5,7.1-3,9.2-2.7,3.7-4.4,6-9.8,8.2-11.7,8.7-3,.6-3.9-.6-1.5-1-3.6.4-3,2.1-3.8,4.2-2.6,2.1-4.4,3.7-2.3,1.2-1,3,3.6,3.7,3.8,5.4-1.1,4.3-2,5.4-5,1.6-5,1.1a36.85,36.85,0,0,0,0-4.7c-.2-1.5-1.8-1.5-1.2-2s2.9-1.3,1.2-2.4-2.9-.2-3.6-1.5.3-2.4-.1-2.9-1.6-1-4.1-1.2-3,1.6-3.6.1.3-1.7-.9-2.3-2.1-.2-5,1.5-3.4,1.4-5.8,2.1-2.4,1.2-1.8,1.8,2.6,3.1,4.2,3.4,2.9-.5,5.4-.5,3,.3,2.4.9-2.4,1.4-5.5,3.6-2.2,1.8-1.1,2.7a19.07,19.07,0,0,1,3.7,3.8c1.1,1.7,0,2.4-.2,3.4a3.7,3.7,0,0,0,1.7,4.1c2.1,1.6.6,1.1.4,1.6s-3.8,5.1-5.3,7.4-1.6,2.5-6.8,5.1a25.29,25.29,0,0,1-10.3,3.2,48.35,48.35,0,0,0-6.6,1.4c-1.4.4-.9,1.3-1,1.8s-1.5,0-1.3-.7.1-1.4-.6-1.6a6.21,6.21,0,0,0-5.3.7c-2.3,1.6-5.1,1.7-6.1,3.7s-.8,1.3.3,2.2,6.1,4.3,7.3,6.1a8.78,8.78,0,0,1,1.5,5.2c.1,2-5.8,5.7-8.3,6.9s-3.1,2.4-2.7.5-1.1-3-3-4.4-7.4-2.6-8.5-2.8.4-1.3-.3-1.3-2.4-.3-2.2,1.6-1.7,1.3-2.1,3.1-.9,3.8.8,3.6,1.3,1.6,2.6,3.6.8.9,4,2.8,2.4,1.5,3.1,3.4.5,2.9,2.1,4.6,1.7,2.1-1,1.1a14,14,0,0,1-5.8-3.3c-1-1.2-1.7-4.1-2.3-5.6s-5-3.2-6.4-4.3-.6-1.9.2-4.3-.3-4.8-.6-6.2a35,35,0,0,0-2.7-7c-.8-1.4-.5-1.2-1.7,0s-2.2,2-3.4,2-3-.1-2.8-.7,1.4-2.7,1-3.5-1.5-3.3-3.2-4.2a10.66,10.66,0,0,1-4.7-4.2c-1.1-2.1-1.3-1.5-3.4-.4s-6.8,1.2-9.1,1.3-.4.9-1,1.7-3.2,1.8-8.6,5.8-6.2,4.1-7.6,4.5-2.3.3-2.2,1.9a13.41,13.41,0,0,1,0,4,6.1,6.1,0,0,1-1.5,3,15.06,15.06,0,0,0-1.4,3.5c-.2.9-1.4,1.9-3.1,2.8s-1.8.7-2.6-.6-5-6.4-8.3-11.1-2.6-5.6-2.9-7a70.58,70.58,0,0,1-.2-10.3c.1-.4-1.6,1-2.1,1.6s-.5,1.5-2.4,1.6a4.67,4.67,0,0,1-4.1-1.1c-1.8-1.3-2.6-2-2.3-2a11.33,11.33,0,0,0,3.6-.6c1.2-.4.8-.9.8-.9l-2.8.2c-1.5.1-.8-.3-2.9-.8s-2.5-.6-2.8-1.3a20.14,20.14,0,0,0-1.1-2.1c-.3-.5-.5-.5-.9-1.1s-1.3.1-3.5.1-1.7.1-4.4.9-3.1.5-6.1.4a24.26,24.26,0,0,1-6.6-1.4,18.1,18.1,0,0,0-4-.4c-2.2-.2-1.8-1-2.3-1.7s-1.5-.8-4.4-.7a12.46,12.46,0,0,1-4.7-.3c-1.7-.3-1.8-.7-3.2-1.7s-.9-.2-1.8-.7a5.71,5.71,0,0,1-2.5-2.6c-.7-1.4-.6-1.7-1.4-2.3s-.8-.5-3.3-.5-1.4.1-1.7.3a9.34,9.34,0,0,0-1.8,1.6c-.7.6.6,1.5,1.6,2.4s.1.8,1.8,2.1,1.1,1.2,2.3,3,1.9,2.3,2.2,2.8.5-.2.8-.7a6,6,0,0,0-.1-2.3,12.44,12.44,0,0,1,1,2c.5,1.3.1,1.3.5,2.1s0,.7,2,.7a24.49,24.49,0,0,0,5.4-.3c2.2-.4,3.2-1.8,4.2-2.2s1-1.9,1.7-1.8,0,1.8.7,2.8.8.7,2.3,1.1,2,.7,3.5,1.1.5.5,1.4,1.6.8.5,1.6.9.5.1-.1,1.4-.7,1.3-2.1,2.4-1.4.7-1.6.7-.6-.8-.6-.8a6.72,6.72,0,0,0-1,2.8c-.1,1.5.7,1-1.8,1.7s-4,1-5,1.6-1,1.4-1.5,1.8-1.3,0-3,.5a6.44,6.44,0,0,0-2.7,1.1c-1.4.8-.2.7-2,1.2a69,69,0,0,1-6.8,1.8c-1.6.2-1.3.4-1.8.9s-.5.7-2.6.9a31,31,0,0,0-6.1.9c-1.3.5-3.2,1.5-4.6,1.3s-1-.2-1.5-1.1a8,8,0,0,1-.9-3,11.64,11.64,0,0,0-2.1-5c-1.2-1.4-1.2-1.5-2.4-3s-2.1-2.7-3.3-3.3a14.72,14.72,0,0,1-2.2-1c-.5-.4-.2-1.9-.8-3.1a8.72,8.72,0,0,0-1.8-3.1,14.75,14.75,0,0,1-3.2-2.9c-1.2-1.5-1.2-1.6-2.9-3.9s-2.3-2.5-3.3-4.1-.4-1.2-.8-2.1-1.4,1.5-2.3,1.9-1.3.2-1.9-1.1-1.2-2.5-1.7-2-.9,1.1-.2,2.5,1,1.1,1.9,2.5,3.4,4.8,4.4,6.2a7.3,7.3,0,0,1,1.5,2.9,5.9,5.9,0,0,0,2.7,3.3c1.3.9,1,.4,1.6,1.9a10.92,10.92,0,0,1,.4,4c.1.9.8,1.3,2.3,2.2s.8.6,1.4,1.5a20.16,20.16,0,0,1,1.8,3.2,3.3,3.3,0,0,0,2,2,27.59,27.59,0,0,0,2.7.8c1.2.3.8.5,1.6,1.2s2.3,1.3,3.3,2.4.3.8.3,1.9-.5.6.1,1.2a17.94,17.94,0,0,0,3.9,2c2,1,.4.3,2.2.3a18.51,18.51,0,0,0,4.1-.7c1.9-.3,4.4-.8,6.8-1.2s4.7-.7,6-1,1.3.7.3,2.1-1.4,2.7-2.2,3.9-1.1,1.3-1.7,2.3-4.5,4.9-5.3,6.2a18.66,18.66,0,0,1-3,3.3c-1.2,1-5,2.9-6.7,3.9s-1.3,1-2.6,2.2-5.3,4.5-6.3,5.6c-.9.9-1.7,1.8-2.5,2.7-.8,1.1-3.1,2.8-3.2,3.6s-1.4.9-.5,1.7,1.5.8,1.8,1.8-1.1,2-.2,3.6.3.5,1.6,1.8,1.3,2.2,1.4,4.1a15.17,15.17,0,0,1-.2,5.2,19.12,19.12,0,0,1-1.6,3.2c-.6,1.1-4,1.9-5.9,2.5s-1.9.4-2.8,1.1-3.5,2.4-4.4,3.6-1.5,1.1-1.2,1.8c.6,1.1,1.3,2.1,2,3.2.9,1.4.3,1.3,0,2.5a14.55,14.55,0,0,0-.4,2.5c-.2,1.5-2.7,1.5-5.5,2.3s-1.8.4-2.1,1.5a22.62,22.62,0,0,0-.2,4.5c-.1,1.3-1,.8-2.5,2.3s-2.1,2.3-3.8,4.2a9.25,9.25,0,0,1-3.5,2.8c-2,1.2-3.7,1.5-4.6,2.8s-1.9.5-6.3,1.5-1.2.5-5.4.8-5.7.6-7.9.9-1.9-.1-3.3-1.1-1.6-1-2.2-1.9-.2-1.1-.4-2.7a3.22,3.22,0,0,0-1.2-2.6,15.29,15.29,0,0,1-1.7-2.7,13.86,13.86,0,0,0-2.3-3.1c-1-1.1-1.3-.7-2.2-1.4a3.26,3.26,0,0,1-1.2-2.3c-.2-1-.5-3.3-1-5.7s0-1.1-.6-2.1a33.54,33.54,0,0,0-2.1-3.6,26.93,26.93,0,0,0-2-2.7,19.41,19.41,0,0,1-2.1-2.9c-.9-1.5-1-.8-1.1-1.4s.5-1.6.5-2.6a21.07,21.07,0,0,1,.9-3.6c.4-1.5-.5-1.5.4-2.5a19.1,19.1,0,0,0,2.4-3.2,3.69,3.69,0,0,0,.5-2.7c0-1.5-.2-1.4-.9-2.6s-.9-2.7-1.6-4.7a14.26,14.26,0,0,1-.9-2.7,12.71,12.71,0,0,0-1.2-3.6c-.5-1.1-.8-.6-2-1.3a5.6,5.6,0,0,1-1.5-1c-1-.8-.8-1-1.8-1.8a8.13,8.13,0,0,1-1.9-1.8c-.8-.9-.4-.4-.3-1.9a46.19,46.19,0,0,1,1.1-6.3c.4-1.7.5-1.6-.5-2.4s-1.6-1.8-2.3-1.9-2.5.2-5,.1-2.4-.4-3.5-1.3-2.5-2.1-3-2.5-1.4-.3-5.7-.1-1.7.3-4.6.6-4,1.4-6.2,1.9-2.9.4-6.7-.1-5.8.6-7.8,1.2a5.27,5.27,0,0,1-4.4-.4,31,31,0,0,0-4.5-2.1c-2.2-.8-1.7-1.2-3.9-2s-1.5-.8-3.3-2-1.9-2.5-3.2-3.7-2.3-3-4-4.4-3.3-4-4.1-4.9-1.5-.9-1.4-1.3a42.6,42.6,0,0,1,2.3-3.8c.7-1.1.9-1,1.1-1.8a8.13,8.13,0,0,0-1-4c-.6-1.1-1.4-3.6-1.9-4.8s.3-1.2.9-1.8a44.82,44.82,0,0,0,3.6-4c1.5-2,2.4-3,3.2-3.9s2.6-3.8,3.8-4.6a36.59,36.59,0,0,1,5.6-2.8c1.3-.5,2.4-.7,2.6-1.2s.8-3.9,1.1-5.4-.1-2.3,1.4-2.8,3.9-1.6,5.1-2.1,1.4-1.2,2.1-2.3.9-2.4,1.9-2.9.7.2,1.9.8a4.79,4.79,0,0,0,2,.7c.6.1,1.1-.3,2.6-.4a4.34,4.34,0,0,1,2.5.5c.9.3.4.3,2.9-.8a42,42,0,0,1,7.8-2.6,41.53,41.53,0,0,1,7-1.5c1.5-.1.8,0,2.5.5s1.8.7,2.1.3a4.07,4.07,0,0,1,2.2-1.3c.7,0,1.5.3,3.4.5a6.57,6.57,0,0,0,3.4-.2,16.44,16.44,0,0,1,1.9-.8c.2,0,1.8.4,3,.7s1.3.4,1,.6a6.39,6.39,0,0,0-1.3,1.5c-.6,1-.3.5.3,1.5s1,1,.7,1.7-1.5,1.5-2.3,2.2-.7.9,1.5,1.7a28.64,28.64,0,0,0,4.1,1.5c2.4.8,2.5.5,5.4,1.1s2.5.7,3.5,1.5,1,1.6,2.8,2,3.5.4,4.5.9a12,12,0,0,0,3.1,1.3c1.3.2,1.3.3,2-.4s1.2-1.3.9-1.7-1-.9-.8-1.2c.5-.7,1-1.4,1.6-2.1.3-.4,1.2-.5,3.3-.6s3.6-.3,3.9.6.3.5,1.9.9,1.8.5,3.1.9.7.9,1.4.9a10.8,10.8,0,0,1,3.1.2,31.21,31.21,0,0,0,6.1,1.1,8.22,8.22,0,0,0,3.8-.6c.4-.1,2.1-1.6,3.2-.6s2.4,1.1,5,1,2.6-.4,3.2-.9a13.12,13.12,0,0,0,2.7-3.5c.5-1.2,1.9-3.9,2.3-5.1a4.76,4.76,0,0,0-.2-2.9,2.88,2.88,0,0,1,.5-2c.4-.8-1.3-.3-1.9-.2s-.8-.3-1.5-.4-1.3-.2-1.7.6-.2,1.2-2.7,1.1-2-.2-2.8-.8a7.49,7.49,0,0,0-3.3-1c-1.1-.2-1.2-.2-1.3.3s-.1.8-.9,1a9.52,9.52,0,0,1-4.1-.6,11.63,11.63,0,0,1-3.5-1.8c-1.5-1-1.3-1-1.9-2.6a5,5,0,0,1-.3-3.4c.3-.5.7-.6-.5-.4s-1.9.4-1.2-.8a2.74,2.74,0,0,1,2.3-1.4c1.2-.2,2.4-.2,3.5-.3a11.56,11.56,0,0,0,3.2-.8c.5-.2,1.6-.4,1.1-.5s-2.2-.2-2-.6.5-.3,1.4-.4,2.3-.1,3.5-.2,1.9.1,2.3-.4a5.81,5.81,0,0,1,1.8-1.7c.9-.4,1.9-.2,4.4-.3s2.1.4,2.9.8,1.3.2,2.4.4.4.6,1.2.8,2.3.5,4,.9.6.2,2.8.2a15.89,15.89,0,0,0,3.8-.2,10.25,10.25,0,0,0,3.7-1.3c1.2-.6.4-2-.1-3s-2.4-1.7-3.3-2.2-2.8-2-3.8-2.6a21.9,21.9,0,0,0-3.3-1.2c-1.1-.4-3.1-1.2-3.3-1.8s.4-.6,2.1-.9,1.1-.5,1.4-1.1.5-.6,1.8-1-1.6-1.1-2-1.5.9-.3,2.3-.5,1.5-.7,1.7-1.1.1-.6-1.5-.6a45.83,45.83,0,0,0-6.3,1c-2.7.5-1.5.5-3.1,1.4s-1.7.5-1.5,1,.3,1,2,1.6,1,.6,1.4.7,1.6.2,1.1.3-1,.7-1.7.7-1.1.5-2.3,1.1a8.87,8.87,0,0,1-2.8.7c-.9.1-1.6-.1-1.5-1.2s-.5-.4-1.5-.6a4.24,4.24,0,0,1-1.4-.6,11.76,11.76,0,0,0,2-.7,3,3,0,0,0,1.9-1.6c.5-.9-1.1-.4-2.2-.5s-.8-.2-1.9-.3a2.13,2.13,0,0,1-1.5-.7,7.08,7.08,0,0,0,1.4.1c.9-.1.7-.3,1.1-.4s.6-.3.3-.3a15.68,15.68,0,0,1-2.2,0,8.84,8.84,0,0,0-2.3,0c-1.1.1-.7.4-1.5.8a2.56,2.56,0,0,0-1.3,1c-.4.5-.6.4-.8.8a5.66,5.66,0,0,0-.3,1.8c0,.6-.2.8-.7,1.3s-.5.3-1.4.6-.3.5-.4,1.1a9.83,9.83,0,0,0-.5,1.6c-.1.8-.5.8-1.2,1.4s-1,.5-1.1,1.1a6.05,6.05,0,0,0,0,1.9c.2,1.1.6.8,1.8,1.9s1.8.7,1.4,1.3-.3.4-1.8.2a3.24,3.24,0,0,0-2.8.8c-1.1.7-1.3,1.1-1.8,1.4s-.4-.5-.6-.9-2.7-.5-4.3-.8a24.13,24.13,0,0,0-2.6-.5,6.39,6.39,0,0,0-2.8.6c-1.8.7-1.4,1.1-1.2,2s1.5,1.1,1.1,3.2,1.5,1.1,2.3,2.4.1,1.2-.4,1.3-1,1.3-1.3,2.3,0,1.2-.4,1.1a2.09,2.09,0,0,1-1.8-.7c-.8-.9-1.5,0-1.6-.6s-1.2-1.3-.8-2.5,1-1.3-.4-1.9-1.1-.7-1.8-1.9a6.82,6.82,0,0,0-2.2-2.6c-1.3-1.1-1.2-.8-.8-2s.6-2.6-.2-3.4a27.6,27.6,0,0,0-6.8-4c-2.7-1-3.3-.2-4.5-1.9s-1.8-3.4-3.8-4.4-1-1.1-2.9-.6-2,.7-1.8,1.1a2.36,2.36,0,0,1,.3,2c-.3,1.1-.7.7,1.3,1.6s1.2.7,2.2,2.2a8.18,8.18,0,0,0,2,2.5,4.59,4.59,0,0,0,3.1,1.5c2,.3,1.7-.1,2.2.3s-1.4.5-1,.6A20.13,20.13,0,0,0,510,213c1.7.7,3.4,1.5,3.8,2.1s1.9,2.8-.2,1.2-2.2-.9-2.8.2.6,2,.5,2.8-1.1.5-1.8,1.2-1,1.4-1.8,1.9-.5-.5-1-.5-.6.4-1.2,1.2,0,1.1.2,2.1.6,1.1-.9,1.1-1.2-1.1-2.6-1.8-2.3-.4-3.5-1,.5-.7,3.5-.9,3.4-.5,4.3-1,.6-.6,1.6-1.6,0-1.4-.7-2.6a5.2,5.2,0,0,0-2.4-2,18.82,18.82,0,0,1-2.3-1.6,7.6,7.6,0,0,0-3.3-1.1c-1.5-.3-1.2-1.2-2.1-1.5s-1.7-1.1-3.6-2.4-1.2-2.2-2.1-3.3a4,4,0,0,0-3.7-1.9c-1.9,0-3.4.9-5.3,2.3s-1.5,2-3.8,1-3-.9-4.6,0-1.9,1.9-1.9,3.8-1.9,1.1-3.4,1.6-2.9,1.9-5.2,5,.2,1.6-.3,2.7.2,1.9-2,3.3-1.2-.2-2.5.9a7.94,7.94,0,0,1-6.1,1.8c-3-.3-2.2.6-4.1.9s-3,.8-2.5-.7.1-1.3-3.6-1.2-5,.8-4.6.4a5.81,5.81,0,0,0,.9-2.5c.4-1.5,1-2,.4-2s-1.8.2-.9-2.4,1.2-3.1.8-4.6.1-3.6-.3-4.5,1-1.8.3-2.3-1.4-1.1-.9-1.1a42.1,42.1,0,0,1,5,.4c2.6.3,5.2-.3,6.7-.2s4.7.6,7.9.9,3.1-.3,2.8-3.6.2-4.9-.7-5.6-2-.6-3-1.5-.3-2.2-2.5-2.7-4.7-.1-3.5-.4,1.7-.4.4-1.1-1.6-1.4-.6-1.5,3.7-.1,3.7-.1.2.9,1.7.5,3.3-.8,2.9-1.5-1.1-1.5-.9-1.5a5.69,5.69,0,0,0,3.8.9c3,0,2.8-.3,2.6-1.2s2-.9,3.5-1.6-.6-1.6-.2-2.3,2.1-1.1,5.2-1.3,2.5-.5,2.2-.8.1-1.4.3-2.8-.2-1.9,1.4-2.6,1.1-.4,4.4-.6,1.3-.7,1.8-.8,4.5-.8,5.2-1,.6-.2,0-1.2-1.5-1.6-2.2-6.2-.6-4.6,3.4-5.5,3.1-.6,2.8,2-2.1,2.6-2.5,4.5-.1,3.1,1.6,5.1,1.5,1,5.1,1,2.8.6,5.2,1.2,1.6-1.1,3.9-1.6,1.8.4,7.3-.2c2.1-.2,2.8-.3,2.9-.3-.2,0-.8,0-.2-.2,1.3-.5,1.6-1.5,3.4-1.6s3.1.4,3-1.6-1.1-1.7-.8-3.2.4-.9.6-2.1-.2-1.4,2.1-1.9.7,1.5,3.5,1.9,2.4.7,2.9-.8,2-3.6.6-3.4-1.7-.1-3-1.5-2.2-1.7-1.3-1.7a73.37,73.37,0,0,1,8.1-.5c4.2.1,5.4.4,5.7.1s-.7-.6.7-1.3,6.2.3,5.4-.3-4.9-1.4-7.7-1.1-9.6.9-10.6.8a9.5,9.5,0,0,1-3.4-.9c-.5-.4-2-.6-2-2.4s.9-2.4-.6-4.1,2.6-3.1,5.4-4.9,2.1-3.3,3.8-3.4,2.3-.7,1.5-1.3-3.8-2.6-5.2-2.8-3.6-1.4-5.8,1.4.2,3,.6,4.4-3.1,2.5-5.8,3.8-3.6,1-4.4,4.4-1.6,3.5,1.3,4.6,3.5,1.7,2.2,2.8-4.2,1-6,3.3-1,3.5-1.8,4.6-3,1.5-3.6,2.6-.6,3.1-3.4,2.8-1.2-2.9-2.4-4.2-2.2-2.4-3.6-4.1-.3-3.2-1.7-4.1a3.94,3.94,0,0,1-1.7-2.5l-.5.8c-.5.8-.2,1.3-3,3.6a10.33,10.33,0,0,1-8.8,2c-2-.6-1.7-2-1.7-3.7s-.5-4.1-.1-6.8,1.5-2.5,5.8-4.3,4.3-1.7,5.4-2.9,4.1-2.8,5.8-3.9,4.8-5.1,6.4-7.9,4.5-4.6,7.4-7.7,8-5.8,14.5-7.7,5.4-2.2,6.9-3.7,2.2-.6,4.7-1,2.2,0-.4,1.8-3.7,3.7-1.5,2.3,3.8-3.1,7.2-3,2,0,5.3,1.1,3.8,1.2,2,2a12.09,12.09,0,0,1-5,.6s1,1.8,4.1,2,4.7-1.7,6.7-1,2.5,1.3-.2,1.1-3.5,1.1-.2,1.9a36.13,36.13,0,0,0,8.1,1.4c4.4.4,6.3,2.7,9.7,3.7s7.3.2,6.2,2.3.9,4.3-5,5.3-5.7-.3-10.5-1.4-8.3-2.1-8.3-2.1a29.72,29.72,0,0,0,3.5,2.7c2.2,1.5,2.5,2.9,2.2,5.6s-1.3,3.4,2.5,4.8,3.3.9,4.5.7,3.2-.5,2.7-.9a5,5,0,0,0-2.2-1.6c-1.3-.4-1.3-1.4-.1-1.9s2.5.4,5.3.3,0-.7,1.4-1.8,1.4-2.7,4.7-3.6,6.8.4,7.7-.6,1.8-2.2,0-3.7-3.3-2.1-2.2-2.8,3.4-2.7,4.4-1.6,3.7,2.3.3,2.1-1,3.5,2,3.3,2.8-.9,5.3-1.7,7.3-3.6,10.8-4.5,4.2-.6,5.5-.2,1.4,1.2,5.1.7,4.9-1.2,8.4-1.6-.2.9,1.4,1.3,1.8.7,3,.1,5-1.5,3.3-2.5-3-1.6-3-1.6a5.23,5.23,0,0,1,4.6-1.9c3.4.2,8.5,2.4,11.7,4a45,45,0,0,1,7.3,5s1.4-1.7.2-4.6-4.2-2.2-4.2-5-2.8-2-1.8-4,3.7-2.7,4.4-5.2,1.3-4.5,3.8-4.5,7.8.5,7.8.5a13,13,0,0,1-2,5.7c-2,3.4,1,3.8.6,7.9s-.6,4.6.8,5.6,3.9,2.1,3,3.9-1.4,2.9-5,3.9-8.1.4-6.5,1.2a19.77,19.77,0,0,0,6.2,1.7c2.4.3,1.2-.1,3.1-1.2s6.2-3.3,6.1-4.4-2.5-2.7-.9-3.5,2.2-2,4.7-1,4.9,4.8,4.9,4.6a8.94,8.94,0,0,0-3.4-5.8c-3-2.1-7.8-.1-7.8-2s1.4-4.4,1-6.4-1.4-4,.4-5.8a5.11,5.11,0,0,0,1.9-3.1,5.88,5.88,0,0,1,.2,3.7c-.6,2.1.3,3.3,1.7,3.3s7.4.1,4.2-.6-4.2-1.3-1-2.6,3.1-.4,7.9.4,5.9,1.4,7.5,1.3,1.4-.2.8-1.2a5.52,5.52,0,0,0-2.8-2.4c-1.5-.7-2.5.2-3-.9s-1.4-3.7-1.8-4.7,1.2-.2,3.8-.2,9.5-.3,14.9-.4.1-4.1-.3-6.9,9.9-2.9,14.9-3.4,10.9-.4,20.3-2,3.4-1.3,4.7-3.2,3.7-2.2,6.5-2.2,5.3.4,4.3.6-4.2,1.4.7,2.1,3.6.7,1,1.3-.4,1.8,4.5,1.8,2-.3,1.2-1.5.7-.7,4.8-.3,5.7,1,7.9,2.4,2.6,1.1,3.4,3.2-.1,1.8-3.5,3.7-5.5,1.9-10.5,4.1-3.8,3.4-6.5,4.9-2,1.1,3.8,0,8.9-1.8,11.8-1.5,4.4,1,6.6,1q3.45.3,6.9.3c7,0,6,0,3.4,1.4s.5,1.8,3.6,1.8,7,.1,9.8-.2.4-1.8,3.8-2,4.5-.3,8.2-.3,2.6,1.1,3.8,2,3,1.6,1.8,3.5-1.8,2-1.1,4.5,2.6,3,4.8,3.4,2.2-2.3,4.4-3.3,2.6,1.9,5.1,1.5a18.41,18.41,0,0,1,7.4.3,16.57,16.57,0,0,0,7,.3c3-.5,2.1-1.3,1-2.6s-1.1-1.2.8-2.6,3.2-.7,9.4.5,4.2,1.2,7.7,1.8,2.4.5,7.8,2.3,4.3,3.8,6.8,4.9,2.6,0,7.6-.3,4.9.4,10.3,1.4,4,2.3,4,3.4-1.5,1.9,1.8,2.5,4.7,1,7.6.5.3.5,6.7.6,4.2-.5,6.2.4,2.4,2.9,5.5,2.6,2.9-.2,1.6-2.1-2.1-2.3-.2-2.2,5.6.6,12.5,1.4,7.2,1.7,12.9,4.2,7.3,2.8,11.4,5a7.61,7.61,0,0,1,1.9,1.2,16.55,16.55,0,0,1,2.1.6c4.5,1.5,3.7,1,7.5,2.3a49.9,49.9,0,0,1,7.1,3.2C988.6,148.3,988.8,148.7,986,148.9ZM613.4,202.6s-.4.4,1.8-.9-1-.1-2.3-.3-1.7-.7-1.3-1.9-.2-1.2-1.5-2.7a2.76,2.76,0,0,0-2.2.3c-1.5.6-2.4-.6-4.2-.1s-3.8.3-5,2.2-2.4.7-2.8,2.3-3.8,2.4-3.8,2.4a16.9,16.9,0,0,1,2.4,1.9c1,1,.3.3,1.3,3.3s1.8,2.7,3.2,3.1c1.2.4,2.5.9,3.7,1.4,0,0-1.3-.6-1.3,1s-2.2,2.7-1.9,5-3,4.5-.4,4.7,1.8,1,4.5,1.5a40.22,40.22,0,0,0,8.5.9c4.1,0,1.8-1.1,1.3-2.8a17.26,17.26,0,0,1-1-4.5c-.2-1.8-1.1-1.3-1.8-2.4s.3-1.8,2.2-1.8,2.2,0,1.1-1.3-.4-1.7-1.7-2.2-1.8,1.8-1.8,1.8-.8-.5-.5-2.8.6-1.2-.4-1.6-1.5.1-2.8-1.4-.2-1.2-1.7-3-.7-.9,1-.9.8-.3,0-.8-1.4-1.5.8-1.4,5,.4,6,.5S613.4,202.6,613.4,202.6Zm-298-81.5c-.7.9,1.3,2.1,2.7,1.7s1.9,0,2.7-.4.9-1.1-.1-1.8-.6-1.1-.7-1.1C318.2,118.7,316.2,120.2,315.4,121.1ZM710.2,62.8c-2.2,0-4.6.1-2.6.6s1.2,2.9,5,1.5,3-1.4,5.7-2.2,1.1-.4-2.1-1C714.3,61.4,712.4,62.8,710.2,62.8Z" transform="translate(-4.84 -46.78)"/></g></g></g></svg>